<?xml version="1.0" encoding="UTF-8"?>
<svg id="Layer_1" data-name="Layer 1" xmlns="http://www.w3.org/2000/svg" viewBox="0 0 150.41 132.85">
  <defs>
    <style>
      .cls-1 {
        fill: #f29d24;
      }

      .cls-2 {
        fill: #d099c3;
      }
    </style>
  </defs>
  <path class="cls-2" d="M72.11,36.4c-.63-.79-1.65-.94-2.59-1.08-.04,0-.07-.03-.09-.04-.44-.3-.82-.68-1.24-1,.66-.56,1.04-1.42.67-2.28-.27-.8-1.02-1.2-1.77-1.48-.15-.12-.38-.32-.52-.44.91-1.31,2.71-3,1.28-4.4-.54-.41-1.23-.38-1.87-.23-1.27.22-2.43.8-3.66,1.17-1.17.39-2.39.6-3.55,1-.82.28-1.56.73-2.37,1.05-1.92.86-3.92,1.49-5.87,2.28-1.02.59-1.54.77-2.82,1.49-2.28,1.44-4.15,3.45-6.17,5.23,2.12-1.25,4.2-2.7,6.05-3.67,2.01-.98,5.08-1.81,6.05-2.04,2.08-.45,4.05-1.26,6.04-2.01.81-.27,2.33-.51,3.91-1.07.35-.11.66-.22.93-.32-1.28,1.67-.23,3.29,1.34,4.17-.61.37-.9.84-.93,1.32-.2.03-.41.06-.61.1-.16.02-.32-.02-.51-.05-.56-.1-1.13-.35-1.71-.17-.96.41-1.73,1.21-2.78,1.43-.05.02-.18-.06-.07.02.19.06.4,0,.59,0,.96.03,1.83-.75,2.69-.83.6.04,1.2.26,1.81.13.21-.06.41-.14.61-.22.15.68.74,1.33,1.55,1.74.51.3.87.8,1.39,1.1.54.38,1.18.55,1.83.61.09,0,.17.03.26.05.06.02.12.05.18.08h0c-.06.06-.13.11-.19.15-.02,0-.05.02-.09.04-.08,0-.15.03-.23.04-1.4.28-2.85.19-4.25.45-2.72.86-5.14,1.1-8.11,1.81-1.24.38-2.39.97-3.57,1.5-1.37.57-2.66,1.28-3.88,2.14-1.4.76-3.73,1.26-5.08,1.63,1.02-.04,2.03-.12,3.05-.2,1.48-.15,2.83-.62,4.15-1.31,1.34-.47,2.72-.82,4.06-1.31,1.38-.43,2.36-.64,4.23-.73,1.51-.18,3.03-.44,4.52-.74,1.53-.62,3.76-.28,6.09-.94,1.88-.83,2.61-2.5,1.23-4.21l.02.04Z"/>
  <path class="cls-2" d="M98.28,130.01s-.03-.03-.05-.05c0,0,.02.02.02.03,0,0,.02.01.03.02h0Z"/>
  <path class="cls-2" d="M109.64,123.51c-.05-.87-.52-1.61-.96-2.33-.64-1.36-1.25-2.74-1.76-4.16-.15-1.44.24-3.4,1.82-4.64.74-.74,1.59-.77,2.79-1.85,1.05-.89,1.96-2.57.88-3.77-.87-1-2.36-1.67-3.13-2.55-1.57-1.88-2.3-4.28-3.27-6.49.62,2.76.91,5.88,2.88,8.06.26.3,1.58,1.53,1.76,1.69.11.13.22.27.31.41-.05-.09-.05-.15.02.03h0s0,.01,0,0c0,.04,0,.08-.02.11.02-.07.04-.1,0,0v.05h0s.01-.03.02-.05c0,.02-.01.03-.02.06h0c-.1.13-.32.39-.42.52-.98.92-1.92.84-3.32,1.94-2.6,1.93-3.32,5.15-2.63,7.49.66,1.76,1.36,3.53,2.35,5.14.06.12.1.24.14.36.01.07.02.15.02.22-.31,1.53-.24,1.84-.83,2.83-.05.08-.09.14-.12.19-.44.71-1.01,1.33-1.59,1.93-.08.07-.18.14-.25.19-1.18.59-3,.46-4.86,1.3-.16.04-.26.07-.27.08-.07.01-.13.02-.2.02h-.05c-.2-.07-.4-.14-.59-.24-.02-.02-.05-.04-.07-.06.02.02.03.03.04.05h-.01s-.03-.04-.06-.06c-.03-.03-.07-.06-.1-.1.03.03.05.05.08.07-.01-.02-.03-.03-.05-.05-.17-.19-.32-.38-.45-.6-.48-1.1-.78-2.35-1.86-3.03-1.16-.82-2.84-.68-4.01.05-.75.45-1.19,1.22-1.39,2.05-.7-.87-1.38-1.75-2.02-2.66-.71-.97-1.21-2.26-2.3-3.86h0c-.56-1.21.07-3.23.48-4.71.47-1.35,1.03-2.67,1.71-3.92,1.74-2.14,2.57-2.8,4.54-4.56,1.25-1.17,2.73-2.07,3.84-3.4,1.27-1.64,1.99-3.74,1.96-5.82.03-1.28-.04-2.62-.74-3.74-.41-.8-1-1.5-1.45-2.28-.29-.49-.41-1.06-.54-1.62v.19c-.08,1.78,1.2,3.21,1.49,4.91.21,3.43-1.02,6.12-3.01,7.63-2.9,2.02-5.72,4.17-7.96,6.93-.92,1.39-1.55,2.96-2.12,4.52-.66,2.22-1.52,4.76-.46,6.99.9,1.55,1.01,1.57,1.8,3.09.66,1.19,1.51,2.26,2.36,3.33.52.68,1.01,1.45,1.8,1.83,2.02.74,2.97-.61,3.17-2.44.02-.04.03-.08.05-.12.02-.03.05-.06.08-.1.05-.04.12-.09.19-.14.04-.02.1-.05.17-.08.2-.03.47-.05.61-.06.07,0,.15.01.22.02.12.08.23.18.34.28.03.03.06.08.09.12.29.69.5,1.43.91,2.07.94,1.63,2.98,2.58,4.78,1.8,1.48-.58,1.53-.46,3.2-.8,1.39-.19,2.58-.9,3.44-2,1.62-1.67,2.53-3.95,2.58-6.27h-.03Z"/>
  <path class="cls-2" d="M110.97,107.89s.01.02.02.04h0s-.01-.02-.02-.03h0Z"/>
  <path class="cls-2" d="M85.14,86.94c.06.02.12.04.16.05-.11-.03-.15-.05-.16-.05Z"/>
  <path class="cls-2" d="M95.47,91.93c-1.49,1.3-3.06,2.51-4.74,3.54-.5.35-1.07,1.09-1.2,1.17-.01,0-.02,0-.04.01h-.01s-.01,0-.02-.01h0c-1.51-1.36-3.1-1.34-3.85.73-.4,1.15-1.61,2.32-2.07,2.5-1.43.37-4.11,1.14-6.28,2.05-1.39.68-3.35,1.65-3.96,1.64-.13.01-.3.02-.39.03-.27-.03-.42-.15-1.2-.47-.8-.36-1.69-.51-2.43-1-.79-.46-2.3-1.85-2.32-3.69.01-.15.04-.29.06-.43.04-.17.16-.72.21-1,.99-1.33,2.31-2.53,2.85-4.12.14-.51.2-1.05.19-1.58,1.22-.21,2.55-.02,3.65-.71.89-.45,1.67-1.09,2.35-1.82.06,0,.12,0,.15-.01.96.07.9.56,2.63,1.01,1.32.27,2.77-.36,3.57-1.43.22-.32.35-.68.45-1.05.21.33.44.65.75.89.44.31,1,.31,1.51.39,1.11.1,1.34.05,2.41.08h-.13c.75-.03,1.48.12,2.21.27,1.52.17,3.06.32,4.59.17-2.23-.21-3.95-.91-6.08-1.53-.99-.19-1.99-.29-2.96-.55-.13-.02-.25-.06-.23-.06-.1-.03-.2-.07-.28-.1-.27-.37-.49-1.2-1.12-1.87-.6-.51-1.55-.44-2.04.18-.39.49-.51,1.11-.74,1.68-.11.27-.78.71-1.38.58-.11-.04-.32-.11-.49-.19-.41-.27-.82-.56-1.29-.72-1.13-.43-2.59-.5-3.41.54-.43.46-1.23,1.17-2.11,1.47h-.04c-1.41.23-3.18-.05-4.19,1.17-.37.49-.38,1.1-.32,1.68-.02.27-.05.54-.11.81-.25.58-1.23,1.75-2.13,2.89-.39.44-.72.92-.8,1.52-.74,2.6.15,5.19,2.2,6.92,1.15,1.06,2.64,1.5,4.06,2.06,2,1.17,4.26.22,6.13-.74,1.68-.87,3.49-1.44,5.25-2.15,1.06-.38,2.26-.56,3.06-1.42,1.05-.94,1.73-2.24,2.09-3.59.03-.09.08-.18.13-.27h0c.08-.01.15-.01.22.02.55.19,1.88,1.76,3.26-.77.64-.81,1.59-1.37,2.29-2.24.64-.77,1.65-1.83,2.07-2.47h.02Z"/>
  <path class="cls-2" d="M136.57,112.39c.48-.34.98-.66,1.35-1.13.51-.65.96-1.36,1.29-2.12h0c.6-.88.99-1.87,1.08-2.94,0-.75,1.01-2.34.32-3.9-.35-.74-.96-1.32-1.69-1.69-.51-.21-1.07-.26-1.6-.39-.15-.05-.29-.1-.43-.16-.02-.01-.03-.02-.05-.04-.03-.02-.05-.03-.07-.05-.05-.06-.1-.12-.14-.19-.17-.37-.31-.75-.43-1.13-.07-.2-.35-.95-.47-1.23-.06-.71-.18-1.47-.8-1.92-1.27-.88-2.53-.09-3.61.67-.11.04-.25.1-.33.14-.05,0-.1.01-.15.02-.42-.21-.98-.71-1.77-1.37,0,0-.01-.01-.02-.02l-.03-.09c-.03-.15-.08-.37-.11-.49-.14-.41-.42-.82-.84-.99-.41-.19-.85-.18-1.3-.13.09-.7.05-1.42-.42-1.98-1.18-1.42-3.03-.44-4.43.06-.02,0-.03,0-.05.02-.66.09-1.32.21-1.98.32-.12-.03-.76-.12-.93-.17-1.87-.4-3.96-.9-5.6-.88-1.92-.33-3.9-.27-5.81.16-.46-.69-1.08-1.29-1.47-1.68-.07-.13-.15-.25-.28-.35-.51-.42-1.24.22-.97.79.1.16.19.3.28.43.02.19,0,.49-.01.87-.05.43-.35.92-.61,1.35-.07.12-.16.22-.29.26-.27.05-.58.05-.8.22-.35.41-.29,1.05-.27,1.56,0,.08.02.49.04.3.07-.49.14-.99.37-1.43.13-.26.6-.07.84-.13.26-.05.49-.21.66-.41.37-.41.74-.85.94-1.37.16.27.3.57.4.96v.03s.01.09.02.13c-.02.03-.05.06-.07.09-.04.03-.1.07-.17.11-1.69,1.17,0,2.87,1.42,3.19.36.04.72,0,1.07-.1-.35.66-.35,1.41.43,2.2.44.4,1.02.54,1.59.66,0,.04.01.08.02.12-.68-.28-1.88-.54-2.18-.61-.93-.24-1.7-.89-2.65-1.06-1.62-.3-3.31.19-4.8.8,1.68-.27,3.56-.49,5.04.34.59.42,1.66,1.23,2.59,1.5.87.35,1.2.48,1.57.8.45.45,1.27,1.57,2.28.47.41-.53.4-1.2.32-1.84-.07-.81-.02-1.74-.72-2.3-.49-.3-.69-.37-.87-.41.08-.06.16-.12.21-.15.77-.65,1.73-1.22,2.15-2.17.44-1.09-.43-2.32-1.54-2.49-1.16-.06-2.27.57-3.15,1.29-.74.64-.52.53-1.12.76-.02,0-.04-.02-.05-.02.08-.11.16-.23.22-.36.35-.77.08-1.58-.38-2.3,1.78-.04,4,.31,5.17.74,1.55.39,2.18.45,3.39.89,1.19.41,2.38.91,3.62,1.16,1.05-.05,2.12-.03,3.14-.31.74-.2,1.11-.32,1.34-.38-.07.38-.13.76-.09,1.16.11.89.91,1.75,1.84,1.75.25,0,.46-.02.63-.04.44,1.08,1.59,1.76,2.49,2.48,1.25,1,2.92.56,4.1-.33.19.77.55,1.51.79,2.27.4,1.26,1.42,2.23,2.73,2.47.22.05.84.19,1.09.23,0,0,.02,0,.03.01.1.07.2.16.29.24.03.04.07.09.1.13,0,.02.01.04.02.05,0,.03,0,.06.01.1v-.06h0v.24-.11c0,.06-.01.13-.03.21-.1.67-.5,1.43-.63,2.83,0,.04-.02.08-.03.13-.39.96-.22.48-.74,1.4-.48.99-.28.69-1.07,1.7-.13.11-.26.21-.4.3-.69.39-1.13,1.06-1.48,1.75-.03.03-.07.05-.11.08-.07.04-.19.09-.3.14h-.01c-.1-.01-.29-.03-.44-.07-.86-.31-1.73-.59-2.62-.81-1.5-.26-2.91-1-5.09-1.42-.03,0-.05-.01-.08-.02-.05-.04-.1-.08-.15-.13-.04-.05-.1-.12-.15-.2-.09-.18-.16-.38-.23-.57-.39-1.74-2.25-3.33-2.76-3.96-1.02-1.55-2.02-3.15-3.63-4.14-1.02-.71-2.06-1.57-3.37-1.58-.28-.01-.3.02-.7-.06-.09-.24-.13-.51-.2-.76-.19-.88-.77-1.58-1.53-2.05-.05-.03-.09-.06-.14-.08-.04-.02-.14-.05-.05,0,.06.03.12.08.17.13.36.36.68.76.89,1.23.24.64.06,1.36.34,1.97.37.49,1.09.38,1.56.6.61.24,1.06.61,1.52,1.08.89.84,1.15,1.02,1.75,1.78.97,1.15,1.16,2.39,2.18,3.66.73.88,1.24,1.53,1.39,1.95.3.73.39,1.55.84,2.22.51.9,1.44,1.36,2.43,1.51.38.06,1.84.54,3.06.98,1.96.42,2.24.56,4,1.13,1.53.5,3.29-.34,3.91-1.82.06-.08.11-.16.18-.24h-.01Z"/>
  <path class="cls-1" d="M103.69,113.22c.45-1.29.79-1.56,1.62-2.88.58-.75.58-1.77.58-2.68-.06-.79.02-1.62-.35-2.34-.47-1.01-1.24-1.88-1.52-2.98,0,.12.02.24.03.36.11,1,.64,1.97.85,2.91.04.14.07.44.06.52-.11.99-.2,2.07-.49,2.79-.24.64-1.62,1.72-2.21,2.84-.49.74-.65,1.62-1.01,2.41-.05.07-.1.13-.16.19-.23.18-.77.49-.89.56-.08.03-.15.06-.21.08h-.05c-1.13-.74-2.17-.93-2.72-1.44-.01-.01-.02-.02-.03-.04,0-.04,0-.07-.01-.1.02-.13.05-.26.08-.38.11-.41.27-.87,1.39-1.57.06-.03.13-.06.19-.09,1.23-.47,2.25-1.43,3.01-2.5.65-1.11,1.27-2.54,1.49-3.81.04-.93-.42-1.78-.84-2.58-.55-1.05-1.2-2.05-2.01-2.92.62,1.06,1.05,2.22,1.4,3.4.2.72.42,1.37.27,2.02-.41.88-1.08,2.02-1.55,2.66-.06.09-.29.33-.41.45-.43.4-.92.73-1.42,1.04-.02.01-.04.02-.07.03-1.02.29-1.98.76-2.72,1.54-.85.75-1.27,1.98-1.22,3.09.16,1.78,2.09,2.48,3.53,3.03.44.22.67.57,1.82.55,1.1-.17,2.1-.93,2.8-1.77.49-.7.57-1.56.78-2.37v-.02Z"/>
  <path class="cls-2" d="M83.43,92.8c-.76.3-1.46,1.46-1.87,1.77-1.01.84-1.94,2.1-3.34,2.06-.23.06-1.23,0-.97.09.68.15,1.37.4,2.07.32,1.35-.35,2.55-1.19,3.62-2.06.59-.58.67-.77,1.29-1.03,2.35-1.1,5.3-1.1,7.78-2.52-2.81.66-5.95,0-8.57,1.37h-.01Z"/>
  <path class="cls-2" d="M103.08,70.8c.65-3.27.83-7.36-.29-10.22.19,6-2.2,11.87-1.6,17.89.4-2.61,1.41-5.07,1.89-7.67h0Z"/>
  <path class="cls-2" d="M112.33,79.72c-2.75,1.42-5.88,3.57-8.67,5.49,3.37-1.22,6.79-2.64,9.72-4.72,1.43-1.28,3.09-3.6,4.03-4.68-1.86,1.06-3.3,2.72-5.08,3.91Z"/>
  <path class="cls-2" d="M123.77,98.33c-2.04-1.19-4.45-1.7-6.75-2.2,1.94,1.08,4.17,2.14,6.06,3.04,1.35,1.01,2.89,2.37,4.44,3.3-1.08-1.29-2.38-2.96-3.75-4.15h0Z"/>
  <path class="cls-2" d="M92.95,79.66c-.29-1.07-.39-2.47-.16-3.66-.86,1.64-.97,3.69-.2,5.39.78,1.65,2.15,2.89,3.21,4.35-.71-2.12-2.27-3.89-2.85-6.08h0Z"/>
  <polygon class="cls-2" points="81.98 59.84 81.98 59.84 81.97 59.83 81.98 59.84"/>
  <path class="cls-2" d="M42.08,81.55s-.07.06-.11.11c0,0,.02-.01.02-.02.03-.03.06-.06.09-.09h0Z"/>
  <path class="cls-1" d="M36.32,61.38c-2.66.43-4.63,3.4-5.36,5.77-.06.33-.19.29-.21,1.15.06.6.31,1.2.76,1.61,1.3,1.15,3.13,1.63,4.79,1.04,2.31-.94,3.32-3.56,4.26-5.7.65-1.54,1.32-3.08,1.76-4.69.35-.93.35-1.9,0-2.83,0-.02-.01-.13-.02-.08-.03.3.02.6.02.89-.27,1.86-1.61,3.34-2.48,4.93-1.12,1.8-2.5,4.21-3.58,4.96-.09.09-.3.22-.42.3-.03.01-.05.03-.08.04-.05.01-.07.02-.1.03-.04,0-.07.01-.11.02-1.11.19-1.08.06-1.76-.15-.35-.21-.17-.07-.76-.47-.19-.56,1.15-4.22,3.03-5.31.28-.21,1.17-.3,1.4-1.07.67-1.5,1.26-3.15,1.29-4.81-.06.02-1.9,3.71-2.45,4.37h.02Z"/>
  <path class="cls-1" d="M93.09,64.16c-.62.27-1.48.49-1.85.48-.3-.17-.63-.25-1.21-1.15-.1-.35-.9-1.58-1.2-2.31-.22-.74-.35-1.16-.46-1.93v-.02h0c.1-.12.2-.23.3-.34.07-.06.18-.16.26-.21.02,0,.04-.02.06-.03.57-.26.96-.2,1.69-.3,1.65-.31,3.36-.71,4.8-1.59-1.41.43-3.3.44-4.57.46-.84-.03-1.69-.2-2.51.08-.74.31-1.52.87-1.7,1.69-.09,1.4.24,2.88.95,4.09.52.81.44,1.04,1.25,2.01.81.9,2.09,1.57,3.27,1,2.39-.72,3.62-3.06,4.86-5.05-.09.04-2.55,2.26-3.95,3.13h.01Z"/>
  <path class="cls-2" d="M129.59,89.04c.02-.13-.07.16-.13.19-.15.14-.36.18-.55.25-1.06.32-2.6.68-3.37.44-.4-.16-.37-.13-.43-.27,0-.03.02-.05.03-.08.84-1.5.58-3.27.21-4.87-.1-.99-.98-1.47-1.89-1.54-1.36-.25-2.73-.42-4.08-.67.17-.16.37-.31.72-.53.35-.17.72-.28,1.07-.43.05,0,.09-.02.14-.03h.08c.08.03.15.07.22.11.56.45,1.23.79,1.97.71.18-.03.71-.11.94-.15,1.56.26,3.18.77,4.76.33,2.17-.56,2.99-4.32.24-4.63h-.13c-.14,0-.28-.03-.43-.06-.02,0-.04-.02-.06-.02-.04-.03-.08-.06-.12-.1-.07-.1-.27-.35-.34-.5-.05-.09-.08-.14-.1-.17-.02-.04-.05-.09-.09-.16-.6-1.1-1.78-1.85-3-2.07-.06,0-.14-.02-.21-.03-.2-1.18-.17-2.5-.96-3.48-.54-.72-1.49-.98-2.36-.87-.22-.22-.45-.44-.7-.64-.46-.4-.85-.89-1.34-1.25-.8-.65-1.92-.55-2.74.01-.88.38-1.7.86-2.49,1.38-1.23-1.24-2.97-2.09-4.72-2.17.72-.79,1.58-1.46,2.1-2.41.43-.8.26-1.89-.45-2.47-.24-.19-.52-.29-.79-.42-.22-.18-.45-.35-.66-.55-.05-.06-.1-.13-.13-.18-.04-.09-.07-.17-.1-.26,0-.04,0-.08-.01-.12.02-.05.03-.11.05-.16.22-.58.55-1.11.68-1.72.13-.77,0-1.56-.08-2.33,0-1.51-.24-.33.87-2.2.52-.72.7-1.57.9-2.41.15-.51.42-.99.5-1.52-.02-1.34.14-1.38-.11-2.99-.18-.8-.14-.5-.24-1.07-.12-.84-.15-1.75-.6-2.5-.39-.55-.99-.88-1.56-1.21-.7-.35-1.46-.47-2.23-.49.47-1.78.74-3.26,1.29-4.93.14-.44.21-1.01.28-1.41.15-.45.34-.9.38-1.37.05-.45.02-.9.02-1.36t0-.04v-.1.08-.05c.06-.75.37-1.46.38-2.22.05-.67-.03-1.32-.14-1.97,0-.1.02-.2.04-.3.04-.08.06-.13.07-.16.05-.08.11-.15.16-.22,1.02-.76,1.94-1.64,3.03-2.3.74-.49.85-.58,1.06-.67.78-.32,1.32-1.02,1.87-1.63.65-.74,1.21-1.53,1.5-2.48.24-.71.31-1.47.42-2.21.13.09.25.21.33.28.03.03.06.06.08.09.53.66.83,1.49,1.48,2.06,1.2,1.04,2.75,1.62,4.33,1.69,1.04.17,1.56.41,1.74.49.39.33.18,0,.6.64.14.51.49,5.03.44,5.14-.18,2.16-1.4,4.18-2.61,6.76-1.05,1.64-1.17,2.74-2.05,3.7-.8.97-1.02.86-2.28,2.36-.56.91-1,1.89-1.36,2.89-.03.05-.07.1-.1.14-.66.9-1.22.98-2.4,2.17-.41.45-.89.94-.82,1.6.07.59.6,1.09,1.2,1.07.6-.07,1.17-.29,1.62-.46-.06.71-.29,1.8-.7,2.79-.95,2.15-1.6,3.47-3.19,5.17-.91.71-1.89.95-2.87,1.8-.41.39-.79.98-1.06,1.38.2-.19.39-.38.58-.56,1.03-1.09,2.64-1.15,3.89-1.86,2.44-1.81,4.24-4.5,5.25-7.35.33-1.04.55-2.65-.18-3.43.31-.29.6-.59.84-.95.53-.91.82-1.94,1.34-2.87.01-.02.02-.03.04-.06,1.14-1.32,1.08-.91,2.48-2.59.88-1.08,1.19-2.48,1.96-3.64,1.03-2.11,2.24-4.22,2.78-6.52.43-1.89.07-3.81-.09-5.71.02-4.51-4.07-4.45-6.16-4.88-1.1-.42-1.47-.82-1.54-.88-.65-.93-1.16-2.04-2.19-2.62-1.07-.84-2.92-1.02-3.57.41-.48,1.68-.36,2.75-.84,3.7-.01.03-.02.06-.03.08-.17.24-.35.46-.53.69-.32.41-.66.8-1.02,1.17-.07.06-.12.09-.12.1-1.98,1.04-3.26,2.48-4.43,3.48-.9.79-1.27,2.13-.85,3.27.17.59.23,1.15.19,1.73-.25,1.11.05,2.38.06,3.36-.33,2.4-.46,4.81-.6,7.47-.56,0-1.12.02-1.67.06.03-1.24.1-2.47.17-3.7.04-.69.08-1.28.33-1.87.25-.78.9-1.73.35-2.5-.46-.48-1.14-.55-1.78-.39.67-1.76.67-3.31.31-5.19-.42-1.75-1.6-3.24-3.02-4.31-1.9-1.77-2.68-1.24-4.92-.6-1.02.33-3.99.15-3.9,3.12.08.93.62,1.74.94,2.6.49,1.4.51,1.85.38,2.13-.03.07-.06.13-.09.2-.03.03-.06.07-.07.09-.08.06-.16.12-.2.14-.13.07-.25.13-.37.21-.61.51-1.22,1.15-1.35,1.96-.05,1.52.79,2.95,1.97,3.87,1.09.76,2.43,1.04,3.7,1.34.9.21,1.8.48,2.73.39.29,0,.64.1.78.38.1.32.06.66.06.99-.11,1.04.18-.33.23-.74.11-.97-.93-1.14-1.66-1.24-.12-.02-.26-.06-.34-.08-1.24-.52-2.53-.95-3.7-1.62-.74-.42-.73-.36-1.41-1.33-.03-.05-.08-.13-.12-.19-.3-.72-.26-.64-.33-1.41.06-.07.14-.18.23-.27.09-.06.26-.2.36-.28.66-.28,1.25-.73,1.57-1.39.96-1.8-.07-3.9-.71-5.65-.03-.07-.05-.15-.07-.22h0s.01-.06.02-.09h0c.15-.05.3-.1.45-.14,1.16-.16,2.28-.52,3.4-.84.03.02.06.04.09.06.63.53,1.31,1,1.91,1.56.07.08.14.15.2.23.15.14.57.83.69,1.03.49,1,.37.93.56,2.16.11,1,.18,1.07.05,1.64-.19,1.04-.67,2.18-.25,3.22.25.87,1.39.72,1.82.09.37-.4.24-.28.6-.43.07,0,.11-.02.15-.02-.05.44-.26,1.25-.33,1.77-.06,1.78.29,3.57.53,5.33-.32.02-.65.04-.97.05-1.61.13-3.39-.16-4.84.68-.72.43-1.29,1.08-1.6,1.85-.15.19-.69.94-.85,1.11-.97,1.19-1.82,2.63-2.01,4.17-1.37.34-3.06.63-4.32.61-1.17-.08-2.32-.38-3.5-.45-1.22-.04-2.42.17-3.63.27-1.4.04-3.31.05-4.75.63-1.01.51-1.58,1.54-2.27,2.39-.04.05-.07.09-.11.14-.51-.15-1.05-.22-1.58-.32-.69-.05-1.39-.07-2.08-.04-.1-.07-.23-.16-.33-.24,1.06-.94,2.39-1.47,3.54-2.29.48-.4.99-.92,1.1-1.56.05-1.32-1.35-2.04-2.52-2-1.66.19-3.3-.71-3.93-1.55-.57-.95-.71-1.11-1.11-2.11.69-.25.87-.1,2.01-.63,1.06-.6,2.17-1.21,2.98-2.13.53-.82,1.01-1.8.85-2.81-.5-2.55-1.3-6.03-3.9-8.25-1.71-1.04-3.84-.95-5.76-.72,1.62.12,3.51.52,4.74,1.3.52.4,1.01,1.22,1.29,1.76.89,1.92,1.33,5.06,1.42,6.12,0,.09-.02.17-.03.25-.08.19-.3.59-.37.74-.03.05-.07.09-.09.12-.14.12-.29.24-.44.35-1.14.74-2.2,1.28-2.39,1.26-1.03.24-2.28.55-2.7,1.64-.46,1.03.28,2.02.75,2.9,1.14,2.3,3.72,3.77,6.29,3.37.64-.11.76-.15,1.34-.05.28.12.24.09.43.34v.02s.02.05.03.08v.04c-.46,1.3-2.47,2.32-3.52,3.82-.05-.04-.1-.08-.13-.11-.27-.3-.49-.64-.75-.94-1.01-1.03-1.1-1.01-1.74-1.72-1.07-1.44-2.55-2.69-4.33-3.04,0-.02.01-.04.02-.05.23-1.34.13-2.97-1.01-3.89-1.79-1.18-4.08-1.7-6.22-1.55,1.92.44,3.95,1.42,5.59,2.2.98.58,1.28,1.77,1.5,2.89.02.13.05.26.05.39-.15-.03-.29-.06-.44-.07-3.52-.11-5.18.16-6.96-.03-2.63-.14-3.12-.53-5.56-1.46-2.05-.64-4.23-.3-6.33-.22,1.93.32,3.96.35,5.76,1.17.84.34,1.53.95,2.36,1.36.87.42,1.8.69,2.74.88,1.79.38,3.64.57,5.47.59,1.7.03,3.01.06,4.24,1.16.38.36,1.69,1.97,2.86,3,.54.68,1.07,1.39,1.84,1.84.52.41,1.19.43,1.82.36h.2c2.47.21,2.23-.01,3.79,1.37.29.26.31.47,1.06,1.94.31.75.66,1.5,1.17,2.14,0,.03,0,.06-.01.09-.06.18-.13.36-.23.53-.08.13-.11.18-.11.18-.33.42-.53.95-.47,1.49.06.81.71,1.31,1.3,1.79-.03.3-.08.76-.14.98-.26.63-.07.3-.77,1.13-.22.25-.45.45-.78.55-.62.29-.95-.07-2.57.14-1.06.29-2.21.62-2.98,1.45-.14.13-.28.28-.41.43-.55-.8-1.24-1.59-2.31-1.44-.92.2-2.77.89-2.59.76-.08,0-.17.02-.25.03-.03,0-.05,0-.07-.01-.1-.03-.2-.07-.3-.11-.02-.02-.04-.04-.06-.05-.1-.12-.23-.33-.31-.48,0-.02-.01-.03-.02-.05-.02-.1-.04-.2-.05-.3-.16-.11.34-1.6-.15-2.59-.67-1.32-1.9-1.71-2.29-2.18-.02-.02-.03-.05-.05-.07-.05-.14-.15-.39-.17-.54-.02-.03-.06-.4-.29-1.15-.25-.8-.97-1.28-1.75-1.51-1.12-.56-.95-.5-1.63-.91-1.61-.98-1.7-1.28-2.9-2.27-1.79-1.11-2.5-1.27-3.9-2.39-.06-.06-.12-.11-.18-.17-.01-.02-.03-.03-.05-.06.21-1.16-.24-2.25-.84-3.23-.58-1.14-1.72-1.84-2.69-2.62-1.3-.91-2.78-1.51-4.17-2.28-.68-.76-1.67-1.15-2.6-1.52.2.12.39.25.59.39-.11-.04-.2-.06-.23-.04.23.09.43.24.62.39.33.32.67.63,1.02.92.27.36.51.74.68,1.12.4.71,1.09,1.55,1.38,2.17.68,1.01,1.84,3.56,1.95,4.34.07.09-.07.77-.12,1.51t-.01.05s-.01.03-.02.04c0,0-.01.01-.02.02-.03.03-.07.06-.11.09-.46.06-.92.17-1.39.18-.13-.02-.36-.06-.5-.07-.93-.32-1.33-1.04-2.76-1.7-1.21-.56-3.02-.42-3.35-.45-1.56-.2-1.24-.14-1.93-.55,0-.01-.02-.02-.02-.03-.03-.07-.07-.13-.1-.2.29-1.54.85-2.57.77-4.66-.11-1.98-1.77-3.58-3.48-4.41,1.38-.5,2.73-1.11,4.08-1.66-1.8.36-4.07.89-5.64,1.1-.51-.12-.93.55-.54.93.45.31,1,.47,1.48.76.62.43,1.07.91,1.75,1.82,0,.02.02.02.02.04.13.27.34.84.38.95.08.54-.28,2.23-.34,2.35-.3,1.02-.91,2-.86,3.09.15,1.11.92,1.98,1.9,2.44.02,0,.04.02.04.02.24.11.49.2.75.26,1.21.46,2.52.17,3.76.43h.01c1,.3,1.29.82,2.42,1.38.06.47.06.98-.19,1.39-.34.75-.32,1.61-.56,2.4-.37.81-.8,2.03-1.07,3.02-.45,1.53.07,3.07.33,4.58.18,1.58.41,1.66.62,3.25.07.75.25,1.49.28,2.24-.03.79,0,.42-.3,1.4-.2.82-.31,1.28-.96,2.58-.07.11-.1.16-.11.17-.22.36-.45.72-.73,1.03-.31.33-.63.66-.95.98.07-.06.08-.05-.09.09-.02.02-.05.05-.07.07.02-.02.03-.04.05-.05h0c-.4.4-2.33,1.68-2.67,1.91-1.01.48-2.09.84-3.06,1.42-1.22.86-1.78,1.46-2.6,1.77-.17.01-.55.05-.75.05h-.14c-.97-.04-3.28-.91-3.85-1.35-1.06-.92-3.22-2.89-3.33-3.1-.04-.07-.07-.11-.08-.13-.37-.75-.81-1.46-1.27-2.16-.3-.59-.57-1.2-.96-1.74-1.03-1.26-1.65-1.52-1.87-2.12v-.02c-.01-.51-.15-1.01-.21-1.51,0-.14.01-.28.04-.41h0c.06-.24.19-.7.21-.87.01-.16.1-.58.15-.81.77-1.78,1.22-3.25,1.94-4.19,1.09-1.51,2.45-2.36,4.59-3.6.74-.44,1.61-.83,1.94-1.69.38-.91.15-1.84-.2-2.71h0c.64-.47.33-.21,1.24-.7,1.02-.49,2.13-.88,2.94-1.71.94-1.04,1.17-1.54,1.69-3.05.28-.89.2-2.73.23-3.16.13-1.85.02-3.74.45-5.56-.87,1.98-1.16,4.19-1.59,6.3-.26,1.8-.65,2.6-1.65,3.78-.3.44-1.44.93-2.88,1.39-1.34.46-3,1.31-2.81,2.97.07.43.21.85.33,1.28,0,.04-.01.09-.02.12v.02s-.09.07-.15.1c-.23.13-.79.44-.92.51-3,1.56-5.74,3.89-6.76,7.22-.57,1.2-.93,2.24-1.12,3.55-.38,1.17-.04,2.41.16,3.58.76,1.75,1.87,2.1,2.5,3.19-.02-.03-.01.02.09.19.35.8.84,1.53,1.31,2.27.23.45.42.93.75,1.32,1.07,1.18,2.32,2.18,3.47,3.28,1.04.84,2.31,1.3,3.58,1.65,1.2.44,2.55.58,3.79.26,1.25-.47,2.24-1.39,3.32-2.14.8-.38,1.62-.71,2.42-1.08,2.93-1.63,5.7-3.98,6.73-7.28.27-1.23.64-1.48.7-3.16-.22-2.91-1.06-4.93-1.66-7.22-.63-1.86-.55-2.31-.09-4.56.12-.48.19-.6.31-1.35.04-.7.06-1.25.06-1.66,0-.57.3-.98.18-1.6-.01-.11-.03-.21-.05-.32.98.35,2.03.19,3.02-.09.06-.01.13-.03.21-.04.31-.05.59-.18.84-.37.77-.56,1.08-1.47.98-2.41,0-.74,0-1.5-.36-2.17-.92-1.87-1.96-3.36-3.29-4.79.51.39,1.02.78,1.51,1.19.59.65,1.23,1.14,1.91,2.12.05.13.31.67.35.8.03.13.24.7.3.86.13.55-.48,1.49.2,2.45,1.21,1.77,3.37,2.45,4.89,3.86.25.24-.04-.04-.12-.13,1.37,1.49,3.19,2.54,5.03,3.36,0,.01.01.03.01.04.16.72.29,1.47.69,2.1.19.23.37.42.55.59-.85.48-1.64,1.08-2.15,1.89-.4.9-.33,1.92-.54,2.87-.04.76-.31,1.19-.41,1.96-.09.62.17,1.18.51,1.67.21.36.38.82.65,1.17.24.29.49.58.74.86-.27.02-.55.01-.85-.03h.17c-.41,0-.82-.02-1.22-.02h-.04c-.65-.05-1.29-.22-1.94-.2-.6.13-1.3.23-1.75.68-.4.46-.27,1.21.2,1.57.31.25.7.33,1.08.41,1.15.41,1.06.34,1.89,1.07,1.83,1.42,3.41,3.16,5.3,4.5,1.63,1.07,3.73.99,5.57.63,1.4-.44,2.87-.75,4.19-1.41,1.44-.77,2.54-1.76,3.58-2.18,2.42-1.1,4.04-1.23,6.53-1.88.6-.23,1.24-.29,1.87-.29.1.13.21.26.32.39.07.07.14.14.21.21.02.02.07.08.14.15.92,1.23,1.5,1.64,2.28,2.54,1.56,1.8,2.64,3.95,3.85,5.99-.76-2.91-1.62-5.9-3.62-8.22-2.36-3.12-3.1-3.72-1.66-5.56.08-.15,1.12-.74,1.94-1.04.88-.2,1.79-.66,2.32-1.4.08-.15.08-.36.08-.51.29-.17.71-.44.92-.57.29-.2.56-.15.6-.4.04-.12-.06.09-.11.11-.19.02-.38.04-.57.1-.4.18-1.13.19-1.35.58-.05.2-.09.4-.25.45-.32.16-.6.28-.88.36.73-.75,1.19-1.75,1.54-2.73.26-.93.56-1.88,1.16-2.27.27-.17,1.27-.26,2.2.07.95.22,2.16.39,2.91.58-.75.88-1.58.97-2.63,1.74-3.49,2.3-.6,4.64.13,6.17.45,1.15,1.08,2.21,1.48,3.38.29,1.23.45,2.47.58,3.72.22,1.32.72,2.71.55,3.84-.06.54-.48,1.15-.94,1.73-.49.52-.97,1.05-1.44,1.57-.39.39-1.16.68-1.51.85.78-.13,1.59-.34,2.18-.89,3.69-2.43,3.08-3.79,2.93-7.26,1.9-.78,3.72-1.74,5.43-2.78,1.61-1.44,2.34-2.26,4.23-3.92,1.37-1.28,2.99-2.26,4.57-3.26,1.85-1.26,2.39-1.55,4.25-2.46h0s-.03.02-.01,0h.01s.11.09.16.14c1.01,1.03,1.25,1.15,1.85,1.77.52.39,1.19.44,1.82.37.02.03.04.06.05.08.39,1.05-.14,4.19,2.58,4.28.08.01.15.02.2.04.12.04.23.07.34.13.16.11.32.22.48.34.04.03.07.06.1.09.19.24.88,1.78,1.97,2.24-.23-.02-.57-.06-1.13-.09-1.06-.18-2.11-.63-3.19-.27-.05.01-.1.02-.16.02-.02,0-.04-.01-.06-.02-.42-.31-.88-.57-1.39-.68-.88-.22-1.74.17-2.52.54-1.24.55-2.04,1.68-2.82,2.74-.03.03-.06.06-.09.09-.11.11-.29.28-.38.36-.28.23-1.13,1.2-1.27,1.38-1.41,1.17-3.26,2.33-4.65,3.18-1.12.47-2.1.32-3.39.74-.74.35-1.27,1.01-1.97,1.42.7-.25,1.29-.72,1.99-.96,1.27-.26,2.56.19,3.96-.29,1.84-.82,3.77-1.6,5.4-2.8.63-.65,1.38-1.17,2.05-1.78.56-.6.77-.89,1.03-1.14,1.44.75,3.36,1.38,4.56,1.87.24.05.18.72.3,1.47.15,1.34.17,1.42-.02,2.57.02-.09-.27.73-.3.98-.03.34.1.68.32.94,1.33,1.26,3.35.18,4.68-.58.3-.2.74-.38.75-.79v-.03ZM85.74,78.19c.19.38.4.76.65,1.1-1.12-.18-2.17.01-3.33.04-1.8.12-3.64.21-5.38.75-1.31.35-2.44,1.09-3.66,1.67-1.26.55-1.42.43-2.9.8-1.65.4-2.2.53-4.11.26-1.01-.08-4-3.11-6.57-4.82.99-.08,1.99-.22,2.9-.6,1.76-.98,2.97-2.75,4.81-3.6-2.46.62-4.02,2.59-6.18,2.77-.07-.15-.13-.3-.2-.45-.36-.63-.46-1.35-.69-2.04-.16-.43-.23-.59-.14-1,.22-.64.63-1.6.7-2.44.18-.84-.02-1.78.32-2.45.38-.53.92-1.15,1.51-1.72.57.46,1.03.67,1.19.93v.02c-.11,1.15-.19,2.41.5,3.4,1.43,2.64,4.43,1.45,5.66.99.34.49.68.98,1.24,1.24.44.22.94.36,1.42.29-.23.76-.72,1.61-.57,2.83.28,1.73,2.08,3.37,3.88,2.75,2.08-.46,3.44-2.37,5.52-2.8.32-.11,1.43-.24.59-.24-1.68-.16-3.26.47-4.74,1.21-.74.25-1.7.46-2.17.38-.05-.02-.12-.05-.17-.08-.07-.04-.14-.08-.21-.11-.07-.04-.16-.1-.21-.15h-.01c-.08-.14-.28-.44-.36-.55-.55-.98.25-1.36.7-3.57.2-1.3.03-.97.37-1.42.36-.08.72-.15,1.09-.18.37-.03.73-.08,1.07-.14.56,0,1.08-.09,1.55-.25.4-.05.76-.06,1.08.01.61.03,1.89.94,2.99,1.52,1.18.47,2.45.73,3.71.82-1.72.81-2.74,3.04-1.9,4.81l.05.02ZM82.45,68.95c.4-.6.66-1.3.79-2.03.1.17.2.34.3.51.94,2.02,2.81,4.33,5.1,5.59-.3.09-.6.19-.9.3-.02,0-.03.02-.05.02-1.24-.41-2.48-.94-3.49-1.68-.77-.68-1.52-1.44-2.43-1.9.23-.24.46-.51.68-.82h0ZM97.12,66.16c-1.1-.01-2.22-.35-3.31-.05-1.67.24-2.2,2.03-2.27,3.5-.15,1.06-.41,2.16-1.03,3.05-.27.07-.55.11-.87.11-.25.05-.5.11-.75.18-1.85-1.71-3.24-3.86-4.76-5.87-.26-.32-.55-.62-.83-.93,0-.32,0-.65-.06-.96-.12-.61-.59-.99-1.06-1.36.54-.92.88-1.99.44-3-.16-.37-.46-.64-.67-.98h0s0,.01,0,0c-.03-.05-.06-.1-.09-.15.02.03.06.08.08.14-.56-1.13-1.01-2.33-1.71-3.38-.66-.78-1.43-1.47-2.33-1.96-.09-.04-.19-.07-.28-.11.18-.14.36-.27.53-.42.68-.52,1.2-1.07,1.99-1.28,1.24-.08,2.62-.06,3.98.07,1.15.06,3.86-.38,4.25-.36,1.21.06,2.44.12,3.63-.09,1.34-.35,2.64-.87,3.84-1.58-.05.41-.06.83,0,1.25.03.21.09.42.15.63.02.09.02.2.03.28-.1,1.62-.26,3.29.22,4.87.43.92.58.86.84,1.71.1.28.13.64.14,1.03v.2c0,.67-.02,1.4.13,1.99.45,1.13.33,2.34.03,3.48-.09,0-.18-.01-.27-.02h.01ZM112.55,71.32c-3.15,2.08-5.57,4.99-7.83,7.98-1.35,1.26-3.2,2.6-4.9,3.74-.01-.26-.02-.52-.02-.8.06-1.22-.06-2.46-.31-3.66-.32-1.1-.8-2.13-1.17-3.21-.37-.96-.99-1.8-1.53-2.67-.02-.04-.04-.09-.06-.15v-.02s.07-.08.1-.12c.25-.22.5-.45.77-.63,1.57-.93,3.76-2.32,3.09-4.46-.23-.6-.86-.86-1.46-.96-.52-.08-1.04-.14-1.57-.17.56-1.22.84-2.55.57-3.89.09-1.01.37-2.02.25-3.05-.06-.7-.36-1.32-.62-1.96-.18-.89.01-2.26.32-4.11.11-1.02-.17-1.55-.06-1.92.12-.68.51-1.65,1.07-2.33.68-.93,1.57-1.74,2.02-2.82.02-.02.04-.05.06-.07.14-.12.28-.24.44-.34.09-.04.18-.07.27-.1.19-.03.54-.09.7-.08,2.29-.07,4.02-.25,5.59-.19.67.14.46.02,1.27.57.37,2.43.64,2.73.56,4.68,0,.04,0,.09-.01.13,0,.02,0,.03-.02.05-.45.99-.68,2.45-.8,2.51.04.14-1.51,1.77-1.49,3.08-.05.85.15,1.69.16,2.53,0,.04,0,.08-.01.13-.02.04-.04.1-.07.16-.32.74-.76,1.5-.72,2.33.07,1.36,1.02,2.51,2.19,3.17-.26.31-.64.71-1.04,1.18-.8.87-1.3,1.95-1.78,3.02-.53,1.16-.71,2.43-.97,3.66-.24.79-.56,1.56-.87,2.32-.25.54-.34.58-.66,1.13-.61.94-.84,2.04-1.25,3.07-.44,1.1-1.08,2.1-1.76,3.06,1.34-1.09,2.84-3.4,3.3-4.47.39-.69.95-1.24,1.42-1.87.44-.64.79-1.34,1.16-2.02.57-1.15.56-1.57.86-2.38.29-.86.71-1.66,1.17-2.44.01-.02.03-.06.07-.13.2-.37.45-.69.73-.99.86.27,1.61.8,2.44,1.15.75.35,1.52.64,2.25,1.04-.63.42-1.25.88-1.86,1.34v-.02Z"/>
  <path class="cls-1" d="M121.55,33.07c-.1-1.03-.29-2.14-1.2-2.77-1.11-.8-2.28-1.81-3.75-1.7-.84.15-1.65.55-2.38.98-.73.67-1.22,1.63-1.45,2.58-.32,1.21.45,2.39.47,2.97.12.76-.13,1.71-.32,2.72-.31,1.51-.36,3.12-1.09,4.5,1.02-1.1,1.45-2.58,2-3.94.39-1.04.92-2.08.96-3.22.02-1.35-.41-2.09-.22-2.34.2-.73.12-.56.86-1.55.02,0,.03-.02.05-.03.02,0,.03,0,.05-.02.41-.13.81-.31,1.21-.47h.12c.08,0,.18.02.26.04.3.09.59.23.86.39.22.14,1.17.71,1.43.93h.01c.9,1.37.22,4.9-2.05,8.15-.19.31-.46.73-.6.99.14-.13.27-.27.41-.4,2.2-2.03,4.36-4.65,4.37-7.79v-.02Z"/>
  <path class="cls-1" d="M131.72,77.61c.53.08,1.03-.12,1.53-.26,2.21-.8,3.65-3.48,2.99-5.75-.53-1.44-2.01-2.09-3.18-2.93-2.36-1.46-5.02-2.41-7.78-2.61,0,0,4.94,1.77,7.71,4.9.98,1.1.9.59,1.23,1.38v.07c0,.15-.02.31-.04.46-.23,1.59-1.2,2.46-2.29,2.72-.06-.02-.12-.04-.18-.08-.02-.02-.05-.03-.08-.05-.07-.05-.11-.08-.15-.11-.08-.11-.16-.24-.23-.36-.71-1.31-1.51-2.54-2.56-3.61-.97-1.21-2.13-2.49-3.73-2.76-.2-.04-.45-.09-.62-.12.44.22.91.39,1.31.69,1,.78,1.62,1.92,2.14,2.9.45.77.81,1.24.99,1.68.44.94.72,1.97,1.29,2.84.43.47.98.87,1.62.98l.03.02Z"/>
  <path class="cls-2" d="M142.03,90.38c.13-.98-.92-1.53-1.77-1.54-.4,0-1.07-.02-1.28-.16-.08-.06-.15-.14-.21-.22h.01c.79-.16,1.55-.45,2.3-.74,1.2-.54,2.5-.8,3.09-2.06.63-1.79.73-3.18,1.3-4.73.98-2.8,1.76-6.19.03-8.86-.65-.82-1.33-1.61-2.23-2.17-.74-.49-1.46-1.1-2.35-1.3-1.04-.22-1.59.11-2.16-.06-.03,0-.04,0-.06-.01.02,0,.03,0,.06.02-.02,0-.05-.01-.07-.02-.1-.02-.12-.03-.07-.02-.07-.02-.14-.04-.21-.06-.06,0-.14-.04-.21-.07-.63-.48-1.24-.98-1.91-1.4-1.62-1.06-3.51-1.53-5.31-2.16.56-.6.87-1.43,1.06-2.24.28-.79.27-1.74-.06-2.52,1.1-.24,2.21-.54,3.19-1.08.72-.38,1.26-.99,1.91-1.47.28-.16.7-.43,1.44-.49h.01c.22.08.44.18.66.27,2.89,1.02,6.07-.64,7.4-3.29.58-1.83.81-3.96.48-5.85v-.03c.02-.23.07-.56.11-.8.19-.08.37-.15.56-.23.97-.41,1.89-1.08,2.43-2,.34-.65.28-1.4.06-2.08-.23-.82-.62-1.61-1.24-2.21-.87-.89-2.12-1.08-3.3-1.19-1.06-.09-2.14-.09-3.15.27-.96.26-1.52,1.08-2.19,1.74-.09.09-.51.48-.75.67-.5.05-.25.06-.9-.03h0c-.13-.08-.29-.19-.39-.25-1.03-.75-2.33-1-3.41-.21-.79.65-.48.49-.91.84-.06.06-.14.12-.21.16-.09.04-.18.08-.27.11h-.09c-.31-.02-1.34-.21-1.55-.23-.86-.33-1.94-.34-2.59.39-.44.53-.83,1.12-1.12,1.75-.16.5-.2,1.03-.33,1.53-.03.05-.07.16-.1.23-.02.03-.04.06-.06.08s-.04.03-.06.05c-.1.05-.09.04-.41.12-.03,0-.09,0-.14,0-.42-.04-.85-.16-1.27-.03-.46.14-.81.52-1.03.93-.49.71-.58,1.58-.98,2.32-.73.99-2.32,1.63-3.56,2.1,1.59-.28,3.5-.58,4.49-1.99.48-.83.53-1.15,1.14-1.86.01-.02.02-.02.02-.03,0,0,.01,0,.02-.02.02-.05.26-.16.15-.11,0,0,.03,0,.04-.02h.02c.19,0,.6.21.99.23.93.06,1.9-.33,2.31-1.21.6-1.26.23-1.18.83-1.96.08-.12.33-.4.47-.55h.07c.52.25,1.09.34,1.64.48,1.38.48,2.79-.1,3.73-1.14.02-.02.06-.05.11-.09.03-.02.04-.03.06-.04.02,0,.04,0,.05-.02.14.07.34.16.44.2,1.04.84,2.5,1.01,3.76.62.99-.53,1.73-1.43,2.5-2.23.32-.19.19-.21,1.41-.35.24,0,.64.03.79.03.51.06,1.03.1,1.53.22.04.02.07.03.1.05.13.08.25.17.37.27.02.02.04.05.06.07.36.57.19.19.52,1.16,0,.03.01.06.02.08-.02.02-.04.05-.07.07.03-.03.05-.05.07-.06h0s-.04.04-.08.07c-.03.03-.06.06-.09.09.03-.03.05-.05.07-.07-.02.02-.04.03-.06.05-.64.63-1.03.53-2.26,1.19-.51.38-.68,1.01-.78,1.61-.12.67-.18,1.36-.03,2.02.19.81-.14,3.41-.34,3.95-.03.06-.05.1-.07.14-.09.14-.2.27-.3.4-.74.87-.42.58-1.05,1.03-.76.54-1.4.56-1.85.56-1.12-.08-.54-.02-1.59-.39-1.28-.45-2.67.09-3.78.75-.63.43-1.14,1.03-1.8,1.42-.38.21-2.17.8-3.2.91-.23.05-.45.12-.68.18-.01,0-.03,0-.06.01-.07,0-.11,0-.16.01-.12,0-.23-.01-.35-.03-.49-.1-.99-.24-1.47-.04-1.22.49-1.07,2.22.1,2.67.18.14.99.33,1.16.36h.03c.12.04.24.08.36.12.04.05.07.11.1.15h0c-.15,1.17-.09.8-.47,1.89-.02.03-.04.05-.06.07-.03.02-.06.04-.08.06-.09.04-.18.08-.28.1-.05.01-.11.02-.17.03-.26.1-1.17.18-1.47.21-1.38-.1-2.73.07-3.73,1.13-.81.78-.55.73-.97.87-.76.26-.92.16-2.38-.39-1.19-.42-2.51-.44-3.77-.39-.69.13-1.32.54-1.97.79-.73.26-1.28.4-2.04.52-.21.02-.43.03-.64.02-.07,0-.36-.03-.2,0,.62.17,1.25.18,1.89.14.97-.03,1.86-.31,2.78-.53,1.04-.03,2.15.33,3.09.63,1.42.88,3.1,1.57,4.67.61.56-.45.55-.51.78-.69.08-.08.31-.22.31-.22.04-.02.07-.04.11-.07.08-.04.17-.08.25-.11.12-.04.24-.11.37-.12.45-.05,3.07.28,4.35-.29.34-.14.61-.34.85-.58,1.67,1.07,3.5,1.92,4.91,3.34.62.51,1.33,1.73,2.65,2.05,1.03.32,1.65.03,2.12.34.58.39,2.32,1.76,2.86,2.71.2.26.21.19.43.91.43,1.54.39,1.5.19,3.39-.19,2.19-.95,4.32-.93,6.54-.04.65-.12,1.18-.35,1.58-.12.11-.83.72-1.26.98-.89.6-1.78,1.21-2.75,1.68-.03.01-.06,0-.09,0-.57-.83-.34-2.37-.21-3.47-.62,1.5-1.49,3.99.42,4.9.54.19.98.25,1.29.34-.03.01-.06.03-.09.03-.23.02-1.05.13-1.25.15-.16.02-.32.04-.48.05-.92-.13-1.84-.36-2.78-.24-.46.07-.85.32-1.27.48-.07,0-.13-.02-.2-.03-.13-.04-.25-.09-.37-.14l-.21-.18h0c-.1-.13-.19-.26-.28-.4-.05-.11-.14-.3-.16-.4-.25-.86-.84-1.54-1.66-1.89-.58-.25-1.21-.25-1.82-.37h0c-.18-.1-.72-.46-.91-1.48-.34-.92-.23-2.13-.5-3.21-.27-.6-.66-1.2-1.03-1.72.14.39.28.77.4,1.17.34.81.03,1.64,0,2.48-.13,1.39-.06,3.01,1.1,3.97.44.38,1.03.46,1.58.61.04.02.22.08.37.15.07.05.27.21.39.31h.01c.16.38.23.77.37,1.15.26.6.65,1.14,1.16,1.54.65.41,1.48.72,2.25.54.35-.06.66-.25.98-.41.1-.04.17-.07.22-.09.97-.15,2.04.34,3.54-.14.99-.17,2.27-.58,2.49-1.7v.06Z"/>
  <path class="cls-2" d="M138.71,68.53s-.06-.02-.08-.02c.02,0,.05.01.07.02h.01Z"/>
  <path class="cls-2" d="M147.81,44.05s-.02.02-.03.03c0,0,.02,0,.02-.02h.01Z"/>
  <path class="cls-2" d="M134.16,50.74c-.28.05-.55.12-.84.16-1.05.17-2.11.19-3.16.34-1.49.37-2.87,1.11-4.26,1.75-3.47,1.61-6.09,4.52-9.4,6.35,2.27-.43,4.26-1.67,6.28-2.73,2.33-1.36,4.58-2.59,7.22-4.22,1.06-.49,2.9-.87,4.11-1.59.06-.03.1-.05.13-.07-.03,0-.05,0-.08.02h0Z"/>
  <path class="cls-2" d="M97.4,34.69c1.15-.12,1.93.87,2.53,1.71.64.78,1.22,1.35,1.85,2.07-.78-1.59-2.18-4.59-4.38-3.78h0Z"/>
  <path class="cls-2" d="M29.78,28c.06.11.05.08,0,0h0Z"/>
  <path class="cls-2" d="M6.94,25.12s0-.04-.02-.06v.03s0,.02.01.03h.01Z"/>
  <path class="cls-2" d="M3.52,15.9s-.01,0-.02,0c0,0,.01,0,.02.02h0Z"/>
  <path class="cls-2" d="M3.59,15.97s-.04-.04-.06-.06h.01s.04.04.05.06Z"/>
  <path class="cls-2" d="M3.46,15.85s.02.02.03.03h.01s-.03-.02-.04-.03h0Z"/>
  <path class="cls-2" d="M41.18,31.64c-.37-1.14-.62-2.33-1-3.47.11-.29.29-.53.61-.61.28-.08.97.08.88.03.01.02.02.02.02.03.1.39,0,.83.04,1.37.12,1.12,1.36,1.53,2.32,1.69.88.14,1.67.27,2.19.94.24.72-.13,1.73-.15,2.55.32-.87.95-1.74.85-2.7-.37-1.46-2.3-1.76-3.29-2.05-.19-.09-.61-.26-.71-.31,0,0-.01,0-.02-.02-.06-.08-.09-.12-.08-.12-.22-.46,0-1.48-.61-1.96-.32-.23-.74-.16-1.11-.1-.38.07-.78.21-.97.58-.05.08-.08.16-.11.25-.19-.52-.41-1.03-.7-1.52-.24-.6-.59-1.18-1.04-1.67,1.52-.24,3.02-.7,4.44-1.26.75-.48.96-.87,1.64-1.4,1.14-1,2.37-1.9,3.5-2.92,1.2-1.05,2.34-2.31,3.83-3.57.18-.12.37-.22.56-.31,1.01.41,2.07.42,2.85-.54.63-.75.63-2.32-.51-2.54-1.06-.32-2,.37-3.02.47-.21.02-.41.05-.62.08-.83-.48-1.84-1.01-2.82-1.34-1.87-.25-3.78.18-5.6.63.05-.12.1-.24.14-.36.2-.5.33-1.04.23-1.57-.09-.76-.64-1.43-1.37-1.59.11-.18.22-.37.26-.46.2-.46.28-.88.27-1.24.08-.07.21-.21.25-.25.96-1.39,4.15-3.76,2.64-5.56-.3-.3-.62-.61-1.02-.75-.44-.13-.94-.07-1.38.03-.5.21-.94.57-1.37.89-.19.18-.32.4-.43.63-.92.52-1.96,1.05-2.77,1.33-1.55.25-3.12-.06-4.82-.16-1.46-.02-2.31.03-4.1-.19-.84,0-1.67-.34-2.5-.14-1.33.3-2.52,1.08-2.49,2.05-.02,0-.03,0-.05,0-.37.1-.71.31-1,.56-.1-.11-.2-.22-.3-.34-1.02-1-2.1-1.94-3.36-2.61-.13-.08-.26-.17-.38-.26-.44-.35-.96-.55-1.5-.67-2.02-.12-4.12,1.03-5.23,1.08-2.66.43-5.51.85-7.72,2.5-1.08.97-1.24,2.48-1.23,3.85,0,1.27.17,2.25.09,2.72-.04.06-.09.11-.14.16h0c-.09.03-.26.09-.42.14-.05,0-.16.03-.28.06-.96.22-1.98.79-2.39,1.72-.38.92-.12,1.92.41,2.72.7,1.33,1.9,2.24,3.08,3.11.02.07.05.13.06.2v-.04c.28.99.45,3.09.63,4.89-.02.16-.09,1.75.74,2.63,1.55,1.47,2.24,1.33,3.66,2.53.03.04.06.08.09.12.43.58.46,1.23,1.39,2.26.9.7,1.72.76,2.08.86,2.39.09,3.49-.77,5.48-.78.59-.1,3.05.41,4.49.46,1.2.09,2.36-.21,3.54-.35,1.5.04,3.99.43,4.96.21-1.57-.2-3.06-.73-4.6-1.09-.69-.15-1.58-.06-2.19-.07-2.5-.09-3.73-.9-6.02-1.16-1.75-.25-3.45.38-5.19.38-.02,0-.05,0-.08,0-.57-.18-.66-.21-.77-.31,0,0-.01-.02-.02-.02-.07-.13-.17-.31-.22-.41l.16.29c-.43-.79-.72-1.7-1.41-2.31-1.47-1.25-2.38-1.41-3.38-2.25-.02-.02-.04-.05-.06-.08-.02-.04-.04-.08-.06-.14.03.1,0,.08-.01-.03-.02-.05-.03-.09-.04-.15.01.05.03.08.04.12,0-.05-.02-.12-.02-.2v-.55c-.16-2.24-.42-4.87-.9-6.11-.48-1.03-1.63-1.46-2.41-2.23.1.1.11.13-.05-.05-.01-.02-.03-.03-.05-.05-.26-.22-.78-1.12-.82-1.17-.03-.07-.07-.16-.09-.23.1-.07.2-.14.31-.2.03,0,.07-.03.12-.04.21-.04.81-.19.98-.25,2.55-.88,1.93-3.38,1.87-5.48-.04.64.03-.75.14-1.38.03-.06.08-.16.13-.27.03-.05.08-.11.13-.18.06-.05.12-.09.18-.13.28-.13,1-.47,1.2-.57,1.85-.71,2.41-.76,4.57-1.09,2.06-.31,4.15-1.24,4.96-1.15.05.02.1.04.16.06.13.1.85.58,1.05.67.06.04.1.06.14.08.63.44,1.29.86,1.82,1.42,1.03.86,1.06,1.15,2.33,2.36.71.69,3.7,2.69,3.53,2.53.73.8,1.26,3.29,2.04,4.68.92,1.56,1.46,2.36,2.23,3.81,1.02,1.4,2.23,2.67,3.5,3.86-2.27.07-5.21.55-5.89,2.06-.36.87.18,1.9,1.07,2.14-.01,0,0,0,.06.02.05.02.1.05.15.07.08.06.16.12.23.19.08.09.15.21.2.28-.02-.03-.04-.08-.07-.14.96,1.5.7,2.59,1.12,4.64.57,1.38.92,1.81,1.55,2.92.69.9,1.56,1.66,2.17,2.62.51,1.15.99,2.7,1.25,4.13-1.19-1.14-2.8-1.8-4.34-2.33-.77-.13-1.3-.2-2.01-.54-.87-.45-.59-.42-1.25-1.51-.17-.57-1.07-2.97-3.07-2.06-.53.21-1.07.5-1.38.99-.03.05-.08.13-.14.2h-.07c-.41-.04-2.12-.77-3.41-.94-.15-.04-.33-.1-.44-.12-.52-.14-1.07-.17-1.6-.06-2.32.47-2.84,1.31-3.84,1.59-.93.33-.89.25-2.28.35-.94.17-2.29.42-2.3.34-1.1,0-1.98,1.04-1.76,2.13.03.31.43,1.48.5,1.63h0c0,.05.01.09.02.13-.08.68-.95,1.77-2.15,3.26-.57.84-1.05,1.77-1.25,2.77-.07,1.65.43,3.31,1.13,4.79.79,1.89,3.05,3.03,4.99,2.2,1.1-.44,1.93-1.3,2.93-1.9.42.6.75,1.26,1.22,1.82,1.27,1.44,3.32.99,4.77.09.69-.44,1.25-1.06,1.91-1.54.16-.05.22.05,1.16.04.81-.11,1.42-.77,1.78-1.46.16-.26.21-.55.35-.82.49-.51.01-.35,1.57-.54h0c.33,0,.67.03,1,.07.2.02.41.04.6.09h0c1.93.74,2.87-.52,3.15-2.31.08-.63-.14-1.13.29-1.48,1.06-.72,2.52-.67,3.59-1.41.39-.22-.39.12-.55.16-1.44.35-3.76-.14-4.25,1.7-.04.68-.19,1.1-.54,1.71-.22.46-.54.4-.71.34-1.49-.67-3.6-1.1-5.1-.28-.43.33-.82.73-1.07,1.21-.05.12-.16.34-.22.45-.05.07-.1.14-.16.21-.02,0-.03.03-.05.04-.35-.06-.7-.12-1.05-.09-1.18.07-1.97,1.05-2.88,1.68-.07.05-.14.09-.22.14-.2.11-.85.32-1.07.4-.03,0-.06,0-.09.01-.06-.01-.12-.02-.15-.03-.05-.02-.1-.04-.14-.06-.55-.73-.91-1.6-1.57-2.24-2.52-2.16-5.04,2.66-6.37,1.59-.66-.2-1.51-1.87-1.72-4.22,0-.03,0-.05.01-.08.5-1.35.59-1.31,1.61-2.61,1.17-1.4,2.37-3.27,1.49-5.12.68-.11,1.35-.29,2.04-.34.56,0,1.11-.03,1.65-.2,2.1-.57,2.09-1.1,3.55-1.57,1.3-.33.36-.32,2.03-.02,1.67.14,1.76.51,3.46.68.47.02.95-.02,1.35-.28.32-.24.5-.61.71-.94.01-.03.03-.05.04-.08.02-.02.04-.05.06-.07.09-.07.19-.13.29-.19-.38.22-.12.06.07-.04.05-.03.1-.04.15-.06,0,0,.02,0,.03.02.24.25.28.29.34.4.53.98,1.16,2.09,2.26,2.5.85.31,1.83.39,2.65.36,1.53.27,3.15.61,4.47,1.46.04.2.07.41.1.61.03-1.89.01-3.95-.78-5.7-.28-.53-1.46-2.35-1.41-2.23-.34-.64-.52-1.36-.83-2.02-.56-.98-.1-2.6-.46-4.22-.2-.88-.55-1.81-1.14-2.51.54-.12,1.1-.16,2.14-.3,1.4-.1,1.51-.2,2.47-.09.49.22.7.32,1.1.84.88,1.45,1.16,1.73,1.66,3.13.83,2.24,2.18,4.19,2.2,6.5,0,.23.01.36,0,.57-.09,1.23.04,2.54-.4,3.71-.05.15-.21.36-.23.44.12-.13.23-.26.33-.4.65-1.04.77-2.32,1.06-3.49.44-1.81.17-3.64-.43-5.38l-.05.09ZM53.47,12.87c.08,0,.51.05.56.08.1.02.2.07.26.1.02.37-.03.6-.67.83h0c-.43-.05-.35-.07-.99-.38-.22-.09-.58-.3-1.03-.56.62.05,1.24.04,1.87-.06h0ZM41.94,1.8c.53-.21.73-.57,1.36-.53.23-.08.64.24.92.56.06.78-1.43,3.13-2.14,4.72-.09-.97-.92-1.45-2.04-1.12.52-1.33,1.19-2.85,1.9-3.62h0ZM26.74,4.46c.11-.02.24-.03.34-.04,1.19.2,2.39.31,3.59.3,2.43-.23,4.93-.11,7.29-.75,1-.44,1.84-1.16,2.64-1.92-.07.19-.13.39-.19.57-.28.93-.49,1.89-.56,2.87-.16.06-.33.13-.5.22-1.42.55-2.74,1.33-3.89,2.33-1.17.93-2.18,1.99-3.46,2.23-.07,0-.14,0-.2-.03-.46-.22-1.06-.32-1.38-.75-.17-.23-.42-.57-.52-.75-.34-.78-.85-1.47-1.48-2.04-.96-.8-1.69-1.38-2.26-2.04.22-.08.5-.18.57-.2h.01ZM27.65,9.15c-1.82-1.37-2.93-2.27-4.08-3.48.22-.22.43-.44.63-.67.14.33.42.68.89,1.04,1.23,1.05,2.53,1.46,3.6,2.5.36.4,1.01,1.3,1.69,1.62.24.06.53.14.83.2-.91.04-1.84-.05-2.78-.08-.19-.42-.43-.81-.78-1.13h0ZM35.94,23.28c-.45-.04-1.05-.06-1.72-.05-.96-1.31-1.84-2.69-2.66-4.1-.6-1.7-1.4-3.32-2.04-5-.14-.77-.31-1.53-.54-2.28-.15-.44-.28-.91-.45-1.35,1.49.4,2.98.96,4.52.62,1.58-.34,2.86-1.45,4.26-2.23.16-.12.89-.46,1.67-.76-.29.64-.4,1.39.31,2.06.39.34.87.43,1.36.43-.08.34-.24.83-.51,1.49-.25.35-1.55,2.5-2.16,3.71-.68,1.05-1.16,2.18-1.4,3.41-.11.16-.56,1.75-.8,2.34-.17.44-.43.87-.37,1.36,0,.03,0,.06.02.09v-.1c.06-.49.44-.84.69-1.24.26-.38.83-1.42.89-1.51.73-1.21,1.04-2.26,1.99-3.24.87-1.06,1.6-2.21,2.5-3.24.46-.51.74-1.12.99-1.75,1.7.05,3.76.14,5.12.45,1.35.63,2.63,1.73,4.17,2.48.07.04.14.07.21.1-.5.11-.98.32-1.41.59-3.23,2.1-6.16,3.8-8.33,6.56-.09.12-.31.27-.38.31-1.3.67-2.41,1.38-3.74,1.97-.6-.59-1.34-1.02-2.19-1.11h0Z"/>
  <path class="cls-2" d="M23.37,16.45h-.01c.2.21.14.13.01,0Z"/>
  <path class="cls-1" d="M18.31,23.89c-.2-.16-.9-.7-1.05-.89-.09-.09-.18-.17-.28-.26-.02-.02-.04-.04-.06-.08-.02-.02-.03-.04-.04-.06,0-.63,0-.97.4-1.46,2.05-2.81,3.56-4.55,5.29-4.98.07,0,.17,0,.24,0,.1,0,.2,0,.3.03.07.07.17.19.26.28,2.13,2.21,4.81,3.89,7.5,5.34-2.16-1.92-3.88-3.7-5.69-5.78-.43-.53-.71-1.22-1.35-1.54-3.41-1.24-6.58,2.66-8.16,5.24-.55.72-.82,1.58-.75,2.49-.08.8.32,1.55.98,2,1.26,1.05,2.61,1.46,4.03,1.73,1.43.42,2.89.63,4.35.88.33.09,1.48.23.64,0-2.21-.96-4.46-1.82-6.61-2.92v-.02Z"/>
  <path class="cls-2" d="M57.3,34.68c-2.64-.27-5.39.11-7.82,1.21-2.26,1.32-4.27,3.05-6.32,4.66,2.13-.84,4.76-2.19,6.44-3.2,2.38-1.17,4.93-2.02,7.53-2.53.19-.03.37-.08.56-.05-.12-.06-.26-.08-.39-.1h0Z"/>
  <path class="cls-2" d="M22.08,42.54c-2.16-.15-4.56.71-6.17,1.8,1.96-.53,4.04-.82,5.9-.61,2.32.66,5.46.95,8.07.15-2.75-.06-5.29-.78-7.8-1.35h0Z"/>
  <path class="cls-2" d="M36.77,32.61c-.18-.46-.53-.83-.65-1.31.37,2.29.78,4.62,1.51,6.83.02-1.87-.11-3.79-.86-5.53h0Z"/>
  <path class="cls-2" d="M41.46,46.31c.65,1.73.56,3.66,1.2,5.39.03-1.86.09-3.88-1.2-5.39h0Z"/>
  <path class="cls-2" d="M69.67,60.74c-1.06-.89-2.13-2.12-2.61-3.22-.26-.77-.59-1.54-1.13-2.15-.74-.67-1.6-1.25-2.5-1.68-1.44-.54-2.98-.55-4.47-.84-1.61-.48-3.7-1.63-5.51-2.39,1.57,1.29,3.14,2.68,4.96,3.6,1.32.52,3.22.77,3.93,1.03,1.05.32,1.02.42,1.82.88.78.44.61.28,1.03.76.33.42.55.75.71,1.07.69,1.2,1.82,2.12,3.03,2.76.41.24.84.51,1.33.49-.21-.04-.4-.17-.57-.3h-.02Z"/>
  <path class="cls-2" d="M37.04,12.5c-1.36,1.35-3.03,2.27-4.84,2.88,2.1.04,3.92-.97,4.84-2.88Z"/>
  <path class="cls-2" d="M41.51,19.42c1.51-1.23,2.83-2.69,4.39-3.85-1.93.56-3.41,2.16-4.39,3.85Z"/>
</svg>