<?xml version="1.0" encoding="UTF-8"?>
<svg id="Layer_1" data-name="Layer 1" xmlns="http://www.w3.org/2000/svg" viewBox="0 0 97.6 105.6">
  <defs>
    <style>
      .cls-1 {
        fill: #6da542;
      }

      .cls-2 {
        fill: #acd263;
      }
    </style>
  </defs>
  <path class="cls-2" d="M26.1,9.67c.73.66,1.45,1.33,2.23,1.93s1.59,1.33,2.55,1.59c.48.13.97.03,1.44.12.31.06.64.25.93.39.72.35,1.58.67,2.19,1.19.74.64,1.43,1.3,2.28,1.81s1.75.81,2.67,1.03c2.01.48,4.07.69,6.08,1.18,1,.24,1.98.57,2.99.76.95.18,1.93.21,2.86.5.85.27,1.46.67,2.14,1.23.56.47,1.38.91,1.68,1.61.36.82-.18,1.84-.42,2.63-.26.84-.71,1.36-1.46,1.84-1.58,1-3.44,1.54-5.17,2.23-.92.37-1.88.49-2.84.68-.77.15-1.55.53-2.33.55-.72.01-1.58-.14-2.04.56-.41.61-.18,1.47.1,2.09.68,1.51,2.22,1.91,3.66,2.41,1.96.69,4.06.83,6.12,1.04s4.17.69,6.26.7c1.98,0,3.79-.37,5.59-1.18s3.47-1.88,5.24-2.76,3.42-1.92,5.3-2.56c.81-.28,1.7-.14,2.54-.14.91,0,1.75-.11,2.63.19s1.72.81,2.53,1.3,1.67.87,2.57,1.2c.7.26,1,.89,1.2,1.59.27.96-.6,2.13-1.02,2.96-.94,1.88-.52,3.62.39,5.43s2.12,2.98,3.56,4.28c.73.66,1.43,1.34,2.14,2.01s1.57,1.32,2.27,2.06c1.2,1.28,1.66,2.83,1.72,4.56.02.47-.03.95.01,1.42.03.36.19.69.24,1.05.06.4-.07.75-.19,1.12-.18.56-.13.99-.15,1.57-.02.69-.6,1.32-1.06,1.8-.67.7-1.54,1.13-2.36,1.62-.34.2-.65.44-.97.66-.45.31-.86.38-1.39.46-.91.14-1.77.5-2.68.64-.49.07-.99.06-1.48.15-.35.07-.67.21-1.02.23-.91.07-1.88.04-2.79-.05s-1.85-.12-2.78-.23c-1.06-.13-2.1-.39-3.18-.43-.97-.04-2.03-.07-2.99.07-.89.13-1.66.23-2.56.05-2.06-.41-4.03-1.12-6.15-1.12.09,0,.48.16.01-.02-.29-.12-.6-.21-.91-.26-.42-.07-.86-.07-1.26.08-.73.27-.96.87-.59,1.54.29.53.79.93,1.23,1.33.73.65,1.41,1.36,1.84,2.24.79,1.59,1.06,3.41,2.43,4.67s3.32,1.91,5.05,2.59c.73.29,1.42.56,1.96,1.15.67.72,1.34,1.48,1.92,2.27s.89,1.59,1.14,2.51c.27,1,.74,2.02.76,3.07.04,1.95-2.11,1.83-3.2,2.89s-.86,2.79-.91,4.17c-.04,1-.05,2.01-.24,3-.2,1.08-.71,1.67-1.45,2.45-.55.58-1.13,1.35-1.99,1.44-.91.1-1.91-.51-2.75-.78-1.77-.56-3.76-.62-5.5.06-.85.33-1.5.86-2.13,1.5-.69.7-1.46,1.31-2.17,2-.18.18-.43.48-.7.52s-.63-.18-.9-.26c-.86-.23-1.61-.18-2.35-.72-1.22-.9-2.13-2.31-2.74-3.67-.36-.82-.93-1.56-1.26-2.38-.15-.37-.2-.78-.3-1.16-.15-.53-.38-1.02-.62-1.52-.35-.72-.75-1.46-.81-2.27-.09-1.17.14-2.39.27-3.55.31-2.88.6-6.9-1.66-9.14-1.33-1.32-3.4-1.74-5.08-.87-1.52.78-2.13,2.38-3.13,3.66-.58.74-1.07,1.45-1.49,2.29-.48.96-1.19,1.65-1.8,2.51-1.13,1.57-2.39,3.08-3.14,4.88s-1.46,3.52-3.23,4.65c-.89.57-1.86.68-2.84,1.02-.88.3-1.77.7-2.46,1.33-.08.07-.6.48-.6.53l-.06.03c.36.02.38-.02.05-.12-.13-.11-.3-.18-.45-.28-.75-.51-1.58-1.05-2.27-1.63s-1.1-1.48-1.54-2.26c-.48-.84-.94-1.69-1.29-2.6s-.58-1.79-.7-2.72c-.14-1.04,0-2.09-.12-3.13-.1-.88-.41-1.72-.59-2.58-.21-1.08-.23-2.19-.41-3.28-.65-3.91-4.96-5.38-8.44-5.5-.65-.02-1.48.16-2.02-.2-.62-.42-.92-1.23-1.05-1.93-.16-.88-.04-1.84.02-2.73.06-1.03.19-2.08.61-3.03.35-.79,1.01-1.34,1.6-1.95.7-.73,1.48-1.34,2.25-1.99,1.49-1.26,3.16-2.12,4.98-2.81s3.86-.7,5.71-1.35c.82-.29,1.52-.82,2.23-1.31.43-.29.99-.51,1.37-.86.33-.3.5-.74.81-1.06.63-.66,1.39-1.2,1.96-1.93s.83-1.53,1.36-2.23c1.13-1.5,2.16-3.23,2.54-5.1.69-3.39-1.28-7.79-5.21-7.58-1.92.1-3.49,1.17-5.08,2.14-.77.47-1.59.81-2.42,1.14-.92.36-1.84.89-2.81,1.09-.77.16-1.83.52-2.6.28-.72-.23-1.26-.8-1.63-1.44s-.62-1.43-.68-2.18c-.07-.95.35-1.54.93-2.26.49-.61.92-1.24,1.26-1.94.49-1.02,1.14-1.92,1.75-2.87,1.03-1.61,2.11-3.35,2.65-5.2.28-.94.35-1.9.49-2.87.16-1.09.27-2.13.27-3.23,0-1.94.18-3.78.85-5.61s1.28-4.07,2.4-5.78c.52-.79,1.17-1.47,1.68-2.27.29-.45.89-1.72,1.56-1.74.36,0,.95.58,1.24.8s.62.44.94.66c.47.31.95.63,1.41.95.4.28.66.44.95.69.47.41,1.26.66,1.87.5.52-.13.69-.55.25-.94-.83-.72-1.82-1.31-2.74-1.92-.31-.21-.59-.4-.74-.51-.71-.55-1.47-1.06-2.32-1.38s-1.71-.47-2.57-.27c-.95.21-1.53.9-2.03,1.68s-1.09,1.54-1.67,2.3c-.64.85-1.06,1.81-1.47,2.78-.79,1.89-1.71,3.92-2.06,5.96s-.1,4.04-.4,6.05c-.15.98-.22,1.97-.44,2.93-.24,1.03-.68,1.98-1.16,2.92-.97,1.87-2.32,3.52-3.25,5.41-.41.84-.91,1.5-1.49,2.24-.54.69-.83,1.3-.83,2.18,0,1.56.74,3.21,1.91,4.24,3.43,3.05,7.89,1.22,11.52-.34.88-.37,1.64-.91,2.48-1.36s1.58-1,2.55-1.23c.16-.04.45-.03.59-.1h.1c-.24-.08-.28-.06-.1.04.18.33.54.58.72.94.38.75.53,1.62.67,2.44.33,1.96-.54,4.07-1.59,5.71-.49.76-1.1,1.41-1.52,2.21-.48.91-1.09,1.58-1.85,2.28-.3.28-.63.55-.9.86-.35.4-.5.75-.97,1.04-.84.54-1.64,1.24-2.56,1.63s-1.97.51-2.91.72-1.88.31-2.79.63c-1.86.66-3.69,1.52-5.22,2.78-1.38,1.13-2.95,2.3-4,3.77C.02,67.52.06,69.72,0,71.68c-.05,1.68.58,3.21,1.99,4.18,1.78,1.23,3.73.82,5.73,1.09,1.52.21,3.08,1.08,3.62,2.59.34.94.35,1.99.46,2.98.12,1.09.42,2.1.65,3.16.2.93.11,1.85.15,2.79.04,1.03.24,2.05.55,3.03.57,1.81,1.51,3.64,2.59,5.2.55.8,1.24,1.36,2.04,1.89.85.57,1.61,1.25,2.53,1.71.84.42,1.88.78,2.83.58.79-.16,1.17-.75,1.78-1.19.77-.57,1.76-.83,2.67-1.05,1.08-.26,1.97-.74,2.85-1.41,1.62-1.23,2.24-3.06,3.02-4.86.41-.93.97-1.69,1.57-2.51.64-.87,1.22-1.78,1.92-2.6.61-.72,1.06-1.44,1.48-2.28.47-.94,1.2-1.68,1.79-2.54.45-.65.79-1.38,1.33-1.96.25-.27.52-.47.85-.64.21-.11.44-.16.66-.25-.24-.08-.27-.08-.11,0,.07.04.13.09.18.15,1.03.93,1.25,2.66,1.37,3.95.18,1.99-.11,3.93-.29,5.91-.08.94-.21,1.95.05,2.87s.83,1.73,1.16,2.64c.31.85.41,1.68.87,2.47s.82,1.56,1.22,2.36c.77,1.52,1.87,2.91,3.27,3.9.7.5,1.49.87,2.33,1.07.46.11.93.14,1.39.25.5.12.97.32,1.49.39.84.11,1.71.03,2.41-.49.77-.57,1.42-1.34,2.16-1.96s1.2-1.28,2.07-1.66c.8-.35,1.71-.45,2.56-.3.91.17,1.76.63,2.66.87,1.06.29,2.22.41,3.28.08.89-.28,1.52-.87,2.15-1.54s1.3-1.3,1.62-2.19c.62-1.77.35-3.79.47-5.63.04-.69.15-1.48.68-1.98.68-.64,1.75-.74,2.49-1.35,1.42-1.18.83-3.03.36-4.53-.27-.89-.46-1.77-.88-2.61-.48-.95-1.19-1.73-1.89-2.52-.62-.71-1.18-1.43-1.97-1.96s-1.68-.87-2.55-1.21-1.75-.66-2.56-1.11-1.32-.97-1.77-1.8-.64-1.68-1-2.51c-.41-.96-.97-1.75-1.69-2.5-.46-.48-1.12-.9-1.51-1.45,0-.01-.21-.45-.12-.39h-.59c.18.06.36.13.54.18.36.11.72.16,1.1.16,1.99.03,3.88.78,5.84,1.11s3.98-.23,6-.11c.96.05,1.91.32,2.87.42,1.08.11,2.18.2,3.26.26.89.06,1.8.05,2.69.02.39-.01.77-.08,1.15-.17.56-.14,1.12-.17,1.69-.24.92-.12,1.77-.48,2.68-.63.41-.07.81-.11,1.21-.23.57-.17.97-.49,1.45-.83,1.45-1,2.97-1.64,3.95-3.18.2-.32.39-.64.44-1.03.05-.49-.07-.92.07-1.41.1-.36.25-.7.28-1.08.04-.47-.11-.88-.21-1.33-.18-.84-.03-1.77-.12-2.63s-.36-1.74-.76-2.53c-.85-1.66-2.37-2.75-3.7-3.99-.75-.7-1.48-1.42-2.25-2.11s-1.51-1.29-2.11-2.13c-1.08-1.51-2.26-3.68-1.58-5.57.35-.97,1-1.82,1.36-2.78s-.11-1.87-.56-2.67c-.42-.75-1.12-1.23-1.91-1.56-.87-.37-1.68-.65-2.49-1.15-1.82-1.11-3.83-2.05-5.99-2.11-1-.03-2.02.03-3.02.03s-1.79.19-2.68.56-1.85.69-2.67,1.21c-.89.57-1.83.98-2.78,1.47-1.79.93-3.54,1.99-5.4,2.8s-3.84.73-5.7.41c-2.22-.37-4.46-.55-6.69-.82-.86-.11-1.55-.28-2.37-.55-.61-.2-1.14-.29-1.42-.92-.12-.27-.23-.62-.23-.92,0-.16.08-.28.1-.43h-.23c.12,0,.25.01.37.03,1.01.08,1.83-.27,2.8-.49s1.91-.32,2.84-.59c.99-.29,1.93-.74,2.9-1.1,1.57-.59,3.64-1.24,4.69-2.66.47-.64.65-1.43.89-2.18.29-.91.38-1.79-.16-2.63-.44-.68-1.11-1.15-1.73-1.65-.83-.67-1.61-1.31-2.6-1.74-1.88-.82-3.86-.84-5.8-1.39-2.11-.6-4.26-1.02-6.43-1.37-.79-.13-1.62-.25-2.35-.6-.86-.41-1.48-1.11-2.19-1.72-.66-.56-1.5-.87-2.26-1.27-.91-.48-1.85-.93-2.87-1.13-.25-.05-.48-.08-.73-.09h-.26c-.41-.02-.33.03.23.15-.06-.23-.78-.58-.96-.72-.82-.62-1.58-1.32-2.33-2.01-.45-.41-1.27-.65-1.87-.5-.53.13-.68.55-.25.94Z"/>
  <path class="cls-2" d="M21.12.09c.49,1.09.36,2.3.24,3.47-.3,1.18-.33,2-.06,3.15.14.75.41,1.66.6,2.42.36,1.35,1.08,2.46,1.44,3.98.56,2.05,1.73,4.09,2.54,6.08.77,1.8,2.93,6.84,3.66,8.53.52,1.38.75,2.68,1.42,3.95,0,0,1.4,2.99,1.4,2.99.34.56.99,1.52,1.29,2.22.62,1.18,1.56,2.63,2.35,3.65.5.55,1.47,1.61,1.99,2.17,3.21,3.45,4.96,7.83,6.77,12.07.42,1.08.78,2.1,1.23,2.98.4.83,1.11,1.59,1.58,2.45.55,1.09,1.2,2.15,1.92,3.13.74,1.1,1.12,2.25,1.5,3.3.54,1.48,1.21,3.19,1.79,4.7.39,1.01.79,1.9,1.5,2.76,1.04,1.38,1.78,2.92,2.75,4.35.97,1.4,1.33,3.17,2.09,4.62.84,1.46,1.92,2.73,2.75,4.25.59,1.13,1.21,2.19,1.91,3.23.55.78,1.45,1.22,2.11,1.93.61.6,1.17,1.25,1.72,1.89,0,0,.27.32.27.32.09.1.18.21.21.37.02.12-.06.24-.18.27-.31.02-.55-.38-.75-.56-.56-.59-1.15-1.25-1.75-1.78-.71-.69-1.69-1.13-2.3-1.97-.74-1.03-1.45-2.13-2.08-3.22-.85-1.41-2.01-2.7-2.91-4.13-.63-.97-.91-2.13-1.42-3.11-.51-.99-1.12-1.83-1.78-2.76-.56-.85-1.23-1.96-1.9-2.7-.76-.81-1.44-1.99-1.89-3.04-.69-1.53-1.41-3.1-2.09-4.65-.44-1.04-.87-2.01-1.42-2.76-.81-1.01-1.54-2.12-2.18-3.24-.52-.83-1.19-1.54-1.67-2.47-.6-1.11-.98-2.22-1.38-3.23-1.66-3.92-3.27-8.29-6.09-11.5-.49-.57-1.44-1.68-1.93-2.25-.88-1.12-1.45-2.23-2.16-3.41-.52-1.11-.9-1.88-1.57-2.99-.43-1.03-1.63-3.72-2.01-4.77-.33-.87-.41-1.61-.73-2.38-.26-.62-.74-1.73-1-2.32,0,0-2.67-6.2-2.67-6.2-.84-2.18-1.93-4.11-2.44-6.44-.32-1.48-1.17-3.21-1.37-4.85-.34-1.67-.58-3.62.07-5.21.12-.5.19-1.05.21-1.59.04-.55-.07-1.08.08-1.66.03-.15.26-.19.33-.05h0Z"/>
  <path class="cls-1" d="M50.62,25.02c-1.7-.22-3.41-.15-5.11-.37-1.45-.08-2.21-.5-3.83-.47-1.45-.06-2.89-.31-4.33-.46-.61-.08-1.23,0-1.84.04-1.67-.08-2.73-.36-4.2-.78-1.45-.18-2.93-.25-4.38-.48,1.26.46,2.7.88,3.93,1.17,1.51.64,2.53,1.11,3.87,1.32.96.23,1.68.06,2.23.17,1.43.22,2.85.51,4.3.5.79,0,1.12-.06,1.54-.02.91.12,1.7.18,2.23.15,2.16.02,4.31-.33,6.45-.55.27-.05.58-.11.83-.16-.56,0-1.13-.03-1.69-.07Z"/>
  <path class="cls-1" d="M23.53,22.8c-.39.64-.56,1.37-.87,2.05-.59,1.32-1.28,2.59-1.91,3.89-.25.51-.75,1.32-1.39,2.08-.85.63-1.68,1.27-2.35,2.1-.44.51-1.14,1.02-1.98,1.79-1.1.78-2.12,1.66-3.15,2.52-1.19,1.05-1.98,2.45-3.01,3.65-.37.37-.78.71-1.14,1.1-.13.13-.24.27-.28.45.11-.26.86-.71,1.28-.98,1.06-.67,1.86-1.71,2.75-2.48.78-.81,3.1-2.2,3.4-2.47,1.08-.6,2.05-1.41,2.99-2.22.16-.18.92-1.01,1.03-1.14.44-.47,1.02-.76,1.47-1.23.58-.68,1.02-1.48,1.4-2.29.6-1.48,1.18-2.97,1.62-4.51.2-.64.26-1.32.48-1.95.36-.87.78-1.79,1.49-2.42-.79.47-1.35,1.28-1.84,2.04Z"/>
  <path class="cls-1" d="M84.36,35.51c-.44-.05-.89-.11-1.34-.14-.66.05-1.3.27-1.92.49-2.01.58-3.68,1.86-5.6,2.65-.63.26-1.25.31-2.06.57.5-1.12,1.01-2.3.97-3.54-.02-.56-.25-1.11-.08-1.66.09-.36.36-.63.45-.99,0-.02.02-.05.03-.07.05-.09-.08.04-.1.09-.2.3-.52.5-.69.83-.34.56-.2,1.29-.21,1.84-.04,1.18-.32,2.35-.47,3.52-.18.06-.36.12-.56.2-1.43.78-1.88,1.21-3.36,1.83-1.34.66-2.62,1.45-3.94,2.15-.85.6-1.69,1.2-2.57,1.76-1.49,1.21-2.79,2.62-4.06,4.05-.13-.04-.26-.09-.39-.13-2.14-.51-3.91-.78-5.59-1.38-1.33-.44-2.75-.47-4.13-.7-.28-.05-2.05-.58-2.98-.8-1.26-.28-2.3-.31-3.25-.67-.89-.3-1.72-.73-2.59-1.08-.94-.3-1.91-.52-2.88-.66.92.33,1.83.71,2.69,1.16.81.52,1.59,1.06,2.45,1.48,1.56.75,2.56.75,3.99,1.32.81.27,1.61.61,2.44.79.86.15,3.08.45,3.22.47,1.86.67,4.77,1.26,6.02,1.52.25.03,1.28.44,2.08.67.76.19,1.19.3,2.14.55.85.25,2.25.3,2.6.28,1.18.15,2.38.1,3.56.24.45.23,2.53.89,3.54,1.14,1.06.23,2.14.34,3.21.53.49.06.64.16,1.25.43.7.27,1.38.56,2.06.88.88.35,1.72.47,2.63.83,1.1.45,1.97,1.03,3.08,1.5.63.21,1.31.23,1.91.5,1.14.6,2.33,1.18,3.55,1.54-.64-.31-1.29-.62-1.91-.99-.59-.35-1.12-.8-1.75-1.09-.5-.2-1.04-.3-1.55-.5-.89-.44-1.7-1.01-2.58-1.47-1.03-.59-2.23-.75-3.29-1.28-.54-.31-1.74-.8-2.65-1.18-.83-.21-1.69-.32-2.54-.46-1.6-.21-3.18-.86-4.94-1.52-1.58-.16-3.18-.27-4.76-.49-1.36-.27-2.93-.86-4.61-1.43,1.54-1.25,3.04-2.58,4.76-3.57,1.07-.49,1.52-.83,2.4-1.29,1.21-.48,2.39-1.04,3.56-1.61,1.23-.47,2.97-1.47,3.52-1.82.97-.44,1.12-.36,2.23-.68,2.44-.89,3.99-2.59,6.11-3.51.5-.27,1.02-.53,1.57-.7.36-.04.73-.04,1.09-.09.73,0,1.35-.44,1.97-.76-.59.19-1.14.45-1.78.43Z"/>
  <g>
    <path class="cls-1" d="M27.44,62.82s0,0,0,0c-.09.05-.14.09,0,0Z"/>
    <path class="cls-1" d="M35.97,48.17c-.36.58-.89,1.03-1.15,1.67-.57,1.13-.96,2.33-1.44,3.49,0,.01,0,.01-.01.02,0,0,0,0,0,0-.35.54-.61,1.14-.91,1.71-.23.47-.48.94-.58,1.45-.12.88-.05,1.76-.12,2.64-.05.46-.03.2-.21.82-.05.2-.09.38-.12.56-.66.21-1.31.4-1.99.55-.48.28-1,.43-1.54.55-1.02.24-1.99,1.04-2.33,1.11-.67.13-1.34.27-2.03.35-.97.02-1.96.14-2.83.59-.39.21-.8.38-1.15.65-.35.31-.42.5-.99.84-.51.29-2.46,1.04-3.34,1.67-.26.21-.89.67-.84.62-.3.18-.65.3-.89.56-.28.27-.39.46-.69.65-.9.62-1.94,1.02-2.83,1.67-1.04.61-2.88,1.4-4.19,2.07-.36.17-.85.27-1.15.45.46-.19.96-.21,1.41-.4,1.54-.62,3.17-1.06,4.61-1.89.93-.48,1.93-.82,2.81-1.38.26-.19.46-.44.72-.63.04-.02.1-.05.14-.07.35-.16.68-.34.99-.57.95-.78,2.36-1.23,3.71-1.93.48-.23.81-.66,1.24-.97.13-.06.71-.36.87-.42.12-.06.58-.23.68-.28.5-.1,1-.16,1.51-.21,1.2-.11,1.91-.22,2.86-.56.59-.33.6-.38,1.22-.72.12-.07.3-.18.1-.06.34-.29,1.49-.55,2.11-1.12.59-.23,1.16-.51,1.72-.81-.14.67-.24,1.27-.35,2.24-.09,1.68-1.1,2.9-1.7,4.71-.46,1.02-.82,2.07-1.21,3.11-.34.89-.8,1.72-1.19,2.59-.7,1.38-1.04,2.88-1.66,4.28-.48,1.02-.55,2.57-.75,3.13-.31.76-.57,1.51-.62,2.34,0,0,0,0,0,.01-.02.07-.04.14-.06.21-.2.64-.41,1.27-.63,1.9-.39,1.26-.77,2.52-1.16,3.77-.41,1.08-.8,2.18-.95,3.33-.19,1.24-.74,2.42-.75,3.68-.02.9.36,1.82.31,2.68.13-.71,0-1.43.02-2.14,0-1.14.61-2.12.96-3.17.48-1.45.86-2.69,1.55-4.08.74-1.98,1.44-3.97,2.03-5.99.15-.87.06-.88.37-1.57.43-.89.5-2.52.65-2.91.33-.96.77-1.88,1.01-2.87.42-1.23.99-2.4,1.53-3.58.71-1.56,1.21-3.21,1.85-4.79.44-1.17,1.14-2.24,1.41-3.47.21-1.01.33-2.15.52-2.7.16-.35.23-.74.38-1.09.17-.33.34-.67.37-1.05.1-.9.02-1.81.15-2.71.22-.64.53-1.24.77-1.87.79-1.5,1-3.21,1.6-4.78.17-.59.64-1.03.82-1.61.55-1.26.73-2.64.52-4-.01,1.29-.6,2.9-1.19,3.75Z"/>
  </g>
  <path class="cls-1" d="M56.01,84.1c-.23.23-.49.45-.61.76-.18.41-.16.86-.27,1.29-.11.43-.35.89-.46,1.34-.21,1.17-.29,2.48-.5,3.77-.16,1.18,0,1.96-.18,2.86-.14.66-.26,1.32-.27,2,.03.59.19,1.16.27,1.74.06.47.2,1.07.21,1.48,0,.28-.07.78.03,1.11.07.37.32.68.49.98.16.35.29.71.46,1.06.12.31.23.66.3.95.04.21-.01.43.03.64.05.43.45.75.55,1.13-.01-.4-.35-.74-.33-1.16.17-.67-.11-1.82-.26-2.21-.08-.56-.44-1.07-.52-1.55-.03-.26.07-.62.09-.95.03-.53-.05-1.05-.09-1.57-.03-.3-.16-1.53-.18-1.57.04-.66.17-1.32.31-1.96.18-1.23,0-1.97.16-3.36.18-1.31.07-2.14.2-3.3.08-.42.3-.98.34-1.5.05-.38-.02-.77.12-1.14.65-.96,1.32-1.94,2-2.9-.66.66-1.28,1.37-1.91,2.07Z"/>
  <path class="cls-1" d="M76.5,88.05c-1.19-.16-1.71-.94-2.65-1.59-.86-.4-1.47-.35-2.46-.79-.9-.35-1.76-1.02-2.87-1.77-.89-.47-1.17-.63-2.26-1.09-1.18-.49-2.27-.74-3.78-1.11-1.29-.37-2.8-.45-4.21-.16,1.86-.04,3.57.7,5.24,1.43,1.48.69,2.5,1.11,3.44,1.72.79.4,1.08.63,2.02,1.26,1.03.6,2.16,1.07,3.36,1.2.65.08,1.09.09,1.38.3.26.12.94.64,1.4.75.55.21,1.15.22,1.73.19.4.02.79-.04,1.18-.12-.52,0-1.03-.12-1.54-.22Z"/>
</svg>