<?xml version="1.0" encoding="UTF-8"?>
<svg id="Layer_1" data-name="Layer 1" xmlns="http://www.w3.org/2000/svg" viewBox="0 0 192.05 180.63">
  <defs>
    <style>
      .cls-1 {
        fill: #d099c3;
      }

      .cls-2 {
        fill: #af70ad;
      }
    </style>
  </defs>
  <path class="cls-1" d="M72.2,28.07c-.54,1.18-1.07,2.37-1.5,3.59-.39,1.11-.63,2.27-1.06,3.36-.84,2.13-2.7,3.63-4.1,5.38-.06.08-.08.16-.06.25.56,1.37,2.68,1.26,3.89,1.19.82-.05,1.65-.13,2.46-.29.59-.12,1.17-.27,1.72-.52.44-.2.84-.61,1.3-.72l-1-.2c.44,1.51.41,3.05.37,4.61-.03,1.47.05,2.93.09,4.4.02.79.02,1.59-.06,2.38-.06.58-.23,1.16-.26,1.74-.05.79.49,1.02,1.21,1.05,1.33.07,2.71-.15,4-.45s1.96-1.01,2.91-1.81,2.2-1.4,3.24-2.19,1.9-1.81,2.45-2.98.66-2.47.73-3.76c.1-1.76.45-3.49.32-5.26l-1.77.47c.57,3.09,1.68,6.92,4.68,8.49,1.88.98,4.23.83,6.17.12,1.12-.41,2.15-1.09,3.27-1.48.98-.34,1.79-.48,2.53-1.29.11-.12.29-.34.11-.49-1.2-1-2.7-1.51-3.83-2.6s-1.95-2.36-2.84-3.6c-.98-1.37-1.93-2.73-2.65-4.26-.64-1.36-1-2.89-1.99-4.05-.34-.4-1.82-.03-1.7.58.39,2.02,2.58,2.89,4.39,3.2s3.67.18,5.4-.11c.82-.13,1.74-.36,2.34-.97.63-.66.39-1.55-.12-2.21-.65-.83-1.74-1.26-2.7-1.61-1.13-.41-2.27-.77-3.37-1.23-.73-.31-1.42-.68-1.98-1.25s-.97-1.29-1.45-1.94c-.77-1.04-1.85-2.37-3.05-2.91-.38-.17-.91-.05-1.25.17-.23.14-.55.51-.15.69.94.42,1.68,1.42,2.36,2.18.78.87,1.28,1.97,2.16,2.75,1.56,1.38,3.79,1.8,5.69,2.53.82.32,1.79.73,2.25,1.54.25.44.39,1.02-.16,1.21-.65.22-1.42.19-2.09.23s-1.35.11-2.03.06c-1.77-.13-4.09-.81-4.47-2.81l-1.7.58c1.01,1.18,1.36,2.83,2.05,4.2.73,1.47,1.65,2.79,2.6,4.12.87,1.21,1.69,2.47,2.75,3.52,1.16,1.14,2.69,1.66,3.92,2.68l.11-.49c-.6.66-1.47.71-2.26,1.07-.93.43-1.87.95-2.85,1.27-1.69.56-3.59.31-4.96-.87-2.12-1.83-2.93-4.85-3.42-7.49-.11-.61-1.81-.17-1.77.47.1,1.4-.13,2.77-.26,4.15-.1,1.11-.09,2.23-.34,3.32-.54,2.34-2.34,3.67-4.26,4.88-.91.58-1.63,1.28-2.47,1.94s-2.45.68-3.49.7c-.19,0-.4.06-.49-.08-.16-.24.09-.88.13-1.13.21-1.23.2-2.48.16-3.72-.05-1.52-.1-3.03-.07-4.55.03-1.41,0-2.81-.39-4.17-.11-.37-.75-.26-1-.2-.97.23-1.68.95-2.66,1.17-.71.15-1.46.22-2.18.26-.61.03-1.29.06-1.87-.14-.13-.04-.61-.23-.61-.42,0-.25.83-.96.98-1.12,1.35-1.48,2.67-2.93,3.31-4.88.34-1.03.6-2.09.97-3.12.41-1.13.9-2.23,1.4-3.33.17-.37-.59-.4-.76-.38-.39.04-.83.23-1,.6h0l.03-.02Z"/>
  <path class="cls-1" d="M121.99,16.19c-1.39-.16-2.77-.26-4.17-.15s-2.65.51-3.95.96-2.53.77-3.88.85c-.54.03-1.2.08-1.73-.08-.43-.13-.79-.47-1.14-.73-.72-.53-1.44-.99-2.38-.79-1.12.24-1.3,1.11-.86,2.07.4.89,1.03,1.71,1.57,2.52.7,1.06,1.49,2.04,2.33,2.99s1.81,1.4,3.05,1.01c1.17-.36,1.85-1.34,2.7-2.15l-1.59-.03c-.49,1.22-1.48,2.24-2.16,3.35-.59.97-1.32,2.31-.74,3.45.36.71,1.12,1.21,1.74,1.66.76.54,1.56,1.02,2.33,1.55,1.37.95,2.59,2.14,4.37,2.04l-.59-.63-.18.2c-.7.75,1.01.72,1.42.29l.18-.2c.46-.49-.15-.66-.59-.63-.67.04-1.54-.7-2.03-1.06-.58-.43-1.15-.85-1.75-1.24-.74-.49-1.5-.95-2.19-1.51-.48-.39-1.02-.81-1.12-1.45-.18-1.11.67-2.27,1.25-3.13.64-.94,1.41-1.84,1.83-2.91.26-.66-1.39-.22-1.59-.03-.33.31-.61.65-.93.98-.15.15-.29.3-.46.43-.29.23-.23.19-.51.06-.37-.17-.67-.58-.93-.88-.36-.42-.73-.83-1.08-1.27-.68-.87-1.26-1.8-1.87-2.72-.43-.64-1.17-1.54-.84-2.35l-.53.47c-.29.1-.43-.04-.19.16.08.07.2.11.29.17.25.15.47.34.71.51.4.29.8.6,1.27.74,1.27.37,2.83.19,4.12-.02,1.55-.25,2.97-.86,4.46-1.31,1.72-.51,3.52-.41,5.28-.21.42.05.93-.03,1.25-.33.24-.23.23-.58-.17-.62h0v-.03Z"/>
  <path class="cls-1" d="M133.47,24.84c-.22,1.98-.12,4.14-1.15,5.92-.2.35.18.51.48.52.36.01.96-.13,1.17-.48,1.09-1.89,1.04-4.07,1.27-6.18.08-.7-1.7-.38-1.76.22h-.01Z"/>
  <path class="cls-1" d="M108.57,27.61c-.43-.54-.81-1.35-1.47-1.65-.79-.36-1.8.06-2.39.62-.74.7-1.18,1.75-1.59,2.66-.53,1.16-.96,2.37-1.36,3.58-.34,1-.56,2-.21,3.03s1.18,1.95,1.97,2.72c.84.83,1.79,1.62,2.83,2.19,1.14.63,2.46.63,3.66,1.1l-.12-.45c-.42.69-1.14.72-1.88.85-.9.15-1.84.33-2.59.88-.9.65-1.12,1.75-1.25,2.8-.19,1.45-.04,2.92.36,4.32.36,1.25.9,2.48,1.55,3.61.57,1,1.34,1.69,2.48,1.94,2.38.53,4.95-.36,6.98-1.56,1.27-.75,2.43-1.68,3.46-2.73.39-.4.72-.82,1.05-1.27.18-.25.36-.49.55-.73.09-.11.18-.21.28-.31.09-.09.39-.23.11-.19l-.76-.25c.76,1.77.88,3.73,1.17,5.62.15,1.01.38,2.01.66,2.99s.86,2.02.94,3.08c.04.57,1.81.2,1.77-.47-.07-1.06-.64-2.06-.94-3.08s-.5-1.98-.66-2.99c-.29-1.89-.41-3.84-1.17-5.62-.12-.27-.51-.29-.76-.25-1.99.26-2.86,2.47-4.18,3.71-1.64,1.55-3.76,3.01-6.08,3.18-1.19.09-2.19-.2-2.91-1.2s-1.22-2.27-1.61-3.42c-.43-1.3-.68-2.67-.58-4.04.06-.81.1-2.38.95-2.8.71-.36,1.66-.3,2.43-.51.9-.24,1.77-.68,2.27-1.5.1-.17.08-.37-.12-.45-.91-.36-1.86-.45-2.79-.73-1.01-.31-1.89-1-2.68-1.68-1.31-1.13-2.96-2.66-2.8-4.55.08-.93.51-1.87.82-2.73.38-1.07.8-2.13,1.33-3.13.16-.31.33-.62.52-.9.09-.12.25-.26.31-.4.29-.22.15-.24-.43-.05l.09.06c.15.27.48.51.67.77.16.21.3.44.47.65.37.47,2.07-.14,1.64-.69h0v-.03Z"/>
  <path class="cls-1" d="M138.04,58.29c1.94-.05,3.77-.48,5.28-1.77,1.15-.98,2.48-2.43,2.99-3.88.25-.72.18-1.48-.54-1.86-1.11-.59-2.31-.99-3.4-1.62s-1.94-1.38-2.66-2.36c-.68-.92-1.26-1.9-2.12-2.66-.46-.41-2.12.26-1.64.69,1.46,1.31,2.21,3.16,3.8,4.37.82.62,1.7,1.1,2.64,1.52.52.23,1.03.46,1.55.71.38.18.71.3.74.77.08,1.21-1.28,2.52-2.04,3.34-1.11,1.2-2.27,1.71-3.91,1.76-.38.01-.95.12-1.17.48-.2.34.17.53.48.52h0Z"/>
  <path class="cls-1" d="M153.6,34.78c-2.04-.73-4.15-.99-6.31-.89-2.27.11-4.49.54-6.75.03-.4-.09-.95.05-1.25.33-.27.26-.21.54.17.62,2.15.48,4.28.25,6.44.07s4.26-.04,6.29.69c.4.14.89.06,1.25-.17.2-.13.57-.54.15-.69h0Z"/>
  <path class="cls-1" d="M162.47,46.88c-1.59-.73-3.17-1.47-4.81-2.07s-3.4-.97-5.13-1.4c-3.39-.85-6.11-3.16-9-5-.48-.31-2.11.4-1.4.85,2.84,1.81,5.49,4.02,8.78,4.96,1.74.49,3.51.78,5.22,1.39s3.31,1.37,4.94,2.11c.38.17.91.05,1.25-.17.23-.15.54-.51.15-.69h0v.02Z"/>
  <path class="cls-1" d="M152.76,56.25c1.8.23,3.61.49,5.44.42.4-.01.93-.12,1.17-.48.22-.34-.19-.53-.48-.52-1.69.06-3.37-.17-5.04-.38-.43-.05-.92.04-1.25.33-.25.23-.22.58.17.62h-.01Z"/>
  <path class="cls-1" d="M62.59,62.16c.31.43.67.82.94,1.28l-.06-.11c.13.23.24.47.27.73.01.14.24.22.34.24.2.04.46.02.66-.04.3-.09.8-.29.76-.68-.04-.43-.3-.84-.55-1.18-.23-.32-.49-.62-.72-.94-.09-.12-.35-.15-.48-.16-.22,0-.49.05-.69.14-.25.11-.7.38-.47.71h0Z"/>
  <path class="cls-1" d="M72.69,57.44c-.71-.74-1.48-1.42-2.31-2.03-.7-.52-1.55-.77-1.99-1.58l-.53.6c.6-.22,1.54-.03,2.2.05.81.1,1.62.17,2.44.2,1.62.07,3.53.1,4.62-1.32.26-.33-.22-.51-.48-.52-.41-.01-.91.15-1.17.48-.15.2-.3.28-.45.32-.2.05-.51.07-.78.07-.68,0-1.38-.02-2.05-.07-1.71-.14-3.36-.55-5.03.06-.15.05-.67.35-.53.6.21.38.44.72.79.99.38.29.82.44,1.2.71.88.63,1.68,1.34,2.43,2.12.43.44,2.1-.21,1.64-.69h0Z"/>
  <path class="cls-1" d="M29.45,50.67c1.02-1.08,2.09-2.34,3.69-2.33.61,0,1.22.05,1.82.13s1.35.14,1.84.48c.9.62-.17,2.77-.91,3.2-.52.3-1.38.12-1.96.2-.72.09-1.45.34-1.97.87-.16.17-.29.45,0,.57,1.7.69,3.66.54,5.46.5,1.09-.02,2.18,0,3.27-.04.57-.03,1.13-.06,1.69-.17.59-.11,1.14-.28,1.75-.23.68.06,1.87-.89.69-1-1-.1-1.95.26-2.94.35-1.12.11-2.25.06-3.37.07-1.65.02-3.56.29-5.13-.34v.57c.26-.26.59-.21.95-.22.48-.02.96-.04,1.43-.14.89-.19,1.61-.61,2.15-1.35.8-1.08,1.74-3.1.06-3.82-1.36-.59-3.1-.69-4.57-.63-2.27.09-3.86,1.47-5.35,3.04-.71.75,1.01.72,1.42.29h-.02Z"/>
  <path class="cls-1" d="M22.21,68.1c.43,1.73.8,3.48.82,5.27,0,.88-.51,2.39.73,2.63.41.08.93-.05,1.25-.33.27-.25.21-.55-.17-.62.04,0,0,0-.04-.05-.03-.07-.05-.15-.07-.23-.04-.21-.03-.42,0-.63.05-.57.08-1.11.06-1.68-.07-1.64-.41-3.25-.81-4.84-.15-.61-1.92-.15-1.77.47h0Z"/>
  <path class="cls-1" d="M38.53,67.5c1.07-.36,2.09-.81,3.07-1.38.89-.51,1.73-1.08,2.6-1.63.24-.15.52-.5.15-.69s-.93-.04-1.25.17c-.81.52-1.61,1.05-2.45,1.54-.2.12-.4.23-.6.34-.05.03-.1.05-.15.08-.13.07.1-.05-.03.02-.1.05-.21.1-.32.15-.22.1-.44.2-.66.29-.11.05-.23.09-.34.13-.06.02-.12.04-.18.06-.16.06.21-.07-.08.03-.25.08-.86.3-.76.68.09.35.76.28,1,.2h0Z"/>
  <path class="cls-1" d="M15.76,82.61c1.11,2.56,2.51,4.98,3.99,7.33.7,1.12,1.41,2.22,2.25,3.24.42.5.87.97,1.27,1.48.33.42.64.82,1.14,1.04.38.17.91.05,1.25-.17.22-.14.55-.52.15-.69-.46-.2-.71-.65-1.02-1.02-.4-.48-.83-.94-1.23-1.43-.81-.99-1.5-2.07-2.18-3.15-1.44-2.29-2.78-4.64-3.86-7.12-.27-.61-2-.07-1.77.47h0v.02Z"/>
  <path class="cls-1" d="M64.56,64.6c1.74-.71,3.55-1.23,5.33-1.83.88-.3,1.77-.6,2.62-.98.27-.12.53-.26.78-.42.07-.05.39-.18.43-.26.05-.1-.15.03-.15.06s.14.25.15.3c.05.15.09.31.12.47.06.31.08.63.12.94.08.78.36,1.47.6,2.21s.42,1.53.17,2.27c-.2.61-.74,1.04-1.22,1.43-1.4,1.14-3,1.98-4.06,3.5-.24.35.21.5.48.52.39.02.93-.15,1.17-.48,1.05-1.51,2.75-2.3,4.11-3.48.54-.47,1.07-1.01,1.3-1.71.26-.78.1-1.67-.14-2.43-.25-.82-.55-1.59-.64-2.45-.06-.61-.09-1.42-.58-1.86-.58-.52-1.55-.27-2.17.02-.35.16-.65.39-.98.57-.39.21-.83.36-1.24.51-2.27.86-4.62,1.47-6.87,2.38-.25.1-.71.4-.47.71s.9.13,1.17.02h-.03Z"/>
  <path class="cls-1" d="M74.8,73.93c1.75.99,3.88,1.71,5.08,3.42.72,1.02.93,2.4,1.18,3.6.22,1.09.16,2.47.87,3.38.37.47,2.07-.14,1.64-.69-.36-.46-.41-1.09-.48-1.65-.08-.67-.22-1.33-.36-1.99-.27-1.2-.53-2.44-1.29-3.45-1.28-1.71-3.44-2.46-5.24-3.48-.5-.28-2.13.45-1.4.85h0Z"/>
  <path class="cls-1" d="M66.62,84.74c2.16,1.83,4.66,3.44,7.54,3.76.43.05.92-.03,1.25-.33.25-.23.22-.58-.17-.62-2.67-.3-4.97-1.8-6.98-3.49-.31-.26-.83-.16-1.17-.02-.18.08-.78.45-.47.71h0Z"/>
  <path class="cls-1" d="M85.04,80.03c.61.12,1.2.35,1.72.7.2.14.48.32.63.52.17.22.22.51.42.73.47.53,1.28.72,1.93.44.59-.25,1.11-.88,1.5-1.36.71-.89,1.15-1.97,1.5-3.04.37-1.12.52-2.37,1.33-3.29.28-.32-.24-.51-.48-.52-.43-.01-.88.16-1.17.48-.95,1.09-1.12,2.63-1.59,3.95s-1.09,2.4-2.16,3.27l1.25-.33c-.3-.07-.53-.28-.65-.56-.09-.19-.13-.34-.29-.5s-.33-.29-.51-.42c-.7-.52-1.5-.85-2.35-1.02-.41-.08-.94.05-1.25.33-.27.25-.2.55.17.62h0Z"/>
  <path class="cls-1" d="M100.01,81.28c-.04.9-.02,1.82-.17,2.71-.07.42-.19.81-.37,1.2-.17.35-.31.67-.14,1.06.12.28.51.28.76.25,1.87-.22,3.52-1.08,5.3-1.65s3.63-.9,5.32-1.8c.27-.15.49-.49.15-.69-.36-.21-.93,0-1.25.17-1.45.78-3.08.99-4.63,1.5s-3.02,1.31-4.65,1.5l.76.25c-.16-.36.07-.62.21-.94.17-.39.26-.81.32-1.23.12-.84.11-1.69.14-2.54.03-.72-1.74-.37-1.76.22h.01Z"/>
  <path class="cls-1" d="M55.02,101.49c-.06-1.77-.21-3.54-.67-5.26-.19-.71-.4-1.45-.75-2.11-.27-.5-.59-.98-.89-1.46s-.6-.95-.77-1.48c-.05-.16-.02-.36-.07-.5,0-.02.02,0,0,0-.03,0-.32.2-.26.16,0,0-.11,0,.06,0h.17c.19,0,.37.02.55.05.51.07,1.01.18,1.5.31.77.2,1.69.41,2.36.87.47.32,2.1-.38,1.4-.85s-1.7-.71-2.52-.93c-1.07-.29-2.24-.56-3.35-.41-1.05.14-2,.73-1.58,1.88.45,1.22,1.4,2.19,1.87,3.41.84,2.17,1.08,4.49,1.16,6.79.02.56,1.79.21,1.77-.47h.02Z"/>
  <path class="cls-1" d="M66.94,86.95c.19-.21.38-.42.56-.64.13-.15.49-.41.55-.58.13-.08.08-.08-.14.01-.25.01-.27.07-.06.17.06.11.2.21.27.31.22.29.42.6.6.92.64,1.15,1.12,2.4,1.46,3.67.62,2.35.94,5.08,0,7.38-.15.38.57.4.76.38.38-.04.85-.22,1-.6,1.12-2.75.57-6.23-.41-8.95-.29-.81-.63-1.61-1.05-2.36-.35-.63-.75-1.43-1.44-1.75-1.5-.7-2.66.79-3.53,1.74-.7.76,1.02.73,1.42.29h.01Z"/>
  <path class="cls-1" d="M69.47,117.87c.68-.96,1.27-1.99,2.05-2.87.35-.39.73-.75,1.24-.91.56-.18,1.17-.23,1.75-.35,1.28-.25,2.57-.57,3.71-1.24s1.78-1.69,2.55-2.7c.26-.34-.22-.51-.48-.52-.4-.02-.91.15-1.17.48-.75.99-1.36,1.99-2.56,2.49s-2.42.58-3.63.85-2.18.88-2.99,1.79-1.41,1.95-2.11,2.93c-.24.34.21.5.48.52.39.02.93-.15,1.17-.48h0Z"/>
  <path class="cls-1" d="M89.68,119.63c-.56-1.99-1.6-3.94-1.61-6.05,0-.14-.25-.22-.34-.24-.2-.04-.46-.02-.66.04-.33.1-.77.28-.76.68,0,2.11,1.05,4.06,1.61,6.05.17.61,1.94.14,1.77-.47h0Z"/>
  <path class="cls-1" d="M92.35,108.81c.3.59.52,1.23.93,1.77.2.26.47.49.78.6.59.2,1.27.13,1.83-.14.59-.28.99-.74,1.39-1.24.08-.11.09-.26,0-.36-.1-.12-.33-.15-.48-.16-.42,0-.89.14-1.17.48-.09.12-.19.24-.28.35-.01.01-.02.02-.03.04-.03.04-.02.02.03-.04l-.07.07c-.06.06-.12.11-.18.16-.1.09.11-.06.03-.02-.03.02-.05.03-.08.05-.09.06.19-.09.05-.03s.18-.06.08-.03.25-.05.1-.02c-.11.02.11-.01.12,0,0,0-.18-.01,0,0,.14.02.03,0,0,0-.02,0-.04-.01-.06-.02.15.01.12.04.06.02-.04-.02-.09-.04-.13-.06-.01,0-.11-.06-.02-.01s0,0-.02-.02c-.04-.03-.08-.07-.11-.1-.17-.17-.3-.37-.42-.57l.06.11c-.24-.42-.41-.87-.63-1.3-.17-.34-.69-.3-1-.2-.21.06-.43.14-.59.3-.08.08-.24.25-.17.38h-.02Z"/>
  <path class="cls-1" d="M105.68,103.7c.1-.04.38-.2.49-.18-.4-.08-.02.21-.02.25.01.2.07.38.07.59-.02.63-.18,1.26-.33,1.87-.37,1.55-.69,3.11-.87,4.69s-.2,3.1-.17,4.65c.01.88-.05,2.53.97,2.93.63.25,1.38,0,1.98-.24.88-.35,1.77-.72,2.7-.91,1.86-.37,4.02.34,5.67,1.16s2.99,1.9,4.13,3.27c.4.48.81.98,1.17,1.49.25.36,1.08,1.44.68,1.93-.13.17-.5.18-.68.22-.44.1-.87.19-1.31.28-.89.19-1.78.38-2.64.7s-1.67.81-2.46,1.33c-.7.47-1.45,1.08-2.34.92-.41-.07-.94.04-1.25.33-.26.25-.22.55.17.62,1.87.34,3.39-.61,4.88-1.6,1.63-1.07,3.48-1.32,5.34-1.74,1.41-.32,2.64-1.15,1.86-2.7-.74-1.46-1.99-2.9-3.21-3.96-3.05-2.65-7.4-4.12-11.34-2.84-.52.17-1.04.34-1.55.54-.16.06-.38.12-.52.22-.24.16,0,.1-.07-.04-.34-.58-.37-1.31-.4-1.96-.08-1.89,0-3.78.27-5.65s.86-3.6,1.07-5.42c.07-.63.11-1.26-.46-1.67-.77-.54-1.73-.1-2.51.18-.25.09-.7.4-.47.71s.89.11,1.17.02h-.02Z"/>
  <path class="cls-1" d="M36.28,68.63c-2.73.69-5.67.83-8.05,2.5s-4.04,4.56-4.63,7.36.25,5.8,1.81,8.25,4.08,3.98,7.1,4.22c1.67.13,3.61.23,5.23-.29,1.4-.44,2.37-1.39,3.11-2.64.42-.71-1.35-.54-1.64-.04-.48.82-1.07,1.66-2.05,1.89-1.27.3-2.84.18-4.13.05-2.67-.26-4.72-1.82-6.09-4.08-1.28-2.11-2.06-4.66-1.66-7.12s1.78-5.2,3.77-6.86,4.99-1.74,7.47-2.36c.26-.07.86-.31.76-.68s-.76-.27-1-.2h0Z"/>
  <path class="cls-1" d="M27.61,103.23c.08-2.15.64-4.42,2.19-5.99s3.69-2.32,5.68-2.88,4.28-.84,6.34-.07c1.68.63,3.02,1.76,3.95,3.27.69,1.12,2.04,3.66.8,4.83-.27.26-.19.53.17.62.38.1.96-.06,1.25-.33,1.41-1.33.7-3.43-.07-4.92-.94-1.82-2.28-3.24-4.17-4.1-2.3-1.05-4.89-1-7.32-.47s-5.03,1.46-7.09,2.97c-2.36,1.72-3.39,4.46-3.5,7.3-.03.72,1.74.37,1.76-.22h.01Z"/>
  <path class="cls-1" d="M31.83,114.7c2.4.55,4.81,1.33,7.21.29,1.88-.81,3.47-2.22,4.29-4.11.16-.37-.58-.4-.76-.38-.39.05-.84.22-1,.6-.61,1.41-1.82,2.55-3.22,3.16-1.69.73-3.76-.14-5.43-.53-.4-.09-.95.05-1.25.33-.27.26-.21.54.17.62h0v.02Z"/>
  <path class="cls-1" d="M32.06,116.9c-1.76,1.73-3.53,3.7-4.21,6.14s.2,5.03,1.57,7.11c2.46,3.76,6.71,6.43,11.32,5.85,2.6-.33,4.85-1.66,6.57-3.61.29-.33-.24-.51-.48-.52-.43-.02-.88.16-1.17.48-1.25,1.42-2.88,2.46-4.78,2.68-1.8.21-3.61-.29-5.18-1.14-3.47-1.88-6.95-6.31-6.22-10.46.44-2.48,2.27-4.52,4-6.23.27-.26.19-.53-.17-.62-.38-.1-.97.06-1.25.33h0Z"/>
  <path class="cls-1" d="M46.57,137.46c-1.46,1.36-2.71,2.89-3.51,4.73-.94,2.18-1.08,4.47-1.1,6.81,0,.73,1.76.36,1.76-.22.02-2.24.15-4.42.98-6.52.7-1.76,1.9-3.22,3.28-4.51.27-.26.19-.53-.17-.62-.39-.1-.96.06-1.25.33h.01Z"/>
  <path class="cls-1" d="M62.99,150.08c-1.17,2.1-2.67,4.78-5.16,5.47-2.8.78-5.92-.93-7.71-2.98-.4-.46-2.09.17-1.64.69,2.27,2.6,5.98,4.06,9.4,3.22,3.26-.8,5.21-3.6,6.75-6.37.4-.72-1.36-.55-1.64-.04h0Z"/>
  <path class="cls-1" d="M48.07,157.34c-.98,1.54-1.83,3.48-1.49,5.34.44,2.41,2.78,2.87,4.75,3.54,2.54.87,4.19,3.23,6.83,3.95,2.33.64,4.83-.12,6.45-1.88s3.18-4.47,1.22-6.44c-.43-.44-2.11.22-1.64.69,1.55,1.56.44,3.65-.7,5.09-.6.77-1.37,1.49-2.35,1.7s-1.97-.07-2.84-.47c-1.99-.93-3.44-2.74-5.53-3.48-1.71-.6-3.85-.86-4.37-2.93-.44-1.74.4-3.64,1.31-5.08.44-.69-1.33-.53-1.64-.04h0Z"/>
  <path class="cls-1" d="M67.09,166.72c2.31-.05,4.8-.18,6.41-2.09.27-.32-.23-.52-.48-.52-.43,0-.88.15-1.17.48-.11.13-.26.28-.42.4-.02.01-.15.11-.05.04-.04.03-.08.06-.12.08-.08.05-.17.1-.26.15.11-.06.04-.02-.03.01-.04.02-.09.04-.14.06s-.09.04-.14.06c-.02,0-.17.06-.06.02.13-.04-.07.02-.1.03-.05.01-.1.03-.14.04s-.1.02-.14.04c-.03,0-.23.05-.1.02.12-.03-.04,0-.07.01-.05,0-.1.02-.15.02-.11.02-.22.03-.34.04-.21.02-.43.04-.65.05-.13,0,.13,0,0,0h-.15c-.11,0-.23,0-.34.01-.23,0-.45.01-.68.02-.4,0-.93.12-1.17.48s.19.53.48.52h0v.03Z"/>
  <path class="cls-1" d="M74.37,161.95c-2.22-3.88-4.14-8.33-2.42-12.77.15-.38-.57-.4-.76-.38-.37.04-.86.22-1,.6-1.75,4.52.16,9.07,2.42,13.03.34.59,2.04,0,1.77-.47h0Z"/>
  <path class="cls-1" d="M76.83,145.3c2.69-.68,5.69-1.26,8.31-.04,2.24,1.04,3.43,3.2,3.86,5.56.4,2.18.25,4.55-.55,6.63s-2.47,3.76-4.46,4.77c-2.25,1.14-4.84,1.54-7.34,1.5-.35,0-.99.12-1.17.48s.15.51.48.52c5.04.09,11.09-1.52,13.68-6.26,2.28-4.17,1.96-11.18-2.55-13.76-3.19-1.82-7.13-1.12-10.5-.27-.26.07-.86.31-.76.68s.76.27,1,.2h0Z"/>
  <path class="cls-1" d="M74.28,169.39c1.58,1.93,3.45,3.76,6.04,4.14s5.51.38,8.03-.5c.25-.09.7-.41.47-.71s-.89-.11-1.17-.02c-1.02.35-2.14.42-3.21.43-1.13,0-2.33,0-3.43-.24-2.17-.46-3.74-2.16-5.08-3.8-.38-.47-2.08.15-1.64.69h-.01Z"/>
  <path class="cls-1" d="M118.25,149.76c-1.46.35-2.94.72-4.22,1.53s-2.45,2.01-3.32,3.28c-.39.56.69.51.94.46.6-.13,1.2-.28,1.8-.42.39-.1,1.06-.39,1.48-.33.72.11.91,1.97,1,2.53.31,1.8.13,3.94,1.1,5.54.3.5,1.38-.04,1.64-.33,1.04-1.16,1.59-2.7,2.51-3.96.87-1.19,1.76-2.68,3.08-3.41,1.05-.58,2.29-.72,3.46-.9,1.33-.21,2.65-.44,3.91-.94.27-.11.54-.29.53-.6,0-.97-.82-1.26-1.6-1.63-1.16-.56-1.98-1.15-2.79-2.17-1.6-2-2.92-4.21-4.69-6.07-.42-.44-2.1.21-1.64.69,1.71,1.79,3,3.91,4.53,5.86.69.88,1.38,1.61,2.38,2.14.77.41,2.05.63,2.06,1.65l.53-.6c-2.58,1.03-5.51.66-7.95,2.15-1.33.81-2.22,2.13-3.13,3.35-.53.71-1.03,1.42-1.45,2.2s-.79,1.54-1.38,2.2l1.64-.33c-.6-.99-.59-2.25-.7-3.37-.11-1.22-.28-2.53-.7-3.68-.36-.98-.97-1.41-2.03-1.31-1.29.13-2.57.59-3.84.85l.94.46c.73-1.06,1.68-2.09,2.77-2.79,1.01-.65,2.21-.9,3.36-1.18.26-.06.86-.32.76-.68s-.76-.26-1-.2h.02Z"/>
  <path class="cls-1" d="M114.49,167.37c1.16.29,2.35.54,3.56.52.62,0,1.25-.06,1.86-.17.32-.06.63-.12.94-.21.18-.05.42-.16.59-.14.42.06.92-.04,1.25-.33.26-.23.22-.57-.17-.62-.71-.1-1.35.06-2.02.25-.5.14-1.02.21-1.53.23-1.15.05-2.28-.2-3.4-.48-.4-.1-.95.06-1.25.33-.28.26-.19.53.17.62h0Z"/>
  <path class="cls-1" d="M120.27,161.29c.47,2.38,1.01,4.78,2.44,6.79.68.96,1.52,1.85,2.64,2.29,1.04.42,2.17.48,3.28.37,2.25-.21,4.6-.96,6.72-1.74s4.2-2.09,5.28-4.19c1.3-2.52.98-5.51.33-8.17-.15-.61-1.92-.15-1.77.47.51,2.09.83,4.34.25,6.45s-2.1,3.6-4.07,4.43c-1.76.75-3.75,1.31-5.63,1.65-.95.17-1.95.24-2.87-.09-1.01-.36-1.75-1.14-2.38-1.98-1.48-1.97-1.99-4.4-2.46-6.77-.12-.6-1.89-.17-1.77.47h0v.02Z"/>
  <path class="cls-1" d="M111.65,132.36c.64,2.01,1.5,4.09,3.21,5.42,1.9,1.48,4.48,1.93,6.83,1.8,2.63-.14,5.02-1.04,7.3-2.29,1.04-.57,2.13-1.15,2.96-2.01s1.33-1.89,1.63-3c.37-1.33.56-2.8.31-4.18-.3-1.63-1.32-2.89-2.12-4.29-.34-.59-2.04,0-1.77.47.58,1.01,1.31,1.95,1.75,3.04s.54,2.28.39,3.45c-.14,1.08-.37,2.2-.89,3.16s-1.29,1.63-2.23,2.19c-1.86,1.11-3.8,2.08-5.97,2.37s-4.67-.01-6.48-1.35-2.54-3.3-3.17-5.27c-.2-.61-1.96-.12-1.77.47h0l.02.02Z"/>
  <path class="cls-1" d="M130.84,137.64c1.49,2.89,3.69,5.41,6.64,6.86,1.47.72,3.19,1.27,4.85,1.27,1.82,0,3.52-.72,5.01-1.73,2.84-1.93,5.87-4.05,6.78-7.54.76-2.9.34-6.27-1.07-8.91-.86-1.6-2.1-2.66-3.79-3.31-2.18-.84-4.26-.89-6.56-.71-.3.02-.95.23-1,.6-.05.4.51.4.76.38,1.86-.15,3.53-.12,5.3.55,1.39.52,2.53,1.3,3.32,2.59,1.35,2.22,1.87,5.07,1.56,7.64-.16,1.31-.54,2.61-1.26,3.73-.89,1.37-2.26,2.41-3.56,3.37-1.22.9-2.54,2-4.07,2.29-1.43.28-3.05-.26-4.35-.82-3.01-1.32-5.29-3.82-6.77-6.71-.31-.6-2.03-.03-1.77.47h0l-.02-.02Z"/>
  <path class="cls-1" d="M153.26,124.78c1.41-.4,2.82-.71,4.3-.71,1.38,0,2.76.16,4.15.21,1.98.07,4.33.51,5.08,2.63.89,2.52-.31,5.51-1.48,7.74-.56,1.06-1.17,2.17-2.07,2.98-1.05.95-2.49,1.23-3.82,1.57-.26.07-.86.31-.76.68s.76.27,1,.2c2.35-.6,4.51-1.3,6.02-3.31,1.38-1.84,2.46-4.2,2.94-6.44.42-1.99.35-4.38-1.39-5.72-1.56-1.2-3.5-1.26-5.38-1.35-1.47-.07-2.94-.24-4.41-.17s-2.96.4-4.41.81c-.26.07-.86.31-.76.68s.76.27,1,.2h0Z"/>
  <path class="cls-1" d="M160.08,121.49c-2.01-3.32-4.08-7.96-1.65-11.6.97-1.45,2.42-2.5,3.86-3.45,1.63-1.07,3.37-2.14,5.31-2.53s4.25.1,5.71,1.43c.8.72,1.03,1.73,1.23,2.75.24,1.2.46,2.46.42,3.69-.06,2.12-1.05,4.33-1.83,6.27-.74,1.82-1.81,3.51-3.51,4.56-1.77,1.09-4.17,1.22-6.19.97-1.04-.12-2.23-.42-3.06-1.11s-1.2-1.68-1.96-2.38c-.46-.42-2.11.26-1.64.69.79.73,1.21,1.78,2.05,2.45s1.89,1.02,2.92,1.21c2.13.4,4.65.33,6.73-.31s3.88-1.95,5.1-3.73c.67-.98,1.14-2.09,1.56-3.19.47-1.24.95-2.48,1.28-3.76s.39-2.47.24-3.75-.33-2.77-.86-3.97c-.82-1.88-3.57-2.74-5.43-2.92-2.43-.23-4.81.6-6.92,1.74-1.87,1.01-3.8,2.23-5.32,3.72-1.68,1.64-2.61,3.64-2.54,6,.08,2.86,1.41,5.5,2.86,7.89.3.49,2.02-.07,1.64-.69h0v.02Z"/>
  <path class="cls-1" d="M148.27,109.19c2.16,1.34,4.41,2.77,7.03,2.85.39.01.94-.14,1.17-.48s-.2-.51-.48-.52c-2.32-.08-4.41-1.53-6.32-2.71-.34-.21-.94-.03-1.25.17-.27.17-.5.47-.15.69h0Z"/>
  <path class="cls-1" d="M137.08,99.66c2.32-.94,4.68-1.78,7.11-2.43.91-.24,1.51-.3,2.48-.47.81-.14,1.78-.36,2.29-1.06.25-.34-.21-.51-.48-.52-.4-.02-.92.15-1.17.48-.19.26-1.17.23-1.47.27-.99.13-1.96.43-2.92.71-2.22.64-4.4,1.43-6.54,2.3-.25.1-.71.4-.47.71s.9.13,1.17.02h0Z"/>
  <path class="cls-2" d="M34.29,79.39c-.94-1.95-1.48-4.2-1.43-6.27-.66,1.44-.65,3.21-.03,4.67.35.68.88,1.26,1.43,1.8,0,.04-.02.08-.02.12.02-.03.04-.06.06-.09.08.08.16.16.24.24-.06-.11-.11-.23-.17-.34.67-1.02,1.27-2.08,2.04-3.03.47-.72,1.25-1.12,2.11-1.11-2.46-.91-3.79,1.97-4.21,4.01h-.02Z"/>
  <path class="cls-2" d="M36.48,83.34c-.47-1.01-1.15-1.91-1.86-2.77.06-.04.13-.08.19-.13-.08.02-.17.04-.25.05,0-.02-.03-.04-.04-.05,0,.02,0,.04.02.06-.13.03-.27.05-.4.08-1.56-1.96-4.26-4.26-6.74-2.78,1.39-.34,2.68.49,3.82,1.18.89.58,1.83,1.07,2.74,1.63-1,.19-2.03.41-2.74,1.14-.86,1.02-.86,2.61-.55,3.85.04.15.11.29.13.44.05-.27.03-.55.07-.83.19-.97.38-2.04.96-2.86.65-.7,1.59-1.08,2.43-1.57.04.03.09.05.13.08-.03-.04-.06-.07-.08-.11.1-.06.19-.11.29-.18.65,1.75,1.51,4.16,3.04,4.94-.55-.64-.8-1.45-1.14-2.21l-.02.04Z"/>
  <path class="cls-2" d="M34.36,105.47c1.3-.82,2.63-1.61,3.95-2.4-1.54.15-3.06,1.02-3.96,2.3-.14-1.66-.17-3.34-.54-4.97.11-.77.5-1.49.65-2.25-.46.69-1.09,1.32-1.34,2.13-.04,1.77.42,3.56,1.19,5.15-.03.04-.06.08-.09.12.04-.02.08-.05.11-.07,0,.02.02.05.03.07v-.09h0Z"/>
  <path class="cls-2" d="M35.03,111.83c-.22-.35-.43-.72-.47-1.13-.1-1.47-.18-2.95-.05-4.42,0,0,0,.01.02.02,0-.01,0-.02-.02-.03,0-.09,0-.17.02-.26-.03.05-.05.1-.07.15-1.07-2.28-3.07-4.05-4.31-5.95.33,1.3.89,2.59,1.75,3.63.79.85,1.73,1.54,2.53,2.37-.79,1.61-1.07,3.96.15,5.38.09.06.23.26.34.28.03.02.05.04.09.05.03,0,.05-.05.03-.08h0Z"/>
  <path class="cls-2" d="M29.15,107.91c-.27.31,0,.72.06,1.07.03-.22.05-.45.07-.67.3-.41.9-.59,1.33-.87,1.07-.52,2.02-1.29,3.18-1.58-1.74-.18-3.52.76-4.64,2.06h0Z"/>
  <path class="cls-2" d="M36.74,124.01c-.39,1.61-.34,3.34-.08,4.98-1.19-2.07-2.3-4.35-1.8-6.8.03-.1.09-.19.12-.3-.09.11-.21.2-.29.32-1.47,2.85-.26,5.14,2.01,6.99,0,.05,0,.09.02.14,0-.03,0-.07.02-.1.04.03.08.07.13.1-.04-.06-.07-.13-.11-.19.24-1.34.56-2.67.62-4.03.02-.42-.04-.88.16-1.27.29-.57.81-.97,1.25-1.41-.79.33-1.72.7-2.04,1.58h-.01Z"/>
  <path class="cls-2" d="M39.63,127.18c.32-.34.56-.81,1.06-.89-.2-.02-.41-.05-.59.06-1.36.75-2.38,2.05-2.9,3.51l-.18-.21c.49,1.69,1.64,3.25,3.17,4.13-.94-1.34-1.9-2.65-2.97-3.9.8-.9,1.67-1.75,2.42-2.69h-.01Z"/>
  <path class="cls-2" d="M36.42,129.71c.2.03.4.05.6.08-.18-.1-.36-.19-.53-.28.03-.1.06-.2.09-.31-.07.08-.13.17-.2.25-1.38-.73-2.81-1.38-4.15-2.19-.35-.18-.76-.28-1.06-.55-.38-.39-.6-.91-.84-1.39.03.96.28,1.99,1.2,2.47,1.34,1.13,2.98,1.64,4.67,1.9-.67.98-.95,2.2-.93,3.39.47-1.09.8-2.22,1.14-3.36h0Z"/>
  <path class="cls-2" d="M48.31,145.82c-.2-.7-.21-1.44-.41-2.14-.12-.45-.14-1.13-.24-.23-.05.91-.31,1.86-.07,2.75.64,1.55,2.19,2.79,3.83,3.12-1.3-.86-2.32-2.16-3.1-3.49h0Z"/>
  <path class="cls-2" d="M47.73,149.6c-1.2.17-2.39.12-3.58-.03,2.2,1.36,4.89.84,7.25.19-1.22-.11-2.45-.23-3.67-.16h0Z"/>
  <path class="cls-2" d="M54.73,153.79c-.61-.32-.74-1.07-1.1-1.6-.69-.99-1.57-1.87-2.61-2.49.8,1.13,1.59,2.27,2.49,3.33.3.4.69.81,1.22.85.29.02.18,0,0-.09Z"/>
  <path class="cls-2" d="M76.84,153.67c-.27-.73-1-1.63-.71-2.39-.5.49-.26,1.19-.19,1.8.36,2.01,1.56,3.89,3.36,4.9-1.05-1.29-1.69-2.84-2.46-4.3h0Z"/>
  <path class="cls-2" d="M84.17,157.24c-1.42.47-2.9.74-4.39.84.79-1.49,1.34-3.15,1.33-4.85-.7,1.55-1.27,3.16-1.47,4.85-.26.01-.52.04-.77.04.24.11.49.19.74.25v.04s.01-.02.02-.04c1.58.41,3.34-.01,4.55-1.14h0Z"/>
  <path class="cls-2" d="M79.6,158.86c.47,1.52,1.82,2.37,3.08,3.2-.79-1.27-2.1-2.09-3.08-3.2Z"/>
  <path class="cls-2" d="M75.07,157.66c1.44.89,3.16,1.28,4.83.9-1.6-.33-3.2-.69-4.83-.9Z"/>
  <path class="cls-2" d="M131.57,163.67c.5,1.7.41,3.52.31,5.28-1.48-.95-2.75-2.19-4.18-3.22.94,1.66,2.5,3.18,4.47,3.4-.09-.06-.19-.12-.28-.18.88-1.64.92-3.82-.32-5.29h0Z"/>
  <path class="cls-2" d="M135.75,163.74c-.84,2.1-1.59,4.4-3.28,5.98,2.42-.86,3.43-3.59,3.28-5.98Z"/>
  <path class="cls-2" d="M144.16,133.07c1.25,1.32,2.1,2.91,2.92,4.52.73,1.31,1.41,2.64,1.83,4.09.29-3.44-1.59-7.1-4.75-8.61h0Z"/>
  <path class="cls-2" d="M149.86,130.53c.3,1.81-.06,3.67.06,5.5.05,1.88.39,3.76.3,5.65,1.33-3.17,1.25-8.1-.37-11.15h.01Z"/>
  <path class="cls-2" d="M141.23,139.92c2.15,1.81,5.05,2.59,7.83,2.49-2.54-1.04-5.19-1.74-7.83-2.49Z"/>
  <path class="cls-2" d="M174.16,115.54c-.05-.1-.1-.19-.16-.29h-.01c-.95-1.8-2.59-3.14-4.37-4.08.92,1.35,2.72,2.83,4.19,4.09-1.68.07-3.35-.34-4.91-.93,1.27,1.29,3.31,1.78,4.97.98.09.08.19.16.28.24h.01Z"/>
  <path class="cls-2" d="M171.74,118.14c-1.02.73-2.07,1.4-3.18,1.99,2.32-.24,4.94-1.63,5.6-4-.58.9-1.56,1.41-2.42,2.01Z"/>
  <path class="cls-1" d="M77.73,24.06c-.99.43-2.12.29-3.17.24-.33,0-1.09-.3-1.24-.39-2.54-1.31-3.51-.85-4.54-2.27-1.18-1.18-1.69-2.42-2.83-4.37.96-.17,1.94-.32,2.83-.75,1.44-.72,2.86-1.92,4.22-2.52.59-.27,1.23-.3,1.87-.3.94-.02,1.9-.04,2.81.22-.52-.32-1.09-.61-1.67-.84h-.03c-.1,0-.17-.04-.22-.1-.92-.33-1.89-.53-2.84-.52-1.5.12-2.87.77-4.28,1.26-.67-.94-1.14-2.19-1.36-3.11.12-1.35.24-2.91.26-4.38v-.15c.26.14.49.26.63.31,1.96.86,3.18,1.13,4.86,2.27,1.26.63,2.7.92,4.1.78-.12-.08-2.12-1.18-2.99-1.84-.52-.44-1.16-1.22-1.82-1.66-1.59-1.05-4.26-2.4-5.08-3.05-3.61-1.44-1.36,6.64-1.43,7.59.41,1.33,1.42,2.52,2.58,3.32-.26.09-.52.17-.79.24-.89.09-1.78.11-2.67.11-.4-.08-1.58-.29-1.88-.4-.1-.04-.04-.02.06.03-.06-.02-.12-.05-.18-.07-1.54-.44-2.83,1.28-1.98,2.65.22.4.61.67.91,1.01,0,0,0,.01.02.02.35.59.6,1.23.99,1.8,1.42,2.3,3.04,4.72,5.62,5.83,1.57.44,1.8.27,2.99.48.7.06,1.26.27,2.18.35,1.6-.06,3.46-.45,4.58-1.66,1.15-1.42.41-.6-.52-.13h.01Z"/>
  <path class="cls-1" d="M99.25,6.38c-.69.3-.53.14-1.8.69-1.81.96-2.78,1.82-4.12,2.17-1.4.47-1.89.16-3.31-.3-1.53-.15-3.11.2-4.54.72,1.38.02,2.92.15,4.15.63.32.21.73.58,1.22.78,1.85.97,4.01.46,5.88-.32-.23.53-.46,1.06-.67,1.59-.54,1.66-.45,1.7-1.25,3.12-.01.04-.06.11-.08.15-.76.67-1.9,1.79-2.86,2.74-.47-.21-1.11-.16-1.48-.15-1.82-.3-3.48-1.35-4.77-2.67.74,1.74,2.08,3.32,3.79,4.17-1.31,1.34-2.44,2.85-3.43,4.44-.09.09-.22.2-.32.28-.52.36-1.56.59-2.53.67-.63.05-.8-.03-1.48-.23-.84-.26-1.36-.85-1.81-1.84-.31-.82-.24-1.78-.7-2.54.14.89-.24,1.77-.2,2.66.13,3.02,2.95,4.39,5.65,4.22.3,1.65.67,3.28,1.19,4.88.34,1.52.65,3.05,1.21,4.51.41,1.58.6,3.21,1.03,4.79.08.35.12-1.16.08-1.38.08-1.23.17-2.48-.03-3.71-.31-1.39-.62-2.78-1.06-4.14-.7-1.69-1.56-3.32-2.39-4.95.8-.05,1.59-.23,2.29-.56,1.3-.66,1.91-2,2.68-3.16.78-1.2,1.34-2.06,2.03-3.01.04-.11.76-.68.78-1.07.01-.09.02-.17.02-.24.36-.2.71-.42,1.08-.6.99-.49,1.98-1.03,2.89-1.67.74-.82,1.47-1.69,1.9-2.72.92-2.05,2.38-3.91,2.97-6.09.25-1.13-.92-2.21-2.02-1.87h.01Z"/>
  <path class="cls-1" d="M66.42,38.74c-.16-.64-.48-1.24-.57-1.9-.34-1.33-.18-1.61-.44-3.5-.12-1.28-1.17-2.31-2.44-1.59-.84.66-1.3,1.72-1.88,2.6-.41.72-.37.75-.83,1.17-.69.81-1.25.67-2.43,1.38-.68.36-.89,1.14-1.19,1.8-.54,1.28-.92,2.63-1.12,4.01.77-1.43,2.05-3.17,2.94-4.17-.26.07.62-.16.87-.23h.07c.36-.04.73-.07,1.08-.18.92-.3,1.74-1,2.33-1.63.09.42.2.83.35,1.23.59,1.63.9,1.56,1.2,3.05.1.43.27,1.42.32,1.51,0,.46-.06.82-.14,1.02-.45.74-.87,1.54-1.53,2.12-.25.3-.42.64-.69.93-.39.52-.91.97.02.37,1.67-1.12,3.73-1.99,4.2-4.14.14-1.27.11-2.58-.12-3.85h0Z"/>
  <path class="cls-1" d="M56.01,33.98c-.77-1.28-1.56-2.63-2.84-3.46-1.15-.81-2.37-1.5-3.59-2.21-.07-.1-.15-.2-.22-.3-.47-.51-1.28-.67-1.88-.3-.38.21-.59.58-.75.96h0c-.36.68-.6,1.4-.8,2.14-.41,1.99,0,4.07.21,6.07.65,2.15,2.07,3.96,3.82,5.34,0-.04-1.67-4.2-1.73-5.62.32-2.99.1-3.77.64-5.4,1.08.51,2.47,1.03,3.59,1.6,1.49.95,2.87,2.42,3.8,4.22.28.48.22,1.08.31,1.61.1-.39.21-.77.27-1.17.04-1.18-.42-2.38-.83-3.48Z"/>
  <path class="cls-1" d="M40.85,48.12c-1.42-.57-2.82-1.86-4.04-2.92,0,0-.02-.02-.03-.03.02-.15.05-.3.07-.45,0-.23-.02-.46-.06-.7.98.05,1.96.18,2.95.18.9-.09,1.79-.29,2.66-.52,1.01-.39,1.59-.81,2.65-.94,1.02-.16,3.34-.27,3.38-.29h0c-1.44-.84-3.11-1.31-4.77-1.25-.61.04-1.35.29-1.59.3-1.63.03-1.89.13-2.94-.14-3.36-.82-6.4-1.25-5.56,3.2v.13c-.21,1.17.29,2.32,1.29,2.99,1.6,1.11,3.29,2.3,5.24,2.64,1.54.28,3.14.15,4.67-.13,1.34-.16,2.48-.9,3.53-1.71.04-.03.08-.06.13-.09-.85.25-1.7.52-2.58.61-1.72-.05-3.35-.32-5-.88h0Z"/>
  <path class="cls-1" d="M54.63,54.13c-.1-.49-.27-.96-.42-1.43-.05.81,0,1.65-.27,2.42-.33.58-.59,1.37-.95,1.82-1.06.97-1.99,1.83-2.79,2.11-1.77.87-3.64,1.65-4.58,1.68-1.13.03-1.53-.06-2.06-.15.81-1.71,1.44-3.84,2.07-5.13,1.05-1.99,2.6-3.68,4.46-5.1-2.33.72-4.52,2.03-6.13,3.87-1.22,1.45-2,3.2-3.04,4.78-.89,1.15-1.66,3.2-.52,4.23-2.48-.41-4.84-.46-7.2-1.05-1.25-.36-2.62-1.06-4.09-1.45-.28-.11-.53-.27-.8-.41.14.15.27.3.42.44,1.19.89,2.51,1.64,3.81,2.36,2.55.98,5.32.55,7.96.2.18.14.4.25.66.34.4.11.82.09,1.23.13h.02c.07.02.13.03.2.04-.23-.03-.46-.06-.7-.07-1.87.05-4.12,2.54-4.45,2.68-1.09.81-1.07.49-1.85,1.11-.89.83-.43,2.45.74,2.74.58.14.26.04.83.11.4.23.79.49,1.17.75.08.05.15.1.21.14.03.03.07.06.1.09.94,1.67,2.23,3.2,3.92,4.14,1.06.59,2.3.52,3.46.7.85.08,1.76.2,2.55-.19-1.06.1-2.01-.51-2.95-.9-.63-.26-1.5-.59-1.85-.88-1.15-.96-2.07-2.74-2.3-3.37-.43-.85-.08-.71-.98-1.75-.24-.2-.44-.38-.62-.54.18-.16.35-.32.51-.48.23-.34,1.28-1.27,1.78-1.55.02,0,.03,0,.05-.01.22,0,.77-.03.98.01,1.1.11,1.9-.02,2.73.29.85.34,1.66.61,2.51,1.14.83.78,1.33,1.83,1.98,2.75-.05-.22-.1-.45-.16-.67-.29-1.22-.52-2.59-1.51-3.45-.84-.67-1.65-1.42-2.63-1.89-.83-.31-1.7-.57-2.58-.75.42.04.84.06,1.26.05,2.43.06,4.56-1.36,6.43-2.76,1.3-.81,2.15-2.17,2.95-3.44.29-.53.32-1.14.41-1.72.15-.66.2-1.33,0-1.98h.03Z"/>
  <path class="cls-1" d="M65.16,50.55c-.97-1.43-2.77-1.66-4.32-2.05-.11-.05-.21-.11-.29-.19.05.08.09.16.15.23,1.04.82,2.7,1.5,3.1,2.7.25.69.52,2.28.57,2.53.07,1.09-.23,1.92-.26,2.04-.41.41-.79.86-1.09,1.36-.38.56-.75,1.14-1.12,1.71-.08-.14-.17-.29-.26-.43-.4-.62-1.08-.95-1.71-1.3h-.01c-.86-.77-1.53-1.72-2.28-2.59-.62-.83-1.23-1.64-1.55-2.61-.05,1.14.3,2.23.71,3.27.35.78.66,1.61,1.07,2.36-.66-.04-1.32.28-1.5.97-.05.17-.12.69-.15.95-.01.07-.03.14-.05.19-.65,1.38-1.35,2.02-2.21,3.2-1.31,2.03-1.33,4.53-.81,6.82.32-2.03.89-4.13,2.22-5.49.68-.72,1.01-.8,1.65-1.45.42-.47.85-.95,1.19-1.48.69.71,1.44,1.32,1.94,1.69.69.73,1.2,1.29,1.45,2.04.37,1.37-.33,3.97-.49,5.1,1.01-1.45,1.91-3.12,2.18-4.88.06-.99-.26-1.94-.75-2.8.6-.25.99-.81,1.32-1.35.74-1.01,1.35-2.1,1.99-3.16.03-.04.04-.06.06-.09.67-.71.84-1.69.84-2.64.02-1.68-.74-3.25-1.61-4.65h.02Z"/>
  <path class="cls-1" d="M26.49,50.46c-1.7-2.48-4.24-4.47-5.16-6.1-1.28-1.7-1.75-2.04-2.94-4.18,0-.04-.02-.1-.04-.17-.16-.46-.24-.94-.45-1.38-.42-.69-1.33-1.04-2.08-.68-1.43.59-1.08,2.41-1.09,3.66.04,1.51.06,3.03.19,4.54.15,1.31.06,2.69.46,3.96.44.93,1.25,1.59,2.1,2.13.15.09.73.52.66.41-.65-.87-1.42-1.71-1.64-2.8.07-1.38.67-3.84.66-4.3.03-.17.07-.37.1-.57.87,1.08,1.86,2.09,2.79,3.05,1.66,1.61,3.85,2.7,4.92,3.98.4.7.74,1.64.95,2.54.04,1.14-1.02,2.03-1.84,2.7,1.22-.39,2.57-1.11,2.99-2.4.22-1.4.08-3.13-.59-4.39h0Z"/>
  <path class="cls-1" d="M25.98,59.97c-1.06-.95-2.53-1.14-3.83-1.6-.7-.22-1.3-.67-1.98-.93.72.72,1.36,1.54,2.25,2.07.71.4,1.8,1.18,2.09,1.51.39.58.54.84.68,1.38-.06.04-.12.09-.17.14-.06.06-.13.11-.19.17-.3.04-.61.09-.91.14-1.43.25-2.92.43-4.26,1.02-.74.38-1.97,1.39-2.3,1.43h-.15c-.24-1.21-.5-3.41-.75-5.12-.35,1.86-1.03,4-.79,5.87.18.46.44.75.75.94-.96,1.32-2.73,1.86-4.27,2.26-.43.04-.86.08-1.29.05-.86-.26-1.74-.34-2.63-.35.53-.68,1-1.4,1.36-2.19.48-.81.42-1.84.93-2.52.76-.89,1.89-1.9,3.14-2.16-.32-.04-.65-.03-.98,0,.14-.1.27-.2.39-.33.14-.15.25-.32.37-.48-.19.12-.37.25-.57.35-1.03.44-2.16.07-3.23.04-.94-.11-1.56-1.02-2.41-1.74-1.14-1.1-1.89-3.15-3.24-4.6.17-.07.39-.17.71-.31,1.13-.44,1.98-1.49,2.88-1.99.75-.41,1.85-.34,2.77-.06,0-.05-.72-2.1-3.39-1.22-1.08.41-1.68.93-2.78,1.16-.89.26-1.82.41-2.67.79-1.04.61-.71,1.98,0,2.73.17.24.94,1.18.46.58,1.27,1.44,2.43,4.05,5.05,5.28.99.68,2.17.9,3.32.58-.44.25-.86.54-1.22.86-1,1.51-1.43,2.51-2.92,3.72-1.13.91-1.14.93-2.66,1.82-.35.22-.8.34-1.03.71-.69.79-.21,2.13.79,2.38.3.14,1.69-.12,1.89-.18,1.16-.12,2.31-.28,3.46-.48h.05c.96-.06,1.93.15,2.88-.08,1.32-.25,2.43-.99,3.47-1.81.87-.65,1.64-1.54,1.92-2.6.88.17,1.94-.23,2.73-.6.29,1.83-.59,3.67-1.42,5.26-.92,2.44-2.65,4.97-3.8,7.8-.15.29-.26.59-.34.9-.24.09-.51.18-.68.21-1.21.12-2.43.23-3.64.26-1.9.01-3.83.11-5.64.7.36-.38.74-.75,1.1-1.13.15-.09.31-.16.47-.22-.73.32.87-.37,1.18-.54,0,0,0,0,.03-.01.82-.12,1.43-1.06.84-1.77-.34-.42-.96-.63-1.11-.86-.17-.18-.17-.21-.35-.49t-.02-.03c0-.1.12-.54.2-.7.6-1.1,2.25-1.65,2.22-3.08-.16.64-.78.96-1.31,1.27-2.04.71-3.08,2.17-2.36,3.78-.48.1-.95.23-1.39.45-1.17.81-2.55,1.53-3.08,2.94-.65,1.29-1.04,3.12.31,4.11,1.65,1.1,3.64.12,5.44-.18.03,0,.07,0,.13-.02,3.76-.16,8.31-.32,10.29-1.95.32-.28.53-.63.65-1.01,1.16.24,2.36.26,3.52.02.43-.04.82-.23,1.14-.52.95-.88,1.62-1.99,2.05-3.21.36-.84.57-1.73.39-2.64-.03-.34-.13-.66-.22-.98-.04.77-.07,1.6-.42,2.31-.82,1.54-1.62,2.92-2.73,4.02-.81.39-2.43.79-3.71.91.1-.34.14-.69.16-1.05.11-.31.56-2.17.68-2.55.59-2.03,1.26-4.04,1.49-6.15.43-1.88.81-4.06-.06-5.86.34-.16.63-.32.81-.42,1.18-.4,2.86-.31,5.43-1.23.6-.47,1.22-1.05,1.5-1.77.25-1.24-.66-2.38-1.49-3.2h.02Z"/>
  <path class="cls-1" d="M16.06,119.09c-1.6.97-3.6,1.82-5.22,1.81h-.13c-.14-.12-.95-.86-1.58-1.2-.03,0-.08-.03-.16-.07.42-.75.68-2.11.77-2.49,1.05-1.91,2.58-3.63,4.52-4.81-1.51.2-2.88.93-4.12,1.79-1.16.81-2.27,1.82-2.67,3.23-.07.2-.24.54-.46.98-.46.28-1.3.27-1.43,1.48-.03.59.4,1.08.9,1.33.99.48,1.39.55,2.2,1.03.72.53,1.55.99,2.47.73,1.71-.41,3.32-1.36,4.47-2.7.48-.54.98-1.06,1.45-1.61-.34.17-.67.34-1.01.52v-.02Z"/>
  <path class="cls-1" d="M29.55,110.91c-.23-.2-.46-.39-.71-.56.43.72.92,1.43,1.13,2.24.67,1.99.04,4.6-.53,5.96-.29.32-.98,1.13-1.57,1.98-.02-.03-.03-.05-.04-.08-.5-.76-1.28-1.27-1.81-2.01-.76-1.03-1.66-2.16-1.92-3.48-.26,1.84.49,3.68,1.33,5.29.48.76.75,1.11.87,2.02.05.59-.1,1.27-.15,1.93-.11-.13-.22-.26-.33-.4.1.31.22.64.33.97v.13c.03.11.07.21.12.3.12.48.18.96.06,1.42-.66.89-1.87,1.46-2.77,2.29-.02.02-.05.04-.06.04-.11.08-.22.16-.33.24-.7.39-1.37.83-2.04,1.26-.06-.91-.05-2.26-.27-3.54-.1-.36-.05-1.58-.69-2.68-.56-.97-1.52-1.77-1.92-2.61-.37-.96-.17-3.28-.19-3.37-.98,1.24-1.46,2.95-.98,4.48.55,1.32,1.28,2.28,1.23,3.21.09,1.9-.25,3.84.1,5.71.55,2.6,2.45,2.83,4.55.61.16-.13.63-.56.74-.65,0,0,0,0,.03-.02,1.25-.88,1.91-2.14,2.85-3.16.84-.91.94-1.76.6-2.63.35.07.72,0,1.01-.24.56-.48.8-1.27,1.11-1.92.03-.08.06-.15.08-.21.02-.04.04-.09.06-.13.41-.82,1.28-2.2,1.6-2.68,0,.08.64-.86.69-1.17.77-2.94.37-6.59-2.17-8.56v.02Z"/>
  <path class="cls-1" d="M19.62,110.98c1.13-.35,2.07-1.27,3.04-1.91.27-.23,1.66-1.24.88-.88-1.39.44-3.01,1.12-4.29,1.28-.17,0-.22-.02-.41-.11-.55-.18-2.11-1.26-2.06-1.22,0,0-.03-.02-.04-.03.17-.38.31-.78.41-1.18.32-1.03.17-2.1-.33-3.04-.05-.13-.12-.27-.16-.37.19-.02.39-.04.58-.06,1.36-.09,2.89-.79,3.94-.77,1.41.32,3.55,1.36,4.97,2.44-.65-1.1-1.57-2.02-2.55-2.85-.83-.68-1.7-1.43-2.82-1.5-1.1-.14-2.19.1-3.29.09-.68.01-1.38-.1-2.05.03.75-1.24,1.57-2.44,2.65-3.41,1.41-1.04,2.98-2.29,3.55-4.06.1-.38.14-.44-.12-.07-.73.88-1.7,1.51-2.68,2.1-2.27,1.04-3.44,3.22-3.87,5.56-1.15.34-2,1.22-1.73,2.39-1.35-.81-3.01-1.1-4.5-1.33.36-2.92.64-5.95-.08-8.79,1.13.24,2.2.68,3.27,1.11.51.23.81.21,1.11.62.53.87,1.19,1.85,1.37,2.9,0,.34.07-.06.1-.19.11-.81-.06-1.63-.22-2.42-.13-.63-.31-1.3-.8-1.74-1.03-.76-2.06-1.54-3.21-2.1-1.03-.49-2.63-.9-2.75-1.12-.92-1.67-3.65-.2-1.86,2.01,1.42,2.55,2.05,6.36,2.85,9.68-.35-.05-.69-.11-1.02-.17-.77-.13-1.54-.48-2.33-.33-.95.2-1.79,1.2-1.53,2.2.49,1.44,1.88,2.34,2.79,3.52.03.03.06.06.09.09.06.3.12,1.57.27,2.24.23,1.17,1.14,2.01,2.14,2.57.39.24.83.46,1.3.41.41.01-.32-.13-.41-.26-.59-.5-1.07-1.17-1.44-1.85-.25-.61-.17-1.4-.09-1.92.06-.63.23-1.28.09-1.91-.31-.77-.86-1.42-1.34-2.09-.16-.22-.31-.41-.45-.58,2.39.2,4.82-.47,7.12.36,0,.02.03.03.04.05.15.23.27.47.39.72.07.15.22.47.3.64,0,.03.02.05.03.08,0,.02,0,.04,0,.06,0,.14-.02.36-.03.54-.03.22-.07.43-.13.65-.21.66-.3,1.38.05,2.01.28.65.92,1.03,1.55,1.29.78.35,1.59.62,2.43.76.25.03,1.08,0,1.27-.09v-.05Z"/>
  <path class="cls-1" d="M32.55,139.5c-1.1-.44-2.23-.4-3.36-.21,0-.51-.03-1.03.12-1.52.75-1.91,1.52-3.82,2.12-5.79-1.27,1.79-2.55,3.75-2.82,5.98,0,.47.13.93.26,1.39-.26.05-.51.1-.77.16-2.15.51-4.24,1.26-6.24,2.21-.13-.02-.31-.05-.58-.13-.02-.01-.03-.03-.05-.04-.68-.47-1.67-.25-2.08.46-.48.93-.07,1.61.62,2.05.22.28.55.68.71.87.55.81,1.32,1.26,1.79,1.67,1.29,1.19,2.82,2.05,4.54,2.44,1.12.22,2.24-.2,3.33-.45-.21-.02-.42-.05-.63-.07-.71-.08-1.44-.11-2.12-.37-.64-.32-1.18-.79-1.76-1.2-.55-.35-1.69-1.88-2.31-2.61.33-.16.66-.34.99-.49,1.42-.73,2.89-1.37,4.33-2.07.7-.26,1.6-.8,2.58-.93,1.66-.01,3.62-.13,4.91,1.1-.65-1.42-2.21-1.98-3.58-2.47v.02Z"/>
  <path class="cls-1" d="M41.53,151.28c-.06-.22-.14-.44-.22-.66,0,.67-.11,1.33-.36,1.95-.51.97-1.96,1.91-2.53,2.5-.29.25-.59.34-.91.46.03-.37.03-.75-.04-1.12-.23-1.4-.93-2.67-1.23-4.05-.2-1.27.14-2.67.77-3.83-.69.58-1.17,1.18-1.5,1.81-.02-1.01-.07-2.28-1.26-2.33-1.21,0-2.42.31-3.61.52.54.12,1.08.2,1.63.29-.83.52-1.5,1.42-1.86,2.25-1.04,2.77,2.06,3.04,4.02,2.8.2-.06.35-.16.49-.28.05.75.18,1.53.35,2.36.22.71-.12,1.97-.05,3.06-.42.11-.84.19-1.27.19-.52-.07-1.11-.37-1.54-.54-.36-.18-.83-.42-1.29-.48.56-1.42.95-2.93,1.79-4.22-1.35.91-2.22,2.35-3.1,3.69-.57,1.03-1.37,2.23-1.2,3.09.14.55.82.86,1.31.56.57-.41.72-1.26,1.12-1.56h0c.09-.03,1.66.43,2.42.4.66,0,1.26-.27,1.8-.64,0,.05,0,.1.03.15.19,1.06,1.38,1.36,2.12.61.19-.15.48-.59.51-.68.38-.27.83-.42,1.18-.73.81-.72,1.35-1.7,1.96-2.59.63-.86.72-1.96.45-2.97h0ZM33.77,149.75c0,.08,0,.14-.05.28-.72,0-1.49.08-1.98-.06h0c-.05-.18-.03-.36-.02-.56.17-.81.58-1.83,1.28-2.47.34.06.68.13,1.02.21.05.58-.24,1.69-.24,2.6h0Z"/>
  <path class="cls-1" d="M47.79,156.12c-.08-1.22-.21-2.5-.88-3.55-.62-.87-1.48-1.56-2.34-2.18-.14-.09-.27-.18-.41-.27.73,1.03,1.55,2.11,1.81,3.36.11,1.21-.14,2.2-.35,3.45-.31,1.64-.38,2.15-.96,3.04-.11.21-.59.86-.77,1.11-.06.07-.12.14-.18.2-.67.4-1.38.79-2.01,1.25-.16-.66-.36-1.32-.64-1.99-.71-1.93-.72-4.06-.08-6.08-1.22,1.55-1.83,3.49-1.87,5.46.1,1.82.46,3.62.16,5.45-.05,1.06-.45,2.61.83,3.09.54.26,1.25.11,1.67-.32,1.13-1.88.83-2.37,2.46-3.38.54-.39,1.15-.71,1.63-1.17.74-.86,1.23-1.89,1.64-2.94.51-1.44.36-3.02.28-4.52h0Z"/>
  <path class="cls-1" d="M90.49,167.02c-.93.03-1.95-.21-2.92-.19h-.07c.3-.63.57-1.26.85-1.88.59-1.04,1.21-2.06,1.78-3.11.32-.62.49-1.11.86-1.43,1.37-1.23,3.12-2.35,5.04-2.88-1.78-.15-3.54.2-5.16.94-.9.34-1.75.85-2.29,1.66-.99,1.25-1.45,1.76-2.54,3.19-.91,1.35-1.44,2.93-2.4,4.25-.05.06-.1.12-.15.19-.68.32-1.17.74-1.21,1.29-.17.8.57,1.6,1.37,1.58.92-.17.35,0,1.33-.38.25-.18.47-.39.68-.6.02,0,.04-.02.06-.03.44-.18,1.48-.65,2.36-.87,1.03-.22,2.16-.19,3.08-.74.93-.7,1.75-1.55,2.68-2.25.02-.02.04-.03.06-.05-.36.12-.71.24-1.07.36-.86.32-1.51.71-2.34.93v.02Z"/>
  <path class="cls-1" d="M105.57,166c-.18-1.61-.6-3.19-1.47-4.57-.2-.35-.42-.69-.63-1.03.08.38.15.76.23,1.13.47,2.11.23,4.39-.2,6.21,0,.01,0,.02-.01.03-.02.04-.05.08-.05.09-.05.05-.14.13-.19.17-.46.3-.92.59-1.41.83h-.01c-.18,0-.6.01-.78.03-.37.03-.71.19-.99.44-.42-1.18-1.01-2.31-1.59-3.43-.27-.67-.64-1.3-.74-1.7.19-1.12,1.09-4.61,1.84-6.52-1.26,1.41-2.26,3.03-3.19,4.67-.53.93-1,1.97-.64,3.04.35,1.84,1.13,3.56,1.56,5.37,0,.04.01.06.01.09.04.35.07.69.1,1.04-.44.56-.96,1.06-1.64,1.29-1.85.59-4.18.06-5.96.99.2-2.18.54-4.35,1.81-6.22-2.32,1.77-3.3,4.68-3.89,7.43-.13.54-.35,1.08-.53,1.63-.1.25-.18.52-.22.8h.02c-.02.15-.04.3-.04.45.05.79,1.05,1.26,1.71.84.51-.34.51-.71.63-.91.32-.74.94-1.24,1.69-2.03.08-.05.16-.1.24-.14,2.07-.78,4.96-.77,6.27-3.2.23,1.3,1.94,1.88,2.88.9.53-.65,1.03-1.31,1.52-1.99.14-.02.29-.04.37-.06.74-.18,1.34-.69,1.9-1.17.56-.47,1.11-1.02,1.36-1.73.29-.9.14-1.87.01-2.78h.03Z"/>
  <path class="cls-1" d="M116.41,164.22c-1.01-1.5-2.68-2.3-4.15-3.27-.8-.56-1.56-1.33-2.59-1.39-.22-.02-.42.06-.57.21-.12.1-.28.15-.43.21-.64.24-1.3.38-1.97.51.83.14,2.41.27,2.83.02.75.41,1.13,1.21,1.74,1.89.71.8,1.52,1.5,2.19,2.33.71.92.59,1.28.89,2.92.17.66.25,2.49.17,2.78-.19-.2-.39-.39-.6-.57-1.04-.84-1.7-1.49-3.31-1.7-.84-.14-1.41-.11-2.09-.53-1.16-.77-1.87-2.21-2.05-3.63-.39,1.92.21,4.14,1.88,5.28.91.58,1.6.69,2.46,1.16-.27.65-.72,1.25-1.05,1.84-1.02.85-2.54,1.29-3.31,2.5-.39.57-.78,1.17-1.03,1.82-.84-1.55-1.05-3.49-1.3-5.4-.59,2.24-.96,4.72,0,6.91.2.5.59.9.92,1.32.45.48.81,1.19,1.54,1.2,1.28-.07,1.16-1.33,1.01-2.27-.15-.9-.16-1.05.31-1.99.46-1.27,1.53-1.86,2.5-2.93.5-.54.57-1.32.73-2.01.03-.2.07-.41.11-.62.6.66,1.11,1.24,1.67,2.39.46.89.84,1.81,1.29,2.7.25.5.54,1.07,1.11,1.24.81.41,1.96-.06,2.26-.92.31-.87.19-1.87.25-2.79.06-1,.14-2,.21-3.01-.01-2.13-.68-4.3-1.61-6.2h-.01Z"/>
  <path class="cls-1" d="M99.27,156.66c1.76-2.78,2.4-6.23,2.25-9.49-.08-1.65-1.68-2.56-2.99-3.25-1.11-.65.16.42.44.83.43.6,1.03,1.17,1.17,1.9.06.55-.06,1.15-.14,1.75-.37,2.74-.21,5.53-.73,8.25h0Z"/>
  <path class="cls-1" d="M94.02,148.18c.56-.37,1.12-.76,1.58-1.23,1.43-1.96,2.98-4.18,3.1-6.67,0-.98.04-1.98-.21-2.93-.2,1.29-.61,2.58-1.17,3.76-.92,1.36-2.19,2.67-3.44,3.9-.03.03-.07.06-.11.09-.5.31-1.06.52-1.57.83-.02,0-.03.02-.05.02h-.1c-.26,0-.52.01-.78.03,0-.84-.17-1.68-.29-2.51.14.93-.23-1.96-.22-2.48.05-.84.17-2.1.66-3.63.57-1.15,1.85-2.89,3.29-3.45-.91.05-1.83.4-2.66.9-1.76-.38-3.53-.72-5.31-.98-.8-.13-1.63-.21-2.41.06-1.29.43-1.12.34-2.43.26-.06-.04-.13-.08-.19-.13.74-.83,1.55-1.59,2.15-2.54,1.12-1.58,1.91-3.74,2.61-5.18.34-.56.82-.8,1.52-1.14.61-.37,1.3-.31,1.96-.14.32.06.63.14.94.21-.22-.15-.44-.31-.67-.45-.51-.29-1.01-.65-1.61-.7-1-.03-2.06.17-2.93.68-1.13.8-1.74,2.1-2.6,3.16-.87,1.19-1.19,1.66-2.55,3.05-.55.45-1.04.94-1.45,1.53-.65.92-.5,2.18.07,3.1.42.63,1.18.94,1.86,1.23.87.19,1.78,0,2.65-.1.61-.17,1.63-.84,1.84-.9.45-.14.42-.1.9-.16,1.76-.16,3.55-.37,5.25-.6-.73.51-1.39,1.15-1.88,1.81-.66,1.1-1.12,2.34-1.49,3.56-.24,1.42-.25,2.88-.17,4.31.03.45.04.91.02,1.36-.37,1.22.46,2.43,1.63,2.82.76.34,1.6.07,2.39.02.08-.01.16-.02.25-.03-.15.02-.05.01.14-.02.03,0,.06,0,.09-.01-.03,0-.05,0-.08.01.08-.01.17-.03.26-.05-.12.78-.1,1.59.04,2.37.3,2.2,1.62,4.08,3.31,5.45-1.15-2.07-1.81-4.32-2.06-6.67-.08-.56-.14-1.19-.1-1.81h.02Z"/>
  <path class="cls-1" d="M112.05,135.85c-.49-1.39-1.04-2.89-2.15-3.9-.85-.54-1.77-1.34-2.79-1.46-.54-.03-1.06.11-1.56.29.45.01.91.03,1.34.18.84.33,1.28,1.25,1.92,1.85.94,1.73.85,3.75,1.29,5.87.25,1.51.28,2.06-.11,3.92,0,.17-.11.55-.21.86-.57-.42-1.19-.78-1.89-.98-.14-.05-.44-.16-.63-.22-.42-.35-2.01-1.75-2.6-2.42-.96-1.36-1.73-3.25-2.32-4.92-.02,2.63.19,5.48,1.93,7.6.15.2.3.4.44.61-1.48,2.09-2.57,4.48-2.66,7.06,1.05-2.03,2.33-4.43,3-6.59.19.27.39.53.62.76.47.4,1.07.6,1.59.94.04.02.07.04.11.06-.07.65-.07,1.3,0,1.95.04.61.21,1.12.23,1.66.01,1.38.24,2.91.01,4.18-.44,1.31-1.31,2.45-2.18,3.51,3.4-1.72,4.33-3.95,3.77-7.65-.18-.86-.47-1.7-.72-2.55.22.24.45.47.71.66,1.33.78,2.58-.49,3.27-1.55.79-1.5.93-3.29.92-4.97-.15-1.65-.8-3.2-1.34-4.75h.01Z"/>
  <path class="cls-1" d="M100.84,119.17c-.21-.66-.68-1.19-1.11-1.71-.53-.68-1.06-1.38-1.8-1.84-1-.5-2.13-.74-3.25-.66-.62-.53-1.67-.52-2.15.2-.32.38-.32.93-.53,1.37-.09.4-.79,1.52-1.12,2.79-.11.97-.41,1.97-.19,2.94.55,2.07,1.51,4.07,2.85,5.75-.62-2-.96-4.07-.99-6.15.09-.48.65-1.92.59-1.86.4-.75.89-1.47,1.27-2.23.28,0,.56-.04.84-.08.32-.02.97.08.3,0,1.74.19,1.54.51,3.19,1.84.62.52.79,1.35,1.13,2.38.25.95,1.05,2.27-.08,2.93-.89.5.52.06.82-.2.53-.43.52-1.21.56-1.84-.03-1.22.03-2.48-.34-3.65v.02Z"/>
  <path class="cls-1" d="M114.97,125.02c-.05-.48-.43-.83-.79-1.1-.13-.18-1.6-1.05-1.7-1.18-.96-.96-1.98-1.56-3.28-1.94-1.11-.42-2.22-.92-3.43-.95-.87-.02-1.86,0-2.48.71-1.19,1.33-2.07,3.15-2.69,4.97,1.06-1.27,2.51-2.81,3.62-3.58.39-.24.17-.17.63-.15.88.04,2.24.77,3.45,1.37,1.48.63,1.33.55,2.26,1.27.51.44.97.67,1.91,1.1.05.03.1.05.14.08-.61,1.05-1.74,2.88-2.49,4.03-.4.44-.88.8-1.3,1.21.61-.26,1.25-.44,1.82-.79,1.11-.88,2.13-1.88,3.15-2.86.53-.61,1.29-1.29,1.18-2.18h0Z"/>
  <path class="cls-1" d="M61.1,145.05c-.3.5-.65,1.02-1.11,1.39-1.14.56-2.95,1-3.64.94-.81-.24-1.66-.36-2.49-.5.66-.98,1.26-1.99,1.47-3.18.18-1,.13-1.62.47-2.48.26-.6,1.1-2.38,1.1-2.56-1.01.38-1.91,1.05-2.56,1.94-.57.71-.92,2.23-1.12,2.66-.57,1.21-1.08,1.74-1.77,2.61-.64.77-1.42,1.94-.45,2.78.29.25.64.38,1.01.45-.02.67.07,1.34.28,1.97.07-.63.16-1.26.26-1.89.19.02.39.03.57.05,1.06.07,2.12.12,3.17.15,1.31-.14,2.47-.88,3.54-1.61.92-.55,1.33-1.57,1.51-2.59.04-.26.01-.54-.07-.79-.01.22-.07.44-.16.64v.02Z"/>
  <g>
    <path class="cls-1" d="M73.42,149.05c.06-.08.07-.1.05-.06.04-.05.08-.1.11-.15.79-1.31,2.27-2.63,1.93-4.29-.18-.83-.63-1.56-.97-2.34-.38-.81-.8-1.68-1.57-2.18-.5-.29-1.06-.46-1.62-.59.42.28.82.57,1.16.94.81.99.68,2.4,1,3.58.16,1.06.17.87-.67,1.79-.82.94-1.82,1.77-2.45,2.86-.08.19-.14.38-.21.58-.96-1.16-1.72-2.04-2.73-3.81-.48-1.29-.86-3.22-.48-4.73-1.32,2.09-1.5,5.02-.35,7.23.52,1.58,2.58,4.57,2.76,4.84.37,1.39,2.42,1.39,2.79,0,.41-.96.55-1.99.83-2.98.09-.16.24-.44.34-.56.03-.05.05-.07.07-.1-.02.03-.05.06-.08.11.03-.04.07-.09.1-.13h0Z"/>
    <path class="cls-1" d="M73.42,149.05s-.01.01-.02.02c.03-.04.05-.07.06-.08-.02.02-.03.04-.05.06h0Z"/>
  </g>
  <g>
    <path class="cls-1" d="M71.75,127.34s-.02,0-.02.01h.02Z"/>
    <path class="cls-1" d="M76.33,131.58c-.6-2.37-.64-2.66-.55-4.95-.02-1.72-2.35-2.08-2.98-.62-.07.1-.33.55-.5.79-.11.14-.29.34-.41.45-.06.04-.11.06-.15.08.03-.01.06-.03.1-.04h0s-.06.03-.1.04c-.11.06-.13.06-.02,0-.36.14-1.02.37-1.2.45-.24.01-.47.05-.68.16-3.27,1.35-3.99,5.16-4.49,8.29.84-1.47,1.75-3.1,2.73-4.33.92-.95,1.36-1.27,2.5-1.61h0c.74.03,1.5-.13,2.2-.38.34,1.61,1.01,3.17,1.71,4.67.07.18.19.52.21.67.01.05.03.11.04.16v.02c-.14.46-.72,1.21-1.35,1.87-1,1.25-2.71,1.01-4.17,1.03.85.31,1.7.64,2.59.79,1.84.3,4.43-1.57,5.14-3.22.37-1.45-.3-2.93-.63-4.33h0Z"/>
  </g>
  <path class="cls-1" d="M68.02,125c-.04-.59.07-4.78-.29-6.68-.16-1.97-1.3-3.83-2.23-4.83-.6-.97-1.49-1.38-2.59-.94-1.29.49-2.57,1.16-3.44,2.25,1.11-.72,3.63-1.15,4.2-.92.47,1,1.17,2.28,1.29,3.6.15,1.27-.06,6.92.43,8.19.14.36.32.74.51,1.1-.51-.17-1-.36-1.48-.58-.4-1-.97-1.93-1.82-2.61-.05-.11-.22-.44-.3-.59-.19-.71-1.04-1.15-1.7-.75-.58.38-.71,1.16-1.03,1.74-.23.4-.43.81-.62,1.23-.02-.62-.19-1.24-.52-1.81-.17-.38-.42-.73-.64-1.09.17.96.44,2,.14,2.95-.64,1.14-1.45,2.58-2.15,3.18-.6.5-1.76,1.07-2.59,1.68-.13-.26-.27-.51-.44-.75-.52-.92-1.32-1.69-1.75-2.41-.11-1.22-.35-3.49.25-4.99-.94.97-1.27,2.32-1.61,3.59-.26.91-.42,1.92.08,2.79.31.51.8,1.54,1.1,2.15-.2.02-.39.04-.59.07-1.07.07-1.89.53-2.6,1.32-.64.58-.8.58-1.73.94-.86.5-.75,1.76.09,2.22.13.09-.06-.06-.11-.1,1.74,1.3,3.49,2.7,5.46,3.63.82.17,1.66-.04,2.47-.21.89-.16,1.8-.28,2.66-.57-1.45-.19-3.36-.36-4.57-.65-.95-.89-2.15-2.06-3.36-3.09.45-.38.85-.83,1.18-1.32.3-.25.96-.51,1.77-.73.51.78,1.34,1.31,2.29.76.65-.6,1.14-.9,1.68-1.29.27,0,.54.02.78.06-.17-.09-.35-.16-.53-.24.44-.34.95-.77,1.62-1.49.14-.17.26-.36.37-.55.07.99.69,1.94,1.14,2.8.14.22.29.45.47.64-.32-1.05-.46-2.18-.46-3.28.23-.77.95-1.6,1.34-2.41.35-.56.73-1.11,1.08-1.67.04.03.08.07.13.1.79.51,1.26,1.27,1.91,2.39.78,1.42,1.68,2.91,1.59,4.59.69-1.46.39-3.1.02-4.61.45.31.89.62,1.32.96.51.31.93.88,1.53.98,2.4-.02.49-3.5.23-4.76h.02Z"/>
  <path class="cls-1" d="M48.46,120.54c-2.24.19-4.59.82-6.59.25-.76-.22-.52-.1-1.19-.77-1.02-1.16-1.17-1.18-2.03-1.84.47-.13.92-.29,1.34-.53,1.42-.8,2.38-2.03,3.19-3.02.57-.55,1.56-1.1,2.54-1.34.87-.17,1.75-.08,2.63.01-.08-.04-5.73-1.21-7.69.9t-.03.03c-.26.2-1.16.72-1.65.96-.83.37-.82.22-2.35.46h0c-1.69-.05-2.07,1.74-1.47,3.02.53,1.27,1.98,1.78,3.05,2.52h0c2.68,2.85,6.12,1.5,9.12-.04.25-.15,1.51-.68,1.12-.63v.02Z"/>
  <path class="cls-1" d="M74.33,104.31c-1.27-.48-1.58-.78-2.54-1.69-.42-.36-.7-.58-.93-.75.58-.23,1.14-.5,1.66-.84,2.56-2.2,3.35-5.72,7.44-6.15.84.77,1.82,1.45,2.84,1.95,0-.14-1.62-2.7-2.16-3.61-.19-.69-.07-2.06-.14-3.09,0-1.25-.4-2.48-.95-3.6-.16-.24-.34-.46-.52-.69v-.21c.03-.12.06-.23.09-.32,1.02.25,2.04.48,3.09.59.81.13,1.92.24,2.59.29-.07-.03.34.08.47.11.45.41.69,1.02,1.11,1.57.46.71,1.1,1.34,1.38,2.16.07.28.04-.25.04-.35-.1-.9-.49-1.74-.72-2.62-.22-.79-.39-1.71-1.11-2.2-1.34-.71-2.85-1.03-4.27-1.57-1.5-.48-1.26-.53-2.82-1.02-.77-.2-1.63.11-2,.83-.02.05-.04.11-.07.16,0-.02-.04.05-.14.25-.43.83-.76,1.71-.62,2.66-.04.82.57,1.36,1.07,1.93.19.32.53,1.05.65,1.3.52,1.48.48,3.18,1.28,4.56.21.24.43.47.67.7-3.75-.94-6.94,2.86-8.66,4.12-.02.01-.03.02-.05.03-.04.02-.09.03-.13.05-1.12.51-2.51.44-3.47,1.27-.63.64-.62,1.36-.31,2.02-1.2.67-2.24,1.58-3.01,2.72-.13-.45-.26-.89-.38-1.34-.2-.73-.36-1.49-.74-2.15-.53-.86-1.74-1.35-2.64-.78-.87.67-1.26,1.81-1.74,2.77-.37.83-1.09,1.94-1.44,2.35-.74.28-2.07,1.41-3.12,2.69.04-.22.08-.44.11-.65.35-1.14-.12-2.24-.64-3.25-.74-1.78-2.45-2.98-4.2-3.63-.77-.2-1.53.1-2.3.2-.92.19-.89.11-2.37.12-1.33,0-2.62.24-3.88.67-.82.2-1.6.71-1.82,1.57-.34,1.29.24,2.92,1.38,3.64.71.46,1.94.82,2.49,1,1.5.67,2.54,2.05,3.27,3.5-.16-1.71-.82-3.45-2.11-4.62-.55-.51-1.72-1.11-1.99-1.37-.09-.05-.31-.28-.4-.36,0-.01,0-.02,0-.03-.09-.35-.13-.5-.15-.61,1.08-.25,1.35-.31,2.08-.38,1.65-.12,3.32-.11,4.88-.76.18-.07.36-.14.55-.18h0c.67.14,1.28.46,1.93.68h0c.2.09.4.19.58.32.64.56,1.82,1.65,2.26,2.67.12.5.19,1.01.29,1.51-.56.7-1.05,1.43-1.31,2.1,1.12-1.14,2.77-2.13,4.08-2.73.48-.24,1.04-.28,1.52-.52.68-.43,1.2-1.06,1.73-1.65.34-.42.7-.94,1.01-1.42.4,1.1.88,2.31,1.07,2.71.07.2.06.23.04,1.07-.02.54,0,1.07-.07,1.61-.27,1.09-1.43,2.36-2.35,3.31-.4.33-1.86.58-.52.5.92.02,1.67-.56,2.4-1.04.73-.56,1.55-1.08,2.02-1.9.51-1.15.79-2.43.89-3.68-.06-.53-.19-1.06-.33-1.58,1.01-.95,2.07-1.83,3.12-2.71.24.37.56.7.89.97,1.08.8,2.21,1.54,3.33,2.28,1.22.47,2.56.82,3.88.81,2.05-.39,3.61-2.06,5.22-3.29.08-.06.15-.13.24-.17-1.7.48-3.32,1.28-5.06,1.62-.31.06-.97-.16-1.52-.45l.07.02Z"/>
  <path class="cls-1" d="M101.45,85.85c-.1-.83-.86-1.53-1.71-1.33-.73.12-1.34.65-1.98,1.01-1.11.71-2.01,1-2.44,1.22-1.45.69-2.43.53-4.02.98-2.14.76-3.63,2.73-4.5,4.76,1.27-1.37,3.24-2.73,4.79-2.91,1.75.02,3.5.17,5.17-.49.74-.23,1.44-.53,2.12-.88.13,1.36.33,2.78.44,3.41.18.84-.33,1.07-1.12,1.89-.71.87-1.77,1.4-2.37,2.33-.35.45.51-.36.74-.35,1.24-.41,2.42-1.03,3.52-1.73.85-.53,1.22-1.47,1.22-2.44.05-1.82.32-3.65.16-5.46h-.02Z"/>
  <path class="cls-1" d="M90.06,107.68s-.02-.05-.03-.08c0-.01-.04-.05-.03-.04-.12,1.06-.52,2.12-.87,3.13-.3.64-.9,1.06-1.37,1.59-.74.82-1.34,1.52-2.02,1.96-1,.84-2.16,1.46-3.2,2.23-.07-.35-.17-.73-.29-1.15-.38-1.01-.4-2.13-.86-3.11.34-1.41.81-2.48,1.52-3.78.57-1.06,1.21-2.09,2.13-2.88-1.67.62-2.95,1.93-4.1,3.25-.83,1.06-1.8,2.25-1.95,3.62.01.3.1.57.17.86,0,.23.03,1.14.07,1.38.06.48.35,2.41.43,2.83.03,1.53.76,3.19,2.05,3.17-.67,2.22-1.23,4.74-1.85,6.65-.77.81-1.91,2.23-3.09,2.92-.14.09-.31.14-.49.11.11.05.24.09.36.08,1.1-.2,2.03-.84,2.9-1.5.49-.4,1.06-.75,1.4-1.3.8-2.23,1-4.62,1.03-6.97.34-.06.71-.24,1.11-.55,2.12-2.23,4.36-3.31,6.02-6.63.38-.72.87-1.4,1.05-2.2.17-1.18.06-2.39-.08-3.57v-.02Z"/>
  <path class="cls-1" d="M104.45,106.35c-.02-.71.02-1.45-.26-2.11-.28-.77-.79-1.43-1.3-2.06-.5-.63-.99-1.32-1.72-1.7-1.3-.52-2.98-1.09-4.38-.9-.36.08-.73.1-1.1.16.79.21,1.63.22,2.33.68.83.54,1.77.94,2.36,1.56.25.33.7,1.35,1,1.97.67,1.29.16,1.78.04,4.42-.04.69-.04,1.37-.05,2.06-.41-.2-.89-.48-1.32-.79.49.43-1.85-1.59-2.43-1.92-1.85-.88-4.42-1.82-5.09-4.22-.25,2.56,2.26,4.69,3.82,5.86.87.9,1.53,1.97,2.46,2.82.76.65,1.62,1.15,2.5,1.61.82.89,2.29,1.11,2.99-.04.41-.98.27-2.14.34-3.19-.08-1.4-.12-2.8-.18-4.21h0Z"/>
  <path class="cls-1" d="M51.47,83.11c-.72,1.36-2.4,2.82-3.28,3.64-.58.48-1,.5-1.86.67-1.66.24-1.6.32-2.9.38-.16,0-.32-.02-.48-.04.54-2.69,1.13-4.68,1.96-6.65.23-.54.32-.87.64-1.21,1.21-.95,3.65-1.91,5.42-.93-1.65-1.77-4.56-1.54-6.59-.59-1.13.7-1.68,1.99-2.4,3.05-1.06,1.7-1.66,3.62-2.14,5.55-.9.65-1.06,2.08-.12,2.98.6.71,1.55.89,2.44.79,1.56.07,3.05-.39,4.49-.95,1.08-.39,2.21-.85,2.86-1.86.94-1.39,1.85-2.92,2.2-4.58.05-.31.08-.63.07-.95-.08.23-.18.46-.3.68v.02Z"/>
  <path class="cls-1" d="M76.4,75.69c-.15-.21-.67-.41-.69-.4-.3-.13-.73-.31-.99-.42-.06-.03-.11-.05-.17-.08-1.28-1.28-2.75-2.35-4.23-3.37-.56-.42-1.84-1.1-1.96-1.2-.49-.42-1-.94-1.68-.97-.96-.03-1.83.52-2.64.99-1.24.76-2.41,1.67-3.24,2.88,1.41-1.11,4.88-2.01,5.48-1.95.57,1,3.46,3.26,4.91,4.74.57.52,1.06,1.12,1.69,1.56.01,0,.03.01.04.02-.21.21-.42.42-.6.64-.26.35-1.59,1.05-2.47,1.44-.84.44-2.59.58-3.86.36-.62-.1-1.35-.1-1.83-.58-.08-.09-.2-.24-.09-.02.13.36.42.62.74.82,1.47.84,3.15,1.53,4.88,1.38,1.39-.14,2.77-.52,4-1.17.83-.59.47-.38.99-.76.68-.67,2.04-1.03,2.18-2.78,0-.42-.17-.83-.47-1.12h0Z"/>
  <path class="cls-1" d="M65.36,88.04c-.1-.66-.2-1.68-.37-2.45-.26-.76-.71-1.45-1.23-2.06.19.51.32,1.05.41,1.59.13,1.13-.28,2.26-.35,3.39-.1.85-.18,1.76-.5,2.26-.88,1.14-1.43,2.11-2.32,2.96,0,.02-.06.06-.13.12v-.02c-1.01-1.88-2.99-3.34-3.32-4.71-.24-1.89-.1-4.91.78-7.06-1.79,2.02-2.87,4.92-2.94,7.61.18,1.77,1.42,3.21,2.3,4.7.33.52.59,1.08.85,1.63.05,1.24,1.13,2.22,2.37,1.55,1.71-1.06,3.04-2.55,3.81-4.42.4-.75.83-1.52.89-2.39.09-.91-.1-1.81-.22-2.7h-.03Z"/>
  <path class="cls-1" d="M130.85,77.8c.44,1.19-.06,2.38-.5,3.5-.59,1.51-1.38,2.91-2.32,4.22v-.96c-.1.25-.19.5-.28.76-.02.14-.08.29-.15.44-.22-1.29-.49-2.61-1.08-3.78-.95-1.15-1.71-2.03-1.79-2.45-.04-.19-.09-.4-.15-.6.43-.89,1-1.71,1.49-2.57.37-.71.93-1.27,1.71-1.5-1.81-.16-3.03,1.66-3.49,3.37-.1-.16-.22-.3-.38-.41-.82-.72-2.25-.22-2.5.83-.24.62-.2,1.32-.42,1.96-.05.09-.12.21-.2.34v-.09c-.12-.69-.12-1.43-.39-2.08-1.57-2.6-3.76-4.72-5.9-6.85-.95-1.19-3.09-2.51-3.77-.37-.03.17-.05.32-.07.48-1.08-1.25-2.59-2.31-4.29-2.07-.97.2-1.43.61-2.46.76-.51.17-1.18-.05-2.17.09-1.37.51-.47,2.5,0,3.4,1.08,1.69,3.26,2.13,4.45,3.31.91.83,1.63,1.85,2.65,2.55.48.19,1.02.09,1.53.08h0c-.2.68-.4,1.36-.47,2.07-.2,1.98.16,3.97.54,5.93-.33-.06-.63-.08-.86-.02-.67.1-1.18.58-1.69.99-1.44,1.01-2.69,2.24-3.91,3.49,0,0-.01.01-.02.02-.64.44-1.44.7-1.94,1.3-.44.5-.39,1.24-.02,1.75.02.04.05.1.11.19.6,1.26,1.3,2.49,2.17,3.59,1.45,1.71,3.85.91,5.67.36.95-.24,1.89-.55,2.81-.9-1.75-.04-4.02-.06-5.49-.18-1.11-.24-.99-.2-1.49-1.2-.26-.55-.52-1.26-.9-2.15.87-.54,1.34-1.05,1.76-1.59,1.26-1.5,1.36-1.74,2.65-3.11.48-.61.81-.98,1.04-.95,1-.04,2,.25,3,.61.51.23,1.11.49,1.23,1.09.17-1.25-2.16-2.8-3.83-3.24.07-2.01.11-4.01.59-5.8.39-1.22.51-1.29,1.04-2.51.37-1.19.54-2.44.61-3.68.09-.96,0-2-.06-2.79,1.36,1.11,3.4,2.81,4.86,4.06.57.6,1.39,1.34,1.81,1.84.26.62.64,1.46.77,2.25-.15.23-.28.42-.35.52-.69.9-1.8,1.14-2.92,2.56-.99,1.5-1.17,3.39-1.04,5.15.07.98.24,1.95.71,2.82-.24-2.18.73-4.99,1.77-6.29.84-.94,3.06-1.32,4.04-2.77.23-.29.48-.58.71-.87.3.31.62.6.96.86h0s-.02-.01.01.02c.68,1.17,1.49,3.01,1.52,3.5-.42,1.88-1.39,3.59-1.93,5.43.15-.19.29-.37.45-.55.82-.98,1.61-1.97,2.39-2.97.43-.56.81-1.19.95-1.88.06,0,.12,0,.17-.04,1.91-1.32,3.31-3.18,3.67-5.51.23-1.29.34-2.75-.61-3.77h0ZM110.8,76.57c.02.85-.06,1.7-.15,2.55,0,.03,0,.06-.02.1-.08.31-.18.62-.27.92-.41-.11-.85-.17-1.24-.35-.68-.66-1.02-1.58-1.58-2.35-1.04-1.91-2.97-2.56-4.01-3.78-.39-.52-.3-.26-.53-.98-.02-.04-.05-.11-.08-.2.8-.06,1.59-.24,2.32-.61.62-.28,1.12-.74,1.63-.82,1.09-.25,2.58.38,3.73,1.17-.19,1.76.27,2.64.18,4.36h.02Z"/>
  <path class="cls-1" d="M133.09,120.62c-1.14.74-2.44,1.2-3.64,1.83-.88.52-1.75,1.15-2.34,1.99h-.01c-.2-.36-.17-.45-.54-1.42-.27-.62-.46-1.3-.8-1.9,0-.03.02-.06.03-.09.47-2.09,1.13-4.16,2.17-6.04.15.13.31.25.45.38,1.31,1.66,2.84,1.45,3.8-.4.85-1.73,1.61-3.71,1.46-5.66-.66-2.3-2.51-4.06-4-5.88-.4-.37-.85-.95-.35-.05.7,1.8,1.69,3.84,2.18,5.91-.06,1.01-.65,2.16-1.47,3.67-.35-.27-.72-.53-1.09-.78-1.21-.58-2.59-.7-3.87-1.09-.25.05-1.5-1.85-1.81-3.12-.29-1.07-.26-2.2-.21-3.31-.95,1.88-1.2,4.22-.5,6.22-1.93-.78-4.04-.83-6.08-.63h-.06c.14-.32.27-.64.39-.93.48-1.11,1.09-2.31.76-3.54-.12,1.18-1.02,2.04-1.74,2.91-.42.54-1.25,1.6-1.54,1.8-.06.05-.13.09-.2.13-1.17.19-2.3.63-3.44.96-.17.08-.71.21-1.01.28-.18-.39-.41-.76-.6-1.16h0c0-.08-.36-.97-.45-1.33-.15-.43-.12-.63-.11-.77.66-2.18,1.26-4.46,2.41-6.44-1.5,1.15-2.55,2.79-3.55,4.37-.4.64-.84,1.31-.97,2.07-.14.73.04,1.47.17,2.2.12.67.35,1.31.67,1.91,0,.02.02.05.03.07.25,1.66,1.81,2.04,3.23,1.57,1.49-.55,2.24-.93,3.66-1.61.25-.12.53-.2.81-.35.07.14.14.28.24.43,1.29,2.21,1.88,4.93,4.17,6.35,1.19,1.03,2.8,1.52,4.34,1.29-.11.3-.2.6-.24.87.14.74.43,1.23.64,2.27.3.98.45,2.13,1.27,2.83.05.04.11.08.16.12l.13.13c.09.11.03.03-.04-.06h0c.16.21.34.41.56.56.88.55,1.98-.02,2.57-.74.62-.82.66-1.14,1.37-1.81,1.39-1.47,4.22-2.54,4.29-5.21.07-.45.06-.91.08-1.36-.37.88-.73,1.82-1.39,2.54v.02ZM123.07,119.51c-.54-.1-1.07-.41-1.41-.53-.74-.35-2.41-2.13-2.59-2.42-.31-.72-1.67-3.55-2.7-4.88.04,0,.07-.02.11-.03,2.03-.52,3.98-.96,6.09-.72.23.65.56,1.26,1,1.81,1.49,1.12,1.99.96,3.54,1.69.08.03.15.06.23.09.03.02.06.04.12.07.06.05.12.1.19.16-1.07.94-1.95,2.07-2.72,3.28-.26.43-.56.95-.84,1.49-.43.02-.84.03-1.03,0h.01Z"/>
  <path class="cls-1" d="M141.02,91.85c-2.53-1.07-3.07-2.92-6.14-3.45-.92-.09-1.81.27-2.67.56-1.2.38-2.28,1.08-3,2.13-.38.49-.8.98-1.05,1.56.72-.68,1.6-1.18,2.46-1.67,1.28-.51,3.5-.64,4.1-.34.91.48,1.69,1.41,2.61,2.27-.54.23-1.06.48-1.49.89-1.2,1.28-2.27,3.14-3.54,4.04-1.31.61-3.13.88-4.69.67,1.67.87,3.74,1.2,5.58.73,1.72-.75,3.03-2.2,4.44-3.39.3-.15,1.06-.37,1.89-.68.82-.37.34-.13,1.55-.59,1.03-.57.95-2.18-.05-2.73h0Z"/>
  <path class="cls-1" d="M141.5,122.68c-.03-.12-.2-.57-.16-.3-.05,1.21-.2,2.48-.26,3.66-.05.27-.06.48-.25.7-.85.9-1.92,2.06-2.91,2.6-.09.06-.18.11-.26.16-.12-.28-.24-.57-.34-.85-.42-1.2-1.17-2.22-1.73-3.35-.54-1.42-.72-3.74-.49-5.49-1.21,2.22-1.8,5.47-.67,7.61.35.96.78,2.59,1.22,3.75.15.36.16.79.47,1.06.38.39,1.03.48,1.51.19,2.1-1.3,3.77-2.9,4.71-5.41.13-1.47-.5-2.92-.84-4.33h0Z"/>
  <g>
    <path class="cls-1" d="M136.94,88.09c.06,0,.13.02.16.02h-.03s-.09-.01-.14-.02h.01Z"/>
    <path class="cls-1" d="M159.79,98.14c-.11-.58-.12-1.23-.35-1.76,0,.06.04.12.02.18-.28,1.57-.6,3.55-1.09,4.87-.7,1.26-1.91,1.78-2.97,2.83-.2-.72-.48-1.53-1.05-2.23-1.24-1.53-2.6-2.89-3.12-3.82-.24-.74-.27-1.54-.49-2.29-.12-.61-.15-.76.15-1.32.92-1.39,2.14-2.85,3.74-3.58-1.18.02-2.26.63-3.27,1.18-.2.13-.4.26-.6.39-.79-.2-1.56-.47-2.3-.73-.12-.04-.46-.23-.53-.29l-.02-.02s-.05-.05-.07-.07c-.02-.06-.04-.12-.05-.18-.03-.12-.05-.24-.07-.35v-.03c-.12-1.21-.19-2.51-.79-3.6-.26-.39-.49-.66-.69-.9,1.03-.48,2-1.15,2.88-1.42,1.68-.39,3.72-.57,5.37.15-.5-.6-1.21-.92-1.92-1.2-1.5-.57-3.17-.89-4.75-.5-.68.25-1.37.49-2.05.73-.01-.41-.06-.81-.19-1.21-.43-1.15-1.5-1.86-2.43-2.59-.48-.36-1.28-1.1-1.97-1.43-.73-.32-1.55-.38-2.32-.58.74.52,1.66.85,2.22,1.59.76,1.08,2.2,2.84,2.36,3.48.03.29-.15,1.05-.43,2.16-.13.6-.24,1.03-.35,1.37-.35-.3-.74-.53-1.19-.66-.03-.01-.05-.02-.08-.03-.02,0-.04-.02-.06-.03-1.06-.49-2.12-1.14-3.34-.96-.57.01-1.14.07-1.72.04-.46-.4-1.87-2.27-2.16-3.59-.19-1.22-.22-2.61.27-3.8-1.52,1.75-1.97,4.36-1.14,6.52.41,1.15.85,2.43,1.89,3.16.55.33,1.19.38,1.81.45-.03,0-.06-.01-.09-.01.08.01.15.02.23.03h.04-.01c1.54.2,1.09.02,1.68.37.54.32,1.08.63,1.66.86,0,0,.02.02.04.03.46.41.82.91,1.23,1.36.59.61,1.66.61,2.25,0,.54-.6.95-1.28,1.23-2.01.08.11.13.2.13.25.48,1.07.61,2.3,1.28,3.27.91.93,2.41.79,3.68.69-.6.45-1.14.98-1.45,1.67-.35.78-.27,1.66-.27,2.5-.15,1.37.18,2.72,1,3.83.31.45.63.91.95,1.36-.88-.42-.83-.82-2.4-1.69-1.16-.55-2.44-.72-3.67-1.08-.77-.11-1.56-.27-2.33-.23-.75.06-1.42.47-2.03.88-.72.49-1.44,1.02-2.03,1.67-.43,1-.62,2.11-.94,3.15-.08.21-.28,1.23-.12.9.53-.98,1.74-2.5,2.04-3.15.92-.45,2.11-.98,2.9-1.15h.03c.17-.04,1.03.24,1.62.41.09.03.19.07.28.1,1.47.65,2.53.83,3.19,1.27.04.03.07.04.09.06.54.46,1.12.9,1.75,1.22-.03.24-.08.48-.15.71v.02c-.77,1.22-1.84,2.34-3,3.43-.07,0-.14,0-.21.01.05.02.1.03.15.05-.96.91-1.98,1.79-2.93,2.71,1.28-.57,2.94-1.23,4.48-2.07.79,1.25,1.26,2.68,2.26,3.9.87,1.18,1.72,2.39,2.54,3.61-1.16.27-2.25.93-3.17,1.19-2.03.64-4.25.86-6.41.42,1.86,1.23,4.25,1.7,6.46,1.55,1.32-.13,2.59-.53,3.89-.76.29.08,1.15.24,1.36.04,1.08-.49,1.15-2.01.64-2.95-1.38-2.25-3.48-3.92-5.34-5.76-.51-.48-.97-1.19-1.55-1.63,1.67-1,3.09-2.26,3.55-3.91.15-.41.24-.89.22-1.35.06.08.13.16.19.24.04.06.08.12.11.18s.06.12.08.17c.43,1.05.65,2.19,1.33,3.13,1.05,1.56,2.59.35,3.42-.76.68-.91.79-1.22,1.49-1.97,2.06-2.14,1.84-3.98,1.49-6.72v.03Z"/>
  </g>
  <path class="cls-1" d="M168.26,95.71c-.48-1.59-2.15-2.25-3.49-2.96-.34-.16-.69-.32-1.04-.48.94,1,2.2,2.09,2.79,3.17.2.55.14,1.06.15,1.73.06,1.79.14,3.03-.07,4.09,0,.04,0,.09-.01.13-.24-.08-.49-.14-.75-.17-1.02-.17-1.63.02-2.52-.37-1.31-.57-2.42-1.79-3.11-3.22.14,1.91,1.06,3.74,2.69,4.79.73.54,2.34.74,2.72.96.11.05.22.1.33.15.54.82,1.59,1.79,2.51.89.62-.82.45-2.03.59-3.02.25-.79-.24-3.9-.79-5.7h0Z"/>
  <path class="cls-1" d="M137.14,58.4c.11-.73.35-1.42.62-2.1,0-.02.02-.03.03-.05.15-.18.39-.52.41-.7.3-1.06-.55-2.11-1.63-2.12-.89.01-1.74.31-2.61.46-1.69.47-3.5.94-4.82,2.16-.68.77-.92,1.79-1.24,2.74-.26.74-.57,1.48-.57,2.27.16,1.39.87,2.64,1.31,3.95.14.35.26.71.42,1.05,0-1.6-.2-3.19-.17-4.78.22-.66,1.25-2.16,1.82-3.14h0c.05-.06.12-.14.14-.16.01-.14,2.1-.77,3.63-1.04-.08.68-.09,1.36-.01,2.01.09.58.41,1.1.64,1.63.02.18.64,2.13.54,2.78,0,.58-.31,1.31-.53,2.01-.28.98-.73,1.89-1.49,2.59.92-.38,1.66-1.04,2.22-1.86.56-.79,1.21-1.56,1.48-2.51.38-1.59.25-3.29-.19-4.85v-.34h0Z"/>
  <path class="cls-1" d="M119.3,66.74c1.61-.23,3.39-1.04,4.61-1.15,1.86.02,3.85,1.33,4.88,3.26-.36-2.54-2.33-4.79-4.88-5.3-1.68-.21-3.39.27-5.08.28h-.07c-.06-.03-.11-.06-.17-.09-.11-.08-.19-.12-.23-.16-.17-.15-.35-.3-.49-.48-.96-1.07-2.78-.71-3.36.58-.61,1.23-.37,2.66-.22,3.97.09,1.74,1.03,3.23,2.02,4.6.63.94,1.22,2.06,2.37,2.44,2.35.51,4.77-.44,7.06-.91.61-.16.77-.14.02-.21-1.96-.22-4.74-.29-6.05-.74-.57-.24-1.07-2.07-1.81-3.52-.06-.16-.14-.37-.18-.49-.27-.89-.13-.66-.25-2.17v-.04c.59.22,1.21.31,1.85.13h-.02Z"/>
  <path class="cls-1" d="M143.84,61.47c-.29-.91-.48-1.85-.73-2.78-.16-.36-.07-.74-.01-1.11.05-.41.04-.84.18-1.23-.29.3-.44.7-.61,1.08-.3.49-.44,1.02-.35,1.59.04.89.15,1.8.5,2.63.59,1.41,2.41,1.53,3.73,1.48-.95-.41-2.16-.71-2.72-1.65h.01Z"/>
  <path class="cls-1" d="M182.09,100.77c.19-.17.34-.4.42-.69.27-1.01-.63-1.74-1.15-2.49-.45-.58-1.15-1.41-1.51-2.09-.25-.72-.31-1.49-.45-2.23-.17-.94-.48-1.72-.25-2.62.3-.97.72-1.9,1.2-2.79.06-.12,0-.26-.11-.34-.13-.08-.28-.25-.08.02.1.12,0,.27-.12.35-.88.88-1.85,1.79-2.31,2.97-.42,1.46-.3,3.03-.35,4.53.01.33.07.64.15.95-.65-.46-1.27-1.09-2.16-2.03-.86-.91-1.47-1.89-1.9-3.17-.36-.89-.71-1.81-.64-2.78-.9,2.62-.19,5.48,1.26,7.81-1.23.41-2.37,1.22-2.92,2.4-.49,1.73-.69,3.6-.51,5.39.4-1.77.94-3.51,1.41-5.26.4-.78,1.24-1.68,2.17-2.29.36.55.76,1.06,1.19,1.53,1.11,1.34,2.72,1.96,4.32,2.51h0c.04.06.09.1.14.15-.05-.02-.1-.03-.13-.06-3.42-1.54-6.94.86-8.93,3.58,1.04-.78,2.4-1.6,3.46-2.06,1.28-.47,2.81-.55,3.22-.46,1.37.34,1.02.49,2.5.86.67.15,1.35.14,2.04.17-.55.64-1.74,1.7-1.88,2.4-.41.75-.54,2.05-.81,2.54-.6.5-1.56.88-2.41,1.04-.12.01-.24.01-.35.02.2.05.41.1.62.11.97-.08,2.19-.06,2.9-.82.56-.82.68-1.54,1.23-2.3.51-.98,2.23-1.57,2.7-2.96.42-1.53-.75-1.84-1.98-1.92l.02.03Z"/>
  <path class="cls-1" d="M188.06,94.13c-.2-.59-.7-1.25-.93-1.55-.69-1.05-1.11-2.25-1.75-3.33-.4-.54-.97-.9-1.43-1.38-.27-.31-.38-.72-.59-1.07-.06-.12-.13-.24-.19-.36.05.45.08.89.14,1.34.13.72.67,1.28.99,1.92.35,1.23.57,2.54,1.19,3.69.17.31.36.6.55.9-.16.02-.46.07-.59.11-1.77.52-3.83.55-5.56-.16,1.46,1.56,4.26,2.1,6.03,1.79,1.01.11,2.43-.76,2.14-1.9h0Z"/>
  <path class="cls-1" d="M180.43,61.68c-.86-1.28-1.78-2.32-2.64-3.44-1.05-1.02-2.66-1.08-4.04-1.11-.2.02-1.17-.05-.72.08,1.13.43,2.4.86,3.33,1.55.36.28.49.73.74,1.18.45.76.95,1.5,1.49,2.2.15.2.28.35.39.49-1.6.53-3.21,1.02-4.82,1.51,1.73.17,3.47.17,5.19-.07,1.43-.06,1.97-.96,1.07-2.41v.02Z"/>
  <path class="cls-1" d="M191.49,74.23c-.6-.34-1.29-.08-1.91.1-.09.03-.18.05-.27.08-.63-.39-.93-.89-1.84-.94-.86,0-1.75.13-2.55.48-.72.36-1.35.87-2,1.35-.13,0-.25,0-.38.04-.35.12-.7.27-1.06.36-.18-.03-.86-.05-1.09-.09h-.1c-.22-.03-.45-.06-.67-.1-.59-.13-1.08-.18-.88-.16-.43-.11-.83-.33-1.29-.32-1.42.29-2.76,1.16-3.77,2.18-.83,1.17-1.31,2.6-1.55,4-.16.03-.28.07-.42.08-.02,0-.05-.01-.08-.02h-.02c-1.27-.69-1.17-.79-2.17-1.5-.43-.35-.95-.54-1.5-.57-1.28.09-2.38.86-3.43,1.53-.06.04-.13.08-.19.12.17-.36.3-.74.3-1.15-.15-.77-.53-1.7-.87-2.5.15,0,.31,0,.46-.03,1.59-.43,4.31-1.64,4.03-3.63-.18-.58-1.06-1.13-1.29-1.46h0c-.09-.14-.18-.27-.26-.4-.04-.06-.08-.12-.11-.18,0-.02,0-.01-.01-.02-.04-.12-.11-.26-.17-.4.81.12,1.71-.09,2.53-.06,1.82-.08,2.77-.06,3.69.16.38.06.78.19,1.19.27-.12.28-.23.57-.35.84-.93,2.08-1.09,4.33-.9,6.58.35-1.11.68-2.23,1.14-3.31,1.04-1.92,2.02-3.17,2.97-4.31.17-.28,1.35-.89,2.45-1.49-.28,1.4-.05,2.9.37,4.26.17.48.29.97.4,1.46.07-.54.13-1.08.12-1.62.07-1.67.34-3.49,1.36-4.47,1.17-1.37,2.89-2.22,3.87-3.74.68-1.16-.17-2.75-1.53-2.76-.85,0-1.61.48-2.28.97-1.05.72-1.78,1.8-2.78,2.58-1.49,1.05-2.04,1.42-3,2.21-.19-.28-.41-.54-.59-.82h0c-.07-.24-.32-1-.36-1.24-.3-1.14-.56-2.3-.81-3.45-.07-.58-.14-1.17-.45-1.69-1.49-1.65-3.57-2.81-5.74-3.39.15,0,.3.02.44.04,1.26.16,2.75.38,3.76-.57.47-.46.66-1.09.97-1.65.63-.94,1.16-1.93,1.53-2.98,1.53.01,2.96-.62,4.3-1.32,1.32-.64,2.51-1.53,3.08-2.93.42-.74.74-1.17,1.07-1.59.38-.61.02-1.48-.67-1.66-1.43-.27-2.82-.72-4.23-1.08-.85-.27-1.61.28-2.22.8-.6.49-1.46,1.04-1.89,1.8-.15.27-.3.54-.46.81-.47-.08-.97-.1-1.43-.13.33-1.19.47-2.52,1.03-3.55.68-.8,1.71-1.84,2.58-2.68.44-.3,2.13-1.91,1.34-3.07-.51-.8-1.47-.92-2.33-.83-1.09-.06-2.1.31-3.07.78-1.72.75-2.67,1.04-4.17,2.77-.05-.06-.11-.1-.16-.15.15-.16.28-.37.37-.63.61-1.13.83-2.4,1.25-3.6.21-.47,1.57-3.33,2.02-3.92.07-.06.15-.1.23-.16.95-.54,1.37-2.12.29-2.74-.21-.2-1.45-.25-1.66-.24-.75-.1-1.48-.39-2.24-.29-1.86.32-3.45,1.33-4.78,2.62.03-.26.05-.51.01-.78-.08-1.02-.26-2.04-.22-3.06,0-.03.02-.06.03-.09.16-.3.7-1.42.82-1.7.45-1.24-.95-2.55-2.15-1.98-.46.14-2.29.98-3.57,2-1.22.91-2.56,1.77-3.32,3.14-.61,1.2-1.48,2.33-1.72,3.67-.11,2.27.21,4.68,1.24,6.73-.22-1.59.02-3.2.31-4.76.16-.78.19-1.37.57-1.89.55-.66,1.48-1.96,2.4-2.82.89-.64,1.83-1.2,2.75-1.79.16,1.06.57,2.08.86,3.11.25.83-.32,2.21-.6,3.44-.18.69-.26,1.47-.71,2.05-.1.16-.28,0-.41-.05.12.14.28.33.48.22.89-.54,1.27-1.59,1.85-2.41.38-.61.79-1.26,1.07-1.95,1.73-.93,3.74-1.65,5.16-1.6.16.05.42.15.71.26-.05.08-.11.16-.16.25-.73,1.6-1.49,3.26-1.69,5.02-.03,1.17-.29,2.52-.38,3.13-.36.23-1.06.38-1.79.48-.07-.02-.15-.05-.28-.09-1.29-.51-3.2-1.48-4.89-2.01-.57-.19-1.17.07-1.75.12-.46.08-.93.16-1.39.24.87.18,1.77.28,2.62.48,1.62.99,3.07,2.63,4.82,3.42-.78.51-1.46.93-2.12,1.1-1,.34-.55.23-1.32.24-.88-.04-1.45.1-2.12-.16-1.63-.51-3.24-1.79-4.61-3.03,1.02,2.01,2.42,4.01,4.52,4.99,1.97.74,4.03.8,5.96-.09-.18.32-.34.64-.49.98,1.16-1.1,2.43-2.07,3.75-2.99.09-.06.18-.11.26-.18,0,0,0-.01.01-.02,1.03-.71,2.07-1.4,3.1-2.09.5-.11,1.98-.69,3.13-1.06-1.13,1.55-2.26,3.25-1.89,5.23.04.65.1,1.3.19,1.95-.07,0-.13-.01-.2-.02-1.87-.09-3.75-.15-5.63-.12-1.06.09-2.12.22-3.18.36-.65.09-1.34.3-1.79.8-.42.44-.69.98-.86,1.55-1.31-1.21-3.17-1.76-4.98-1.67-.32.02-.61.17-.85.37-.38.25-.8.44-1.17.71-1.25.78-1.99,2.05-2.97,3.09-.04.04-.09.07-.14.1-.3-.26-.62-.51-.95-.72-.58-.39-1.14-.52-1.83-.44.72.19,1.25.67,1.69,1.25.66.88,1.27,1.81,1.54,2.86.21.56.12,1.06.07,1.66.01.91.21,1.8.38,2.69.1.41.17.85.35,1.24-.03-.19.03-.39.04-.58v-.07c2.14-.88,5.61-2.7,6.78-3.26,1.55-.06,2.14.15,3.43.34-.34,1.23-.3,2.51-.39,3.77-.1,1.35,0,1.46-1.07,2.23-.99.71-3.07,2.06-3.1,2.15,1.72-.34,3.73-.52,5.16-1.6.03.62.07,1.25.15,1.87.11.58.41,1.1.74,1.6-.17-.04-.33-.08-.49-.13-1.49-.35-2.98-.21-4.38.3,0,.02.9.46,1.39.51,1.46.22,2.99.93,4.02,1.56.21.38,1.01,2.29,1.53,2.96.37.55.9.92,1.43,1.29-.03.06-.05.13-.08.19-.08.21-.77.9-1.19,1.28-.45.5-1,.85-1.59,1.09-.21-.51-.38-.93-.42-1.19-.03-.49,1-2.15.1-2.98-.28-.28-.72-.47-1.12-.38-.09,0-.19.03-.28.06.01,0,.02,0,.03-.01-.01,0-.03.01-.04.02-.1.04-.19.07-.2.08-.07.03-.14.06-.2.08-1.94.55-3.62,1.73-5.14,3.03-1,1.06-1.15,2.6-1.35,3.99-.01-1.63-.34-3.29-.48-4.88-.03-.16-.03-.33-.08-.47-.07-.01-.13.06-.21.06.26,0,.11.01.09.28-.15.67-.29,1.34-.42,2.01-.3,1.41-.54,2.84-.99,4.21-.35.15-1.11.46-1.39.57-.89.34-1.76.75-2.47,1.37-.21-.4-.41-.8-.61-1.21-.51-1.41-1.11-3.24-1.44-4.39.03-1.68.99-4.52,1.86-6.61.18-.16-.06-5.02-.36-5.23-.09-.08-.18-.16-.28-.24-.95-.8-2.22-1.09-3.41-1.3-.96-.27-1.9.03-2.79.38-.99.38-1.91.72-2.81,1.15-.9.58-1.64,1.38-2.33,2.2-.12.14-.57.7-.46.64.91-.62,1.88-1.14,2.9-1.56.58-.22,1.15-.2,1.8-.31.87-.08,1.74-.26,2.61-.25.04.01.09.03.15.06.85.25,2.14.94,2.19,1.03.27.32.58.59.91.84-.01.01-.03.02-.04.04-.97,1.06-1.28,1.32-1.84,1.75-1.09,1-2.18,3.48-2.62,3.83-1.48.4-4.35.87-6.33.72,1.36.65,2.88.88,4.36,1.09,1.06.11,2.24.35,3.24-.14,1.6-1.19,2.7-3.16,3.67-3.55.33-.23.65-.49.96-.75-1.59,1.82-3.14,3.88-3.58,6.27.07,1.77.23,2.74.74,4.93.25,1.04.78,2.01,1.23,2.98.48,1.2,1.33,2.16,2.7,1.49,1.35-1.01.84-1.18,1.95-2.18.07-.05.14-.1.21-.15.99-.73,2.28-1.19,3.03-2.19.06-.19.09-.38.13-.57,0,1.37.37,2.71,1.33,3.78-.74-1.9-.13-3.77.64-5.55.34-.86.47-1.29.96-2.1,0-.13.71-.58,1.46-.98.85-.52,1.32-.79,1.76-1.02.02.2.05.4.12.59.6,1.39,1.68,2.51,2.49,3.78.06.47,0,1-.13,1.52-.6.37-1.18.76-1.59,1.34-.41.63-.61,1.36-.9,2.04.24-.27.49-.54.73-.82.65-.94,1.75-1.24,2.8-1.5,1.01-.27,1.97-.72,3-.91.02,0,.05,0,.07-.01.04,0,.11,0,.17-.01.99,1.01,1.95,1.96,3.01,2.39-.57,1.33-2.09,3.44-2.32,4.07-1.09.83-3.43,1.32-5.09.83,1.59,1.24,5.58,1.77,6.87-.08,1.08-1.06,2.59-2.86,3.57-4.5.86-.96,1.14-2.42-.33-2.93-.6-.18-.95-.17-1.2-.12.68-1.13,1.55-2.33,2.54-3.06.73-.4,1.64-.68,2.58-.87.72.42,1.53.65,2.32.87.4.1.81.19,1.21.24-.43,1.12-.75,2.29-.98,3.46-.13.51-.05.34-.54.81-1.05.63-2.83,1.97-4.37,2.17-.76-.04.57.3.86.23,1.71-.15,3.52-.45,5.01-1.32.69-.36,1.11-1.5,1.19-1.74.51-1.02.92-2.09,1.49-3.08.5-.76,1.08-1.64.75-2.58-.09-.35-.33-.64-.64-.82,1.17-.34,2.37-.67,3.39-.35.32,0,.68.61,1.19,1.06-.19.23-.36.47-.49.75-.62,1.4-.58,3-1.23,4.39-.74,1.54-2.21,3.97-3.96,5.14,2.43-.62,4.49-2.47,5.89-4.5.83-1.17,1.38-3.71,1.62-3.96.08-.23,1.28-1.22,1.79-1.82.49-.58.35-1.6-.35-1.96l.08-.03ZM174.43,47.08c.74-.47,1.6-.72,2.39-1.09.08-.04.28-.11.47-.15h.05c.39.25,1.71.87,2.79,1.26-.33.69-.59,1.4-.81,1.8-1.12,1.18-2.99,3.05-4.87,3.82.1-.28.19-.56.26-.84.24-.93.77-1.9.5-2.87-.24-.79-.84-1.12-1.55-1.28.26-.21.53-.42.78-.64h-.01ZM159.98,54.78c-.89.03-1.4.16-1.48.15-1.04.03-1.88.64-2.63,1.31-1.59,1.38-3.14,2.81-4.64,4.28.15-1.07.19-2.16.38-3.22.21-.65.26-1.32.06-1.98-.27-.98-.87-1.83-1.61-2.52.41-.17.77-.44,1.12-.71.67-.54,1.24-1.05,2.01-1.45.52-.32,1.93-.94,1.91-1.02,1.68-.11,3.36.1,4.81.95-.1.48-.14.98-.14,1.47,0,.88.15,1.74.73,2.43-.36-.93-.06-2.19.41-3.17.06.06.13.1.19.16-.05-.09-.11-.16-.16-.24.39-.79.9-1.37,1.25-1.41,3.31.1,5.95.71,9.42,1.08-.2,1.79-1.07,3.37-1.5,5.1-.09.06-.18.11-.28.16-.1.06-1.9.35-2.58.48-.82.18-1.63.69-2.49.54-.01,0-.03,0-.04-.01.72-1.33-.28-2.94-1.9-2.29-.09.03-.19.06-.28.07-.86.01-1.72-.12-2.57-.15h0ZM162.95,66.09c-.35-.61-.6-1.27-.88-1.91.15-.12.3-.24.44-.38,1.28-2.58,1.04-4.75,1.94-6.21.24.17.51.29.81.34.5.09,1,.08,1.51.07,1.89,1.11,3.5,2.73,4.66,4.33,0,0,0,.01.01.03v.02c.03.5-.08,1.01-.03,1.51.12,1.33.14,2.73.44,4.04-1.91-.01-4.89.81-5.44.9-.86-.43-2.4-1.63-3.47-2.73h0Z"/>
  <path class="cls-1" d="M150.17,149.34c.02-1.79-.83-3.45-1.35-5.13-.07-.26-.13-.53-.19-.79-.04.29-.09.58-.12.88-.05,1.46.14,2.92.15,4.38.04.7-.37,1.12-.81,1.31-.16-.3-3.42-2.56-4.81-3.61.87,1.53,2.03,2.87,3.22,4.17.37.41.71.92,1.28,1.06.46.08.91-.03,1.31-.26.03.61.04,1.21.03,1.82-.01.23-.07.45-.22.63-.8,1.01-1.89,1.8-2.54,2.93-.05.11-.09.22-.14.33-.13-.15-.25-.3-.35-.43-1.13-1.5-2.11-3.94-2.73-5.98-.04.4-.05.81-.06,1.21-.11-.53-.28-1.05-.35-1.58-.05-.23-.11-.45-.17-.67-.06.76-.23,1.5-.27,2.26-.04.31-.04.7-.25.94-.8.74-1.91,1.24-2.89,1.84-.36.19-.69.42-.99.68-.32-1.21-.69-2.44-.84-3.2-.04-2.36.25-4.75,1.28-6.92-1.17,1-1.89,2.4-2.5,3.79-.54,1.27-1.03,2.65-.88,4.05.37,2.12.32,4.45,1.41,6.36.96,1.4,2.63.35,2.6-1.13.08-.84.09-.63.39-1.21,1.16-1.27,2.79-2.22,3.51-3.84.1,1.29.37,2.56.89,3.75.26.62.64,1.18,1.04,1.72.28.42.51.91.95,1.19.38.31.98.26,1.32-.09.27-.28.33-.68.46-1.04.11-1.89,1.78-3.05,2.22-4.97.01-.88-.37-1.73-.75-2.54.65-.42,1.13-1.16,1.18-1.91h-.03Z"/>
  <path class="cls-1" d="M164.63,139.69c-.96-.64-1.78-1.55-3.01-2.32-.75-.39-1.62-.41-2.44-.48-1.81-.16-3.62-.28-5.43-.35,2.05.92,4.16,1.69,6.31,2.33.32.13.21.05.5.24.14.11.44.41.77.74-1.76.17-3.43.37-5.04,1.36-.75.38-1.39.91-2,1.47.28-.07.53-.21.8-.31,2.11-.73,4.12-.67,6.31-.5,1.08,0,2.35.25,3.26-.48.47-.46.41-1.24-.02-1.7h0Z"/>
  <path class="cls-1" d="M160.84,150.11c-.08-.25-.21-.49-.33-.72-.12-1.84-1.46-5.65-3.38-7.42.82,1.97,1.12,4.04,1.32,6.07.05.35.06.71.08,1.07-1.57-.3-3.54-.56-5.14-.65-.84-.14-1.83.07-2.55-.44.14.29.4.48.68.61.98.5,2.03.86,3.06,1.25,1.66.5,3.29,1.18,4.99,1.5.74.17,1.51-.51,1.28-1.27h0Z"/>
  <path class="cls-1" d="M105.49,44.02c.37-1.19-.86-2.42-2.05-2.05-.69.18-1.01.77-1.35,1.33-.29.34-1.02,1.19-1.24,1.38-.24.27-.87.75-.25.27-.18.14-.37.28-.55.42-1.81,1.68-2.29,1.83-3.84,3.15-1.3,1.2-2.48,2.64-3.28,4.25-.32-1.22-.53-2.51-1.34-3.49-.78-.71-1.82-1.01-2.78-1.4-1.13-.48-2.48-.97-3.63-.31-1.4.65-.4.49-2.23.41-.05-.03-.08-.07-.13-.1-1.43-.86-3.14.91-2.19,2.3.11.18.25.33.41.45.11.21.25.46.33.6.26.79.34,2.67.76,4.27.59,1.79,2.3,3.01,3.83,3.98,1.38.59,2.94.46,4.41.21-.04-.06-2.61-.76-3.51-1.38-.8-.77-1.41-1.71-2.07-2.76-.27-.35-.14-1.95-.24-3.54,0-.32-.02-.64-.06-.95.36-.05.7-.14,1.03-.31.41-.21.77-.51,1.16-.76.69.01,3.16.38,3.87.74.58.55.93,1.39,1.46,2.14.17.26.36.52.53.78-.33.87-.55,1.77-.6,2.71.31-.71.7-1.35,1.14-1.94.09.14.19.27.28.41.04.07.18.23.04.19.05.02.1.07.16.06-.03-.33-.13-.65-.23-.98,1.12-1.41,2.55-2.52,4.05-3.45,1.62-.97,2.58-1.27,4.33-2.55.02.95.15,1.9.48,2.81.22.71.44,1.42.61,2.14v.02c0,.29-.05.46-.22.79-.76,1.14-2.18,2.01-3.36,2.85.36-.08.71-.2,1.07-.29,1.71-.52,3.92-1.23,4.32-3.22.19-1.39-.19-2.79-.14-4.18-.06-.84.7-3.13,1.04-5.01h-.02Z"/>
  <path class="cls-1" d="M127.25,63.21c-1-1.05-1.71-2.14-2.45-3.39-.58-.72-.57-.73-1.14-1.42-.51-.77-.75-1.71-1.31-2.45-1.15-1.67-2.71-1.71-4.18-.39-1.76,1.41-3.25,3.13-4.47,5.03-.45-.17-.96-.19-1.42-.34-.24-.04-.59-.27-1.59-.82-1.19-.66-2.44-1.23-3.67-1.8-.77-.37-1.51-.88-2.39-.93-2.2.16-4.14,1.69-5.65,3.2,1.61-.79,3.98-1.59,5.4-1.37.79.54,2.73,2.11,4.11,3.01.53.36,1.04.76,1.57,1.11-.06.09-.12.18-.17.27-.44.91-.58,1.93-.9,2.88-.02.01-.03.02-.05.03-.89.32-2.76-.02-4.45-.05-.82-.01-1.65.03-2.45-.2-.3-.17-.54-.45-.82-.65-.26-.2-.52-.4-.78-.6.37.56.7,1.16,1.09,1.72.92.86,2.29,1.02,3.44,1.43,1.89.62,4.32,1.68,6.06.2,1.47-1.8,1.03-2.82,1.96-3.59.09-.08.2-.18.3-.26.06-.05.12-.09.19-.13.09-.02.17-.05.26-.1,1.06-.37,1.32-1.87.52-2.64-.16-.17-.35-.27-.55-.35,2.09-1.79,5.96-4.75,6.65-4.3.11.11.54.51.61.65-.19-.37.97,1.77,1.25,2.14.69.83,1.58,1.48,2.24,2.34.87,1.06,1.95,1.75,2.89,2.39.3.23.6.47.9.7-.33-.44-.64-.89-1.02-1.3l.02-.02Z"/>
  <path class="cls-1" d="M100.83,71.67c-.05-.92.08-2-.5-2.77-.53-.35-.91-.47-1.52-.94-.27-.17-.01.05.06.17.26.39.52.77.88,1.07.06.06.1.15.09.24,0,.83-.32,1.61-.5,2.41-.18.84-.54,2.71-.71,2.98-.45.9-1.58,1.42-2.5,2.3-.63-.82-1.27-1.54-1.63-1.92-.58-1.05-.98-2.63-1.42-4.13-.35-1.35-.71-2.72-.54-4.12-.78,1.52-.83,3.28-.83,4.96.07,1.5.08,3.08.65,4.5.64,1.15,1.59,2.44,2.38,4,.06,2.08,3.18,1.81,3.02-.29.06-.27.15-.58.19-.71.03-.06.07-.12.1-.17.02-.02.04-.05.07-.08,1.01-1.05,2.33-2,2.65-3.5.3-1.31.09-2.65.08-3.97l-.02-.03Z"/>
  <path class="cls-1" d="M89.08,67.21c.06.4.11.8.11,1.21,0,.07-.02.11-.1.12-1.92.47-3.59.35-5.51.26-3.21-.2-3.63-.02-4.46-1.01.73-.97.99-2.29,1.65-3.32,1.23-1.17,4.21-3.74,6.9-3.54-1.93-.87-4.1-.25-5.97.48-1.18.48-2.46.99-3.23,2.05-.57.76-1.06,1.58-1.58,2.38-.18.12-.36.22-.52.31-1.44-.04-2.83.8-2.5,2.51.55,1.5,1.63,1.44,2.71.95.05.05.09.1.12.15.59.56,1.22,1.12,2,1.39,1.04.32,2.14.24,3.2.07,2.3-.34,5.1-.63,7.47-2.17.66-.47-.08-1.29-.3-1.84h.01Z"/>
  <g>
    <path class="cls-1" d="M119.76,28.39c.24-.52.46-1.01.67-1.39.03.04.06.09.1.14.43.69,1.5,1.69,2.63,1.89,1.19.19,2.41.15,3.62.25-.42-.13-.82-.29-1.23-.42-.86-.29-1.76-.42-2.49-.86-.68-.44-1.11-1.1-1.52-1.96-.07-.17-.12-.35-.16-.53,0-.11-.05-.41-.13-.48-.24-.44-.9-.53-1.25-.16-.06.07-.12.15-.17.23-.05.06-.14.17-.2.22-.72.63-1.06,1.53-1.53,2.33-.02.03-.04.06-.06.08.02-.02.02-.03.05-.06-.02.03-.04.06-.06.08-.03.04-.04.06-.05.07-.31.4-.56.85-.7,1.34-.16.71-.04,1.45.11,2.16,1.03,4.27.77,5,5.13,6.75-.92-.75-2.06-1.59-2.7-2.45-.55-.87-.44-1.91-.59-3.08-.13-1.28-.38-2.31-.2-2.93.19-.44.51-.8.75-1.21h-.02Z"/>
    <path class="cls-1" d="M118.03,27.72c-.05.06-.07.1-.07.09.02-.02.03-.04.05-.07,0,0,.01-.02.02-.02h0Z"/>
  </g>
  <path class="cls-1" d="M148.46,8.98c.58-.82.4-2.07-.67-2.35-.52-.14-1.03.08-1.52.25-.8.26-1.61.53-2.43.71-.51.06-1.01.19-1.52.26-1.83.14-3.52.88-5.07,1.83.21.04,2.64-.02,3.88-.03,1.38.12,2.77.2,4.13,0-.46,1.07-.81,2.2-1.24,3.29-.24.92-1.82,2.08-2.92,2.54-.34.11-.68.23-1.01.38-.93.09-1.86.21-2.65.28,1.68.51,3.43.73,5.12,1.15.16.08.33.15.5.22-2.73,2.13-3.35,4.46-6.44,4.81-1.01.23-1.78.6-2.77.47-.57-.13-1.4-.59-2.03-.92-.31-.31-.56-.66-.84-.99.04-.09.09-.18.13-.27-.07.06-.13.13-.2.19-.05-.06-.1-.13-.16-.19.03.08.06.17.09.26-.33.31-.67.61-1.07.81-.64.11-1.41.18-2.02.18-.73-.27-1.42-.37-2.01-.8-.38-.51-.76-.96-.93-1.34-.28-1.08-.66-1.64-.57-2.53.2-.6.86-1.86,1.35-2.9.66.37,1.47.37,2.22.31,1.11-.08,2.23-.13,3.31-.36-1.46-.35-3.32-.61-4.57-1.21-.18-.22-.73-1.29-1.55-.97-.92.46-1.46,1.68-2.18,2.7-.24.31-.45.64-.62.98-1.07-1.1-2.06-2.35-2.45-3.65-.08-.22-.04-.86-.16-1.38-.38-1.33.04-1.78.11-3.63.1-.62.34-1.2.49-1.81.07-.4.11-.81.15-1.22.46.41.94.81,1.37,1.26,1.02,1.09,2.17,2.25,3.65,2.66.31.08.1,0-.03-.1-.28-.2-.53-.44-.76-.71-.66-.77-1.31-2.03-1.89-3.08-.44-.71-1.46-2.06-1.47-2.25-.38-.84,0-.33-.37-1.24-.52-.93-1.89-.69-2.25.25-.39,1.1-.22.76-.75,1.98-.32,1.09-.28,1.66-.4,1.93-.42,1.15-.48,2.35-.42,3.56-.03,1.06.03,2.17.57,3.11v.02c.13.34.17.71.33,1.04.26.63.71,1.17,1.2,1.64.8.9,1.83,1.49,2.91,2.01-.37.97-.41,2.03.05,3.03.48,1.4,1.64,3.51,3.67,3.88.21.02.43.05.64.08-1.42,1.09-1.92,3.42-2.4,5.12-.01.07-.02.15-.03.22.68-1.14,1.34-2.3,2.08-3.41.54-.75,1.3-1.29,2.12-1.24.84.05.79-.08,1.12.51.38,1.28.92,4.25.96,4.28.19-.92.28-1.85.32-2.79.06-1.26-.12-2.72-1.27-3.16.46-.18.9-.39,1.17-.83.18-.25.32-.52.46-.79.16.49.29,1,.59,1.42.75.66,1.4,1.55,2.41,1.8.73.27,1.52.29,2.29.2.89-.01,1.78-.01,2.66-.15,2.41-.54,4.01-2.55,5.67-4.22.28-.43,1.63-1.1,2.8-2,.66-.58.74-1.8-.09-2.26-.92-.41-1.99.06-2.97.03-.49-.13-1.17-.16-1.94-.13.81-.2,1.58-.56,2.29-.98,1.72-1.56,2.38-3.94,3.83-5.73v-.03Z"/>
  <path class="cls-1" d="M131.35,37.32s-.42.83-.46,1.25c-.26,1.58-.75,2.71-1.62,4.02-.26.47-1.2,1.2-1.69,1.29-1.31.2-1.32.27-2.47-.14-.29-.12-.86-.39-1.3-1.33-.69-1.14-.6-1.76-.44-3.68.04-.17.14-.63.19-.75.24-.65.4-1.53.64-1.99.59-.73,2.31-2.46,2.29-2.5-1,.32-1.88.97-2.68,1.64-.37.26-.65.6-.83,1.02-1.02,1.79-1.77,3.87-1.4,5.95.47,1.73,1.56,3.35,3.4,3.74,1.19.32,2.49.08,3.6-.41.73-.51.67-.49,1.14-.9,1.46-1.72,1.97-4.12,1.73-6.33-.04-.3-.08-.6-.11-.9v.02Z"/>
  <g>
    <path class="cls-2" d="M83.81,8.72c-1.08-.32-2.43-.82-3.49-.28-.06.03-.32.05-.37.04-.65-.12-1.27.29-1.84.57-.14.05-.25.12-.36.21-.05.04-.12.11-.16.15-.26.28-.43.66-.62.99-.38.68-.73,1.37-1.01,2.09h.02c1.26-1.22,1.78-1.15,2.35-1.98.13-.19,1.02-.33,1.27-.38,1.14-.04,2.97-.26,3.89-.08.83.26,1.46,1.04,2.13,1.62.32.28.69.82.93,1.01-.11-.29-.2-.58-.31-.87-.56-1.19-1.19-2.51-2.45-3.08h.02Z"/>
    <path class="cls-2" d="M56.16,45.22c-.66-.58-1.53-.92-2.34-1.24-.58-.75-1.32-1.38-2.27-1.5s-2.08.17-2.49.35c0,0-.29.16-.3.17-.25.16-.47.36-.6.64-.35.89-.24,1.13-.38,1.9-.19,1.07.18,2.13.89,2.94.5.65,1.02,1.33,1.72,1.77.68.34,1.44.4,2.18.52,1.29.34,2.58-.34,3.32-1.4.4-.66.42-1.44.51-2.18.06-.64.19-1.43-.25-1.96h0ZM54.53,48.19c-.12.21-.81.46-.94.49-.09-.04-.9-.24-1.1-.31-.26-.08-.53-.15-.79-.24t-.03-.01c-.12-.1-1.4-1.56-1.51-1.84h0c-.02-.07-.03-.14-.04-.19-.05-.52-.03-1.04-.03-1.56.53-.29,1.09-.54,1.68-.56,1.16.16,2.42,1.23,3.17,2.25-.22-.76-.59-1.57-1.11-2.24.58.52,1.18,1.08,1.62,1.72-.09.84-.71,2.12-.91,2.48h0Z"/>
    <path class="cls-2" d="M10.86,53.24c-.18.38-.3.81-.4,1.21-.54,1.26-.07,2.63.45,3.82.84,1.82,3.3,1.47,4.79.74,1.23-.88,1.16-2.59,1.43-3.93.11-1.39-.45-1.6-1.27-1.48-.32-1.56-2.72-2.14-4.05-1.35-.38.17-.64.44-.84.77,0,0-.11.22-.12.23h.01ZM12.26,55.29c.12-.56.1-1.19.2-1.54,0-.02,0-.03,0-.04.45-.83,2.4-1.07,3.14-.07-.26.05-.55.13-.84.2.34.05.7.09,1.04.16.03.1.06.2.07.31.02-.1.02-.2.03-.29.13.03.27.06.4.11.11.57-.38,1.17-.58,1.71-.74,1.72-.65,1.66-2.42,1.63-.08,0-.12-.01-.12,0-.06-.01-.13-.03-.19-.05h0c-.05-.08-.16-.26-.19-.33-.06-.15-.42-.97-.54-1.52v-.02c0-.19,0-.21,0-.26h0Z"/>
    <path class="cls-2" d="M16.65,113.48c-.72,1.42-.37,3.46,1.1,4.24.19.09.38.15.57.15h.13c.77.02,1.54-.44,2.14-.89,1.45-1.02,3.03-2.65,1.46-4.31-.39-.51-.93-1.32-1.79-1.46-.27-.04-.55-.06-.82-.07-.14,0-.88-.02-.99-.02-.65,0-1.29.04-1.93.09.1.02.2.04.29.08.38.15.8.28,1.23.4-.64.41-1.08,1.09-1.38,1.78h-.01ZM17.65,113.68c.08-.51.24-1.15.55-1.62.09-.09.21-.15.33-.21.62.19,1.21.4,1.64.74.14.22.44.85.63,1.21,0,.03.02.04.02.05.03.08.05.14.07.19-.04.06-.09.17-.14.19-.79.75-1.61,1.46-2.36,1.76-.59-.39-.92-1.24-.73-2.32h-.01Z"/>
    <path class="cls-2" d="M102.06,129.02c-1.24-.58-2.62-1.08-4-1.15-.08-.02-.16-.04-.24-.05-1.62-.05-3.41.97-3.91,2.56-.26,1.1.39,2.13.92,3.05.52,1,1.28,1.95,2.43,2.22,1.8.36,4.34.43,5.35-1.41.44-.87.53-1.85.59-2.81.09-.96-.25-1.96-1.14-2.42h0ZM100.95,132.52c-.2.4-.24.49-.36.62-.26.25-2.4.18-2.91.02-.01,0-.03-.01-.05-.02-.47-.27-1.53-1.71-1.85-2.31-.23-.37.66-1.59,1.8-2.04.98-.3,1.99.31,2.87.71-.02-.02-.05-.05-.07-.07.57.42,1.01.83,1.1,1.09.06.18-.38,1.66-.52,2.01h-.01Z"/>
    <path class="cls-2" d="M65.52,137.52c-.2-.76-.65-1.52-1.46-1.72-.38-.08-.76-.09-1.15-.06-.55-.4-1.14-.72-1.82-.79-1.63-.02-3.2,1.16-3.55,2.77-.05.25-.05.5-.03.74,0,.1.07.49.12.6.22.71.68,1.37,1.08,1.97.58.84,1.25,1.73,2.25,2.06,1.07.24,2.05-.37,2.97-.84.85-.54,2.04-1.09,2.08-2.23.06-.86-.29-1.69-.49-2.51h0ZM64.09,139.63c-.33.19-.66.36-1,.51-.21.06-1,.43-1.48.55-.33-.25-.79-.79-1.23-1.31-.58-.66-.97-1.18-.93-1.5.06-.75.65-1.55,1.65-1.93.25-.05.49-.06.73-.03-.27.06-.54.12-.81.17.86.13,1.76.23,2.57.57.15.08.29.19.36.33.06.15.1.33.11.48,0,.69.11,1.72.04,2.16h0Z"/>
    <path class="cls-2" d="M55.85,115.9c-.22-1.17-.15-4.56-2.13-3.46-1.28.43-3.39.43-5.01.86-.03,0-.07.01-.12.03-.02,0-.87.26-.46.22.48.02.95.08,1.42.15-.29.11-.57.27-.81.48-1.07,1.24-1.42,3.21-.65,4.69,1.08,2.11,4.01,1.78,6.01,1.68,2.1-.46,1.98-2.97,1.73-4.65h.02ZM53.35,118.05c-.19.01-.46.03-.6.03-.77.05-1.53.18-2.3.12-.15-.02-.29-.05-.43-.1h-.02s-.07-.04-.08-.05c-.24-.21-.46-.63-.48-.66-.28-.8-.28-1.73.04-2.53.27-.45.74-.74,1.26-.94.91.17,1.82.32,2.74.32.05,1.46.06,2.95-.13,3.82h0Z"/>
    <path class="cls-2" d="M91.99,97.66c-.99-.76-2.16-1.31-3.35-1.71-.73-.64-1.59-1.15-2.53-1.04-1.02.34-2.04,1.03-2.67,1.95-.02-.02-.07.14-.14.21,0,0-.21.4-.28.62-.26,1.26.27,2.53.69,3.7.42,1.25,1.23,2.27,2.53,2.66,2.37.92,4.62.53,5.62-2.02.47-1.2,1.75-3.05.12-4.37h.01ZM90.87,99.13c-.29.48-1.27,2.09-1.71,2.47-.05.04-.08.07-.11.09,0,0-.02.01-.03.02-.98.03-1.7-.19-2.46-.63-.66-1.04-1.21-2.07-1.46-2.95-.14-.27.56-1.24,1.27-1.92.21-.15.28-.18.54-.16.38.05.75.14,1.12.25.9.61,1.67,1.39,2.45,2.15.26.3.34.38.42.63,0,.02-.01.04-.02.05h-.01Z"/>
    <path class="cls-2" d="M58.57,75.39c-.39-.46-.8-.95-1.39-1.17-1.2-.33-2.38.37-3.49.73.36.02.72.01,1.09,0-.23.05-.45.14-.67.23-1.48.71-2.78,2.26-2.43,3.98.19,1.07,1.42,1.76,1.85,2.14.87.74,2.06,1.68,3.23,1.05.78-.37,1.26-1.11,1.79-1.75.59-.68,1.34-1.36,1.46-2.3.16-1.17-.75-2.11-1.45-2.92h.01ZM56.87,79.02c-.37.36-.68.78-1.07,1.13-.07-.02-.08-.04-.35-.19-.84-.55-2.19-1.21-2.12-1.38-.22-.66,0-1.34.51-2.11.33-.49.73-.94,1.24-1.24.29-.01.58-.04.87-.07-.23-.05-.46-.14-.69-.2.46,0,.92.05,1.35.22.37.25.51.74.74,1.15.32.59.65,1.23.66,1.56-.03.04-.05.09-.07.11h0c-.32.38-.72.68-1.07,1.03h0Z"/>
    <path class="cls-2" d="M122.69,95.13h.08c-.08-.03-.15-.07-.23-.1h0c-.41-.19-.85-.48-1.32-.45.06,0,.12.04.18.07h.02c-.11.01-.23.01-.35.04-2.27.24-4.98,1.8-4.95,4.35.14,1.55,1.58,2.49,2.56,3.55,1.29,1.35,2.84,1.72,4.26.3.5-.43,1.37-1.66,1.47-1.78.62-.77,1.43-1.53,1.5-2.57-.1-1.7-1.92-2.55-3.21-3.4h0ZM123.11,99.31c-.83.69-1.42,1.45-2.06,1.84-.67-.48-1.87-1.43-2.75-2.3-.02-.03-.05-.07-.07-.11,0-.02-.01-.04-.02-.06v-.15c0-.06,0-.09.01-.12.2-1.07.92-1.76,1.98-2.56.47-.31.96-.62,1.51-.77.06,0,.12,0,.19.01.69.66,1.24,1.47,1.82,2.23.27.39.47.78.47.97-.08.16-.63.7-1.08,1.03h0Z"/>
    <path class="cls-2" d="M141.79,112.31c-.83-.18-1.7-.05-2.51.14.44.08.89.12,1.31.27.36.13.84.22,1.06.54.16.42-.12,1.05-.29,1.56-.71,2.01-.69,2.74-1.55,2.58-.93-.16-2.27-.67-2.38-.8-.08-.08-.13-.1-.21-.56-.16-.56.29-1.77,1.15-2.47.81-.51,1.83-.5,2.76-.53-.99-.38-2.1-.71-3.16-.42-1.3.51-2.47,1.72-2.62,3.14-.51,2.67,2.48,3.81,4.64,3.9,1.78-.01,2.61-1.5,2.73-3.11.06-1.38.86-3.68-.92-4.26v.02Z"/>
    <path class="cls-2" d="M161.97,88.48c-.83-.41-1.77-.42-2.69-.34.17-.07.34-.14.5-.2-1.6-.05-3.73.46-4.28,2.17-.61,2.38.86,6.85,3.96,5.72,1.44-.77,1.87-2.49,2.46-3.89.24-.6,1.31-2.74.05-3.46h0ZM158.54,93.74s-.02,0-.02.01h-.04c-.43,0-1.68-2.25-1.56-3.54.14-.66.97-1.33,1.84-1.81.79.21,1.57.44,2.28.84.06.02.14.11.18.14-.03.32-.3.78-.6,1.23-.75,1.08-1.74,3-2.08,3.13h0Z"/>
    <path class="cls-2" d="M136.74,70.38c-.67-.97-1.96-1.03-3.02-1.2-1.04-.16-2.28-.55-3.23.09-.6.45-.8,1.22-1.04,1.9-.1.27-.54,1.1-.53,1.69-.04,1.21,1.14,1.83,2.12,2.21.69.26,1.36.71,2.13.67.12-.01.24-.04.34-.11-.17.03-.34-.02-.5-.09-.56-.34-1.05-.78-1.53-1.23,2.03,1.19,6.42-1.6,5.25-3.93h.01ZM131.46,74.28c-.24-.22-.47-.44-.71-.65-.13-.14-.19-.22-.29-.41-.05-.15.09-.43.36-.82.33-.42.59-1.03.8-1.34.15,0,.3.01.46.03.77.13,1.55.26,2.33.28.42.04.41,0,.74.11-.16.93-1.37,2.2-2.57,2.73-.34.15-.74.04-1.11.08h0Z"/>
    <path class="cls-2" d="M150.45,66.03s-.26.82-.35,1.19c-.08.33-.1.66-.13,1-.03.33-.09.67-.03,1,.16.77.98,1.91,1.87,2.23,1.28.37,2.55-.33,3.64-.94,1.07-.54,1.72-1.18,1.95-1.9.03-.16.08-.48.06-.85-.07-.55-.36-1.18-.86-1.74h0c-.12-.18-.14-.18-.29-.34-1.01-1.05-2.21-2.62-3.76-2.63-.56.08-1.02.45-1.45.8.56-.16,1.26-.46,1.78-.06.37.31.63.71.88,1.12-1.3-.11-2.92-.05-3.31,1.12h0ZM153.93,65.19c.12.2.24.4.37.59.49.78.9,1.34,1.08,2.06-.58.44-2.19,1.24-2.9,1.44h-.14c-.09-.04-.17-.09-.25-.15-.29-.25-.45-.55-.52-.69-.19-.61-.18-1.46.2-2.13.45-.53,1.32-.89,2.16-1.11h0Z"/>
    <path class="cls-2" d="M96.17,57.79c-.22-.22-.56-.27-.85-.18-.08.02-.16.04-.24.05.05.01.1.02.16.03,1.19.09.84,1.95,1.05,2.79.1.78.25,1.36.19,2.17v.02c-.01.06-.04.16-.06.24,0,0-.01.01-.02.02-.25.19-1,.02-1.92-.09-1.27-.12-2.31-.33-2.34-.77-.34-1.1.4-2.67,1.45-3.96.29-.34.62-.67,1-.91.27-.08.59-.04.87-.1-.31-.06-.61-.23-.93-.24-1.01.19-1.89.82-2.63,1.5-.38.34-.8.79-1.03,1.22-.03.05-.07.09-.09.14-.81,1.36-1.08,3.06.09,4.28,1.45,1.26,3.82,1.26,5.64,1.08,2.47-.64,1.84-3.14.96-4.86-.38-.82-.6-1.79-1.3-2.44h0Z"/>
    <path class="cls-2" d="M137.02,10.73c-.04-.17-.07-.34-.1-.51-.02-.06-.05-.25-.06-.31-.12-.6-.28-1.2-.68-1.69-.4-.51-.54-.81-1.06-1.29-.28-.22-.57-.37-.87-.47,0,0-.68-.15-.67-.15-.82-.08-1.67.13-2.52.34-.57.2-.94.72-1.31,1.16-.84,1.07-1.58,2.22-2.14,3.47,1.21-1.06,2.68-2.48,3.92-3.13h.04c.52,0,1.43-.05,1.67-.06.05,0,.33.12.3.1.58.22.98.86,1.52,1.44v.02c.25.43.4.92.64,1.44.62,1.21.63,2.7.08,3.96,1.15-1.11,1.59-2.78,1.23-4.32h0Z"/>
    <path class="cls-2" d="M133.75,30.93c-.81-.68-1.83-1.03-2.8-1.43-.17-.08-.49-.23-.83-.34,0,0-.15-.04-.19-.06-.19-.08-.4-.1-.58-.09-.67-.02-1.38.05-1.94.47-.16.11-.31.24-.45.37.11-.05.22-.11.34-.16.66-.3,1.27-.26,1.86-.06-.96.75-1.58,1.83-1.95,2.98-.22.71-.4,1.53-.03,2.22.82,1.3,2.41,1.95,3.92,1.91.04,0,.11,0,.16-.01.12,0,.25-.01.37-.03,1.1-.22,2.06-.91,2.85-1.67,1.05-1.18.12-3.07-.74-4.1h0ZM131.6,34.89c-.11.03-.4.1-.54.15-.09,0-.17.02-.26.02-.99-.06-1.47-.06-2.35-.7-.34-.31-.27-.19-.37-.63-.09-1.1.24-2.93,1.13-4.09.84.3,1.63.94,2.38,1.42,1.19.81,1.3.95,1.6,2.28,0,.05.02.12.03.17,0,.09.01.17.01.26-.09.09-.18.18-.28.26.33-.24-.84.62-1.35.86Z"/>
  </g>
  <path class="cls-1" d="M140.4,36.48c-.77.02-1.31-.16-2.09-.4,1.45-.85,3.04-1.6,3.99-3.01.56-1.03,1.37-2.46.94-3.64-.25-.45-.8-.57-1.26-.67-.73-.17-.72-.22-1.54-.67-.56-.29-1.12-.65-1.76-.72-.57-.02-1.13.18-1.6.49-1.11.72-2.45,1.41-3.12,2.59.5-.49,2.29-1.27,3.36-1.62.51-.18.72-.28,1.18-.25.39.1,1.87,1.38,2.86,1.64.15.03.3.07.45.1-.1.62-.25,1.23-.47,1.82-.06.27-.52,1.05-.71,1.28-.86.85-1.71,1.72-2.55,2.6-.79-.22-1.6-.42-2.24-.95-.22-.17-.4-.38-.61-.56.02.03.04.06.06.1.79,1.58,2.56,2.28,4.09,2.97.63.24,1.29.23,1.95.23-.09.31-.16.49-.31.72-.99,1.46-3.22,3.96-4.43,5.03-1.76.85-3.65.51-5.6.59,2.11.52,4.51,1.48,6.58.38,1.24-.87,2.98-2.36,4.12-3.86.77-.94,1.32-2.03,1.38-3.27.13-1.45-1.88-1.05-2.69-.91h.02Z"/>
  <path class="cls-1" d="M180.86,117.8c-1.46-2.23-2.17-5.08-4.61-6.52,1.8,1.91,2.13,5.23,3.41,7.12-.84.69-1.88.73-3.02,1.02-.4.1-1.07-.15-1.46-.41-.27-.24-.49-.54-.71-.82.09.23.17.46.28.68.28.65.96,1.05,1.61,1.27.96.07,1.95,0,2.9-.16.94-.32,2.41-.99,1.61-2.18h-.01Z"/>
  <path class="cls-1" d="M76.33,30.24c-.88,2.19-.65,4.63-.28,6.91.11-.74.18-1.25.27-1.96.16-1.13.52-3.24,1.1-4.81.67-1.31,1.46-3.21,2.28-4.66-1.35,1.3-2.52,2.86-3.38,4.53h.01Z"/>
  <path class="cls-1" d="M133.33,142.97c-.71-1.45-1.22-2.62-1.35-4.26-.09-1.4-1.14-2.73-.7-4.14.08-.3.32-.52.37-.82.11-.49,0-.1-.15.1-1.35,1.01-.9,3.23-.74,4.38-.07,1.23-.04,2.47.34,3.65.47,1.35.74,1.66,1.19,2.83.26.56.63,1.45.75,2.13-1.33.39-3.32.86-4.8,1.48,1.54-.13,3.08-.21,4.62-.29.37-.02.75-.05,1.07-.25,1.12-.91-.23-3.67-.6-4.82h0Z"/>
  <path class="cls-1" d="M40.83,144.6c-.76-.21-1.46-.63-2.14-1.04-.32-.24-1.06-.92-1.09-1.07-.3-.9-.48-1.47-.21-2.3.39-1.26.76-2.56,1.44-3.7-.83.72-1.42,1.66-1.93,2.62-.36.7-.73,1.45-.67,2.26.06.64.25,1.31.62,1.84,1.04,1.09,2.6,1.66,4.09,1.63.26-.02.5-.09.76-.13-.29-.05-.59-.05-.87-.13v.02Z"/>
  <path class="cls-1" d="M29.73,90.12c-1.01-.46-1.85-1.25-2.88-1.65-.82-.22-1.76.23-2.08,1.02-.82,2-.98,4.05-1.24,5.72-.36,1.69-.06,3.41-.18,5.11.46-1.17.57-2.44.92-3.64.48-1.39.86-2.8,1.31-4.19.32-.92.58-1.82.83-2.28h0s.04,0,.07.02c.23.13,1.05.59,1.25.7.19.1,1.2.51,1,.42.52.23,1.15.45,1.28.58.44.35,1.01.9,1.22,1.57.16.35.19,1.14.06,1.69-.23.41-.7.66-1.16.71h-.28c.33.12.69.13,1.02.04.32-.1.64-.26.85-.54.21-.29.25-.65.34-.98.44-1.76-.78-3.57-2.35-4.29h.01Z"/>
</svg>