<?xml version="1.0" encoding="UTF-8"?>
<svg id="Layer_1" data-name="Layer 1" xmlns="http://www.w3.org/2000/svg" viewBox="0 0 227.73 314.96">
  <defs>
    <style>
      .cls-1 {
        fill: #d099c3;
      }

      .cls-2 {
        fill: #acd263;
      }
    </style>
  </defs>
  <path class="cls-2" d="M98.93,23.17c-1.02,1.84-2.24,3.4-3.25,5.18-.97,1.74-1.01,3.6-1.48,5.62-.33,1.39-.79,2.68-1.3,3.97-1.01,2.56-2.2,4.99-3.16,7.48-.96,2.6-2.38,4.98-3.65,7.34-1.32,2.36-2.27,4.82-3.06,7.4-.43,1.42-1.38,4.48-1.79,5.82-.7,1.96-.63,3.89-1.18,5.95-.76,2.67-2.41,4.86-3.1,7.51-.38,1.28-.67,2.61-1.11,3.93-.79,2.67-2.84,4.65-4.01,7.12-2.39,4.8-4.2,9.97-6.17,14.96-.83,2.25-2.13,5.27-2.55,7.59-.56,2.6-.85,5.32-1.6,8.01-1.81,6.52-5.7,12.28-6.46,19.02-.17,1.13-.15,2.78-.19,3.94v.14l-.04.14c-.51,1.83-1.54,4.35-2.23,5.65-3.64,9.15-4.43,19.31-7.67,28.72-1.09,3.19-2.8,6.13-4.46,9.05-1.57,2.86-2.88,5.82-3.95,8.89-2.11,6.27-4.68,12.41-6.94,18.62-1.16,3.11-2.1,6.22-3.07,9.41-2.04,6.35-4.65,12.44-6.61,18.73-3.67,12.7-6.03,25.89-11.18,38.14-1.24,3.08-2.46,6.11-3.38,9.26-.96,3.17-2,6.39-3.6,9.42-.24.45-.79.62-1.24.39-.46-.24-.63-.81-.38-1.26,1.56-2.81,2.63-5.9,3.65-9.04,1.01-3.19,2.32-6.28,3.61-9.32,3.91-9.09,6.87-18.58,9.24-28.2.81-3.2,1.46-6.46,2.41-9.65,2.41-7.99,5.51-15.59,7.52-23.64,1.39-4.78,3.11-9.48,4.77-14.15,2.32-6.25,3.86-12.81,7.09-18.69,2.45-4.24,4.54-8.61,5.63-13.41,2.07-8.04,3.27-16.23,6.46-24.09.91-1.74,1.7-3.55,2.29-5.43l-.05.28c.05-2.76.38-5.63,1.2-8.26,1.54-5.26,4.49-9.91,6.05-15.09,1.14-3.78,1.41-8.1,3.01-11.83,2.56-6.26,4.84-12.75,7.88-18.79.87-1.82,2.27-3.41,3.25-5.16.95-1.77,1.25-3.74,1.83-5.69.67-2.63,2.34-4.95,3.07-7.5.49-1.87.48-4.1,1.17-5.99.93-2.98,1.98-6.78,3.1-9.71,1.45-3.8,3.87-7.21,5.18-11,1.4-3.83,3.31-7.38,4.15-11.32.25-1.26.35-2.63.69-4.04.3-1.38,1.09-2.7,1.82-3.9.71-1.17,1.42-2.3,2-3.45.25-.49.85-.69,1.34-.45.51.25.7.88.43,1.38h.02Z"/>
  <path class="cls-2" d="M112.56,11.44c-1.84,2.49-3.27,5.18-3.82,8.24-.55,3.1-.89,6.37-1.78,9.43-.81,3.1-1.75,6.14-2.44,9.22-.32,1.51-.69,3.26-1.13,4.68-1.35,4.59-3.31,9.01-4.68,13.56-1.39,4.58-2.6,9.13-3.32,13.87-1.95,11.01-7.28,21.15-9.8,31.96-.86,3.84-1.39,7.86-2.41,11.73-1.43,5.38-2.22,10.8-2.86,16.36-.38,3.2-1.12,6.53-2.42,9.47-1.14,2.57-2.43,6.22-3.34,8.88-3.1,8.65-5.81,18.43-7.94,27.41-2.43,10.58-6.44,21.7-9.91,32-1.88,6.03-2.7,12.44-4.59,18.49-2.07,7.69-2.74,15.63-4.55,23.41-1.41,6.23-3.01,12.4-4.21,18.64-1.5,7.77-1.97,15.78-3.17,23.64-.62,4.8-.35,10.2-3.72,14.15-.34.38-.92.42-1.3.08-.39-.35-.42-.95-.05-1.33,3.06-3.55,2.82-8.66,3.52-13.1,1.35-7.87,1.95-15.8,3.78-23.62,1.41-6.23,3.09-12.38,4.33-18.62,1.65-7.76,2.25-15.78,4.1-23.56,1.75-6.17,2.34-12.52,4.11-18.71,3.2-10.41,6.9-21.44,9.32-32.04,2.48-10.91,5.78-21.64,9.79-32.09,1.14-2.98,2.68-5.74,3.46-8.78.71-2.62,1.18-6.59,1.6-9.32.69-4.76,1.91-9.41,3.17-14.04.74-3.06,1.28-6.21,2.05-9.33,1.53-6.26,3.96-12.19,6.13-18.16,1.08-2.99,2.13-5.99,2.91-9.05.85-3.08,1.2-6.22,1.86-9.35.67-3.14,1.54-6.22,2.44-9.28,1.59-5.36,3.93-10.41,5.12-15.86.82-4.7,2.3-9.32,3.29-13.94.77-3.93.65-8.13,2.4-11.85.67-1.53,1.53-2.95,2.42-4.3.31-.46.93-.59,1.39-.28.47.31.59.96.26,1.42h0v-.03Z"/>
  <path class="cls-2" d="M109.63,63.83c-.53,8.52-3.86,16.26-7.03,23.97-2.98,7.72-5.88,15.49-9.61,22.91-2.58,4.87-5.08,9.75-7.03,14.91-2.05,5.12-3.63,10.36-5.2,15.65-2.29,7.62-4.99,16.05-7.3,23.71-3.02,10.46-7.21,21.04-11.24,31.17-4.94,12.83-7.46,26.74-14.46,38.76-5.37,9.63-10.62,19.36-16.43,28.74-2.9,4.68-6.06,9.21-8.71,14.05-2.65,4.82-5.14,9.74-7.57,14.66-2.4,4.94-4.64,10.03-7.74,14.73-.28.42-.85.54-1.27.26-.43-.28-.54-.87-.25-1.29,3.08-4.46,5.42-9.44,7.94-14.36,2.55-4.91,5.18-9.76,8.07-14.48,2.84-4.73,6.05-9.23,8.83-14,5.65-9.47,10.61-19.3,15.64-29.11,6.57-12.18,8.67-26.02,13.71-38.84,2.96-7.44,6.33-15.59,9.03-23.06,1.88-5.17,3.48-10.45,5.27-15.65,4.66-12.99,8.08-26.44,14.05-38.93,2.44-4.95,5.06-9.77,7.17-14.88,2.33-5.01,3.94-10.25,5.93-15.42,1-2.57,2.02-5.13,2.93-7.71,1.8-5.16,3.22-10.49,3.29-15.86,0-.55.46-1,1.01-.99.57,0,1.02.49.98,1.06h0Z"/>
  <path class="cls-2" d="M128.91,44.04c-2.2,11.13-2.84,22.57-4.83,33.76-.88,5.13-1.73,11.89-2.82,16.87-2.39,9.74-6.21,18.92-8.45,28.68-1.22,4.09-3.01,8.03-4.17,12.1-.8,2.72-1.58,5.47-2.49,8.19-.86,2.71-2.02,5.35-2.98,8.02-.96,2.66-1.85,5.37-2.9,8.06-1.53,3.68-3.24,8.24-4.75,11.91-1.6,3.93-1.88,8.12-3.28,12.25-6.15,18.87-11.41,38.17-16.77,57.26-1.31,5.18-5,19.74-6.37,24.8-2.12,8.29-3.3,16.75-5.92,24.95-1.71,5.48-3.99,10.73-5.97,16.03-.18.48-.71.72-1.18.54-.48-.18-.72-.73-.53-1.2,2.13-5.31,4.49-10.47,6.29-15.82s3.12-10.88,4.51-16.4c1.27-5.32,2.92-11.2,4.19-16.55,3.63-16.24,8.12-33.73,12.16-49.76,2.15-8.29,4.67-16.46,7.31-24.59,1.35-3.95,1.71-8.45,3.43-12.42,1.13-2.6,2.15-5.25,3.26-7.87,1.7-3.77,3.3-7.96,4.76-11.85,2.22-5.25,4.17-10.52,5.82-15.98,1.29-4.12,3.17-7.93,4.44-12.01,1.15-4.08,2.28-8.25,3.63-12.28,2.82-8.09,5.41-16.14,6.4-24.65,1.3-8.1,2.61-17.2,3.31-25.35.54-5.67,1.11-11.34,1.95-17.01.08-.55.59-.92,1.14-.84.56.08.95.63.83,1.18h0l-.02-.02Z"/>
  <path class="cls-2" d="M158.13,4.97c-2.18,6.12-4.3,12.27-6.44,18.41-2.04,6.2-4.82,12.13-6.61,18.31-1.72,6.24-2.6,12.79-4.76,18.93-2.05,6.18-4.6,12.14-6.26,18.45-1.77,6.24-3.22,12.57-4.93,18.86-1.41,5.42-3.89,13.27-5.56,18.72-1.73,6.25-4.25,12.31-6.22,18.49-3.6,12.39-7.65,24.85-10.76,37.39-1.64,6.4-4.3,12.26-6.11,18.59-7.56,24.4-14.31,50.42-20.25,75.28-2.75,12.69-4.99,25.49-6.15,38.4-.05.51-.49.88-1,.83-.51-.05-.89-.51-.83-1.02,1.91-19.52,7.08-38.41,11.84-57.35,4.44-18.48,9.04-38.64,14.3-56.78,1.66-6.22,4.29-12.32,5.86-18.53,3.1-12.71,7.19-24.99,11.11-37.48,1.03-3.08,2.23-6.18,3.43-9.17,1.16-3,2.16-6.08,3.16-9.17,2.02-6.18,4.16-12.3,5.95-18.55,1.77-6.24,3.29-12.57,5.13-18.82,1.75-6.26,4.3-12.3,6.31-18.47,2.14-6.17,2.99-12.6,4.67-18.9,1.74-6.35,4.42-12.29,6.34-18.48,1.98-6.19,3.97-12.38,5.9-18.59.16-.53.72-.82,1.25-.66.55.17.84.77.64,1.31h-.01Z"/>
  <path class="cls-2" d="M223.18,4.18c-2.88,2.29-5.57,4.83-8.2,7.45-2.43,2.49-5.51,5.45-7.63,8.08-2.35,2.86-4.52,5.89-6.92,8.79-9.87,11.16-19.2,22.8-27.08,35.47-3.03,4.73-6.49,9.1-9.4,13.87-1.8,3-6.24,11.46-8.04,14.69-3.69,6.51-6,13.82-10.54,19.83-2.24,3.01-4.54,5.83-6.51,9.02-1.95,3.17-4.28,6.35-6.88,9.01-4.99,5.47-9.62,11.33-14.25,17.12-3.48,4.39-7.08,8.6-10.25,13.18-9.28,13.92-17.46,28.55-25.62,43.16-7.19,12.83-14.47,26.32-20.25,39.82-6.4,13.45-12.22,27.19-16.18,41.55-1.19,4.5-1.61,9.2-3.11,13.64l-.72,2.7-.38,1.36-.21.68c-.26.98-1.16,2.35-1.2,3.07-.03.51-.48.9-1,.86-1.93-.37.05-3.2.28-3.9.09-.2.14-.34.22-.57l.21-.65.39-1.32.77-2.69c1.57-4.4,2.05-9.05,3.32-13.55,4.13-14.4,10.77-27.88,16.85-41.5,5.62-13.57,12.64-27.27,19.51-40.29,7.83-14.87,15.87-29.69,25.13-43.74,3.23-4.6,6.94-8.89,10.43-13.24,2.34-2.91,4.69-5.81,7.09-8.68,2.41-2.87,4.85-5.73,7.45-8.42,1.29-1.35,2.55-2.67,3.65-4.09,2.26-2.91,4.13-6.22,6.46-9.12,2.27-2.93,4.7-5.72,6.53-8.93,2.68-4.87,4.91-10.06,7.7-14.88,1.76-3.09,6.35-11.64,8.2-14.67,2.95-4.76,6.52-9.13,9.52-13.83,6.88-11.12,14.89-21.52,23.34-31.48,3.76-4.2,6.92-8.68,10.39-13.15,2.32-2.97,5.05-5.66,7.54-8.35,2.59-2.7,5.25-5.36,8.13-7.82.42-.36,1.05-.31,1.41.11.37.43.31,1.08-.14,1.43h0v-.02Z"/>
  <path class="cls-2" d="M205.89,92.44c-10,11.64-20.78,25.23-31.21,36.46-3.33,4.1-5.98,8.86-9.46,12.88-3.43,4.1-7.08,7.94-10.24,12.25-9.29,12.93-17.69,26.67-26.05,40.16-2.71,4.55-5.24,9.29-8.31,13.75-3.03,4.43-6.2,8.67-9.01,13.16-5.75,8.93-10.98,18.21-15.51,27.83-6.78,14.4-11.97,29.7-16.56,44.92-.93,3.17-1.72,6.38-2.23,9.62-.31,2.1-.06,4.46-1.64,6.24-.35.37-.93.39-1.3.04-.39-.36-.38-.98,0-1.34,1.15-1.39.91-3.44,1.26-5.2.6-3.32,1.49-6.59,2.5-9.79,2.8-8.72,7.71-21.36,10.91-30.12,7.41-20.03,17.11-39.38,29.6-56.72,2.94-4.36,5.5-9.01,8.26-13.61,5.55-9.16,11.77-17.81,17.68-26.72,4.5-6.63,9.22-13.17,14.56-19.17,1.81-1.99,3.6-3.93,5.3-5.97,3.57-4.02,6.1-8.69,9.48-12.88,3.45-4.11,7.28-7.84,10.58-11.98,5.72-7.14,14.31-17.89,19.87-25.08.34-.44.97-.52,1.4-.18.45.35.52,1.02.14,1.45h-.02Z"/>
  <path class="cls-2" d="M220.97,81c-2.26,4.79-4.24,9.72-6.29,14.64-4.01,9.88-8.56,19.59-14.06,28.75-1.39,2.28-2.86,4.52-4.41,6.7-8.08,10.55-14.97,21.96-20.48,34.04-2.14,4.87-4.79,9.62-7.51,14.18-2.75,4.58-5.12,9.22-7.47,14.02-2.4,4.77-4.93,9.59-7.96,13.98-2.66,3.84-6.06,9.43-8.51,13.46-8.82,14.37-18.53,29.83-27.8,43.84-5.15,7.76-8.89,16.33-12.97,24.68-2.38,4.67-3.73,9.88-6.54,14.64-.26.44-.82.58-1.26.32-.45-.26-.59-.85-.31-1.28,2.74-4.38,4.24-9.58,6.79-14.35,2.44-4.71,4.8-9.5,7.44-14.14,5.32-9.25,11.24-18.1,16.75-27.23,6.27-10.53,13.79-23.91,20.07-34.52,2.71-4.58,5.91-8.84,8.45-13.48,2.59-4.65,4.89-9.41,7.42-14.12,2.57-4.69,5.58-9.1,8.21-13.72,2.64-4.59,4.74-9.53,7.36-14.15,5.08-9.38,11.03-18.31,17.5-26.78,7.63-10.87,13.24-23.01,17.96-35.39,1.89-4.97,3.75-9.97,5.79-14.92.21-.51.79-.75,1.31-.54.53.22.77.84.52,1.35h0v.02Z"/>
  <path class="cls-2" d="M220.59,199.1c-6.66,3.86-13.1,8.12-19.84,11.85-10.11,5.63-20.73,10.2-30.83,15.76-3.35,1.88-6.42,4.09-9.46,6.43-7.5,5.89-15.01,11.91-22.2,18.22-5.44,5.41-11.26,10.45-16.31,16.18-3.93,4.22-8.1,8.24-11.98,12.5-5,5.69-10.58,11.36-15.6,17.04-3.76,4.35-7.79,8.5-11.4,12.96-1.35,1.56-2.03,3.26-3.65,4.7-.39.33-.97.28-1.3-.11-.34-.4-.27-1,.14-1.32,1.31-1.11,2.31-3.02,3.52-4.32,1.26-1.5,2.58-2.91,3.92-4.31,5.28-5.6,10.92-10.86,15.98-16.66,2.57-2.86,5.06-5.78,7.51-8.75,3.7-4.46,7.65-8.65,11.41-13.03,3.59-4.54,7.85-8.63,11.95-12.6,8.09-8.25,17.7-14.98,27-21.88,6.19-4.66,13.27-8,20.24-11.28,10.41-5.01,20.71-10.12,30.25-16.65l9.59-6.45c.46-.31,1.08-.19,1.39.27.32.48.17,1.14-.33,1.43h0v.02Z"/>
  <path class="cls-1" d="M103.88,32.04c-.76.4-1.68.76-2.48.57-.46-.15-.58-.19-.6-.19,0,0-.02,0-.03-.02,0,0-.05-.05,0,0,.02.03.02.02,0-.02-.02-.05-.1-.33-.1-.37,0-.41.24-1.07.51-1.26,1.43-.52,3.12-.85,4.67-.71-1.06-.62-2.34-.71-3.54-.76-.59-.02-1.23,0-1.77.23-.06-1-.36-2-.84-2.8-.97-1.73-2.97-1.85-3.62.2-.32.76-.21,1.54.05,2.28.25,1.98,1.28,4.56,3.11,3.63.22.59.7,1.05,1.49,1.16,1.39.28,2.71-.39,3.66-1.37.54-.49,1.11-1.06,1.15-1.83-.3.67-1.01.98-1.64,1.27h0ZM98.52,31.34s-.03.07-.06.1c-.02.01-.04.02-.02.02.01,0,0,0,0,0h0s-.04.01-.08.02c-.35-.1-.92-.85-1.42-1.69v-.22c.03-.54-.15-1.12.09-1.62.13-.32.38-.72.61-.9.02.01.04.03.05.05.88,1.08,1,3.15.8,4.24h.03Z"/>
  <path class="cls-1" d="M88.27,38.97c-.26-.19-.55-.54-.58-.75,0-.1.03-.19.13-.32,1.27-1.39,2.63-2.69,4.06-3.9-1.57.49-3.02,1.3-4.34,2.26-.67.5-1.38,1.14-1.34,2.05.08.86.81,1.62,1.59,1.93.77.18,1.6,0,2.32-.32.92-.66,1.46-1.88,1.59-2.99-.27.62-.8,1.08-1.26,1.57-.53.62-1.42.64-2.16.47h0Z"/>
  <path class="cls-1" d="M94.7,45.27c-.07-1.51-.42-3.21-1.81-4.05-.25-.19-1.58-.76-.81-.24,1.12.88,1.35,2.32,1.2,3.66,0,1.07-.37,2.24-.91,2.96-.95-1.2-1.6-2.94-1.66-4.54-.72,1.55-.38,6.4,1.96,6.22,1.51-.57,2.16-2.51,2.03-4.02h0Z"/>
  <path class="cls-1" d="M85.43,51.26c-.66.71-1.96,1.04-2.78.5.02-.37.45-.67.74-.93,1.49-.99,2.83-2.27,4.53-2.88-1.51-.09-2.92.55-4.24,1.23-.99.48-2.15,1.18-2.27,2.38-.07.87.73,1.43,1.54,1.4.92,0,1.86-.41,2.39-1.19.22-.29.6-1.27.09-.51Z"/>
  <path class="cls-1" d="M87.59,57.96c-.43-1.16-1.41-1.9-2.43-2.52.29.42.71.73,1.01,1.15,1.08,1.65,1.03,4.11-.16,5.68h.17-.19c.09-.08.02-.16-.06-.25-1.12-1.85-1.7-4.03-1.96-6.17-.48,1.6.09,9.25,2.94,7.31,1.23-1.34,1.28-3.56.68-5.2Z"/>
  <path class="cls-1" d="M84.31,66.14c-.44-.81-1.46-1.1-2.33-1.04-1.37.03.5.23.86.64.57.32.67.97.81,1.56.35,1.14.3,2.4-.11,3.47-.01.09-.35.3-.45.28-1.23-.65-2.18-1.88-2.84-3.1.21,1.67.99,3.69,2.62,4.42,1.61.32,2.38-1.22,2.49-2.6.15-1.28-.42-2.54-1.04-3.63h-.01Z"/>
  <path class="cls-1" d="M81.73,77.88c-.31-1.94-1.45-3.88-3.21-4.84-.24-.16-.12-.07,0,.08,1.21,1.14,1.78,2.76,2.09,4.35.17.94-.11,1.77-.71,2.45-.2-.13-.49-.29-.65-.5-.7-1.14-.97-2.48-1.1-3.8-.31,1.86-.34,4.22,1.44,5.36.19.2.55.2.75,0,.98-.74,1.56-1.86,1.39-3.1Z"/>
  <path class="cls-1" d="M75.73,83.92c-.33-.08-.66-.17-.99-.21.7.4,1.38.86,1.86,1.52,1.05,1.33.67,3.29-.22,4.56-.12-.09-.24-.2-.33-.32-.75-1.3-1.44-2.63-1.84-4.09-.14,1.75.06,3.69.97,5.22,1,1.48,2.38.69,3.02-.63,1.17-2.28.2-5.47-2.46-6.06h-.01Z"/>
  <path class="cls-1" d="M71.5,81.82c-.44.01-1.09-.09-1.35-.25-.01-.09-.03-.28.05-.39,1.22-1.78,3.41-2.59,5.4-3.22-2.52-.23-5.78.34-7.02,2.82-.75,3.17,3.08,2.54,4.97,1.99.96-.25,1.67-.96,2.38-1.62-1.5.77-2.79.78-4.42.67h-.01Z"/>
  <path class="cls-1" d="M76.47,68.17c-.2-.05-.47-.26-.57-.43-.01.03-.03-.35.1-.46.98-.99,2.13-2.5,3.55-2.81-1.19-.26-2.28.47-3.26,1.05-.68.42-1.47.88-1.69,1.71-.31,1.02.52,1.97,1.48,2.17.83.15,1.66-.16,2.4-.51.91-.47,1.58-1.25,2.09-2.12-1.14.92-2.64,1.6-4.11,1.4h.01Z"/>
  <path class="cls-1" d="M74.88,97.5c-.12-1.89-1.36-3.57-2.95-4.55.68.92,1.2,2.01,1.42,3.14.11.79.1,1.69-.18,2.34-.12.33-1.13.81-1.26.84h-.01c-.06-.03-.12-.06-.17-.1-.01,0-.01-.01-.02-.01-.05-.03-.19-.2-.18-.18-.91-1.7-1.56-3.55-1.99-5.44-.33,2.12-.42,7.95,2.86,7.43,1.57-.42,2.74-1.8,2.46-3.47h.02Z"/>
  <path class="cls-1" d="M62.47,100.5c-.2-.12-.45-.28-.57-.39.19-1.46,3.58-1.73,4.63-.99-1.1-1.37-3.51-1.6-5.01-.81-.77.5-1.38,1.57-.96,2.47.43.71,1.29,1.02,2.04,1.29,1.78.51,3.45-.65,4.8-1.69-1.58.4-3.45,1.21-4.92.12h-.01Z"/>
  <path class="cls-1" d="M70.06,106.45c-.29-2.36-1.96-4.52-4.52-3.35-.07.01-.3.14-.21.11.73-.05,1.52.03,2.15.44.49.31.64.93.82,1.44.42,1.2.17,2.47-.12,3.67-.03.09-.05.15-.1.21-.05.06-.1.09-.17.12-1.22-.4-2.41-1.13-3.02-2.3.12,1.28.95,2.31,1.96,3.05,2.28,1.88,3.38-1.57,3.2-3.39h0Z"/>
  <path class="cls-1" d="M58.25,114.99c-.14-.27-.26-.62-.17-.82.81-1.44,2.85-2.4,4.5-2.96-2.17-.15-5.6.6-5.98,3.13.02,1.5,1.48,2.71,2.91,1.96,1.22-.61,1.88-1.85,2.52-2.99-.83.6-2.94,2.78-3.78,1.67h0Z"/>
  <path class="cls-1" d="M65.98,117.13c-.61-1.1-1.73-1.99-3.04-1.93-.67-.08.86.38,1,.69,1.31,1.25,1.51,3.66,1.49,5.21h-.05c-1.36-.05-2.71-.61-3.51-1.74.33,1.45,1.55,2.42,2.93,2.86,3.16.97,2.02-3.57,1.17-5.08h.01Z"/>
  <path class="cls-1" d="M58.32,125.31c-.53.55-1.16,1.1-1.91,1.31-.18.02-.43-.09-.56-.21-.26-.21-.32-.58-.23-.67.58-.56,1.6-1.31,2.45-1.81.45-.27.99-.25,1.48-.38-1.25-.41-2.51-.03-3.61.61-.62.33-1.42.71-1.53,1.48-.18,1.19,1.15,2.31,2.28,1.86.78-.35,1.34-1.1,1.7-1.86.15-.43.57-1.05-.06-.33h0Z"/>
  <path class="cls-1" d="M63.44,126.08c-.5-.99-1.56-1.53-2.59-1.81.5.37.95.82,1.36,1.29.22.28.53.87.47,1.04-.47.52-1.27.92-1.92,1.29-.68.39-1.2.43-1.9.07.24.2.45.45.73.6.58.17,1.2.05,1.77-.13.96-.35,2.73-1.05,2.09-2.35h-.01Z"/>
  <path class="cls-1" d="M55.07,133.7c-.72,1.2-1.36,2.89-2.49,3.54-.34.12-.68.15-.92.06.07.04.06.03-.03,0-.09-.05-.18-.1-.27-.15.06-.33.13-.75.31-.98.82-1.29,1.99-2.36,3.45-2.84-2.22-.1-4.68,1.3-5.3,3.51-.09.33-.31.69-.13,1.03.11.34.49.45.75.64.95.67,2.3.54,3.16-.21,1.31-1.28,1.52-3.31,1.74-5.05.06-.33-.21.38-.29.47h.02Z"/>
  <path class="cls-1" d="M57.06,131.26c-.32.17-.21.13.03.1.33,0,.64.13.93.26,1.32.58,2.19,1.96,1.38,3.2-.02,0-.05.03-.04.02t-.02,0c-.07.02-.06.02-.12.02-.92-.65-1.74-1.57-2.46-2.47.4,1.23,1.04,2.91,2.24,3.52,1.3.37,1.98-1.15,1.89-2.23-.16-1.73-2.23-2.9-3.83-2.41h0Z"/>
  <path class="cls-1" d="M49.33,149.25c-.39.05-1.05.11-1.09.05-.22-.21-.41-.62-.32-1.21.02-1.02.99-1.85,1.88-2.56.74-.69,1.59-1.21,2.54-1.53-1.37-.11-2.63.41-3.81,1.04-.84.43-1.66,1.04-2.03,1.93-1.13,2.48.61,4.93,3.32,3.66,1.83-.83,2.18-3.1,2.57-4.86-.9,1.2-1.54,2.95-3.06,3.47h0Z"/>
  <g>
    <path class="cls-1" d="M57.65,143.16c-.82-1.42-2.6-1.1-3.97-1.12.13.1.3.14.45.19.77.25,1.63.42,2.24.99.6.93,1.02,2.5.67,3.29-.01,0-.02.02-.03.03h-.01s-.02.03-.02.03c0,0,.01,0,.02-.02-.02,0-.03.03-.05.03-1.25-.49-2.25-1.63-3.22-2.58.66,1.48,1.56,3.57,3.33,3.88,2.25-.38,1.62-3.41.59-4.73h0Z"/>
    <path class="cls-1" d="M57.02,146.54s.03-.03-.02.02h0s.01,0,.02-.02Z"/>
  </g>
  <path class="cls-1" d="M46.74,159.96c-.85.67-2.41,1.62-3.12,1.33-.26-.2-.56-.92-.54-1.31.77-1.03,3.81-3.48,5.77-4.57-2,.24-3.89,1.1-5.61,2.12-.69.46-1.52.86-1.88,1.65-.55,1.28.13,2.91,1.27,3.64,1.02.58,2.3.13,3.14-.57,1.26-1,2.59-2.53,2.57-4.21-.19.84-1.01,1.34-1.58,1.92h-.02Z"/>
  <path class="cls-1" d="M54.18,157.05c-.91-1.41-2.13-2.95-3.87-3.26-.31,0-.5-.06-.08.11.9.48,1.45,1.42,1.93,2.29.32.67.69,1.4.83,2.1,0,.66-.02,1.9-.09,2.2h0s-.03.04-.03.04c-.25,0-.45-.07-.73-.17-1.67-.75-2.42-2.65-3.04-4.26-.06,1.75.24,3.73,1.5,5.05,1.24,1.34,3.71,1.78,4.14-.49.09-1.2.1-2.55-.55-3.62h0Z"/>
  <path class="cls-1" d="M45.89,168.21c-.1-.14-.27-.25-.45-.24.12.04.19.13.24.23-1.93-.04-4.07,1.03-4.94,2.77-.15.46-.52,1.02-.15,1.46.84.81,2.13.94,3.15.39,1.94-.73,3.25-2.61,2.15-4.61ZM45.75,168.66c-.02.64-.12,1.33-.6,1.8-.7.7-1.89,1.05-2.72,1.15-.11,0-.22-.02-.34-.07.03-.12.07-.26.13-.42.82-1.26,2.02-2.37,3.47-2.88.05.13.05.28.04.41h.02Z"/>
  <path class="cls-1" d="M50.15,167.06c-.6-.82-1.49-1.59-2.56-1.6.28.13.57.28.78.51.85.87,1.4,2.11,1.53,3.27-.51,1.03-2.21.27-3.15-.11.71.66,1.52,1.43,2.54,1.45,2.22-.26,1.82-2.12.86-3.53h0Z"/>
  <path class="cls-1" d="M41.28,180.59c-.56,0-1.38.09-1.82.07,0-.02,0-.03-.01-.04,0-.07.08-.27.18-.42.91-1.24,2.6-1.89,4.09-2.23-1.91-.34-4.39.08-5.43,1.9-.69,1.57.58,2.47,2.08,1.94.61-.14,1.29-.2,1.79-.62.65-.62,1.1-1.52,1.24-2.41-.5.75-1.19,1.66-2.12,1.82h0Z"/>
  <path class="cls-1" d="M43.67,180.2c-1.22-.16.94.45,1.09.93.26.35.54.72.67,1.14.05.95-.09,2.02-.88,2.54-.16.12-.36.23-.41.22h-.01s.02,0,0,0c-.03,0-.04,0-.02,0-1.07-.64-1.58-1.89-1.76-3.1-.1.75-.29,1.52-.04,2.26.33.79.74,1.74,1.62,2.04,1.09.2,2.18-.72,2.54-1.7.76-2.04-.54-4.28-2.78-4.32h-.02Z"/>
  <path class="cls-1" d="M33.84,189.94c.1-.16.61-.43.99-.57,1.06-.48,2.15-.82,3.32-.7-1.15-.6-2.42-.57-3.65-.25-.69.16-1.49.44-1.76,1.15-.41,1.51,1.2,2.53,2.5,1.8.84-.29,1.4-1.03,1.53-1.9-.49.9-1.87,1.6-2.8,1.01-.07-.06-.07-.07-.1-.2-.04-.12-.03-.25-.03-.31v-.03h0s0,0,0,0Z"/>
  <path class="cls-1" d="M40.48,190.4c-.93-1.42-.27,0-.15.8.42,1.19-.19,2.27-.83,3.25-.11-.09-.23-.19-.35-.3-.65-1.32-.54-2.88-.76-4.31-.39,1.5-.89,3.13-.44,4.67.18.57.66.94,1.1,1.3.19.19.43.37.71.31.21,0,.4-.15.5-.33.42-.71.88-1.42,1.02-2.24.32-1.14-.12-2.23-.8-3.14h0Z"/>
  <path class="cls-1" d="M116.07,13.81c-.3-.78-.78-1.47-1.35-2.09.7-.91,1.14-2.03,1.27-3.14.3-1.42-.22-3.79-2.09-3.46-1.83.26-2.96,2.18-3.12,3.89,0,.07,0,.2.02.35-2.67.07-3.09,3.71-.4,4.04.46.19.97.24,1.46.16.04,0,.08-.03.12-.03.59.47,1.19,1.04,1.44,1.52.2.42.53,1.98.55,2.76v.06s-.04.04-.06.06c-.28.08-.8,0-1.18-.21-1.13-.81-1.98-1.96-2.47-3.26-.11,2.81,2.52,7.03,5.39,4.72.6-.56.65-1.42.72-2.19,0-1.05.08-2.16-.29-3.16v-.02ZM113.5,7.1c.14-.03.17-.04.21-.04v.27h0c-.19,1.07-.74,1.92-1.29,2.44-.32-.17-.66-.29-1.02-.36.06-.26.15-.52.3-.74.49-.63,1.04-1.38,1.81-1.58h-.01Z"/>
  <path class="cls-1" d="M112.39,23.45c-.49-1.41-1.2-2.99-2.69-3.56.43.41.78.9.94,1.48.4,1.26.59,2.73.5,3.98-.14.68-.33,1.31-.63,1.65-.6-.35-2.33-3.86-2.58-5.81-.37,1.86-.18,3.81.52,5.57.29.87.76,1.84,1.76,2,2.66.4,2.92-3.55,2.17-5.32h.01Z"/>
  <path class="cls-1" d="M108.04,35.75c-.61-.64-1.51-.77-2.33-.99-.24-.07-.07.02.06.12.61.47,1.43.82,1.67,1.6.19,1.06.12,2.26.04,3.28-.05.49-.49,1.14-.65,1.29t-.04.02c-.12,0-.05.02-.18,0h-.02s-.04-.04-.06-.06c-.72-1.48-1.57-3.37-1.86-5.15-.36,1.5-.16,3.05.14,4.54.12.74.29,1.59.95,2.04,1.8,1.19,3.47-1.04,3.37-2.76-.14-1.33-.22-2.85-1.09-3.92Z"/>
  <path class="cls-1" d="M100.11,46.03c-1.35.31-3.28-.68-3.33-2.02-.03-.15.26-.35.51-.48,1.13-.55,2.38-1.29,3.66-1.17-.87-.52-2.02-.33-2.99-.22-.87.19-1.94.34-2.44,1.18-.97,2.11,1.39,4.03,3.38,4,1.9.19,2.78-1.67,3.37-3.17-.68.65-1.31,1.45-2.16,1.88h0Z"/>
  <path class="cls-1" d="M105.31,51.54c-.38-1.37-1.46-2.64-2.87-2.99-.27-.06-.54-.1-.82-.11.67.29,1.27.75,1.66,1.36.34.61.67,1.33.64,2.04-.29.94-.64,2.26-1.04,2.86-.22.33-.47.25-.97-.12-1.41-1.22-.98-3.35-1.19-5.02-.5,1.66-1.3,3.58-.53,5.27.93,2.14,3.69,2.68,4.58.2.34-1.11.67-2.33.54-3.5h0Z"/>
  <path class="cls-1" d="M101.34,59.08c-.66-.64-1.47-1.07-2.35-1.33.52.43,1.02.89,1.4,1.44.21.39.64.76.65,1.22-.1.37-.19.76-.38,1.1-.1.17-.49.37-.65.46,0,0-.03,0-.05.02-.08-.08-.21-.22-.26-.3-1.09-1.35-1.7-2.97-2-4.67-.36,1.69-.23,3.46.6,4.99.39.88,1.24,1.89,2.28,1.31,1.16-.43,1.64-1.62,1.62-2.78.02-.61-.41-1.09-.85-1.46h0Z"/>
  <path class="cls-1" d="M100.69,67.68c-.42-1.75-1.94-2.82-3.61-3.26-1.26-.44.33.41.75.92.86.66,1.42,1.72,1.4,2.81-.08.44-.32,1.18-.43,1.6-1.44-1.41-2.52-3.43-2.73-5.51-.44,1.62-.32,3.31.42,4.83.4.9.87,1.85,1.75,2.36.96.59,2.12-.11,2.24-1.19.12-.85.41-1.7.22-2.56h0Z"/>
  <path class="cls-1" d="M94.16,62.74c-.57-.11-1.4-.19-1.75-.41,0,0-.01-.02-.02-.02,0,0,.01,0,0,0-.05-.08-.06-.12-.09-.23h0c.06-.22.76-.85,1.11-1.24.81-.88,1.53-1.94,2.67-2.4-1.33,0-2.44.88-3.46,1.64-.62.46-1.37.87-1.63,1.65-.49,2.27,2.66,2.45,4.12,1.83.72-.44,1.61-1.65,1.65-2.22-.66.69-1.56,1.55-2.59,1.43v-.03Z"/>
  <path class="cls-1" d="M89.26,72.25s-.08-.09-.05-.05t0,0v-.02c0-.07.03-.12.02-.16-.01.03-.01.02,0,0h0c1.12-.48,2.97-1.03,4.28-.33-.8-.96-2.12-1.14-3.31-1.06-.62.08-1.32.08-1.83.5-.46.4-.6,1.17-.29,1.7.51.74,1.45,1.03,2.27,1.27,1.27.31,2.32-.77,3.14-1.6-.77.33-1.58.74-2.42.78-.67-.16-1.34-.62-1.82-1v-.03Z"/>
  <path class="cls-1" d="M96.69,77.82c-.55-.65-1.3-1.24-2.16-1.38.31.17.55.43.78.69.42.55,1.08,1.29.87,1.96-.75.91-2.35,1.57-3.37.73,1.12,2.09,5.7.33,3.88-1.99h0Z"/>
  <path class="cls-1" d="M86.25,86.22c-.11-.22-.27-.69-.31-.91v-.08h0v-.02c.29-.52.87-.9,1.43-1.19.82-.45,1.77-.69,2.65-.24-1.36-1.47-4.26-.7-5.27.84-.69,1.6,1.08,3.98,2.78,3.98.87-.1,1.47-.87,1.97-1.51.17-.24.31-.5.45-.75-.68.54-1.41,1.12-2.28,1.31-.7-.11-1.11-.84-1.42-1.42h0Z"/>
  <path class="cls-1" d="M94.03,90.62c-.49-1.65-1.92-2.99-3.39-3.81.49.49.8,1.13,1.15,1.72.86,1.44,1.72,2.98-.29,3.9-.3.15-.64.02-.93-.15-.96-.42-1.49-1.24-1.71-2.24-.04.71-.12,1.47.31,2.09.55.76,1.33,1.64,2.36,1.56,1.44-.16,2.88-1.56,2.5-3.08h0Z"/>
  <path class="cls-1" d="M85.97,99.99c-.38.46-.87.86-1.42,1.09-.62.1-1.63-.12-2.13-.38-.28-.32-.69-1.17-.62-1.2.4-.67,1.11-1.24,1.81-1.69.73-.55,1.61-.66,2.46-.32-.9-.9-2.2-.85-3.28-.33-.94.43-2.03,1.05-2.36,2.1-.15.84.42,1.63.94,2.24.46.48,1.15.57,1.79.54.54-.02,1.11-.01,1.59-.27.59-.38.98-1.03,1.22-1.67.02-.07.07-.21,0-.09v-.02Z"/>
  <path class="cls-1" d="M87.65,101.61c-.55-.11-1.51,0-1.86.02.61.29,1.33.31,1.9.71.43.44.69,1.07.82,1.67.04.54-.15.59-.66.85-.77.28-1.73.53-2.59.33-.31-.18-.54-.5-.82-.72.26.45.37,1.07.92,1.26,1.23.5,2.89.47,3.93-.43,1.04-1.19-.26-3.4-1.63-3.69h-.01Z"/>
  <path class="cls-1" d="M83.27,110.25c-.38.74-1.16,1.03-1.92,1.21-.89.28-1.81.53-2.72.36.08-.16.23-.3.39-.45,1.04-.77,2.48-1.31,3.78-1.1-1.58-.91-4-.63-5.28.7-.41.46-.61,1.29-.27,1.83.73.61,1.88.69,2.78.43,1.22-.45,2.69-.95,3.36-2.15.28-.56.33-1.19.31-1.81-.13.33-.26.65-.43.96v.02Z"/>
  <path class="cls-1" d="M87.85,112.85h.01c.61,1.44.67,3.8,1,5.57.4-1.61.65-3.26.5-4.92-.03-.53-.1-1.1-.47-1.51-.37-.32-.99-.6-1.48-.47-.51.35-.88,1.2-.99,1.81-.93-.75-2.29-.77-3.41-.56.97.21,2.11.52,2.77,1.26.11.31.03.7-.03,1.04-.12.56-.17,1.14-.49,1.59-.42.4-1.2.66-1.82.68-.43,0-.75-.34-1.09-.55.25.36.46.8.9.97.82.3,1.85.2,2.6-.26.7-.51.94-1.42,1.04-2.24v-.06c.14.19.3.35.48.5.27.22.56.41.88.54-.21-.22-.4-.46-.57-.72-.34-.53-.53-1.18-.35-1.8.07-.34.29-.61.51-.87h0Z"/>
  <path class="cls-1" d="M75.56,125.06c.42-.93,1.44-1.83,2.38-2.45.6-.45,1.35-.61,2.08-.46-1.92-1.27-5.28.72-5.94,2.7-.33,1.83,1.84,2.5,3.27,1.99,1.51-.28,1.77-1.96,1.75-3.26.02-.4-.38.85-.54,1.05-.28.47-.55,1.05-1.17,1.08-.74.06-1.57.06-1.84-.44-.04-.06-.04-.05-.03-.04h0s0-.06.05-.17h-.01Z"/>
  <path class="cls-1" d="M89.46,130.57c-.48-1.98-2.13-2.69-3.94-2.49-.06-.27-.12-.54-.15-.81-.07.29-.12.57-.16.86-.08,0-.17.02-.25.04-.03-.09-.04-.16-.07-.26-.62-1.82-2.56-2.74-4.4-2.31-.04.05-.23-.06-.19,0,.02.06.08.05.13.07,1.49.23,2.88,1.11,3.18,2.67.18.5.19,1.42.07,1.64-1.33.26-3.23-.43-4.61-1.09,1.78,2.24,6.2,3.77,6.12.61.04.22.09.45.17.67.22.77.52,1.63,1.28,2.01,1.17.68,3.14-.09,2.81-1.61h.01ZM87.9,131.04c-.32.09-.79.03-.97-.16-.62-.68-1.08-1.57-1.34-2.51.75.21,1.66.51,2.1,1.16.26.32.47,1.47.48,1.28-.05.09-.21.21-.27.23Z"/>
  <path class="cls-1" d="M74.29,140.77c-.14,0-.21-.03-.25-.08-.04-.04-.03-.02-.03-.04-.25-.42-.47-.92-.49-1.36,1.07-1.54,2.84-2.95,4.41-4.13-1.38.29-2.64.92-3.83,1.67-.83.53-1.77,1.16-2.07,2.15-.15.98.39,2.02,1.07,2.69.81.68,2.03.24,2.64-.5.72-.77,1.17-1.78,1.13-2.84-.04.09-.08.18-.12.27-.45.98-1.36,2-2.47,2.16h.01Z"/>
  <path class="cls-1" d="M71.48,150.97c-.77.22-1.91.36-2.53-.12,0,0,0,0-.01-.02.6-1.65,3.06-2.91,4.81-3.8-2.42.21-5.77,1.01-6.2,3.83.22,1.92,2.89,1.61,4.1.82.6-.42,1.26-1.13,1.24-1.9-.2.58-.86.93-1.4,1.18h0Z"/>
  <path class="cls-1" d="M68.96,160.49c-1.18.35-2.53.47-3.48-.37-.12-.13,0-.26.08-.38.83-.8,1.94-1.3,3.06-1.54-1.4-.28-4.47.17-4.32,2.07.07.56.54.96,1.04,1.17.54.27,1.12.5,1.73.36,1.12-.25,2.36-.67,2.89-1.77.54-.9-.51.4-1,.46h0Z"/>
  <path class="cls-1" d="M67.1,170.76c-.81.39-1.85.62-2.73.4-.22-.1-.49-.29-.61-.43.4-1.05,1.66-2.19,3.01-2.06-1.56-.8-3.9.46-4.18,2.15.03.77.82,1.26,1.48,1.48.76.21,1.53-.07,2.23-.36.92-.35,1.76-1.2,1.68-2.24-.15.45-.46.85-.87,1.07h-.01Z"/>
  <path class="cls-1" d="M80.22,157.87c0-.62-.13-1.26-.59-1.71-.61-.58-1.5-.9-2.34-.93.72.34,1.47.87,1.82,1.6.17.5,0,1.2-.06,1.58.02-.04-.01.02-.03.03.03-.04.03-.05,0,0-.09.08-.15.12-.25.15h-.09c-.11-.02-.31-.09-.33-.09-.17-.07-.37-.21-.47-.33-.64-.98-1.01-2.1-1.36-3.21-.01.11-.02.22-.03.34-.03-.29-.08-.57-.18-.85-.21-.77-.61-1.52-1.39-1.83-.43-.21-.91-.31-1.35-.48.2.18.41.34.62.5.97.57,1.17,1.65,1.12,2.7-.04.69-.38,1.29-.74,1.86-.16-.08-.35-.18-.54-.31-.95-.85-1.57-1.98-2.15-3.09.15,1.58.54,3.37,1.87,4.38.84.66,1.29.91,1.93-.15.43-.56.71-1.24.81-1.93.03,1.79.57,3.91,2.64,3.66.83-.22,1.23-1.06,1.1-1.87h-.01Z"/>
  <path class="cls-1" d="M78.63,137.59c-.59-.31-1.25-.55-1.92-.59,1.23.65,2.41,1.76,2.93,2.99.04.13.07.18.06.25,0,0-.02.03-.03.05-.54.59-1.52.7-2.31.49-.27-.15-.38-.5-.6-.71.11.31.13.68.32.95.5.45,1.22.59,1.88.58,3.09-.35,1.55-3.11-.33-4h0Z"/>
  <path class="cls-1" d="M108.24,58.98c-1.59,1.04-1.97,3.92-.09,4.85.07.07.59.09.47.04-.38-.1-.63-.45-.75-.81-.39-.95.05-2.01.8-2.64.39-.27,1.14-.53,1.39-.51,0,0,.03,0,.05.02.04.04.12.11.09.09-.02-.02,0,0,.02.03.65.9.51,2.04.19,3.04-.32.95-.76,1.89-1.55,2.54,1.83-.66,3.16-2.63,3.27-4.56-.1-2.44-1.78-3.59-3.89-2.08h0Z"/>
  <path class="cls-1" d="M107.22,68.89c-.41.45-.8.97-1.33,1.28-.61-.11-1.58-.52-2.22-.95.75-1.3,1.84-2.49,3.32-2.89-1.94-.2-3.94,1.12-4.74,2.85-.19,1.29,2.16,1.99,3.18,2.04,1.62.18,2.07-1.93,2.49-3.12.15-.42-.51.6-.71.79h.01Z"/>
  <path class="cls-1" d="M112.13,72.74c-.11-1.23-1.22-2.13-2.34-2.46-.49-.1-.66-.17-.11.15.42.31.78.71,1.04,1.15.49.64.31,1.42.06,2.12-.09.45-.38.81-.69.9-.21.05-.66.04-.8-.08-.88-1.04-1.21-2.62-1.36-4.02-.45,1.64-.61,3.8.66,5.1,1.18.9,3.01.28,3.37-1.17.09-.58.22-1.09.17-1.7h0Z"/>
  <path class="cls-1" d="M104.51,79.19c-.61.4-1.31.78-2.06.78-.66-.06-1.5-.75-1.76-1.12.03-.05.08-.14.14-.18.25-.25.58-.41.9-.57.97-.37,2.22-1.14,3.17-.38-.54-1.02-1.86-.88-2.84-.75-2.56.27-3.97,2.28-1.15,3.69,1.64.91,3.32-.33,4.12-1.77.23-.35-.34.22-.53.3h0Z"/>
  <path class="cls-1" d="M106.32,81.66c-.4-.09-.81-.35-.18.12.82.61.93,1.76.88,2.71-.14,1.1-.87,2.04-1.61,2.82.04-.02,0,0-.04.03-.02,0-.05,0-.07-.02-.04-.02-.05-.02-.04-.01-.05-.02-.15-.07-.2-.13-.79-1.3-1.28-2.81-1.32-4.36-.61,1.75-.64,3.99.51,5.51,1.58,1.45,3.11-.59,3.64-2.02.67-1.6.12-3.96-1.58-4.66h0Z"/>
  <path class="cls-1" d="M97.74,91.75c-.32-.26-.79-.63-.93-.91h0c.48-.66,2.24-1.74,3.21-.79-1.19-2.28-6.41.52-2.84,2.09.68.41,1.53.41,2.16-.11-.55.15-1.15.11-1.6-.28Z"/>
  <path class="cls-1" d="M104.82,93.79c-.55-1.06-1.75-1.99-2.98-1.98-.29.05-.73.04-.12.14.98.28,1.7,1.28,1.99,2.22.08,1.09-.79,2.14-1.3,2.94-.37.39-.64.75-1.02.39-.88-1.31-1.33-3.06-1.13-4.66-.91,1.69-.99,4.25.17,5.83,1.58,1.61,3.6-.27,4.12-1.93.42-.91.7-2,.27-2.96h0Z"/>
  <path class="cls-1" d="M97.57,102.81c-.68,0,.9.18,1.22.52,1.43,1.07.99,3.12.13,4.42,0,.01-.02.02-.03.04-.12-.02-.26-.08-.35-.17-1.03-1.5-2.03-3.15-2.24-5-.3,1.89.45,4.4,1.63,5.89,1.77,1.45,2.67-1.26,2.74-2.65,0-1.73-1.24-3.33-3.09-3.03v-.02Z"/>
  <path class="cls-1" d="M94.85,105.8c-.31.09-.66.14-.98.04-.77-.48-1.63-1.05-2.03-1.87-.17-.36-.08-.87.03-1.29.02-.09.31-.52.43-.49,1.14-.02,2.34.53,2.84,1.59-.1-1.51-1.66-2.72-3.13-2.68-1.3.23-1.83,1.89-1.48,3.04.35,1.03,1.32,1.61,2.28,2,.73.42,1.64.36,2.25-.24.49-.48.18-.23-.22-.09h.01Z"/>
  <path class="cls-1" d="M94.82,110.78c-.71-.29-1.5-.09-2.21.09-.08.01-.42.09-.22.09.71.12,1.52.1,2.11.57.51.54,1.19,1.15,1.31,1.88-.01.63-.36,1.47-.5,2.01-.08.19-.18.28-.29.38-.03.04-.11.07-.15.09-1-.72-2.01-1.76-2.28-3.04-.24,1.54.58,3.1,1.69,4.12.49.38,1.17.21,1.64-.12.98-.69,1.2-2.04,1.33-3.16-.01-1.4-1.28-2.34-2.42-2.91h-.01Z"/>
  <path class="cls-1" d="M90.03,118.83c-.23.06-1.11.3-.51.26,1.08-.04,2.16.75,2.42,1.81-.02.44-.61,1.19-.96,1.45-.32.2-.5.29-.84.37h-.02c-.7-.93-1.15-2.52-1.28-3.83-.36,1.2-.4,2.49-.06,3.7.15.58.43,1.27,1.09,1.41,1.36.21,2.63-.81,3.09-2.05.79-1.74-1.29-3.41-2.94-3.12h.01Z"/>
  <path class="cls-1" d="M87.62,138.7c.07-1.98-1.9-3.33-3.74-3.31-.21.04-.4.15-.58.24.27-.03.55-.08.8.06.9.48,1.84,1.15,2.06,2.21-.01.75,0,1.87-.36,2.29-.35.44-.88.48-1.13.33-1.14-1.27-2.23-2.75-2.78-4.42-.11,1.52.35,3,1.04,4.34.32.73.76,1.5,1.59,1.7,2.17.53,3.48-1.46,3.1-3.45h0Z"/>
  <path class="cls-1" d="M83.99,145.57c-.38-1.05-1.64-1.51-2.67-1.58-.46,0-1.41.06-.38.21.76.24,1.5.72,1.91,1.42.09.17-.01.36-.06.52-.37.75-.63,1.55-.9,2.34-.11.27-.23.55-.43.75-.05.05-.13.1-.21.15-.18-.14-.4-.33-.58-.55-.78-.99-1.29-2.15-1.36-3.41-.63,1.91-.02,4.62,1.81,5.61.28.06.52-.13.75-.25.77-.34,1.27-1.03,1.51-1.82.22-1.1.76-2.24.6-3.37v-.02Z"/>
  <path class="cls-1" d="M77.58,164.92c-.55-1.12-1.84-2.07-3.12-1.91-.56.08.33.08.5.27.83.53,1.51,1.37,1.6,2.37.01.72-.16,1.44-.29,2.14,0,.09-.13.19-.25.38-.14.22-.23.43-.39.59-1.14-1.05-2.05-2.67-2.36-4.28-.29,1.62.02,3.3.91,4.69.35.61.92,1.37,1.72,1.17,1-.29,1.78-1.44,1.94-2.43.07-1,.19-2.07-.27-2.99h0Z"/>
  <path class="cls-1" d="M74.94,177.47c-.41-2.28-2.77-5.16-5.31-4.43,1.08.02,1.85.78,2.42,1.62,1.2,1.58,1.49,3.98.32,5.17-.02.03-.05.05-.08.08h0s-.2-.05-.24-.07c-.02,0-.03-.02-.04-.02-.16-.08-.17-.11-.31-.28-.92-1.5-1.64-3.43-1.68-5.29-.82,2.21-.74,7.29,2.34,7.56,1.97-.07,2.91-2.64,2.58-4.34Z"/>
  <path class="cls-1" d="M69.16,186.37c-.41-1.04-1.19-1.81-2.37-1.7-1.41-.15,1.05.37,1.1,1.03.22.76.45,1.56.48,2.36-.15.58-.17,1.23-.51,1.7-.12.13-.34.36-.51.51h-.02s-.16-.03-.23-.09c-.3-.17-.62-.58-.81-.99-.4-1.5-.27-3.17-.01-4.71-.99,1.69-1.9,3.88-1.14,5.81,1.13,2.56,3.82,2.14,4.52-.45.23-1.2.18-2.43-.51-3.47h.01Z"/>
  <path class="cls-1" d="M66.3,199.48c-.15-1.08-.44-2.24-1.24-3.02-.87-.68-2.07-.93-3.16-.9-.28.02-.51.15-.7.34-.1-.24-.19-.48-.26-.72-.18,2.08.68,4.28,2.13,5.77,1.67,1.6,3.37.84,3.23-1.48h0ZM61.22,195.94c.05-.02.11-.05.16-.07.59-.13,1.14.26,1.64.53.56.32,1.2.67,1.37,1.34.19.71.33,1.66.17,2.28-.18-.08-.35-.18-.57-.33-1.17-1-2.18-2.31-2.78-3.75h0Z"/>
  <path class="cls-1" d="M64.35,182.43c-1.06.8-2.95,1.35-4.17.64-.4-.39-.65-1.19-.83-1.66,0,.06,0-.03,0-.06s.05-.1.07-.11h.01c1.68-.25,3.63-.02,5.25.7-1.03-1.07-2.38-1.75-3.83-2.03-.79-.15-1.72-.38-2.43.14-1.43,1.08-.3,3.18.76,4.11,1.71,1.14,4.13,0,5.2-1.54.09-.2.24-.56-.02-.18h-.01Z"/>
  <path class="cls-1" d="M57.74,196.84c-.74.21-1.84,0-1.98-.53.83-1.44,2.4-3.13,4.26-3.46-1.66-.36-3.26.48-4.41,1.64-.56.61-1.35,1.5-.83,2.36.4.66,1.19.96,1.94.83.96-.06,1.79-.66,2.05-1.59-.3.3-.6.65-1.03.74h0Z"/>
  <path class="cls-1" d="M55.6,207.62c-1.08.47-2.63,1.03-3.61.33-.21-.29-.33-1.11-.22-1.58.06-.43.32-1.64.24-1.48.75-.08,2.61.7,3.35,1.7-.54-1.53-2.09-3.07-3.82-2.87-.6.16-.86.79-.99,1.35-.17.68-.4,1.38-.3,2.09.35,3.17,3.76,2.44,5.37.65.2-.24.45-.45-.02-.16v-.03Z"/>
  <path class="cls-1" d="M61.99,213.57c-.5-1.31-1.69-2.42-3-2.92-.58-.15-1.2-.08-1.75.15.99-.06,1.86.49,2.37,1.31.36.61,1.02,1.39.86,2-.27.65-.71,1.39-1.27,1.7-.26.14-.56.25-.87.36-.31-.46-.9-1.13-1.05-1.62-.35-.91-.37-1.91-.54-2.86-.24,1.14-.63,2.33-.34,3.5.27.77.61,2.09,1.19,2.63.44.25.91-.05,1.36-.11.92-.18,1.78-.65,2.3-1.45.5-.78.98-1.75.73-2.69h0Z"/>
  <path class="cls-1" d="M51.75,221.32c-1.25.56-2.72-.04-3.79-.71-.45-.46.04-.77.3-1.27.13-.26.39-.36.67-.37.97-.03,1.93.57,2.49,1.33-.35-1.49-2.13-2.9-3.65-2.17-.93.67-1.93,1.9-1.18,3.05.39.74,1.2,1.04,1.99,1.17,1.07.33,2.28.31,3.22-.37.52-.38.93-.89,1.29-1.43-.42.29-.86.56-1.32.77h-.02Z"/>
  <path class="cls-1" d="M57.97,226.09c-.29-1.45-1.05-3.06-2.32-3.87-.21-.15-1.92-.51-1.37-.25,1.41.52,1.77,1.98,2.05,3.3.21.77.04,1.52-.21,2.25-.16.51-.39.82-.96.96,0,0-.04,0-.08.02-1.27-1.06-2.29-2.77-3.2-4.24.25,1.51.65,3,1.43,4.32.32.59.7,1.22,1.36,1.46,2.37.52,3.55-1.92,3.31-3.95h-.01Z"/>
  <path class="cls-1" d="M46.57,232.06c-.35-.06-.58-.44-.74-.68.42-.48.93-.85,1.56-1.08.83-.42,1.73-.46,2.62-.23-1.51-1.21-4.19-.79-5.25.83-.32.28-.24.72.05.99.32.48.79.85,1.36,1,.68.2,1.32-.19,1.9-.51.4-.25.91-.55,1.12-.94-.66.39-1.85.71-2.62.61h0Z"/>
  <path class="cls-1" d="M53.89,236.18c-.77-.95-2.1-1.29-3.26-1.4.87.46,1.81,1.01,2.34,1.86.12.78.03,1.65-.09,2.39-.05.18-.14.31-.27.45-.3-.03-.67-.25-1.04-.42-1.27-.55-2.51-1.22-3.17-2.48.15,1.3.92,2.34,1.96,3.1.7.5,1.38,1.16,2.27,1.24,2.17-.06,1.97-3.37,1.27-4.76v.02Z"/>
  <path class="cls-1" d="M53.06,246.47c-.52-1.01-1.59-1.57-2.72-1.54-.28-.02-.57-.02-.85-.05.29.15.59.28.89.4.45.18.89.43,1.22.79.4.58.67,1.56.88,2.13-.19-.04-.55-.12-.74-.22-1.73-.69-3.08-2.12-4.05-3.71.38,2.49,2.14,5.05,4.76,5.45.72.06,1.56-.45,1.52-1.24-.04-.76-.57-1.36-.92-2h.01Z"/>
  <path class="cls-1" d="M43.34,249.64c-.41-.31-.66-.73-.86-1.19.24-.14.48-.27.73-.39,1.35-.53,2.79-.75,4.24-.78-1.8-.68-3.9-.88-5.68-.02-1.07.33-1.06.87-.61,1.78.43,1.05,1.46,1.9,2.62,1.97.8.05,1.67.11,2.4-.29.41-.23.77-.54,1.04-.92-.19.12-.39.22-.6.3-1.07.42-2.31.04-3.29-.46h0Z"/>
  <path class="cls-1" d="M45.93,258.17c-.03-.09-.06-.27-.07-.09-.03.44-.18.88-.47,1.22-.29.36-.8.3-1.22.34-.6.01-1.22.23-1.82.08-.56-.19-1.02-.51-1.39-.9-.09-.11-.17-.19-.24-.27.44-.75.93-1.32,1.71-1.9.92-.64,1.94-1.6,3.15-1.22-1.06-.86-2.5-.27-3.62.18-1.34.58-2.88,1.69-3.11,3.21.76,1.65,3.01,2.89,4.78,2.07,1.45-.45,2.73-.89,2.28-2.72h.02Z"/>
  <path class="cls-1" d="M28.83,202.02c.23-.87.48-1.77,1.13-2.42,1.15-.79,2.71-1.11,4-.46-.73-.81-1.75-1.18-2.83-1.08-1.38-.04-2.63.72-3.21,1.98-.36.71-.59,1.56-.52,2.35.28.66,1.04,1.01,1.66,1.3,1.14.31,2.58.21,3.5-.59.56-.7.24-.3-.24-.12-1.21.31-2.67,0-3.5-.97h.01Z"/>
  <path class="cls-1" d="M36.76,204.6c-.67-.92-1.85-1.26-2.89-1.57.37.27.72.58,1.08.87,1.39,1.1,1.68,3.22,1.65,4.81-.84.49-2.65.29-3.56-.51.64,1.19,2.04,1.75,3.34,1.73,2.65-.07,1.36-4.03.38-5.33h0Z"/>
  <path class="cls-1" d="M27.98,215.3c-.68.63-1.84,1.44-2.54,1.53-.24-.29-.58-.76-.52-1.02.49-1.86,2.25-3.33,4.16-3.65-1.59-.33-3.44.22-4.5,1.48-.61.74-1.28,1.69-1.01,2.7.32.78,1.02,1.81,1.97,1.65,1.42-.43,2.37-1.84,2.91-3.15-.13.18-.31.32-.48.47h0Z"/>
  <path class="cls-1" d="M33.22,219.81c-.72-1.17-1.91-1.98-3.03-2.73.05.07.09.14.14.21.66.98,1.46,1.95,1.84,3.07.08.78-.06,1.58-.26,2.33,0,0-.04.12-.02.06.02,0-.04.06-.06.09-.15.09-.32.12-.39.08-1.23-.83-2.34-1.89-2.83-3.32-.05,1.31.44,2.54,1.29,3.52.38.45.74.98,1.33,1.15,2.44.49,2.69-2.86,1.99-4.47h0Z"/>
  <path class="cls-1" d="M23.52,226.65c.72.27,1.09.61,1.37,1.33.04-1.97-2.38-2.94-3.98-3.44-1.93-.53-2.98,1.87-2.83,3.46.3.88,1.28,1.29,2.1,1.56.81.33,1.99.05,2.7-.44.54-.48.91-1.11,1.22-1.76-.47.43-.96.84-1.53,1.13-.3.16-.64.09-.96.09-.25-.02-.54.04-.75-.12-.39-.22-.9-.51-1.16-.82.11-.59.45-1.43.65-1.63-.1.03,0,0,.04,0,.97-.08,2.17.31,3.16.65h-.03Z"/>
  <path class="cls-1" d="M28.76,231.67c-.86-.66-2.11-1.22-3.21-.95-.2.08-.38.22-.56.33.31-.06.64-.17.95-.05.76.32,1.57.82,2.01,1.53.2.51.23,1.21.22,1.69-.08.36-.33.82-.59,1.17-.17.28-.49.37-.74.17-1.05-1.14-2.1-2.29-2.87-3.63.17,1.22.61,2.38,1.23,3.44.31.59.6,1.27,1.23,1.59,1.71.84,3.19-1.07,3.28-2.64-.05-.94-.29-1.95-.94-2.66h0Z"/>
  <path class="cls-1" d="M21.47,241.23c-.03-.23-.06-.47-.07-.68-.08.25-.15.51-.2.77-.1.04-.09.06,0,.06-.32,1.65-.05,3.36.61,4.92.27.72.54,1.53,1.25,1.93,2,.9,2.67-1,2.81-2.63.61-3.02-1.4-5.03-4.4-4.36h0ZM23.78,246.47c-.66-.86-1.96-3.17-2.3-5.09.16,0,.34.02.44.06.92.22,1.92.74,2.35,1.61.27,1.02-.23,2.66-.49,3.42Z"/>
  <path class="cls-1" d="M14.61,241.85c0-.11.11-.32.14-.35,0,0,.03-.02.04-.02,1.59-.32,3.59.14,4.75,1.39-.58-1.96-4.67-4.01-6.09-2.05-.52.76-.3,1.74.31,2.38.98,1.24,3.02,2.67,4.46,1.34.17-.16.32-.34.45-.53-.4.26-.85.46-1.33.48-1.2-.17-2.41-1.77-2.73-2.64h0Z"/>
  <path class="cls-1" d="M12.97,256.74c-.16.03-.3-.08-.41-.19-.51-.58-1.31-1.03-1.05-1.6.04-.09.16-.29.25-.37,1.55-1.43,3.16-2.96,5.22-3.57-2.31-.39-8.98,2.47-6.62,5.43.74.64,1.68,1.63,2.75,1.35,1.09-.38,2.22-1.67,2.3-2.64-.55.82-1.48,1.39-2.45,1.59h0Z"/>
  <path class="cls-1" d="M22.92,257.31c-.09-1.02-.11-2.13-.85-2.91-1.15-1.47-3.17-2.41-5.02-2-.33.09-.62.28-.92.44.25-.03.5-.09.76-.09.61-.04,1.14.22,1.65.52-.32,1.83-.12,3.68.53,5.43.17.55.41,1.15.95,1.43,1.73.8,3.28-1.16,2.9-2.82ZM20.91,258.21c-.05.11-.11.18-.15.22-.65-1.05-1.72-3.26-2.06-5.06.22.13.44.27.66.39.65.45,1.19,1.33,1.49,1.94.16.48.04,1.2.11,1.83v.56h0s-.02.1-.03.12h-.02Z"/>
  <path class="cls-1" d="M130.25,39.88c-1.53-1.17-3.4-.71-4.13,1.09-.56,1.09-.45,4.63,1.5,3.53.1-.05.48-.3.2-.19-.39.12-1.16.17-1.08-.43-.06-1.14.31-2.49,1.31-3.06.28-.14.61-.02.99.07.12.04.18.05.26.09.02,0,.03.02.03.02,0,0,.07.04.02,0,.26,1.3-.11,3.32-.95,4.6,1.44-.94,3.2-4.25,1.85-5.74h0Z"/>
  <path class="cls-1" d="M130.03,54.06c-.95-.95-2.33-.91-3.57-.81-.29,0-.58.03-.87.06.45-.36.83-.8,1.12-1.27.58-.82.5-1.52.03-2.37-.36-.93-.06.57-.14.94-.03.51-.58.81-.91,1.15-.71.55-1.84,1.07-2.5.65-.32-.26-.78-.85-1.16-1.22-.02,0-.06-.08-.07-.1,0-.09.04-.22.1-.38.53-1.49,1.98-2.64,3.54-2.99-1.67-.26-3.49.44-4.48,1.83-.46.59-.9,1.37-.63,2.13.58,1.07,1.52,2.33,2.84,2.42.83.07,1.59-.26,2.23-.77,1.11.44,2.48.46,3.32,1.39.41.42.46,1.03.59,1.57.28.83.16,1.69-.28,2.15.14-.07-.52.28-.68.26h-.06c-.51-.6-1.39-2.88-1.68-4.23-.22,1.43-.14,2.87.22,4.27.15.58.47,1.2,1.07,1.41,1.37.41,2.89-.5,3.18-1.9.38-1.43-.28-3.08-1.21-4.17v-.02Z"/>
  <path class="cls-1" d="M122.82,67.22c-.59.12-1.34.11-1.89,0-.2-.12-.49-.52-.55-.79h0s.02-.07.03-.11c.96-1.43,2.45-3.63,4.51-3.73-1.43-.55-2.88.24-4.02,1.09-.81.68-1.79,1.41-2.04,2.49-.15.93.57,1.86,1.37,2.26.75.35,1.61.04,2.37-.12,1.25-.35,1.7-1.78,2.05-2.89-.53.66-1.08,1.38-1.83,1.8h0Z"/>
  <path class="cls-1" d="M127.81,68.51c-.56-.54-1.38-.49-2.11-.45-1.94.16.7.28,1.27.84.5.63.82,1.43,1.03,2.2.07.35.08.76-.1,1.05-.27.41-.8.89-1.31.85-.88-.39-1.58-1.14-1.91-2.04-.03,1.24.75,2.84,2.05,3.11,1.13.04,2.33-.76,2.63-1.87.31-1.41-.61-2.73-1.55-3.69Z"/>
  <path class="cls-1" d="M122.07,77.68c-.44,1.71-2.32,3.1-3.97,2.6,0,.02-.37-.19-.47-.25,0-.23.18-.85.39-1.23.65-1.43,2.39-2.05,3.87-2.02-1.54-.68-3.64-.43-4.77.89-1.01,1.07-1.83,3.29.03,3.93,2.03.95,4.64-.69,4.96-2.84.08-.3.13-1.84-.05-1.09h.01Z"/>
  <path class="cls-1" d="M128.95,81.83c-.21-.11-.4-.23-.56-.32.02-.07.04-.14.09-.19,1.12-1.09,2.83-1.41,4.34-1.27-1.56-.85-3.67-.84-5.1.28-.25.21-.53.61-.65,1.03-.47-.4-1.07-.69-1.87-.8-1.49-.51,1.15.84,1.34,1.45.39.73.43,1.56.24,2.36-.12.72-.22,1.53-.55,2.1h0c-1.48-.54-3.05-2.42-3.87-3.85.32,2.08,1.43,4.37,3.38,5.33,1.34.53,2.3-.83,2.42-2.03.2-1.14.18-2.28-.17-3.22.46.19.96.32,1.44.3,1.29.01,2.32-.79,3.22-1.63-.65.22-1.29.5-1.97.64-.58.05-1.18.04-1.73-.17h0Z"/>
  <path class="cls-1" d="M120.4,91.32c-.3,1.57-1.75,3.03-3.16,3.4-.32-.03-.91-.54-1.1-.96-.07-.19-.14-.39-.12-.52.3-.51.97-1.06,1.5-1.48.4-.26.83-.67,1.34-.56-.59-.37-1.33,0-1.92.19-.79.38-1.81.77-2.1,1.68-.34,1.54,1.29,3.5,2.9,2.92,1.77-.68,3.1-3,2.66-4.68h0Z"/>
  <path class="cls-1" d="M124.2,96.88c-.54-.76-1.37-1.24-2.21-1.62.59.63,1.21,1.3,1.48,2.14.28.97.24,2.03.22,3.02-.04.28-.28.44-.49.67-.09.12-.58-.1-.83-.3-1.1-.87-1.21-2.47-1.42-3.76-.34,1.34-.57,2.94.15,4.19.53.84,1.57,1.64,2.61,1.3.74-.33,1.4-1.06,1.46-1.89,0-1.28-.26-2.66-.98-3.75h.01Z"/>
  <path class="cls-1" d="M116.31,105.92c-.51.52-1.3,1.73-2.1,1.21-.61-.32-1.29-.57-1.75-1.06-.08-.07-.25-.5-.24-.61v-.06h0v-.04c.24-.42.7-.98.97-1.2,1.24-.1,3.14.72,4.02,1.69-.43-1.18-1.46-2.02-2.54-2.61-.67-.36-1.5-.68-2.22-.31-1.34.78-2.52,2.32-1.43,3.81.78,1.05,2.24,1.39,3.48,1.48.79,0,1.21-.76,1.54-1.37.15-.27.72-1.63.25-.95l.02.02Z"/>
  <path class="cls-1" d="M119.47,111.05c-.96-.84-2.44-.83-3.57-.35.94-.02,1.88.22,2.62.83.6.92.66,2.23.21,3.14,0,.02-.03.06-.05.11-1.23-.45-2.49-1.84-3.07-3.33.05,1.53.54,3.03,1.76,4.02.55.46,1.31,1.07,2.04.64,1.51-1.25,1.23-3.67.06-5.06h0Z"/>
  <path class="cls-1" d="M110.89,120.06c-.34.02-.72.11-1.03-.04-.32-.18-.59-.5-.73-.81-.14-.36.24-1.36.34-1.55.85-.15,2.84.39,3.81,1.22-.63-1.1-1.71-1.88-2.91-2.28-.53-.18-1.14-.29-1.65,0-.77.61-1.13,1.78-1.01,2.74.19.81.88,1.46,1.65,1.74.62.22,1.28-.01,1.86-.24.85-.28,1.6-.8,2.11-1.54-.73.49-1.57.71-2.44.75h0Z"/>
  <path class="cls-1" d="M115.54,122.64c-.66-.46-1.41-.89-2.24-.88.11.05.22.09.33.15.86.55,1.67,1.42,1.87,2.45.06.83-.12,1.68-.23,2.5-.09.45-.25,1.05-.38,1.25,0,.08-.93.58-1,.61-.08-.04-.24-.14-.32-.31-.52-1.52-.87-3.23-.99-4.87-.43,1.31-.6,2.68-.54,4.05-.09,1.13.33,2.45,1.53,2.8.96.16,1.98-.39,2.67-1.04.69-.84.74-2.02.73-3.07,0-1.35-.21-2.85-1.43-3.65h0Z"/>
  <path class="cls-1" d="M106.3,134.36c-.53-.09-1.18-.48-1.43-.85-.04-.26.04-1.03.27-1.31.98-.39,2.93-.5,3.95.42-.51-1-1.59-1.45-2.66-1.61-.75-.09-1.66-.18-2.24.4-.6.72-.81,1.83-.41,2.69.32.51.9.79,1.46.97.9.35,1.81,0,2.37-.76.27-.29.46-.66.68-.99-.31.2-.58.45-.9.64-.34.17-.69.43-1.09.41h0Z"/>
  <path class="cls-1" d="M109.48,138.37c-.19-.08-1.13-.12-.64,0,1.06.44,1.88,1.42,2.19,2.51.05.41-.15.82-.21,1.23-.07.28-.12.32-.38.41h-.1c-.2-.04-.45-.15-.56-.32-.73-1.18-1.59-2.37-1.85-3.79-.2,1.13-.05,2.25.38,3.31.23.72.46,1.52,1.16,1.91.81.52,1.94.31,2.46-.51.3-.54.29-1.19.35-1.79-.03-1.49-1.45-2.62-2.8-2.97h0Z"/>
  <path class="cls-1" d="M101.55,146.25c-.39.09-.8.27-1.2.14-.31-.13-.54-.38-.59-.7-.05-.29-.06-.73,0-.98,1.27-.44,3.81-.98,5.38,0-1.06-1.34-2.82-1.68-4.45-1.62-.85.04-1.92.08-2.36.93-.61,1.37-.03,3.35,1.57,3.68,1.16.23,2.33-.54,3.15-1.29.44-.57.66-1.29.87-1.98-.23.29-.46.59-.71.86-.41.53-1,.83-1.65.95h-.01Z"/>
  <path class="cls-1" d="M106.59,149.2c-.71-.65-1.74-1.14-2.71-.85.78.07,1.43.6,1.89,1.21.52.75,1.01,1.79.96,2.64-.03.21-.09.35-.18.48-.13-.06-.26-.11-.36-.18-1.1-.94-1.74-2.27-2.21-3.61-.08,1.72.31,3.69,1.71,4.83.41.21.86.66,1.34.45,1.89-1.18.96-3.78-.45-4.97h0Z"/>
  <path class="cls-1" d="M96.04,157.09c-.31-.32-.4-.64-.37-1.07.02-.13.02-.11.16-.25,1.42-.94,3.36-1.19,4.89-.36-.92-1.12-2.35-1.53-3.76-1.39-.93.09-2.01.38-2.54,1.22-.74,1.49.53,3.13,2.02,3.45,1.48.33,2.25-1.4,2.98-2.39-.77.49-1.48,1.17-2.36,1.45-.41-.07-.75-.37-1.03-.66h.01Z"/>
  <path class="cls-1" d="M103.76,161.02c-.69-1.36-1.93-2.47-3.45-2.75.59.31,1.15.72,1.58,1.23.48.66,1.01,1.4,1.11,2.22-.18.77-.52,1.71-1.39,1.9-1.05-.95-1.83-2.7-1.82-4.26-.36,1.34-.18,2.75.48,3.97.29.57.7,1.31,1.43,1.29,1.6-.12,2.65-2.19,2.06-3.6h0Z"/>
  <path class="cls-1" d="M95.5,166.45c-.57,2.18-2.2,4.36-4.58,3.26-.09-.02-.19-.06-.26-.09h0c.15-.37.74-.9,1.17-1.32,1.21-1.18,2.52-2.34,4.23-2.66-1.41-.26-2.8.12-4.04.8-1.11.64-2.36,1.28-3.02,2.42-.73,1.37.32,2.53,1.7,2.73,1.4.45,3.06-.11,3.99-1.23.67-.81.87-1.89.99-2.91.05-.39-.04-1.99-.19-1.01h.01Z"/>
  <path class="cls-1" d="M88.9,182.52c-.21.03-.46.06-.61,0-.33-.15-.72-.56-.79-.75-.18-.52.18-1.14.56-1.7,1.08-.9,2.46-1.52,3.83-1.87-1.54-.21-3.24.05-4.59.82-.91.72-1.64,1.94-1.32,3.13.4,1.18,1.84,2.11,3.07,1.62,1.63-.45,2.63-2.04,2.52-3.69-.42,1.21-1.32,2.3-2.66,2.44h0Z"/>
  <path class="cls-1" d="M95.69,180.91c-.9-.85-2.16-1.35-3.38-1.5.98.56,1.96,1.29,2.57,2.25.41,1.1.35,2.45.18,3.49-.18.08-.54.08-.8-.02-1.16-.37-1.97-1.27-2.6-2.27.24,1.39.97,2.69,2.25,3.36,1.89.85,2.77-.25,2.75-2.11.06-1.12-.26-2.31-.95-3.2h-.02Z"/>
  <path class="cls-1" d="M93.4,194.49c-.57-1.47-1.48-3.01-3.1-3.45-.58-.14-1.17-.14-1.75-.03.31.07.63.14.93.27,1.73.63,2.14,2.56,2.58,4.14.1.36.02.63-.15.89-.12-.09-.26-.21-.38-.35-.97-1.15-1.4-2.59-1.74-4.03-.3,1.94-.18,4.27,1.36,5.68.38.39.98.79,1.46.3,1.09-.77,1.44-2.25.79-3.42Z"/>
  <path class="cls-1" d="M87.6,194.46c-.56.79-1.48,1.2-2.25,1.75-.69.37-1.64.48-2.3.35-.24-.13-.62-.82-.69-1.33-.03-.46-.03-.9.3-1.16,1.57-.78,3.55-2.18,5.51-2.37-1.58-.51-3.25,0-4.8.4-1.08.24-2.33.64-2.69,1.81-.71,1.72.44,4.4,2.49,4.35,1.97-.06,3.42-1.5,4.35-3.12.16-.29.46-1.41.09-.66v-.02Z"/>
  <path class="cls-1" d="M92.43,212.29c-.63,1.21-2.22,1.91-3.3,2.61-.39.17-1.46-.58-1.85-1.01-.15-.23-.48-1.18-.66-1.89.01,0,.02,0,.03-.02,1.96-1.04,4.47-1.62,6.86-.74-1.23-1.03-2.73-1.6-4.28-1.63.06-.04.12-.08.17-.14.68-.93.67-2.21.72-3.32.07-2.66-.34-4.74-3.43-4.97-.53-.07-1,.23-1.44.47.03,0,.06,0,.09-.02.39-.16.79-.17,1.18-.09-.29,2.43-.55,5.16.58,7.4.2.32.54.6.91.76-.09,0-.19.02-.28.04-.97.19-2.09.31-2.79,1.08-.6.64-.43,1.6-.17,2.36.28.94.67,1.92,1.52,2.47,1,.61,2.39,1.29,3.49.57,1.09-.99,2.49-2.31,2.75-3.8,0-.25.04-.57-.1-.12h0ZM86.54,201.54c.66.14,1.3.55,1.81.97.59.75.54,1.72.43,2.62-.05,1-.16,2.26-.43,3.14-.36-.29-.52-.77-.65-1.21-.63-1.8-.94-3.68-1.16-5.52h0Z"/>
  <path class="cls-1" d="M77.95,212.64c-.1,0-.13,0-.09,0-.23-.15-.55-.35-.73-.53,0-.02-.01-.05-.02-.07q.01.06,0,0c0-.16,0-.22.02-.33.18-.63.46-1.34.86-1.42,1.71-.25,3.88-.63,5.51.25-.85-1.08-2.21-1.46-3.52-1.68-1.04-.13-2.18-.4-3.16.11-1.16.85-1.95,2.64-1.23,3.99,1.83,2.25,4.3.76,5.58-1.22.27-.45.55-.91.74-1.4-.03.04-.07.08-.1.11-1.08.99-2.34,2.08-3.87,2.19h.01Z"/>
  <path class="cls-1" d="M87.15,219.1c-.17-2.21-2.28-3.68-4.38-3.72-.22-.62-.43-1.23-.65-1.81-.03.62-.04,1.23-.02,1.85-.11,0-.23.03-.34.05.11.02.23.05.35.08.05,1.53.26,3.04.65,4.53.22.9.55,1.87,1.28,2.49,1.09,1.09,2.74.16,3.19-1.1.33-.76.11-1.6-.07-2.36h-.01ZM85.33,220.75c.05-.04-.03.04-.12.13-.94-1.39-1.63-3.23-2.28-5.05,1.09.49,2.05,1.35,2.39,2.46,0,.76.26,2.04,0,2.46h.01Z"/>
  <path class="cls-1" d="M79.02,225.22c-.3,1.34-1.34,2.29-2.36,3.11-.14.08-.3.09-.48.09.04-.1.09-.19.13-.29.2-.69.09-1.4-.13-2.07,1.02-1.09,2.11-2.18,3.62-2.5-1.39-.23-2.69.28-3.85,1.01-.09.07-.19.13-.29.19-.1-.23-.2-.46-.29-.68-.3-.75-.59-1.58-1.29-2.03-.44-.27-.97-.24-1.47-.29-.64-.06-1.29-.07-1.92.03.53.12,1.04.32,1.54.52.43.25,1.08.27,1.32.76.28.89.42,1.81.62,2.73-.53.4-1.03.83-1.42,1.36-.24.4-.28.79-.2,1.15-.79-1.27-1.18-2.83-1.59-4.27-.28,2.5-.35,5.71,2.11,7.15.46.23.93-.06,1.25-.39.28-.21.53-.45.78-.7.13,0,.26.02.38,0,.79-.07,1.69-.16,2.22-.82.74-1,1.54-2.12,1.51-3.42.03-.36-.13-1.5-.17-.62l-.02-.03Z"/>
  <path class="cls-1" d="M79.63,230.22c-.22-.08-.46-.12-.7-.11.46.16.81.52,1.16.86.96.92,1.52,2.26,1.57,3.58-.09.63-.4,1.25-.58,1.88-1.81-.65-1.92-4.1-2.45-6.13-.25,2.04-.87,4.3.11,6.23.84,1.91,3.79,2.82,4.23.16,1.08-2.66-.67-5.66-3.33-6.47h-.01Z"/>
  <path class="cls-1" d="M75.22,240.87c-.47,1.27-1.46,2.26-2.71,2.76-.64.11-1.58.07-1.96-.1-.17-.11-.4-.38-.54-.59,1.2-1.5,3.27-2.9,5.36-3.11-1.7-.48-3.47-.09-4.99.74-.01-.14-.02-.27-.04-.41-.19-1.06-.75-2-1.19-2.96-.5-1.14-1.29-2.31-2.67-2.28-.16-.03-.29-.13-.39-.25.07.21.21.37.4.48.73.28,1.14.83,1.29,1.59.24,1.26.75,2.92.72,3.94-.11.73-.4,1.2-.79,1.68-.22-.22-.45-.49-.57-.8-1.02-1.75-1.34-3.77-1.99-5.67-.15,2.56-.45,5.4,1.03,7.66.53.71,1.4,1.91,2.33,1.03.09-.08.18-.18.27-.27.44.54,1.02.98,1.73,1.03.89.05,1.86-.02,2.66-.44,1.31-.88,2.22-2.29,2.24-3.89,0-.46.05-.83-.17-.14h-.02Z"/>
  <path class="cls-1" d="M82.85,246.21c-.8.47-1.84.66-2.64.73-.18-.35-.31-.82-.56-1.3-.09-.2-.07-.15-.14-.38.78-1.35,4.11-4.32,6.78-4.72-2.04-.37-4.07.23-5.82,1.27-1.13.75-2.46,1.54-2.96,2.86-.01.05-.01.1-.02.16-.36-.38-.77-.71-1.26-.94-.22-.24-1.88-.64-1.11-.3,1.63,1.02,2.2,2.95,2.55,4.73.04.47-.18.85-.38,1.27,0,0-.02.03-.03.05-.1,0-.14-.06-.32-.2-.88-1.25-1.23-2.83-1.8-4.24.06,1.86-.29,4.42,1.33,5.71,1.56,1,2.79-.82,2.79-2.34.92.45,2.09-.16,2.97-.58,1.62-.71,2.26-2.48,2.5-4.12-.52.85-1.07,1.74-1.87,2.34h-.01Z"/>
  <path class="cls-1" d="M75.39,256.33c-.28-1.18-1.38-1.84-2.41-2.32-.14-.08-.95-.31-.59-.13.74.6,1.56,1.36,1.81,2.31.05,1.31.55,2.76.46,3.99-1.04-.75-2.13-1.54-2.97-2.54.1-.23.18-.46.23-.71.11-.61.17-1.23.14-1.84-.23.64-.52,1.27-.88,1.84-.07-.11-.15-.22-.21-.34.03.17.07.34.11.51,0,0,0,.02-.02.03-.59.63-1.35,1.19-2.11,1.56-1.11.17-2.3-.22-3.09-.79,0,0-.02-.03-.04-.04,0-.99.27-2.09,1-2.86,1.02-.45,2.71-.67,3.68-.04-.33-.6-1.04-.81-1.65-1.02-1-.26-2.23-.48-3.11.17,0-.13,0-.27-.04-.4-.46-1.44-1.23-2.96-2.42-3.93-1.09-.8-2.57-.9-3.62-1.73-1.06-1.04-.31,0,.03.59.62.68,1.44,1.14,2.13,1.76,1.13.86,1.35,2.29,1.82,3.58v.18s-.05.08-.06.1c-.2.23-.43.46-.56.58-.66-.38-1.2-.92-1.75-1.58-1.05-1.25-1.7-2.78-2.62-4.12.48,2.36.84,4.91,2.57,6.72.59.66,1.46,1.32,2.39,1.02.15-.06.29-.14.44-.22-.35,1.11-.27,2.26.77,2.96,1.42.96,3.45,1.25,4.97.39.61-.52,1.23-1.13,1.65-1.84.61,1.44,1.69,2.72,2.94,3.58,3.18.42,1.61-3.77,1.04-5.41h-.03Z"/>
  <path class="cls-1" d="M156.68,1.94c-.92.64-1.39,1.69-1.68,2.73-.34.96-.55,1.95-.31,2.96.11.6.09,1.25.92,1.01.33-.06.61-.25.87-.44-.22.05-.43.11-.66.11-.15-.02-.49,0-.46-.11.08-.39.08-.78.17-1.17.08-.72.54-1.3.83-1.94,0-.03.03-.06.05-.1.8.12,1.58-.23,2.25-.68.65-.46,1.43-.99,1.56-1.83.1-2.03-2.55-1.47-3.55-.55h.01ZM156.49,4.84c.32-.64.75-1.3,1.27-1.63.36-.21.67-.51,1.07-.59-.42.78-1.29,1.92-2.34,2.22h0Z"/>
  <path class="cls-1" d="M155.82,10.28c-.11-.02-.23-.04-.34-.04.64.38,1.38.68,1.88,1.24.48.57,1,1.16,1.03,1.95.24,1.05.07,2.12-.15,3.05-.02.03-.09.16-.11.19h0c-.09.12-.14.14-.19.16-1-1.59-1.82-3.19-2.3-4.93-.19,1.79.1,3.58.76,5.25.18.53.47,1.12,1.04,1.31.95.31,1.99-.31,2.42-1.17.35-.7.31-1.52.35-2.29,0-2.57-1.77-4.57-4.36-4.72h-.03Z"/>
  <path class="cls-1" d="M154.48,14.54c-.53.63-1.02,1.3-1.6,1.89-1.02.7-2.55,1.2-3.62,1.41-.28,0-.71-.16-.96-.32.09.07.08.07,0-.01-.35-.32-.68-.59-.81-.85-.13-.19-.22-.62-.22-.75.03-.09.09-.28.12-.37.03-.06.05-.09.06-.11,1.6-.89,4.68-.7,6.78-1.2-2.51-.32-5.71-1.75-8.05-.36-1.9,1.52-1.04,4.33.88,5.42,1.62,1.08,3.57.34,4.93-.8,1.16-.62,1.89-1.67,2.23-2.92.07-.23.58-1.46.26-1.01v-.02Z"/>
  <path class="cls-1" d="M151.73,22.15c-1.2-.27.63.46.91.81,1.64,1.05,1.55,3.61,1.03,5-.12.26-.46.48-.61.55-.56-1.01-2.15-3.63-2.33-5.45-.37,1.77-.12,3.59.53,5.26.27,1.01.9,2.29,2.16,1.95,1.25-.27,2.18-1.43,2.21-2.71.22-2.72-.98-5.11-3.9-5.42h0Z"/>
  <path class="cls-1" d="M147.41,33.18c-.78.47-1.49,1.1-2.33,1.44-.68,0-1.35-.16-1.92-.5.15-.28.35-.62.6-.86,1.24-1.47,2.77-2.7,4.65-3.23-2.42-.24-4.82.93-6.39,2.74-.62.71-1.48,1.78-.32,2.45,1.08.86,2.73,1.15,4,.6,1.25-.95,2.29-2.27,3-3.67-.39.39-.83.72-1.29,1.02h0Z"/>
  <path class="cls-1" d="M151.15,41.72c-.72-1.58-2.32-2.59-3.9-3.15-.43-.19.53.54.69.72.82.87,1.68,1.82,1.97,3.01.14.42-.11.99-.3,1.41-1.48-.51-2.42-2.24-2.83-3.68-.24,1.99.69,4.62,2.81,5.15.39.17.89.16,1.12-.25.53-.96.94-2.17.44-3.22h0Z"/>
  <path class="cls-1" d="M140.71,50.16c-.79.35-1.63.07-2.38-.25-.26-.09-.56-.16-.72-.26-.02-.02,0,0,0,0,0-.02,0-.03,0,0h0v-.07c0-.06.09-.23.22-.38,1.47-1.42,2.8-3.4,5.01-3.58-1.67-.53-3.3.3-4.63,1.27-.71.58-1.57,1.07-2.01,1.9-.4.76-.12,1.85.7,2.2,1.01.32,2.17.65,3.22.34,1.36-.25,1.64-1.63,2.01-2.74-.48.5-.82,1.15-1.39,1.57h-.03Z"/>
  <path class="cls-1" d="M143.17,52.85c-.69-.2-1.44-.42-2.15-.19,1.06.16,2.16.85,2.67,1.8.82,1.3,1.38,4.36.85,4.6-1.12-.61-3.17-2.72-3.58-4.61-.19,1.91.55,3.74,1.8,5.17.5.64,1.21,1.29,2.08,1.18,1.01-.05,1.71-1,1.74-1.97.07-2.31-1.14-5.13-3.4-5.99h-.01Z"/>
  <path class="cls-1" d="M141.78,67.42c-.69-1.13-2.05-1.74-3.33-1.88-.1-.36-.2-.72-.28-1.08-.28,1.91-.24,3.89.42,5.73.22.69.46,1.46,1.1,1.86,2.64,1.26,2.99-3.08,2.09-4.63ZM140.43,70.46c-.89-1.54-1.51-3.21-1.97-4.92.75.38,1.41.93,1.92,1.61.74.89.41,2.45.05,3.31Z"/>
  <path class="cls-1" d="M133.34,65.21h0s.02-.03.03-.05c1.2-1.34,2.8-3,4.79-3.25-1.69-.43-3.37.27-4.72,1.27-.77.58-1.94,1.36-1.51,2.5.31.81,1.07,1.56,1.98,1.51,1.55-.12,3.68-1.76,3.75-2.92-.92,1.05-2.34,1.55-3.71,1.62-.26-.01-.57-.49-.62-.69h.01Z"/>
  <path class="cls-1" d="M138.16,78.41c-.45-1.27-1.33-2.52-2.66-2.94,1.25,1.06,1.59,2.79,1.7,4.35,0,.41-.02.87-.23,1.22-1.27-.4-2.45-1.95-2.98-3.32,0,1.35.43,2.68,1.35,3.69.51.52,1.2,1.08,1.97.98,1.62-.48,1.38-2.73.86-3.98h-.01Z"/>
  <path class="cls-1" d="M132.59,90.23c-.51-.1.13.12.25.28.5.44.93,1.03,1.07,1.69.02.64.05,1.35-.09,1.96-.31.55-.87.79-1.45.93h-.09c-1.05-1.22-1.27-3.72-1.55-5.53-.51,1.97-1.26,6.69,1.53,7.15,1.25-.02,2.51-.84,2.9-2.05.31-1.84-.56-4.09-2.57-4.46v.03Z"/>
  <path class="cls-1" d="M131.28,102.65c-.73-.89-1.75-1.99-3-1.89.56.11.93.6,1.26,1.03,1.02,1.35,1.4,3.05.93,4.57-.04-.04-.07-.08-.12-.12-1.26-1.7-1.91-3.69-2.42-5.72-.32,2.24-.15,4.56.96,6.57.52.95,2.04,2.78,2.78,1.02,1.02-1.68.8-3.91-.4-5.45h0Z"/>
  <path class="cls-1" d="M127.93,113.22c-.73-1.15-2.06-2.01-3.46-1.91,0-.03-.02-.06-.03-.1v.1h-.05c-.28.03-.56.09-.84.13.28.06.57.11.85.19-.21,1.86-.25,3.74-.21,5.61.09.78.03,1.67.62,2.27.93.97,2.59.87,3.29-.32.43-.84.46-1.85.51-2.78-.11-1.08-.23-2.2-.68-3.19h0ZM126.32,118.1h0s-.02.02-.03.03h-.03s-.03-.01-.05-.02c0,0-.02,0-.03-.01-.48-1.78-1.03-4.3-1.6-6.41,1.05.37,2,1.35,2.12,2.47.05,1.42.03,2.61-.37,3.95h0Z"/>
  <path class="cls-1" d="M129.33,131.06c-.96-.23-2-.44-2.83-.98-.45-.43-.75-1.01-.93-1.56v-.09c.36-.28,1.18-.63,1.73-.56.36.12.74.49,1.1.71.93.66,1.81,1.37,2.33,2.4-.11-1.3-.86-2.36-1.69-3.33-.55-.67-1.21-1.35-2.15-1.3-.55,0-1.22.14-1.8.42-.28-.61-.66-1.18-1.12-1.67-.69-.61-1.62-.82-2.5-.98-.18,0-.51-.08-.17.06.66.38,1.34.79,1.84,1.38.44.71.64,1.57.81,2.38v.07c-.04.19-.06.4-.02.62h0c-.03.5-.09,1-.2,1.29,0,.02-.02.03-.02.03-.1.15-.31.25-.4.31-1.65-1-2.34-3.06-2.82-4.87-.25,1.88-.09,3.99,1.17,5.51.44.53,1,1.09,1.73,1.09.82-.06,1.53-.58,1.91-1.28.15.13.31.26.48.36.75.4,1.63.37,2.46.38.64-.03,1.33-.05,1.91-.35-.27.04-.55,0-.82-.05h0Z"/>
  <path class="cls-1" d="M122.15,138.3c-.18-.99-.26-2.08-.98-2.85-1.09-1.03-2.42-1.84-3.84-.89-.21.13-.42.27-.63.4.25-.05.5-.1.75-.14-.25,1.85-.14,3.74.41,5.54.17.69.37,1.45,1,1.86,1.07.68,2.59.27,3.22-.83.53-.96.27-2.08.07-3.1h0ZM120.15,140.56s-.04.02-.06.03c-.15.04,0,0-.22.02h-.08c-.71-1.15-1.87-3.87-2.3-5.79.4-.06.8-.09,1.2.03.75.51,1.54,1.35,1.57,2.24-.08,1.23.4,3.06-.11,3.47h0Z"/>
  <path class="cls-1" d="M115.91,135.92c-.56.36-1.1.83-1.77.98-.73.1-1.36-.19-1.96-.55.08-.2.18-.43.32-.63.9-.96,2.01-1.97,3.35-2.18-1.38-.34-2.82.36-3.93,1.14-.54.41-1.26,1.43-1.2,2.11.64.95,2.16,1.33,3.27,1.12,1.18-.27,1.98-1.44,2.47-2.48-.16.18-.35.34-.54.49h-.01Z"/>
  <path class="cls-1" d="M119.67,122.21c-.57.19-1.18.04-1.74-.12-.15-.06-.28-.12-.4-.17.7-1.26,2.24-1.95,3.66-1.87-1.44-.76-3.69-.17-4.42,1.32-.29.73-.43,1.16.52,1.28.83.19,1.84.16,2.5-.44.2-.18,0-.04-.13-.01h0Z"/>
  <path class="cls-1" d="M121.53,108.4c.91-1.03,2.25-1.55,3.61-1.38-.74-.33-1.56-.64-2.37-.37-.89.27-1.93.74-2.21,1.72-.13.52-.09,1.25.5,1.45.75.22,1.59.13,2.33-.12-.46-.02-.91-.1-1.35-.24-.24-.07-.61-.16-.72-.3,0,.04,0-.14,0-.2,0-.07,0-.02,0-.03.03-.2.11-.41.21-.53Z"/>
  <path class="cls-1" d="M126.36,96.52c-.06,0-.1,0-.14-.01-.13-.84.25-1.98.91-2.77.54-.51,1.31-.62,1.97-.9-1-.03-2.16-.13-2.89.7-1.11.89-1.89,4.48.46,3.78.96-.4,1.29-1.48,1.78-2.3-.13.1-.25.2-.37.31-.53.43-1.04,1.14-1.72,1.2h0Z"/>
  <path class="cls-1" d="M117.96,148.93c-.3-.02-.6-.07-.9-.13.42.29.89.47,1.34.71.76.37,1.13,1.26,1.26,2.06.12,1.14.19,2.97-.16,3.48,0,0,0,0,0,0,0,0-.02,0-.05.03h0c-.29-.37-.71-.86-.88-1.29-.8-1.34-1.44-2.76-2-4.21,0,.81.05,1.62.16,2.43,0-.03-.02-.06-.03-.09-.57-1.41-1.45-2.78-3.01-3.18-.48-.18-.97-.37-1.46-.5.22.14.39.34.6.49.54.48,1.2.88,1.63,1.46.5,1.04.99,2.18.91,3.36v.1s-.05.03-.07.04c-.02,0-.04,0-.06.02-1.11-.64-2.26-2.65-2.87-4.12.09,1.99.57,4.52,2.47,5.54.68.26,1.53-.09,1.92-.68.17-.37.22-.78.2-1.19.24,1,.59,1.97,1.1,2.87.26.61.82,1.3,1.54.88.22-.08,1.2-.41,1.44-.89.43-.61.5-1.4.52-2.12-.15-2.13-.97-5.07-3.57-5.07h-.01Z"/>
  <path class="cls-1" d="M114.21,164.42c-.32-1.12-1.04-2.02-1.99-2.68-.73-.6-1.59-1.05-2.52-1.22.56.35,1.06.8,1.47,1.32.52.76,1.19,1.49,1.31,2.43.12,1.03.45,1.95.4,2.9,0,.32-.1.72-.22,1.13-1.32-1.49-2.97-5.03-3.57-7.55-.34,3.31.27,8.43,3.46,10.21.3.06.7.16.98.1,1.33-.27,1.28-2.15,1.49-3.23.12-1.2-.36-2.33-.8-3.42h0Z"/>
  <path class="cls-1" d="M109.39,177.8c-.54-1-1.37-2.27-2.42-2.74-.24-.08-.5-.12-.75-.08.21.03.41.11.59.22.68.38.85,1.22,1.27,1.82.46,1.03.82,2.15.98,3.27-.03.57-.37.98-.82,1.24-.26-.54-.53-1.07-.75-1.64-.74-1.81-1.3-3.69-1.42-5.65-.05.25-.08.51-.11.76.04-1.09-.44-2.14-.66-3.19-.45-1.32-2.01-1.71-3.19-2.14-.54-.23.92.79,1.07,1.02.49.47,1.09.95,1,1.72-.03.46.05.95.11,1.42-.41-.06-.83-.11-1.24-.14-1.17-1.17-1.97-2.78-2.55-4.32-.04,1.39.21,2.92.83,4.24-.65,0-1.3,0-1.95.02-.73.02-1.51.14-2.06.66-.76.85-1.09,2.13-.86,3.25.35.97.91,1.98,1.79,2.55,1,.47,2.24.59,3.31.28,1.63-.74,2.88-2.32,3.48-4,.42-.16.75-.51.87-.99-.26,2.59.32,5.27,1.5,7.57.22.22.58.27.85.11.9-.27,1.65-.88,1.93-1.8.46-1.19-.28-2.4-.79-3.45h0ZM101.83,178.65c-.65.33-1.22.19-1.9,0-.42-.13-.54-.15-.74-.38-.27-.52-.88-1.4-.66-1.9.04-.22.09-.43.16-.64t.01-.04s0-.02.02-.04h0c.74-.31,1.95-.62,3.24-.91.47.63,1.04,1.17,1.77,1.54.37.21.76.25,1.11.17-.83.95-1.9,1.66-3.03,2.22h.02Z"/>
  <path class="cls-1" d="M103.23,188.71c-.74-.43-1.58-.78-2.44-.93-.02-.09-.05-.18-.07-.27,0,.09-.02.17-.03.26-.48-.08-.97-.09-1.44-.02.48.11.94.27,1.36.53,0,0,.02,0,.03.02-.2,2.36.22,4.82,1.52,6.82.55.72,1.42,1.97,2.37,1.07.85-.87,1.59-2,1.49-3.27-.29-1.67-1.59-3.1-2.8-4.21h.01ZM100.99,188.54c.55.36,1.12.72,1.52,1.25.56.91,1.27,2.4,1.47,3.04.03.36-.11.71-.31,1.05-.06-.06-.12-.11-.17-.17-1.08-1.41-1.96-3.29-2.5-5.16h-.01Z"/>
  <path class="cls-1" d="M97.76,193.07c-.46.48-1.51.05-1.77-.16-.01-.02-.02-.04-.03-.05-.07-.17-.06-1.13.17-1.57.06-.09.06-.15.12-.17.61-.16,1.29-.35,1.91-.58-.76.05-1.95-.32-2.53.17-.66.75-1.07,2.1-.4,2.95.62.53,1.62.69,2.38.41.83-.48,1.25-1.48,1.78-2.25-.53.44-1.12.8-1.63,1.27v-.02Z"/>
  <path class="cls-1" d="M102.13,204.11c-.46-2.05-1.96-3.97-4-4.63-.33-.11-.64-.25-.99-.3.68.48,1.34,1.03,1.87,1.68.72.99,1.19,2.3,1.28,3.45-.16.94-.75,2.48-1.05,3.19h0s-.1.02-.15.04c-.3-.02-.24,0-.4-.15,0,0,0,0-.01-.02-.92-1.76-1.7-3.73-2.39-5.67-.09,1.7.09,3.4.44,5.06.13.78.32,1.63.92,2.19,1.32,1.16,3.37.48,3.81-1.21.32-1.18.85-2.39.67-3.63h0Z"/>
  <path class="cls-1" d="M95.71,216.84c-.85-.42-1.61-1.34-2.63-1.15-.11,0-.21.05-.31.07-.07-.35-.13-.7-.18-1.04-.08.37-.13.75-.19,1.12-.29.09-.58.19-.86.32.27-.02.54-.02.81,0-.23,1.65-.26,3.32-.07,4.97.08.97.11,2.03.8,2.78.74.9,2.16,1.37,3.18.68.92-.81,1.83-1.97,1.86-3.24,0-1.83-.79-3.57-2.41-4.51h0ZM95.86,221.46c-.11.21-.7.91-.82,1.11.06-.07,0,0-.05.05h-.03s-.2-.07-.08-.03q.06.02,0,0c-.34-.22-.26-.14-.47-.51-.48-1.61-1.13-3.79-1.55-5.83.13.02.26.03.38.06.17.04.33.12.42.28.69.87,1.66,1.67,2.11,2.65.21.57.23,2.04.1,2.24v-.02Z"/>
  <path class="cls-1" d="M95.16,234.46c-.1-1.07-.1-2.25-.78-3.14-1.15-1.35-2.82-2.32-4.64-2.04-.18,0-.34,0-.51.05,1.09.28,2.28.64,2.93,1.63.38.5.85.97.94,1.57.05.88-.14,2.71-.15,3.35-.1.55-.17.77-.34,1.12-.08,0-.14,0-.16.02h-.02c-.06-.04-.13-.08-.16-.1-1.29-1.79-2.64-5.06-3.65-7.54,0,2.34.31,4.7,1.04,6.93.28.99.66,2.06,1.57,2.65.56.43,1.27.43,1.94.39,2.12-.27,2.23-3.22,2-4.88h-.01Z"/>
  <path class="cls-1" d="M87.45,243.04c-.23-.03-.47-.04-.7-.04-.07-.28-.14-.56-.21-.83-.04.27-.06.55-.09.82-.24,0-.47-.03-.7-.11.07.06.14.11.22.16.14.08.3.15.45.21-.04.44-.08.87-.1,1.31-.08-.18-.16-.36-.25-.54.04.59.11,1.17.21,1.75-.01.98.02,1.95.13,2.92.18,1.08.19,2.3.91,3.18,1.53,1.53,3.5-.39,3.8-2.04.93-3.13-.28-6.16-3.68-6.8h0ZM88.69,249.81c-.68-1.85-1.29-4.22-1.84-6.38.3.12.6.25.85.46.6.55,1.39,1.07,1.6,1.89.4,1.3-.04,3.13-.61,4.03Z"/>
  <path class="cls-1" d="M221.18,10.28c-.9-.58-1.94-.93-3.01-.71,1.4.29,2.93,1.48,2.98,2.99-.31,1.42-1.2,3.9-1.93,3.56-.33-1.79-.38-3.93-.58-5.86-.47,1.64-.93,3.3-1.03,5.01-.16.89-.11,1.97.78,2.46,1.14.76,2.58.08,3.24-1,1.1-1.93,1.83-5.1-.46-6.45h0Z"/>
  <path class="cls-1" d="M227.14.9c-1-1.37-2.92-1-4.09-.05-.6.63-.99,1.47-1.34,2.27-.24.68-.68,2.13-.53,2.49.69-1.34,1.68-2.81,2.9-3.62.65-.18,1.17-.36,1.45.03.53.63-.33,2.72-1.23,3.72-1.21,1.19-2.97.86-4.48.58,1.71,1.17,3.84,1.83,5.66.49,1.56-1.34,3.13-3.99,1.67-5.9h-.01Z"/>
  <path class="cls-1" d="M217.62,4.27c-1.25-2.01-4.03-.59-4.69,1.22-.73,1.39-.69,4.96,1.48,4.85.21-.02.4-.14.62-.16-.43-.06-1.01-.03-1.23-.51-.64-1.47.15-3.43,1.19-4.47.29-.24.69-.38,1.02-.52.33-.02.68.23.85.56.17,1.02.12,2.13-.08,3.15.51-.68.73-1.52.97-2.32.21-.6.22-1.27-.15-1.81h.02Z"/>
  <path class="cls-1" d="M214.71,21.8c-.34-1.22-.89-2.55-1.94-3.32-1.16-.51-2.54-.48-3.78-.31.43.09.84.21,1.25.36-.43,1.77-.72,3.62-.31,5.41.08.58.22,1.23.75,1.56,2.29,1.11,4.68-1.39,4.02-3.7h0ZM212.35,23.67c-.21.14-.33.2-.67.27h-.07c-.26-.56-.52-1.31-.71-1.98-.3-1.21-.44-2.29-.6-3.42.5.18.98.39,1.46.62.25.11.42.32.53.56.58,1.39,1.07,3.22.07,3.94h-.01Z"/>
  <path class="cls-1" d="M206.79,18.87c-.64-2.68-4.12-4.6-6.75-4.03-1.3.41-1.2,2.03-1.11,3.13.31,2.6,4.53,3.14,6.52,2.33.29-.17.47-.25,0-.15-1.28.06-2.57-.45-3.66-1.09-.42-.25-.97-.65-1.08-.92-.07-.28,0-1.25.05-1.62,1.89-.29,4.76.49,6.01,2.33v.02Z"/>
  <path class="cls-1" d="M205.2,29.74c-.45-.94-1.6-1.7-2.61-1.89-.79-.06-2.19-.27-.61.27.86.29,1.42,1.01,1.92,1.73.22.46,0,.99-.06,1.47-.13.65-.24,1.52-.58,1.83h0c-1.09-1.29-1.07-3.2-1.34-4.76-.32,1.39-.7,2.84-.39,4.26.38,1.98,1.94,3.09,3.32,1.12.58-1.21.69-2.75.37-4.05l-.02.02Z"/>
  <path class="cls-1" d="M194.55,32.23c-.72.07-1.18-.48-1.67-.93-.28-.29-.63-.59-.64-.91-.09-.94.35-2.16.83-2.26.98.58,2.88,1.96,3.7,3.3-.25-1.35-1.04-2.52-1.94-3.53-.48-.57-1.03-1.22-1.83-1.27-1.8.09-2.56,2.17-2.28,3.73.07.92.8,1.53,1.55,1.96.67.36,1.38.82,2.16.51.59-.13,1.19-.27,1.69-.61-.52.1-1.06.06-1.58,0h0Z"/>
  <path class="cls-1" d="M197.07,39.77c-.02-.86-.51-1.59-1.14-2.13-.56-.54-1.14-1.12-1.91-1.31.31.23.57.53.77.86.59.96,1.28,1.94.97,3.12-.04.38-.02.79-.2,1.13-.22.41-.58.68-.96.91-.11-.15-.23-.32-.32-.52-.42-1.09-.5-2.28-.28-3.43-.93,1.46-1.25,3.5-.26,5,.12.29.36.52.69.52,2.11-.48,3.04-2.06,2.65-4.16h0Z"/>
  <path class="cls-1" d="M185.07,36.85c1.69.73,3.56,1.52,4.51,3.19-.21-1.63-1.4-2.86-2.66-3.81-.64-.48-1.32-1.04-2.17-1.05-1,.06-2.3.62-2.38,1.76,0,1.23.51,2.56,1.42,3.39,1.29,1.21,2.95.87,4.31-.04-.88.12-1.96.34-2.74-.19-.98-.6-1.36-2.3-1.3-2.98-.07.14.75-.48,1.01-.26h0Z"/>
  <path class="cls-1" d="M190.44,48.2c-.83-1.13-1.98-2.36-3.48-2.35-.22,0-.44-.03-.66,0,.44.12.86.31,1.25.55.53.33.82.9,1.14,1.42.28.47.61.96.56,1.54-.05.62,0,1.26-.16,1.76.02,0-.71.76-.8.84-.38.25-.39.24-.48.2,0,0,0,0-.02-.02-.6-1.45-1.12-4.1-1.22-6.06-.59,1.86-1.59,7.13.84,7.9,1.63.46,3.45-1.33,3.57-2.9-.03-.97-.04-2.02-.52-2.89h-.02Z"/>
  <path class="cls-1" d="M176.13,47.97c1.77.47,4.09,1.62,5.07,3.47-.32-2.43-2.44-4.26-4.62-5.12-1.61-.51-2.73,1.17-2.97,2.56-.15,1.36,1.45,2.27,2.42,2.94.88.45,1.86.02,2.73-.26.46-.2.95-.36,1.35-.65-1,.17-2.06.18-3.07.07-.69-.24-1-1.02-1.5-1.51-.08-.1-.14-.19-.21-.31.15-.34.24-.68.39-.86.27-.3.32-.36.41-.34h0Z"/>
  <path class="cls-1" d="M180.18,57.56c-.25-.23-2.14-.66-1.53-.36,1.48.73,2.4,2.47,2.26,4.1-.08.46-.54.86-.83,1.31-.19.34-.58.56-.97.64-.04-.1-.08-.2-.12-.29-.68-1.68-.82-3.51-1.28-5.25-.18,1.66-1.33,7.5,1.39,7.31.84-.04,1.71-.32,2.21-1.03,2.04-2.21,1.21-4.87-1.13-6.43Z"/>
  <path class="cls-1" d="M169.29,63.02c-.35-.16-.66-.57-.89-.89.15-.15.3-.29.45-.4,1.7-.92,3.98-1.3,5.61-.06-1.24-2.05-4.08-2.25-6.12-1.39-.67.3-1.25.88-1.66,1.47-.29.71.57,1.22.99,1.68.79.65,1.84,1.06,2.85.71.83-.25,1.62-.61,2.34-1.1-.46.09-.91.18-1.38.21-.73.02-1.55.22-2.18-.24h-.01Z"/>
  <path class="cls-1" d="M174.57,71.48c-.25-1.24-.67-2.55-1.74-3.33-.4-.28-1.71-1.1-.7-.18.98,1.05,1.14,2.56,1.05,3.93-.17.64-.51,1.2-.86,1.76-.05-.09-.11-.18-.15-.28-.64-1.5-.82-3.12-.96-4.73-.58,1.83-.86,3.83-.24,5.69.84,1.94,1.7,2.18,2.77.22.51-.93,1.03-1.99.83-3.08Z"/>
  <path class="cls-1" d="M162.37,73.62c-.24-.25-.6-.5-.73-.78-.08-.37-.02-1.12.11-1.44,0-.02.06-.09.02-.05,0-.01.03-.03.03-.03-.07.06.05-.02.02,0,1.49-.35,3.28-.13,4.73.58-1.26-1.41-3.79-2.48-5.6-1.68-.95.75-1,2.34-.47,3.35.56.66,1.37,1.21,2.2,1.46,1.1.11,2.12-.54,2.95-1.18-1.04.24-2.48.81-3.26-.22h0Z"/>
  <path class="cls-1" d="M167.36,80.13c-.35-1.13-.84-2.24-1.94-2.8-.06-.05-.32-.18-.23-.11.42.53.88,1.09.92,1.79.29,1.42.24,2.98-.02,4.33,0,.06-.05.2-.06.21.09-.14-.17.06-.25.08-.04,0-.05,0-.04.02-.02.02-.11.04-.15.05-.02,0-.03,0-.06-.01-.35-.16-.74-.53-.82-.96-.24-1.04-.36-2.1-.51-3.16-.27,1.35-.8,2.86-.31,4.21.31.63.87,1.24,1.59,1.35.62.05,1.32-.22,1.75-.66.37-.42.39-1.02.41-1.55.11-.94.02-1.9-.3-2.8h.02Z"/>
  <path class="cls-1" d="M157.33,86.46c-.62.3-1.12-.22-1.6-.55-.34-.24-.75-.51-.92-.78-.17-.44-.25-1.33-.37-1.89.04,0,.08-.02.12-.03,1.4-.36,2.94-.36,4.31.09-.99-1.05-5.54-2.48-5.93-.4-.03.98.02,2.06.42,2.97.52.86,1.52,1.23,2.39,1.64,1.74.78,3.17-1.13,4.21-2.27-.84.47-1.72.9-2.63,1.22Z"/>
  <path class="cls-1" d="M158.5,88.9c-.49-.1-1.01-.22-1.51-.2-.06.04-.06.03-.09.09.72.08,1.82.86,2.35,1.39.45.68,1.09,1.53,1.22,2.21-.14.58-.52,1.52-.7,2.07-.18.4-.44.65-.85.87-.1.06-.4.17-.59.19-.41-1.11-.88-2.38-1.1-3.6-.25,1.08-.17,2.2-.12,3.3.02.55.11,1.2.63,1.51,1.09.48,2.45-.08,3.2-.94.71-1.04,1.18-2.44,1.08-3.7-.51-1.41-2.03-2.9-3.54-3.18h.02Z"/>
  <path class="cls-1" d="M148.74,98.53c-.61-.26-1.41-1.35-1.76-1.74-.12-.62.14-1.57.27-2.36v-.02c.66-.1,1.65.24,2.29.76,1,.62,2.03,1.2,2.82,2.09-.4-1.09-1.13-1.97-1.93-2.79-.54-.62-1.13-1.22-1.93-1.5-2.86-1.15-3.37,1.21-3.29,3.51,0,1.19,1.05,1.85,1.94,2.44.87.85,2.08.66,3.03.06.49-.24.93-.58,1.33-.96-.87.33-1.82.58-2.76.5h-.01Z"/>
  <path class="cls-1" d="M155.98,102.59c-.68-1.31-2.01-2.23-3.45-2.51,1.06.7,2.01,1.76,2.27,3.03-.04,1.56-.56,3.3-1.44,4.36-.21-.13-.45-.3-.62-.53-.75-1.53-1.25-3.36-1.77-5.04-.13,1.98-.3,4.16.49,6.02,1.86,2.89,3.74,1.08,4.58-1.4.28-1.27.36-2.7-.06-3.94h0Z"/>
  <path class="cls-1" d="M143.8,110.54c-.73-.19-1.57-.54-2.06-1.04-.28-.33-.47-1.18-.47-1.55.08-.03.45-.28.75-.31,1.74-.45,3.51.74,4.76,1.94-.66-1.44-1.8-2.87-3.38-3.33-2.58-.69-4.89.63-3.45,3.45.69,1.51,2.63,1.98,4.15,1.79.87-.2,1.47-.95,2.14-1.5.09-.08.17-.17.25-.27-.86.31-1.75.93-2.68.81h0Z"/>
  <path class="cls-1" d="M150.21,111.84c-.71-1.3-1.98-2.18-3.3-2.79.29.31.57.64.85.97.78.91,1.29,2.08,1.56,3.22-.28.79-.71,1.66-1.22,2.44-.04-.04-.09-.08-.14-.12-1.12-1.38-1.68-3.1-2.12-4.8-.27,2.08-.14,4.44,1.21,6.15,1.19,1.65,1.81.77,2.72-.51.88-1.65,1.57-3.07.44-4.54v-.02Z"/>
  <path class="cls-1" d="M139.1,120.18c-1.12.45-2.37.96-3.6.86-1.12-.62-2.22-1.67-2.3-2.87v-.15h0c0,.12,0,.02,0,0,0-.01.03-.03.04-.04,1.37-1.1,3.82-.84,5.16.44-1.09-2.47-5.23-3.31-6.75-1.11-.52,1.31.12,2.93,1.22,3.76.74.54,1.53,1.15,2.47,1.23,1.46-.07,2.69-1.09,3.75-2.02.05-.06.14-.19.02-.09h0Z"/>
  <path class="cls-1" d="M144.89,123.79c-.55-1.51-1.58-3.2-3.24-3.59-.32-.06-.64-.14-.97-.12.52.21,1.01.51,1.4.91.7.83,1.03,1.96,1.24,3.01,0,.91-.63,1.71-.93,2.63.06-.09-.19.38-.29.56-.06-.02-.13-.03-.19-.05-.04-.01-.04-.02-.05-.02h-.03c-1.72-1.08-1.78-3.91-2.26-5.9-.32,2.05-.86,4.37.23,6.27,1.01,1.93,3.59,2.43,4.36.02.4-1.19,1.02-2.44.73-3.72Z"/>
  <path class="cls-1" d="M137.05,134.27c-.07-1.9-.83-3.85-2.57-4.81-.13-.07-.26-.13-.39-.19.43.43.78.93.99,1.49.66,1.35.46,2.96.21,4.31-.17.45-.47.79-.84,1.09-.07-.11-.13-.24-.2-.37-.75-2.07-.82-4.28-.75-6.45-.97,2.19-1.5,4.65-.96,7.02.37,1.05.99,3.01,2.39,1.89,1.4-.77,2.39-2.37,2.1-4l.02.02Z"/>
  <path class="cls-1" d="M128.52,139.7c-.65-.9-1.73-1.33-2.68-1.83-.11-.04-.19-.13-.31-.15.42.46.84.92,1.26,1.39.86.83,1.13,2.09,1.29,3.23.05.66-.31,1.19-.69,1.77-.07.08-.21.23-.36.39-.13-.16-.23-.34-.34-.57-.7-1.65-.79-3.5-.63-5.27-.96,1.86-1.4,4.1-.77,6.13.26.75.99,1.83,1.82,1.92,1.14-.26,2.09-1.78,2.47-2.83.53-1.46-.24-3-1.08-4.18h.02Z"/>
  <path class="cls-1" d="M85.44,190.2c-.85-.06-1.65-.33-2.44-.63.14-.32.36-.54.81-.79,1.16-.68,2.61-1.28,3.89-.57-1.4-1.67-4.8-1.05-5.99.58-.2.55-.62,1.3-.15,1.8.92.51,2.07.71,3.12.73,1.59.11,2.87-.96,3.72-2.21-.89.52-1.87,1.19-2.94,1.09h-.02Z"/>
  <path class="cls-1" d="M74.33,206.37c1.61-1,3.46-2.43,5.46-1.88-2.01-1.71-7.25.16-8.29,2.35-.09.4.22.71.4,1.04.58.94,1.51,1.88,2.67,1.99.81,0,1.5-.47,2.18-.85.72-.48,1.51-1.02,1.83-1.85-.22.24-.48.42-.78.56-.94.41-2.03.77-3.02.82-.63-.26-.99-.81-1.31-1.39.24-.24.54-.58.86-.77v-.02Z"/>
  <path class="cls-1" d="M67.58,219.14c.23-.61.45-1.48.62-1.63.12-.09.43-.27.63-.32,1.87-.58,3.87-1.18,5.84-.83-1.34-.86-2.99-1-4.55-.96-1.11.09-2.34.12-3.22.89-.75.85-1.16,2.16-1.09,3.29.32,1.17,1.67,1.77,2.75,2.04,1.51.16,2.83-1.04,3.98-1.87.26-.24.04-.09-.13-.03-1.09.28-2.22.76-3.35.69-.58-.2-1.05-.62-1.47-1.05-.02-.02-.03-.04-.04-.07h0s.03-.11.04-.15h-.01Z"/>
  <path class="cls-1" d="M61.57,230.74h-.01c-.11-.13-.06-.07-.17-.21-.15-.21-.42-.55-.52-.73.05-.18.15-.85.28-1.07-.08.13.13-.23.18-.33,1.8-.62,4.28-1.04,6.37-.88-1.47-.79-3.16-.97-4.81-1-.96-.03-2.05-.11-2.83.54-.81.78-1.28,2.03-1.18,3.14.35.91,1.09,1.81,1.98,2.22,1.2.37,2.39-.23,3.54-.51.81-.24,1.73-.46,2.28-1.15.29-.4.59-.8.84-1.23-.72.51-1.41,1.17-2.34,1.15-1.12-.04-2.88.26-3.59.06h-.02Z"/>
  <path class="cls-1" d="M56.19,244.52c-.15-.33-.3-1.09-.37-1.3-.01-.03-.01-.17-.01-.23v-.02c1.28-1.09,3.83-2.96,6.06-3.13-1.78-.55-3.69,0-5.34.73-.84.44-1.85.82-2.31,1.7-.46,1.11.15,2.48.83,3.38.59.58,1.49.38,2.16.05,1.41-.67,2.82-1.5,3.57-2.92-1.06.91-2.4,1.26-3.73,1.58-.28.08-.65.16-.86.16Z"/>
  <path class="cls-1" d="M54.13,260.15c-1.01.28-2.1.13-3.12.4-.72.05-.76.18-1.03-.31-.35-.7-.62-1.16-.39-1.4,1.39-1.26,3.47-3.57,5.77-3.65-1.72-.67-3.56.23-5.11,1-.96.61-2.16,1.15-2.6,2.27-.38,1.43.74,3.72,2.31,3.89,1.16.09,2.17-.61,3.27-.86.59-.19,1.23-.41,1.61-.93.3-.48.3-1.09.37-1.64.13-1.57-.44,1.09-1.1,1.23h.02Z"/>
  <path class="cls-1" d="M60.94,261.33c-.96-1.69-2.54-2.8-4.07-3.94-.2-.17-.38-.36-.55-.56.21.66.62,1.21,1.01,1.77,1,1.32,1.88,2.81,2.35,4.33.02.17-.28.86-.6,1.32,0,.01,0,0-.02.02-.05.05-.1.1-.15.15-1.77-1.56-2.78-3.89-3.31-6.21-.44,2.73.16,5.83,2.16,7.84.38.42.82.92,1.45.73.91-.46,1.71-1.26,2.07-2.22.56-1.09.44-2.28-.33-3.24h-.01Z"/>
  <path class="cls-1" d="M205.07,93.1h-.34c0-.09-.03-.18-.04-.27-.02.09-.04.19-.06.28-.67,0-1.34.07-2.01.17.18.04.36.09.53.13.43.13.89.21,1.33.35-.29,1.4-.45,2.81-.6,4.23-.12.93-.22,1.93.26,2.78,1.27,1.82,3,.4,3.53-1.22.83-2.3.27-6.08-2.61-6.45h0ZM205.79,98.8c0,.06-.11.23-.22.41-.07-.33-.1-.73-.14-1.11-.13-1.28-.38-2.77-.59-4.22.19.08.37.18.53.31,1.25,1.27.9,3.1.41,4.61h0Z"/>
  <path class="cls-1" d="M198.17,103.46c-.23-.05-.47-.09-.7-.14v-.94c-.12.28-.23.57-.34.86-.03,0-.05-.01-.08-.02.02.02.04.04.07.06-.81,2.21-1.28,4.63-.63,6.92.23.74.93,1.6,1.78,1.41.72-.32,1.08-1.17,1.47-1.82.99-1.7.56-5.7-1.59-6.31l.02-.02ZM198.21,108.81c-.04.08-.09.15-.14.22-.53-1.78-.6-3.65-.6-5.51h0c1.04.41,1.33,1.36,1.35,2.4-.06,1-.03,2.06-.62,2.88h0Z"/>
  <path class="cls-1" d="M189.53,113.14c-.1-.06-.2-.11-.3-.16.05-.52.09-1.03.11-1.53-.2.44-.4.88-.6,1.34-.41-.12-.83-.17-1.25-.16.36.13.75.32,1.08.56-.96,2.21-1.74,4.57-1.21,6.95.2.87,1.15,1.68,2.06,1.34.78-.43.99-1.5,1.4-2.25.32-.83.68-1.7.6-2.6-.23-1.28-.83-2.67-1.88-3.48h0ZM189.06,118.33c-.17-1.38-.05-2.93.09-4.46.49.82.63,1.93.65,2.79-.16.58-.43,1.13-.73,1.67h0Z"/>
  <path class="cls-1" d="M186.94,109.66c-.55-.36-1.07-.79-1.55-1.24-.25-.35-.46-1.2-.47-1.72,0-.01,0-.02,0-.03.05-.01.08-.16.18-.22.21-.22.5-.43.7-.42,1.73.3,3.53.77,5.17,1.47-1-1.07-2.28-1.81-3.57-2.47-.62-.33-1.31-.68-2.03-.58-2.51.53-2.79,2.69-1.58,4.67.66.89,1.78,1.41,2.82,1.74,1.29.17,2.63-.31,3.48-1.29.12-.13.26-.25.36-.39-.53.28-1.08.53-1.67.67-.61.07-1.26.04-1.83-.18h-.02Z"/>
  <path class="cls-1" d="M193.22,99.33c-.06-.03-.12-.07-.17-.1,1.08-.43,2.28-.5,3.44-.41,1.04-.01,1.87.59,2.62,1.23-.95-2.26-3.66-2.89-5.9-2.59-1.63.3-4.15,1.82-1.38,2.85,1.41.67,3.07.93,4.6.54.54-.19.98-.57,1.41-.93-.26.09-.52.18-.79.24-1.3.36-2.67-.28-3.84-.84h0Z"/>
  <path class="cls-1" d="M181.18,125.31c-.35-.28-.69-.71-1.11-.91,0-.21-.02-.41-.03-.62-.06.18-.11.36-.17.55-.1-.03-.21-.05-.33-.04.12.02.21.08.29.15-.56,1.77-.99,3.7-1.15,5.42-.09.45-.13.93.11,1.34,1.36,1.93,3.74-.21,3.92-1.92.2-1.52-.33-3-1.54-3.96h0ZM180.96,129.41c-.13.15-.45.45-.65.63v-.02c-.06-1.76-.13-3.52-.22-5.28.09.15.18.32.27.46.42.79,1,1.59.99,2.52-.07.56-.08,1.32-.39,1.7h0Z"/>
  <path class="cls-1" d="M175.29,117.83l.02-.04s.03-.05.04-.05c.15-.17.31-.34.45-.51.09-.12.3-.4.43-.58.03.01.05.02.08.03,1.92.69,3.91,1.7,5.14,3.38-.15-1.84-4.81-6.84-6.54-4.84-.8.94-1.95,1.88-1.53,3.27.39,3.01,4.47,3.92,6.77,2.47.25-.18.5-.37.73-.56-.22.08-.45.13-.67.2-1.6.5-3.42-.23-4.54-1.24-.21-.13-.35-.91-.38-1.19,0-.04,0-.23,0-.31v-.03h0Z"/>
  <path class="cls-1" d="M175.3,137.02c-.45-1.42-1.9-2.15-3.1-2.88-.02-.51-.04-1.03-.07-1.53-.63,1.92-1.18,3.87-1.59,5.85-.22.9-.56,1.86-.25,2.79.94,2.36,3.06,2.58,4.64.64,1.25-1.37.61-3.28.37-4.87h0ZM173.85,138.64c-.03.6-.02,1.19-.19,1.48-.21.34-.52.58-1,.86-.14-.1-.52-.52-.48-.69.11-1.83.11-3.88.04-5.87.59.74,1.23,1.46,1.63,2.33.23.61.03,1.26,0,1.89Z"/>
  <path class="cls-1" d="M168.2,134.59c-1.1.52-2.38-.03-3.51-.25-.58-.14-.72-.78-.83-1.28,0-.04,0-.06.04-.1.06-.11,0,.02.06-.08,0-.04.23-.19.17-.17,0,0,.1-.05.06-.05-.05,0,.05-.02.08-.03,1.97-.15,4.07.58,5.76,1.61-1.41-1.89-3.9-3.5-6.33-3.14-1.8.67-1.83,2.49-.67,3.8.64.79,1.76.75,2.68.69.89-.06,1.93-.11,2.57-.82.28-.44.49-.69-.08-.19h0Z"/>
  <path class="cls-1" d="M165.9,147.69c-.43-.65-.96-1.18-1.56-1.63.04-.3.08-.6.12-.88-.13.23-.26.47-.38.7-.6-.4-1.26-.72-1.98-.94-.16-.04-.32-.05-.48-.05.23.08.45.21.62.39.55.41,1,.93,1.41,1.47-.34.72-.65,1.46-.95,2.19-.36.86-.78,1.77-.6,2.73.12.95.87,2.06,1.83,2.29,1.72.07,2.9-1.6,2.99-3.2.27-1.14-.29-2.23-1.01-3.08h-.01ZM164.65,151.42s-.04.07-.05.08c-.12.13-.24.22-.4.32-.63-.57-.43-1.46-.27-2.48.08-.53.16-1.17.23-1.82.4.7.73,1.45.95,2.22.03.33-.28,1.35-.46,1.68h0Z"/>
  <path class="cls-1" d="M156.74,146.65c-.57-.29-1.02-.74-1.54-1.1-.57-.32-1.06-1.63-1.38-2.3.18-.16.36-.32.55-.46.24-.16,1.14-.84,1.39-.94.22-.07.3-.04.54,0,1.67.37,3.27,1.12,4.43,2.4-.62-1.62-1.92-2.85-3.43-3.67-1.02-.66-2.26-.61-3.26.04-1.37.79-3.23,1.57-2.29,3.41.74,1.46,1.62,2.89,3.27,3.43,1.54.98,3.55.38,4.86-.73.24-.22.42-.49.57-.77-.32.28-.68.49-1.09.61-.84.21-1.78.3-2.63.08h0Z"/>
  <path class="cls-1" d="M150.03,155.94c-1.16-.33-1.96-1.17-2.24-2.19h0c.18-.28.61-1.02.83-1.44h.08c2.3.08,4.61.11,6.91.06-2.26-.86-4.6-1.5-6.99-1.91-.34-.08-.71-.02-1.01.15-.79.67-1.29,1.7-1.68,2.65-.21,1.26.78,2.53,1.81,3.15.91.45,2.2.96,3.1.25.69-.6,1.3-1.3,1.83-2.04-.4.27-.82.51-1.25.73-.45.19-.89.65-1.4.58h0Z"/>
  <path class="cls-1" d="M154.11,155.62c-.09-.07-.75.09-.49.08.8.11,1.35,1.08,1.46,1.82.02.55.19,1.1.11,1.65-.39,1.2-.99,2.72-1.6,3.6-.39.3-1.11.37-1.13.08-.59-1.27-.04-2.65.14-3.96-.7,1.17-1.58,2.39-1.45,3.82.06.57.13,1.23.68,1.55,1.59.96,3.52-.16,3.97-1.85.41-1.11.87-2.31.75-3.51-.3-1.37-.93-2.9-2.42-3.29h-.02Z"/>
  <path class="cls-1" d="M146.29,172.49c-.39-.4-.84-.8-1.36-1,.02-1.66.04-3.32-.02-4.91-1.22,3.31-2.2,6.76-2.32,10.31.06,1.02-.16,2.44.76,3.1,1.1.44,2.45-.21,3.23-1.02.92-1.18,1.01-2.83,1.07-4.28-.02-.94-.76-1.58-1.37-2.2h.01ZM145.01,177.45c-.11-1.79-.11-3.71-.09-5.65.08.08.17.16.24.25.4.78,1.17,1.69,1.09,2.59-.35,1.06-.71,2.32-1.24,2.81Z"/>
  <path class="cls-1" d="M139.26,188.05c-.4-1.82-.99-3.5-2.76-4.39-.23-.14-.46-.34-.75-.35.15.15.72.75.95,1.14.67.8.84,1.79.83,2.81.06.92.22,1.85-.23,2.56-.45.7-.71,1.35-1.03,1.64-.34-1.84-.91-4.27-1.12-6.28-.56,2.18-.73,4.46-.61,6.71-.06.56.09,1.22.64,1.48,1.04.48,2.32.09,2.92-.89.88-1.28,1.63-2.85,1.16-4.43h0Z"/>
  <path class="cls-1" d="M130.09,199.85c-.38-1.01-.72-2.46-1.94-2.7-.15-.04-.31-.05-.46-.1.07.07.16.11.24.16.74.34.86,1.19.92,1.92.03.82.19,1.78.17,2.53-.02.45-.9.99-1.23,1.36h0s-.09-.05-.13-.08c-.08-.08-.64-.56-.62-.84.08-2.35.27-5.44.21-8.06-.76,1.89-1.33,3.85-1.81,5.83-.29,1.13-.72,2.38-.14,3.49,1.26,2.14,3.1,2.5,4.57.31,1.11-1.05.79-2.56.23-3.81h-.01Z"/>
  <path class="cls-1" d="M123.65,211.99c-.12-.54-.29-1.11-.7-1.51-.96-.73-2.33-.54-3.48-.65-.14,0-.42-.09-.42.12.11-.06.21-.05.3,0,.83.36,1.69.68,2.49,1.1.46.31.26.98.31,1.5,0,.85.13,1.72-.09,2.43-.14.36-.42.75-.75,1.12-1.12-1.89-2-3.94-2.68-6.03-.3,1.53.74,10.73,3.48,8.09.95-.73,1.79-1.78,1.94-2.99.15-1.08-.19-2.14-.4-3.18h0Z"/>
  <path class="cls-1" d="M117.23,225.57c-.27-1.8-1.92-2.26-3.52-2.52-.26-1.92-.47-3.84-.66-5.77-.49,1.79-.87,3.64-1.05,5.49-.02,0-.05,0-.08,0,.02,0,.05.03.07.04-.17,1.71-.17,3.44.07,5.15.23.88.06,2.21,1.05,2.63,3.06.63,5.05-2.16,4.12-5.01ZM115.48,226.89s-.05.29-.08.35c0,.04-.04.14-.06.2-.11.2-.09.18-.34.41-.03.03-.2.15-.42.27-.09-.42-.19-.84-.27-1.27-.19-1-.35-2.01-.5-3.01.09.06.19.1.27.16.44.29,1.05.53,1.3.94.21.47.14,1.27.08,1.94h.02Z"/>
  <path class="cls-1" d="M118.58,206.04c-.76.81-2.28,1.76-3.07,1.8-.07-.05-.4-.58-.55-.88-.21-.39-.45-.7-.53-1.06h0s.02-.06.03-.08c.32-.42.96-1.98,1.2-1.99,1.8-.42,3.96-.21,5.77.45-1.62-1.46-5.33-3.08-7.26-1.55-.69.9-1.46,1.91-1.63,3.05-.02.92.63,1.65,1.17,2.33,1.51,2.41,3.71.35,4.71-1.36.2-.32.71-1.44.17-.69v-.02Z"/>
  <path class="cls-1" d="M123.35,190.38c-.31-.19-.23-.35-.24-.81,0-.11.08-.36.1-.43.03,0,.12-.06.08-.05,1.79-.4,4.24-.72,6.03.28-.93-1.21-2.45-1.66-3.91-1.85-1.06-.11-2.26-.29-3.2.31-.99.75-1.01,2.52-.21,3.42.49.46,1.16.62,1.77.85.43.18.85.43,1.32.51.9.14,1.75-.44,2.34-1.07.08-.08.44-.4.35-.37-.62.27-1.25.61-1.94.62-.88-.05-1.63-1.06-2.49-1.41h0Z"/>
  <path class="cls-1" d="M136.08,177.47c-1.16.76-2.7.71-3.96.26-.4-.25-.77-.99-1.02-1.48-.08-.24-.13-.47-.16-.67.33-.12.66-.24.93-.27,2-.16,4.25-.12,5.84,1.28-1.35-2.47-4.9-3.47-7.5-2.72-1.73.25-1.32,1.44-.92,2.69.43,1.03,1.21,2.08,2.28,2.49,1.28.26,2.76,0,3.84-.75.23-.13,1.2-1.2.68-.82h0Z"/>
  <path class="cls-1" d="M140.54,167.8c-.46-.12-1.11-.35-1.4-.46-.03-.02-.04-.03-.06-.04-.34-.57-.85-1.44-.97-1.8-.15-.46-.16-.37-.1-.64.05-.22.31-.72.43-.86.03,0,.06,0,.08-.02,1.85.16,4.52.53,6.39,1.66-1.13-1.49-2.82-2.37-4.54-3.01-.93-.38-2.04-.83-3-.32-.85.56-1.43,1.56-1.56,2.56-.09.78.3,1.5.65,2.17.68,1.04,1.31,2.15,2.75,2.18,1.7.54,3.6-.79,4.86-2.03.29-.31.53-.67.71-1.05-.74.71-1.73,1.06-2.69,1.35-.48.14-1.1.38-1.56.32h0Z"/>
  <path class="cls-1" d="M106.94,219.56c-.06.02-.69-.13-.65-.13,0,0-.02,0-.03-.02-.07-.25-.12-.86-.16-1.17-.02-.32-.04-.49.03-.68.19-.22.78-1.14,1.3-1.19,1.67-.21,3.69-.13,5.39.43-1.69-1.33-4.04-2.24-6.21-1.92-1.08.42-2.19,1.39-2.39,2.58,0,1.26.14,3.27,1.68,3.51,2.29.44,3.97-1.3,5.11-3.05-1.26.74-2.5,1.89-4.07,1.64h0Z"/>
  <path class="cls-1" d="M108.46,239.96c-.06-1.32.22-2.88-.73-3.95-1.14-.84-2.48-1.63-3.88-1.93-.48-.02-.89-.11-.15.17,1.13.66,2.03,1.75,2.9,2.68.22.83-.16,1.91-.23,2.86-.03.34-.03.74-.04,1.09-1.72-1.58-2.11-5-3.28-7.32.17,2.79-.22,5.81,1.31,8.32,2.22,3,4.76,1.72,4.1-1.92h0Z"/>
  <path class="cls-1" d="M100.53,255.3c-.24-1.56.13-3.41-.89-4.72-1.12-1.17-2.56-2.16-4.15-2.53.12.08.23.17.35.25,1.09.89,2.14,2.09,2.71,3.33.07,1.28-.16,2.73-.13,4.09,0,.15-.13.71-.25.76-.12.12-.13.13-.28.21h-.08c-.55-1.38-1.35-3.93-2.2-5.67.05,1.73.26,3.44.37,5.17.04.79.22,1.68.94,2.13,1.97,1.15,3.85-1.06,3.61-3.01h0Z"/>
  <path class="cls-1" d="M98.58,231.89c-.27-.18-.46-.52-.63-.9.38-.27.89-.66,1.36-.82,1.77-.81,3.64-1.4,5.6-1.49-2.42-.81-5.16-.64-7.48.43-1.16.56-2.14.9-1.39,2.37.48,1.41,1.9,2.54,3.43,2.13,1.97-.28,3.72-1.32,4.76-3.03.18-.28-.05,0-.18.04-1.48,1.17-3.91,1.7-5.46,1.26h-.01Z"/>
  <path class="cls-1" d="M222.72,85.39c-.92-1.26-2.21-2.21-3.69-2.67-.05-.12-.09-.24-.14-.35v.31c-.15-.04-.29-.09-.44-.12-.21-.08-.6.11-.71-.08,0,.06,0,.04.02.08.03.1.48.15.62.26.19.12.35.26.53.39,0,1.81-.15,3.69.5,5.39.68,1.13,2.48,1.53,3.44.53.74-1.05.66-2.73-.12-3.76v.02ZM221.46,87.91c-.24.07-.34.03-.68-.15-.51-.98-.92-2.7-1.43-4.19.89.78,1.6,1.74,2.12,2.79.21.49.11,1.01,0,1.56h-.01Z"/>
  <path class="cls-1" d="M220.86,73.78c-.8-.52-1.86-.92-2.61-.11-2.01,2.19-1.96,5.88-.46,8.33.19.25.8-.08.52-.01-.96-.46-.36-2.29-.31-3.19.08-1.19.7-2.66,1.31-3.33.05-.06.09-.11.12-.15.26.13.51.26.77.38.31.77-.33,4.93-1.56,6.68,1.98-1.35,5.34-7.1,2.21-8.59h0Z"/>
  <path class="cls-1" d="M213.47,88.27c-1.56.19-3.63,1.49-3.22,3.26.08.12.23.19.37.19,1.07.08,2.21-.08,3.07-.76.18-.16-.04-.01-.14,0-.76.18-1.53.12-2.28-.04.49-.97,1.62-1.53,2.61-1.87.79-.25,1.51.21,2.2.54-.64-.81-1.53-1.51-2.62-1.31h0Z"/>
  <path class="cls-1" d="M217.99,98.86c-.18-.52-.69-.81-1.15-1.06-.63-.37-1.2-.85-1.91-1.08-.05-.02-.12-.04-.2-.05,0-.35,0-.69-.03-1.04-.11.33-.21.66-.32.99-.16-.01-.23,0-.03.09-.47,1.42-.92,2.84-1.3,4.28-.3,1.03-.72,2.11-.48,3.2.78,2.97,3.16,2.67,4.79.55,1.02-1.61,1-4.04.64-5.87h0ZM215.91,102.84c-.13.29-.29.55-.64.84,0,0-.03.02-.05.04-.03.03-.23.15-.39.24-.18-.28-.28-.53-.27-.68.11-2.1.23-4.2.19-6.31.78.58,1.31,1.47,1.98,2.15-.05,1.22-.51,2.69-.81,3.72h0Z"/>
  <path class="cls-1" d="M210.75,112.98c-.38-1.49-2.03-2.01-3.24-2.65.38.5.9.89,1.3,1.38,1.28,1.28.57,2.71.12,4.27-.05-.05-.1-.11-.15-.17-.96-1.44-1.27-3.5-1.53-5.28-.51,2.17-.87,4.88.68,6.71.38.4.93.48,1.45.51.04.04.61.02.77-.22.67-1.34.8-3.05.59-4.54h.01Z"/>
  <path class="cls-1" d="M197.55,119.81c-.24-.21-.41-1.09-.64-1.62-.18-.62.56-2.08.55-2.88,1.84-.32,3.75-.75,5.61-.38-1.54-1-3.51-1.22-5.31-1.23-.67-.03-1.45-.02-1.81.66-.35,1.02-.95,2.53-.99,3.56.21,1.03.81,2.46,1.69,3.08,1,.48,2.23.36,3.21-.12.74-.43,1.37-1.04,2-1.62-.44.18-.89.36-1.34.52-.91.44-2.15.47-2.96.02h-.01Z"/>
  <path class="cls-1" d="M204.85,125.14c-.52-1.31-2.27-2.42-3.18-3,.64,1.11,1.73,2.12,1.93,3.41-.16,1.02-.56,1.99-.73,3.01-.03.12-.07.24-.11.36h0s-.03.05-.04.07h-.2c-.19-.02-.69-.6-.93-1.11-.41-1.48-.41-3.06-.62-4.58-.39,1.8-1.21,3.82-.53,5.63.74,2.35,3.91,2.66,4.22-.1.07-1.26.5-2.4.19-3.7h0Z"/>
  <path class="cls-1" d="M195.96,135.89c-.44-.45-.86-1.21-1.56-1.2.11.05.24.08.32.19.7,1.28,1.3,2.74,1.5,4.19-.16.81-.54,1.54-.91,2.31-.37-.2-.65-.7-.9-1.17-.67-1.53-.59-3.09-.89-4.56-.42,2-1.08,4.2-.05,6.12.35.84,1.63,1.78,2.54,1.65.59-.16.71-.82.96-1.3.39-.92.74-1.89.75-2.9-.08-1.3-1.05-2.31-1.76-3.33h0Z"/>
  <path class="cls-1" d="M194.33,132.88c-.75.26-1.52.57-2.34.5-1.01-.26-2.11-.83-2.86-1.38-.11-.04-.1-.83-.07-1.39,0-.17-.02-.34-.03-.51,1.56-.27,3.76.06,4.74,1.59-.56-2.38-3.37-3.42-5.6-3.08-.8.22-.91,1.13-.85,1.84-.04.71-.1,1.45.19,2.11.42.97,1.57,1.25,2.5,1.51,1.39.52,2.94.27,4.01-.79.16-.18.83-.61.32-.39h0Z"/>
  <path class="cls-1" d="M190.17,149.01c-.28-.74-.44-1.56-.99-2.16-.99-.91-2.49-.69-3.73-.65-.28.05-.67-.13-.49,0,.93.51,2.08.56,2.98,1.18.25.14.3.39.37.66.1.92.47,2.02.24,2.83-.12.26-.72,1.16-.95,1.47-.06.07-.11.13-.16.19-1.26-1.17-1.05-3.56-1.12-5.25-.76,1.98-1.55,4.37-.21,6.28.42.57,1.12,1.36,1.89,1.05.94-.66,1.68-1.69,2.22-2.7.47-.91.28-1.97-.05-2.89h0Z"/>
  <path class="cls-1" d="M183.76,147.5c.09-1.52-.82-2.78-2.12-3.49-1.5-.9-3.39-1.45-5.1-.93-.36.2-.54.65-.42,1.04.16,1.2.47,2.47,1.3,3.39.7.72,1.74.38,2.56.1.96-.35,2.05-.68,2.68-1.52.04-.05.07-.08.09-.11.46.38.84.86,1.02,1.51h0ZM182.38,146.15c-1.13.47-2.69.48-3.8.43-.23-.28-.41-1.09-.54-1.87.36-.05.78-.09,1.18,0,1.13.16,2.51.47,3.48,1.25-.09.06-.23.16-.32.19h0Z"/>
  <path class="cls-1" d="M178.32,158.44c-1.18.62-2.34,1.55-3.52,2.04-.43-.05-1.09-.43-1.42-.66-.16-.13-.32-.32-.48-.51.14-.17.31-.37.52-.56,1.57-1.08,3.57-2.1,5.46-1.24-1.46-1.51-3.75-1.25-5.55-.54-.92.3-1.61.98-2.27,1.66-.17.17-.27.4-.27.64.48,1.61,2.37,2.71,4.02,2.64.88-.12,1.46-.89,2.02-1.5.61-.69,1.33-1.36,1.76-2.16-.07-.23-.02.11-.27.19Z"/>
  <path class="cls-1" d="M184.04,161.51c-.63-1.25-1.38-2.58-2.8-3.02-.37-.19-2.36-.81-1.97-.52,1.5.91,2.7,1.95,3.04,3.74.13.55.44,1.2.44,1.56v.02c-.3.66-1.25,1.5-2.17,2.15-1.1-1.7-1.57-3.71-2.18-5.62-.23,2.53-.18,5.18,1.09,7.46.13.22.34.38.58.44.37.1.7-.05,1.01-.25,1.2-.57,2.3-1.37,3.06-2.48.88-1.11.64-2.39-.1-3.5v.02Z"/>
  <path class="cls-1" d="M176.91,177.55c-.34-1.5-.12-3.38-1.31-4.53-.63-.42-1.43-.76-2.24-.99-.02-.27-.05-.54-.07-.8-.07.24-.14.49-.2.73-.47-.11-.93-.2-1.37-.2-.17.03-.33.14-.49,0,.02.06.06.12.11.15.58.08,1.09.35,1.58.69-.58,2.27-.95,4.62-.45,6.93.13,1.12.55,1.68,1.75,1.56,1.9-.03,3-1.74,2.68-3.53h.01ZM174.75,178.16c-.03.15-.07.31-.12.45,0,0-.02.02-.03.04h0c-.06.04-.12.07-.19.1-.11-.31-.21-.63-.28-.96-.39-1.58-.54-3.2-.68-4.82.33.26.66.53.98.78.31.27.33.56.35.93-.04,1,0,2.91-.03,3.48h0Z"/>
  <path class="cls-1" d="M168.28,186.49c-.52-.9-1.94-2.05-2.62-2.2.72.81,1.42,1.75,1.64,2.82.02,1.21-.37,2.38-.73,3.54-1.33-1.7-1.52-4.7-1.89-7.09-.56,2.4-1.06,4.97-.13,7.34.29.74.76,1.52,1.56,1.77.36.07.92.22,1.25.17.38-.02.71-.34.81-.7.2-.94.44-1.89.49-2.85.03-.94.07-1.94-.39-2.79h0Z"/>
  <path class="cls-1" d="M165.23,178.94c-.67-.03-1.39.06-2-.28-.93-.62-1.97-1.27-2.67-1.89h0c.2-.61,1.29-1.03,2.21-1.14,1.42.11,2.91.47,4.01,1.43-.54-1.12-1.54-1.79-2.62-2.33-1.09-.69-2.5-.64-3.68-.21-1.96.71-2.66,3.13-.52,4.15,1.18.56,2.34,1.41,3.69,1.41,1.23-.11,2.42-.56,3.52-1.09.12-.06.2-.15.26-.26-.66.31-1.48.17-2.2.22h0Z"/>
  <path class="cls-1" d="M158.42,194.7c-.79.43-1.66,1.02-2.59.73-1.4-.32-2.61-.99-3.16-2.34-.09-.22-.15-.43-.21-.61,1.85-.67,3.96-.81,5.71.15-1.72-2.03-5-2.44-7.34-1.34-.79.61.04,2.22.4,2.94.74,1.26,2.03,2.09,3.5,2.17,1.11.2,2.27,0,3.05-.88.15-.16.93-1.01.65-.83h0Z"/>
  <path class="cls-1" d="M161.87,200.32c-.26-.73-.43-1.53-.95-2.14-.69-.77-1.85-.81-2.82-.91-.27-.05-.62,0-.82-.2.59.83,2.76.86,2.82,2.35.06,1.1.37,2.66.33,3.41-.19.79-.7,1.6-1.23,2.42-.71-2.04-1.09-4.6-1.5-6.81-.52,2.94-1.08,6.21.08,9.06.5.86,1.76,1.51,2.41.44,1.03-1.41,2.16-2.94,2.34-4.72.04-1.01-.34-1.96-.68-2.89h.02Z"/>
  <path class="cls-1" d="M156.13,213.35c-.57-1.72-2.84-1.64-4.32-1.99-.53-.06-1.07,0-1.57.19-.07-.26-.14-.52-.2-.78-.39,2.1-.43,11.95,3.05,11,1.21-.47,2.4-1.38,2.8-2.65.37-1.16.24-2.4.29-3.6.05-.72.14-1.46-.05-2.16h0ZM154.17,214.95c-.28,1.03-.4,2.89-.68,3.41,0,.13-.32.41-.61.64-1.1-2.23-1.96-4.87-2.64-7.44,1.47.04,2.65,1.07,3.9,1.72.54.28.23.77.03,1.67Z"/>
  <path class="cls-1" d="M147.63,205.18c1.25.42,2.63.9,3.33,2.1-.17-.96-.7-1.75-1.48-2.31-.68-.61-1.43-1.23-2.39-1.24-2.1-.17-4.74,1.37-4.6,3.69.47,1.39,2.06,2.1,3.32,2.63,1.32.34,2.66-.3,3.83-.85.14-.08.28-.18.41-.29-1.07.26-2.24.28-3.32.12-.93-.31-1.59-1.13-2.29-1.78-.04-.05-.05-.07-.08-.11.04-.09.12-.29.22-.41.56-.96,1.84-1.57,3.05-1.55h0Z"/>
  <path class="cls-1" d="M145.9,225.16c-.51-1.03-1.85-1.17-2.86-1.34-.04,0-.15-.02-.28-.04-.09-.69-.15-1.38-.16-2.08-.76,2.23-1.1,4.6-.59,6.93.11.99.31,2.28,1.44,2.58,1.15.28,2.33-.53,2.73-1.6.41-1.42.13-3.06-.27-4.45h0ZM144.62,228.07c.02.08-.16.78-.16.73-.1.2-.26.33-.42.41,0-.03-.02-.05-.03-.1-.56-1.65-.97-3.33-1.21-5.04.7.35,1.41.72,1.92,1.3.21.85-.11,1.81-.1,2.7h0Z"/>
  <path class="cls-1" d="M139.12,222.77c-.29.18-.56.8-.93.5-1.17-.56-2.83-1.51-3.48-2.14-.02-.03-.03-.05-.04-.07v-.09h0c.15-.52.25-1.27.38-1.66.05,0,.09,0,.11,0,2.47-.08,4.82.98,6.96,2.18-1.5-1.89-3.49-3.43-5.89-3.96-.96-.2-2.24-.32-2.83.64-.35.51-.41,1.35-.46,1.68-.12.65-.26,1.37.08,1.98,1.02,1.38,2.98,1.71,4.58,2.05.44.07,1.01.26,1.27-.24.17-.36.91-1.59.25-.85h0Z"/>
  <path class="cls-1" d="M134.91,235.66c-.2-.24-.41-.47-.63-.68.07-.43.13-.87.21-1.3-.2.3-.38.64-.56.98-1.07-.88-2.38-1.39-3.8-1.46-1.57-.17-3.56.18-4.54,1.51-.11.22-.12.48-.06.71.41,1.16.88,2.3,1.73,3.21.5.53,1.12,1.06,1.88,1.1.57,0,1.12-.21,1.61-.49,1.1-.79,2.53-1.41,3.11-2.71.18-.4.29-.82.37-1.24.24.11.47.23.69.37h-.01ZM132.17,236.66c-.95.34-2,.93-2.78,1.01-.5-.39-.99-1.28-1.42-2.17.16-.11.34-.23.56-.36,1.48-.54,3.47-.65,5.17-.06-.37.66-.81,1.27-1.52,1.57h0Z"/>
  <path class="cls-1" d="M140.38,237.9c-.76-1.25-1.98-2.39-3.29-3.04-.08-.04-.37,0-.45.02-.04-.13-.06-.26-.1-.39-.06,2.96-1.53,6.13-.3,8.97.52.94,1.39,1.93,2.55,1.92,1.14-.12,2.18-1.05,2.51-2.14.25-1.79-.35-3.67-.92-5.35h0ZM139.17,242.35c-.02.09-.04.18-.06.26h0s-.02.05-.03.06c-.1.11-.26.22-.37.3-.23-.18-.5-.49-.55-.57-.32-.46-.36-.67-.5-1.26-.29-1.94-.43-4.19-1-6.24h.03c1.1.4,1.56,2.08,2.19,3.02.39,1.41.25,2.96.31,4.41q0,.14,0,0l-.02.02Z"/>
  <path class="cls-1" d="M220.4,200.42c.04.26,0,.53,0,.79-.08,2.13-1.22,4.18-1.97,5.96-.1.19-.42.37-.84.47-.43-2.33,1.09-5.09.84-7.57-.88,2.73-3.37,5.3-2.72,8.4.38,1.9,2.79,1.37,3.86.38.97-.97.93-2.48,1.27-3.73.34-1.56.22-3.24-.43-4.7h-.01Z"/>
  <path class="cls-1" d="M213.53,203.33c1.44-2.42,2.29-5.17,2.36-8,0-.91-.95-1.05-1.66-1.07-1.47-.15-3.06.77-3.5,2.21-.56,1.62-.74,3.34-.77,5.04-.02.45,0,1.05.55,1.15.45.14.93.21,1.4.06-.03,0-.06,0-.09,0-.43-.05-.86-.27-1.17-.57,0-.24.13-.47.19-.7.53-1.52,1.21-3.74,1.97-4.69.35-.26.7-.37,1.13-.41.04.36.09.8.06,1.2,0,1.94-.16,3.87-.46,5.78h0Z"/>
  <path class="cls-1" d="M205.48,209.82c-.12-.05-.24-.08-.36-.12.09-.19.17-.38.27-.56-.19.15-.36.32-.53.49-.52-.1-1.06-.06-1.58,0,.4.06.81.2,1.2.4-1.32,1.48-2.11,3.4-2.29,5.38,0,3.22,1.24,4.75,3.77,1.86,1.09-1.13,1.18-2.74,1.46-4.2.32-1.39-.66-2.76-1.93-3.26h-.01ZM205.71,213.03c-.36.81-.64,1.97-1.02,2.41-.17.21-.34.38-.51.54-.41-1.73-.06-3.87.67-5.69.9.64,1.48,1.66.85,2.75h0Z"/>
  <path class="cls-1" d="M194.2,219.85c-.25-1.11-1.11-2.02-2.03-2.65.36-.68.73-1.36,1.13-2.01-.72.51-1.35,1.1-1.95,1.73-.51-.11-1.06-.18-1.16-.06-.03-.11.07-.53-.03-.32-.04.11-.12.23-.12.35.28.17.59.31.89.46-.77.87-1.47,1.8-2.14,2.74-.4.64-.89,1.3-.95,2.07.04.75.18,1.55.5,2.22.58.9,1.78.84,2.72.67,1.33-.22,2.51-1.13,2.69-2.52.14-.9.61-1.77.45-2.69h0ZM192.27,220.82c-.33.63-.43,1.15-.72,1.63t0,.02c-.11.09-.41.21-.88.31h-.05s-.08,0-.12,0c-.05.02-.16.02-.28.02-.07-.22-.15-.43-.21-.64.51-1.41,1.11-2.82,1.79-4.21.07.12.14.24.21.36.31.47.55.97.62,1.52.02.36-.18.61-.35.97h0Z"/>
  <path class="cls-1" d="M199.92,202.28c-.22-.7-.79-1.59-1.74-1.08-1.4.69-2.65,1.92-2.86,3.53-.06,1.91-.37,4.52,1.43,5.74.39.16.82-.11,1.13-.35-.88.43-1.35-.47-1.38-1.24.03-1.28.36-2.85.65-3.95.29-.64.68-1.02,1.16-1.36.15.25.3.55.37.87.49,2.04.93,4.3.18,6.32,1.07-1.13,1.44-2.69,1.6-4.19.18-1.45.12-2.97-.56-4.29h.02Z"/>
  <path class="cls-1" d="M184.74,211.15c-1.38-.24-3.55-.03-4.14,1.45-.35.96-.98,1.93-.97,3.08.13,1.06.62,2.03,1.01,3.01.06.16.16.31.33.37.32.07.7.07,1.01-.08-1.17.15-.9-1.13-.99-1.91-.11-.84-.05-1.65.51-2.33.32-.44.64-1.04.9-1.35.11-.02.38-.1.52-.09.52-.09.86-.12,1.27-.06-.03.44-.07.87-.13,1.25-.37,2.02-.88,4.04-1.92,5.82,2.13-1.72,3.51-4.28,4.04-6.95.45-1.44-.04-1.9-1.43-2.21h0Z"/>
  <path class="cls-1" d="M178.91,224.2c.21-.76.44-1.51.66-2.27-.47.59-.92,1.2-1.33,1.83-.17-.08-.36-.14-.56-.1.03,0,.05,0,.08.02.15.05.26.14.37.25-.93,1.45-1.66,3.03-1.92,4.76-.24,1.2-.26,2.62,1.04,3.19,1.31.84,2.77,1.04,3.55-.57,1.98-4.36,1.83-4.39-1.89-7.1h0ZM179.52,229.19c-.21.33-.39.68-.6,1.01-.25-.11-.52-.25-.7-.35-.05-.73-.05-1.46.02-2.18.07-.99.27-1.95.52-2.91.59.85,1.26,1.78,1.73,2.59,0,.02,0,.04,0,.05-.35.58-.61,1.21-.97,1.78h0Z"/>
  <path class="cls-1" d="M174.43,216.92c-.38-.94-1.61-.62-2.42-.61-.87.15-1.88.14-2.57.75-.49.44-.84,1.33-.98,1.68-.31.68-.72,1.33-.9,2.07-.18,1.6.12,3.47,1.14,4.75.15.22,1.31.93.79.46-1.01-1.09-.65-2.68-.53-4.02.09-.96,1.5-2.43,1.8-3.13.03-.04.06-.07.08-.09.6-.11,1.08-.2,1.58-.27-.02.24-.04.49-.07.73-.37,1.8-.88,4.1-2.32,5.49,2.46-1.06,4.83-5.15,4.4-7.81h0Z"/>
  <path class="cls-1" d="M169.09,232.53c-.02-.34-.12-.67-.35-.92-.58-.55-1.36-1.05-2.17-1.24.07-.18.14-.36.22-.52-.17.15-.32.31-.46.47-.17-.03-.33-.05-.5-.04-.82.06-.03.1.3.27-1.17,1.4-1.75,3.21-2.26,4.95-.5,1.28-.53,3.22,1.16,3.51,1.67.39,4.05-.27,4.07-2.3.09-1.39.1-2.78,0-4.17h-.01ZM167.39,234.57c-.19.68-.22,1.62-.43,2.11-.2.06-.41.13-.62.18-.27.08-.57.08-.79.05.07-1.63.17-4.17.86-6.17.52.4,1.01.87,1.37,1.42.05.77-.27,1.62-.39,2.4h0Z"/>
  <path class="cls-1" d="M155.03,225.66c-2.03.14-3.24,2.57-3.65,4.33-.1,2.06,1.38,3.82,2.15,5.64.25.4.71.2,1.05.05.29-.1,1.32-.27.58-.28-.36-.05-.72-.07-1.09-.06-.03-.89-.34-1.77-.45-2.66-.12-.87-.49-1.74-.24-2.39.29-.61,1.32-2,1.59-2.15.05-.03.07-.04.09-.05.02,0,.05,0,.1-.03h.15c.41-.06,1.11.15,1.07.13h0s0,.04.02.07c.16,2.07.47,5.22-.1,7.64,1.19-1.72,1.79-4.03,1.99-5.96.67-2.73-.16-4.32-3.28-4.27h0Z"/>
  <path class="cls-1" d="M157.45,240.87c-.21-.72-.86-1.17-1.47-1.55-.32-.18-.67-.41-1.04-.59.21-.42.43-.84.67-1.21-.41.31-.78.65-1.14,1.01-.3-.09-.6-.12-.91-.03.25.02.48.12.68.25-1.58,1.65-2.74,3.74-3.47,5.89-.22.57-.35,1.22-.03,1.78.13.26.64.66.74.73.21.33.43.66.77.88.61.36,1.37.22,1.97-.09,1.4-.86,3.11-2,3.35-3.75.06-1.1.05-2.24-.13-3.32h0ZM156.09,241.38c-.2.73-.36,2.07-.52,2.53-.25.5-1.62,1.37-2.23,1.72-.04-.05-.08-.09-.12-.15-.1-.08-.2-.16-.3-.23.32-1.77.93-4.1,1.82-6.07.24.25.45.52.66.75.33.42.84.86.69,1.45h0Z"/>
  <path class="cls-1" d="M148.19,236.86c-.27-1.47-1.04-3.32-2.86-2.77-1.27.32-3.07.99-3.03,2.55.2,1.36.49,2.8,1.07,4.05.63.98,1.82,1.35,2.91,1.52.09.02.42,0,.2-.04-.93-.47-2.07-1.19-2.19-2.32.02-.99-.14-2.36-.12-3.12.16-.09.5-.31.62-.35.08-.05.13-.06.3-.12.28-.08.71-.23.87-.26.29.41,1.11,2.18,1.23,3.22.17,1.12.05,2.27.04,3.4.82-1.81,1.43-3.78.95-5.77h.01Z"/>
  <path class="cls-1" d="M143.4,251.63c-.17-1.15-1.43-1.49-2.37-1.81-.71-.18-1.46-.33-2.18-.19,1.16.28,2.5,1.1,3.13,1.98-.15.94-.59,2.78-.8,3.51-.26.54-.69,1.01-1.18,1.46-.41-2.23-.67-4.48-.89-6.73-1.1,3.56-2.64,14.47,3.44,7.26,1.11-1.56.88-3.66.86-5.47h-.01Z"/>
</svg>