<?xml version="1.0" encoding="UTF-8"?>
<svg id="Layer_1" data-name="Layer 1" xmlns="http://www.w3.org/2000/svg" viewBox="0 0 288 250.44">
  <defs>
    <style>
      .cls-1 {
        fill: #f49d1e;
      }
    </style>
  </defs>
  <g>
    <path class="cls-1" d="M133.72,177.95c-.07-.2-.2-.37-.39-.48-.78-.47-1.53-1.01-2.2-1.61-1.31-1.16-2.37-2.56-3.22-4.24-.16-.32-.57-.44-.87-.25-1.19.77-2.37,1.53-3.57,2.29-23.37,14.65-47.63,28.3-73.64,37.63-20.45,7.48-56.33,14.59-41.06-19.93,1.85-4.17,4.1-8.18,6.54-12.07.18-.29.13-.68-.14-.92-.34-.29-.81-.21-1.07.15-7.33,8.96-17.12,21.87-13.22,34.45,12.84,30.07,84.63-3.35,105.02-14.11,9.65-5.06,19.5-10.64,29.39-16.68.31-.19.38-.6.16-.89-.76-1.03-1.34-2.13-1.74-3.33Z"/>
    <g>
      <path class="cls-1" d="M265.6,146.26c-1.74,10.16-4.8,20.05-9.15,29.37l-3.47,6.83s-.03.06-.05.09l-4.05,6.5c-25.8,39.59-76.16,58.03-121.35,44.06-13.7-4.06-25.94-10.74-36.42-19.32-.33-.27-.77-.33-1.16-.16-3.72,1.66-7.82,3.4-12.17,5.12-.78.31-.97,1.33-.34,1.89,29.59,26.24,71.99,37.66,113.87,24,23.07-7.76,42.32-21.88,56.47-41.6,1.79-2.61,3.74-5.98,5.49-8.64.01-.02.03-.04.04-.06.75-1.35,3.83-7.47,4.64-8.99.02-.03.03-.06.05-.1,1.29-3.11,2.49-6.21,3.67-9.34.01-.03.02-.06.03-.1.82-2.98,2.01-6.66,2.77-9.63,1.4-6.44,2.27-13.2,2.55-19.7.11-1.01-1.35-1.03-1.42-.22Z"/>
      <path class="cls-1" d="M71.68,195.29c.64-.3.84-1.11.42-1.68-22.26-30.64-28.54-72.43-11.43-109.02,16.84-37.75,56.51-63.61,97.93-63.47.35,0,.66-.26.7-.62.06-.44-.28-.78-.7-.81-63.85-7.74-119.74,46.1-120.73,109.57-.8,26.62,7.23,50.94,21.1,70.7.31.44.88.6,1.37.39,3.84-1.62,7.62-3.31,11.33-5.06Z"/>
    </g>
    <path class="cls-1" d="M275.36.81c-12.57-2.88-25.21,2.51-35.8,7.37-.35.13-.58.52-.46.89.12.38.52.59.89.47,4.39-1.37,8.83-2.56,13.33-3.43,38.03-7.32,29.61,19,14.6,40.5-15.76,22.69-35.69,42.18-56.16,60.63-5.78,5.1-11.65,10.11-17.59,15.02-.42.35-.21,1.04.34,1.09,1.33.11,3.25.35,4.63.84,2.44.85,4.55,2.55,6.08,4.9.12.19.25.38.36.58.04.06.07.13.11.19.24.42.81.53,1.18.21,27.35-23.69,51.76-50.19,69.19-77.94,5.6-9.95,11.29-20.48,11.89-32.41.62-8.31-4.29-16.88-12.58-18.9Z"/>
  </g>
  <path class="cls-1" d="M220.99,190.17c.12-1.67.35-3.42.05-5.07-.08-.41-.2-.81-.28-1.22-.09-.39-.12-.79-.17-1.19-.09-.82-.27-1.62-.47-2.42-.43-1.68-.75-3.39-1.36-5.02-.58-1.56-.95-3.12-1.14-4.77-.1-.83-.16-1.64-.41-2.45,0,0,0-.01,0-.02-.24-.79-.54-1.55-.69-2.36-.16-.84-.22-1.69-.38-2.53-.15-.81-.36-1.61-.61-2.39-.51-1.53-1.2-3-2-4.4-.78-1.39-1.65-2.79-2.67-4.04-1.06-1.3-2.41-2.2-3.94-2.86-1.59-.69-3.31-1.04-5.03-1.21-.87-.08-1.75-.09-2.62-.22-.76-.12-1.47-.53-2.12-.92-1.04-.62-1.8-1.78-2.44-2.77-.68-1.04-1.28-2.13-1.88-3.22.94-.82,2.13-1.33,3.15-2.05.69-.5,1.42-.91,2.18-1.31.06-.03.11-.06.17-.09.39-.21.78-.42,1.18-.61.15-.08.3-.14.45-.21.02,0,.04-.01.07-.02s.04-.01.05-.01c.33,0,.78.2,1.16.31.43.13.9.26,1.36.21.35-.03.62-.25.29-.55-.56-.51-1.16-1.01-1.66-1.57,0,0-.01-.01-.01-.01,0,0,0-.01-.01-.02-.02-.02-.04-.05-.05-.07-.04-.07-.03-.04-.06-.1-.09-.19-.17-.38-.25-.57-.23-.52-.47-1.03-.76-1.52-.06-.1-.12-.19-.18-.29-.69-1.07-1.66-1.96-2.88-2.39-2.42-.86-5.03-.48-7.53-.49-.85,0-1.7-.05-2.53-.19-.85-.14-1.57-.56-2.31-.99-.77-.43-1.47-.86-2.11-1.49-.52-.52-1.09-1.12-1.36-1.81-.25-.65-.33-1.36-.54-2.02-.27-.85-.51-1.67-.66-2.55-.31-1.76-.5-3.53-.71-5.3-.2-1.75-.41-3.5-.74-5.23-.16-.83-.35-1.63-.68-2.42-.31-.76-.61-1.52-.87-2.3-.25-.74-.62-1.35-1.09-1.97-.26-.35-.54-.7-.87-.99-.33-.28-.72-.48-1.09-.72-.77-.52-1.46-1.16-2.16-1.77-.7-.62-1.4-1.24-2.1-1.87-.5-.45-1-.9-1.5-1.35-.91-.81-1.82-1.63-2.74-2.43-1.38-1.21-2.85-2.22-4.46-3.11-1.58-.87-3.15-1.78-4.92-2.21-1.65-.4-3.1-1.14-4.59-1.92-.78-.41-1.44-.98-2.19-1.43-.73-.43-1.54-.75-2.34-1.03-1.75-.63-3.55-1.08-5.25-1.82-.71-.31-1.45-.57-2.17-.87-.65-.26-1.62-.55-2.26-.11-.4.27-.12.71.25,1.15-.19-.06-.38-.1-.58-.13-.83-.15-1.66-.24-2.48-.44-.8-.19-1.59-.41-2.39-.61-.62-.15-1.25-.25-1.88-.4-.71-.18-2.46-.6-2.63.54-.16,1.05,1.43,1.52,2.17,1.77.83.27,1.75.56,2.51,1.04-.52-.09-1.04-.13-1.56-.19-.94-.11-1.84-.31-2.73-.63-.81-.3-3.16-.92-3.07.65.04.74.89,1.16,1.48,1.42.62.27,1.23.39,1.89.5.24.04.63.11.81.19.08.04.05,0,.08.05.06.14.04.25-.02.39-.12.33-.36.59-.45.93-.08.29-.11.64-.02.93.17.58.75.9,1.25,1.16.38.21.75.44,1.13.64.25.13.5.23.77.31.08.02.2.02.28.06-.12.29-.37.55-.27.88.17.59.85.99,1.35,1.23.69.34,1.38.69,2.06,1.07.06.03.12.07.19.11.28.16.56.32.88.42.1.03.21.06.32.08.01.18-.06.41-.08.56-.07.37-.07.7.11,1.05.23.43.62.76,1.02,1.04.4.27.81.45,1.26.63.41.17.5.35.51.8.02.45.07.85.37,1.21.35.43.83.68,1.33.91.35.17.8.31,1.07.61.16.18.05.43,0,.67-.09.42-.1.84.12,1.23.23.42.63.71,1.05.91.42.2.87.3,1.3.45.37.13.61.3.71.7.11.43,0,.83.27,1.22.33.46.9.67,1.43.78.74.15,1.65.56,2.17,1.13.31.34.39.8.51,1.23.14.5.28,1,.52,1.46.14.27.33.52.51.77.12.16.23.32.32.5.26.48.22,1.01.31,1.54.09.52.4.88.72,1.27.33.38.52.79.61,1.29.17.92.02,1.91.69,2.67.12.14.24.25.31.42.09.24.12.53.16.78.09.51.16,1.02.3,1.52.14.52.37.99.63,1.46.27.51.25.96.17,1.51-.15,1,.27,1.84.75,2.69.34.6.67,1.21.96,1.84.11.4.23.8.36,1.2.44,1.31.77,2.68.89,4.05.07.7-.09,1.41-.06,2.12.03.63.28,1.23.57,1.79.27.55.61,1.04,1.04,1.47.09.08.19.16.29.23t0,0c.31.22.67.41.92.7.3.36-.14.82-.38,1.07-.44.46-.95.85-1.46,1.22-1.06.75-2.06,1.57-3.08,2.37-1.01.79-2.05,1.55-3.17,2.19-1.22.69-2.53,1.18-3.82,1.7-1.37.56-2.73,1.12-4.1,1.67-.04.01-.08.03-.12.05-.6.24-1.22.43-1.82.69-.57.25-1,.68-1.54.97-.63.32-1.3.55-1.95.81-.68.26-1.36.54-2.04.8-1.31.48-2.65.89-4,1.24-.69.18-1.4.33-2.08.52-.64.18-1.25.46-1.9.6-.62.14-1.22.22-1.77.55-.45.26-.89.57-1.25.96-.32.34-.6.78-.63,1.26-.04.55.24,1.03.58,1.44.38.47.85.86,1.34,1.23.47.36.9.75,1.35,1.13.24.21.5.4.77.58.24.16.5.3.76.43.28.14.57.26.87.37.23.08.49.13.69.27.35.25.54.68.69,1.06.21.52.39,1.05.61,1.57.49,1.17,1.13,2.21,2.09,3.06.49.43,1.03.8,1.61,1.11.56.31,1.12.69,1.72.92.15.06.47.11.58.22.1.1.11.43.12.57.02.25.05.49.08.73.05.35.11.69.22,1.04.36,1.24,1.05,2.17,2.01,3.01.45.39.91.76,1.34,1.17.42.41.66.8.77,1.39.1.55.11,1.12.3,1.66.19.51.52.92.94,1.25.87.69,2.23,1.3,3.33.87.85-.33,1.29-1.43,1.64-2.19.56-1.21,1.1-2.44,1.7-3.63.6-1.2,1.2-2.42,2.04-3.47.88-1.1,1.9-2.09,2.77-3.2.29-.37.61-.72.92-1.08.53-.6,1.07-1.2,1.5-1.88.34-.54.59-1.13.95-1.66.37-.56.8-1.08,1.24-1.6.42-.5.85-.99,1.31-1.44.45-.45.92-.88,1.33-1.37.42-.5.77-1.05,1.22-1.53.44-.48.92-.93,1.39-1.38.84-.81,1.47-1.85,2.6-2.3.53-.21,1.11-.32,1.68-.33.44,0,.72.11,1.04.42.16.14.3.31.43.48.51.35,1.08.62,1.65.86.36.16.74.31,1.09.5.35.19.64.44.96.66.38.26.79.46,1.2.68.41.21.75.51,1.15.76.33.2.72.32.99.6.28.3.51.61.85.84.31.22.63.39.87.69.21.26.41.52.66.76.23.23.48.42.77.55.3.15.63.23.91.42.65.44,1.2.89,2.03.85.26-.01.51-.11.77-.11.21,0,.4.12.58.23.35.2.69.42,1.03.62.3.18.55.43.82.66.33.28.68.52,1.08.68.2.07.39.12.6.15.02,0,.24.06.23.03.12.09.21.31.29.43.09.13.18.26.3.37.29.29.68.46,1.07.57.52.15,1.25.03,1.65.44.28.28.51.56.86.76.35.2.75.31,1.14.41.52.13.76.23,1.05.71.54.88.64,1.95,1.17,2.83.14.24.32.46.53.65.18.16.38.27.5.49.24.43.17.99.22,1.45.08.68.37,1.31.99,1.63.39.2.79.25,1.2.23.16.84.37,1.66.56,2.49.09.4.23.8.55,1.08.19.17.43.29.66.36.13.43.1,1.03.1,1.47,0,.7-.04,1.45.13,2.14.19.77.75,1.27,1.52,1.47.42.11.76.1,1.03-.14.24.96.39,1.94.73,2.87.02.07.05.13.07.2.22.56.46,1.24.91,1.66.41.38.92.51,1.45.56,0,.53-.24,1.1-.24,1.61,0,.93-.08,1.87.04,2.8.07.56.19,1.24.66,1.6.38.29,1,.43,1.46.32.09-.02.16-.06.23-.1.11.44.16.91.19,1.36.07.92,0,1.84.14,2.75.08.59.14,1.27.64,1.69.38.32.85.42,1.32.39.15.82.03,1.69.1,2.51.07.88.13,2.08,1.08,2.46.3.12.72.18.99-.04.36-.29.47-.8.53-1.27,0,.02,0,.04.02.05.28.62,1,.99,1.67.96.57-.03.8-.4.87-.92.23-1.63.35-3.27.56-4.9.23-1.75.25-3.51.35-5.28.1-1.76.37-3.48.7-5.2.17-.87.33-1.74.43-2.62.1-.81.13-1.64.19-2.45ZM136.72,94.14s-.03,0-.06-.01c.03,0,.06,0,.06.01ZM210.65,200.07s.05.04.04.07l-.04-.07ZM217.15,210.74h0c-.02.14-.01.03,0,0ZM217.77,210.79s.01,0,.02,0t0,0s-.01,0-.02-.01Z"/>
</svg>