<?xml version="1.0" encoding="UTF-8"?>
<svg id="Layer_1" data-name="Layer 1" xmlns="http://www.w3.org/2000/svg" xmlns:xlink="http://www.w3.org/1999/xlink" viewBox="0 0 288 66.9">
  <defs>
    <clipPath id="clippath">
      <path d="M78.67,54.36h3.97v1.14h-5.13v-9.06h1.16v7.93ZM87.2,46.33l4.42,9.17h-1.25l-1.12-2.37h-4.09l-1.12,2.37h-1.25l4.42-9.17ZM88.73,52.05l-1.53-3.24-1.53,3.24h3.06ZM99.2,52.88l-6.46-6.55v9.17h1.16v-6.45l6.46,6.55v-9.17h-1.16v6.45ZM108.94,47.72c.91.86,1.37,1.94,1.37,3.24s-.46,2.38-1.37,3.24c-.92.86-2.07,1.29-3.47,1.29h-2.69v-9.06h2.69c1.4,0,2.55.43,3.47,1.29ZM109.13,50.96c0-1-.34-1.83-1.01-2.48-.67-.65-1.55-.97-2.64-.97h-1.53v6.89h1.53c1.09,0,1.97-.32,2.64-.97.67-.65,1.01-1.47,1.01-2.48ZM114.92,50.52l-.83-.36c-.48-.21-.82-.44-1.03-.68-.21-.24-.31-.52-.31-.86,0-.37.14-.65.42-.87s.62-.32,1.02-.32c.69,0,1.28.29,1.76.87l.82-.82c-.63-.77-1.48-1.16-2.54-1.16-.7,0-1.31.21-1.84.64s-.8.97-.8,1.63c0,1.14.66,2,1.98,2.57l.83.36c.51.22.89.46,1.12.71.24.25.36.58.36.98s-.15.71-.45.94c-.3.23-.72.34-1.26.34-.81,0-1.49-.35-2.06-1.06l-.88.77c.29.41.7.74,1.22,1.01.52.26,1.1.4,1.73.4.88,0,1.57-.23,2.09-.7s.78-1.07.78-1.82c0-.6-.18-1.1-.56-1.5-.37-.4-.9-.76-1.58-1.07ZM122.79,47.44c1.21,0,2.14.45,2.8,1.34l.83-.73c-.36-.5-.86-.92-1.51-1.24s-1.35-.49-2.12-.49c-1.3,0-2.4.44-3.29,1.33-.89.89-1.34,1.99-1.34,3.3s.45,2.41,1.34,3.3c.89.89,1.99,1.33,3.29,1.33.77,0,1.47-.16,2.12-.49s1.15-.74,1.51-1.24l-.83-.73c-.66.89-1.59,1.34-2.8,1.34-.99,0-1.81-.34-2.46-1.01-.66-.68-.98-1.51-.98-2.51s.33-1.83.98-2.51c.65-.68,1.48-1.01,2.46-1.01ZM131.11,46.33l4.42,9.17h-1.25l-1.12-2.37h-4.08l-1.12,2.37h-1.25l4.42-9.17ZM132.64,52.05l-1.53-3.24-1.53,3.24h3.06ZM142.36,49.2c0,.84-.29,1.52-.86,2.02-.57.5-1.33.75-2.29.75h-1.4v3.52h-1.16v-9.06h2.57c.95,0,1.71.25,2.29.75.57.5.86,1.17.86,2.02ZM141.17,49.2c0-.54-.17-.96-.51-1.26-.34-.29-.83-.44-1.48-.44h-1.37v3.4h1.37c.65,0,1.14-.15,1.48-.44.34-.29.51-.71.51-1.26ZM143.98,55.49h1.16v-9.06h-1.16v9.06ZM154.02,52.88l-6.46-6.55v9.17h1.16v-6.45l6.46,6.55v-9.17h-1.16v6.45ZM161.15,51.42h2.78v2.39c-.58.45-1.35.68-2.31.68s-1.81-.34-2.46-1.01c-.66-.68-.98-1.51-.98-2.51s.33-1.83.98-2.51c.66-.68,1.48-1.01,2.46-1.01,1.06,0,1.92.37,2.59,1.1l.83-.74c-.37-.43-.86-.79-1.47-1.06s-1.26-.41-1.95-.41c-1.3,0-2.4.44-3.29,1.33-.89.89-1.34,1.99-1.34,3.3s.45,2.41,1.34,3.3c.89.89,1.99,1.33,3.29,1.33.75,0,1.44-.12,2.08-.37.64-.25,1.1-.54,1.39-.88v-4.05h-3.45l-.5,1.12ZM172.94,46.33l4.42,9.17h-1.25l-1.12-2.37h-4.09l-1.12,2.37h-1.25l4.42-9.17ZM174.47,52.05l-1.53-3.24-1.53,3.24h3.06ZM184.94,52.88l-6.46-6.55v9.17h1.16v-6.45l6.46,6.55v-9.17h-1.16v6.45ZM194.69,47.72c.91.86,1.37,1.94,1.37,3.24s-.46,2.38-1.37,3.24c-.92.86-2.07,1.29-3.47,1.29h-2.69v-9.06h2.69c1.4,0,2.55.43,3.47,1.29ZM194.87,50.96c0-1-.34-1.83-1.01-2.48-.67-.65-1.55-.97-2.64-.97h-1.53v6.89h1.53c1.09,0,1.97-.32,2.64-.97.67-.65,1.01-1.47,1.01-2.48ZM204.5,51.46l3.14,4.03h-1.4l-3.03-3.96h-1v3.96h-1.16v-9.06h2.69c.89,0,1.59.23,2.12.7.53.46.79,1.08.79,1.86,0,.59-.17,1.11-.52,1.57s-.89.76-1.63.91ZM203.67,50.5c.59,0,1.03-.13,1.33-.39.3-.26.45-.63.45-1.1s-.15-.86-.45-1.12c-.3-.26-.75-.39-1.33-.39h-1.46v3h1.46ZM208.95,55.49h5.23v-1.12h-4.07v-2.95h3.31v-1.12h-3.31v-2.74h4.07v-1.12h-5.23v9.06ZM218.92,50.52l-.83-.36c-.48-.21-.82-.44-1.03-.68-.21-.24-.31-.52-.31-.86,0-.37.14-.65.42-.87s.62-.32,1.02-.32c.69,0,1.28.29,1.76.87l.82-.82c-.63-.77-1.48-1.16-2.54-1.16-.7,0-1.31.21-1.84.64s-.8.97-.8,1.63c0,1.14.66,2,1.98,2.57l.83.36c.51.22.89.46,1.12.71.24.25.36.58.36.98s-.15.71-.45.94c-.3.23-.72.34-1.26.34-.81,0-1.49-.35-2.06-1.06l-.88.77c.29.41.7.74,1.22,1.01.52.26,1.1.4,1.73.4.88,0,1.57-.23,2.09-.7.52-.46.78-1.07.78-1.82,0-.6-.19-1.1-.56-1.5-.37-.4-.9-.76-1.58-1.07ZM221.67,47.55h2.57v7.94h1.16v-7.94h2.58v-1.12h-6.31v1.12ZM236.28,47.66c.89.89,1.34,1.99,1.34,3.3s-.45,2.41-1.34,3.3-1.99,1.33-3.29,1.33-2.4-.44-3.29-1.33c-.89-.89-1.34-1.99-1.34-3.3s.45-2.41,1.34-3.3c.89-.89,1.99-1.33,3.29-1.33s2.4.44,3.29,1.33ZM236.44,50.96c0-1-.33-1.83-.98-2.51-.66-.68-1.48-1.01-2.46-1.01s-1.81.34-2.46,1.01c-.66.68-.98,1.51-.98,2.51s.33,1.83.98,2.51c.65.68,1.48,1.01,2.46,1.01s1.81-.34,2.46-1.01c.65-.68.98-1.51.98-2.51ZM242.87,51.46l3.14,4.03h-1.4l-3.03-3.96h-1v3.96h-1.16v-9.06h2.69c.88,0,1.59.23,2.12.7.53.46.79,1.08.79,1.86,0,.59-.17,1.11-.52,1.57s-.89.76-1.63.91ZM242.04,50.5c.59,0,1.03-.13,1.33-.39.3-.26.45-.63.45-1.1s-.15-.86-.45-1.12-.75-.39-1.33-.39h-1.46v3h1.46ZM250.44,46.33l4.42,9.17h-1.25l-1.12-2.37h-4.08l-1.12,2.37h-1.25l4.42-9.17ZM251.97,52.05l-1.53-3.24-1.53,3.24h3.06ZM254.1,47.55h2.57v7.94h1.16v-7.94h2.58v-1.12h-6.31v1.12ZM261.83,55.49h1.16v-9.06h-1.16v9.06ZM272.71,47.66c.89.89,1.34,1.99,1.34,3.3s-.45,2.41-1.34,3.3-1.99,1.33-3.29,1.33-2.4-.44-3.29-1.33c-.89-.89-1.34-1.99-1.34-3.3s.45-2.41,1.34-3.3c.89-.89,1.99-1.33,3.29-1.33s2.4.44,3.29,1.33ZM272.87,50.96c0-1-.33-1.83-.98-2.51-.66-.68-1.48-1.01-2.46-1.01s-1.81.34-2.46,1.01c-.66.68-.98,1.51-.98,2.51s.33,1.83.98,2.51c.65.68,1.48,1.01,2.46,1.01s1.81-.34,2.46-1.01c.65-.68.98-1.51.98-2.51ZM282.31,52.88l-6.46-6.55v9.17h1.16v-6.45l6.46,6.55v-9.17h-1.16v6.45ZM80.6,39.32c.12-.02.22-.08.25-.22.02-.16.08-.33.1-.49.02-.12-.02-.18-.14-.18-1.1,0-1.39-.49-1.39-1.19,0-.2.02-.47.06-.67.1-.8.39-2.45.8-4.78.22-1.27.51-2.66.74-3.82l.43-2.02,2.94,5.15,4.39,8.19h.59c.22-1.55,1.04-7.29,1.29-8.64.2-1.14.49-2.66.73-3.84.02-.14.08-.31.1-.45.2-1.04.8-1.8,1.94-1.8.16,0,.25-.06.27-.22.02-.16.08-.33.1-.49.02-.14-.06-.18-.12-.18-.76.08-1.57.1-2.33.1s-1.55-.02-2.29-.1c-.12.02-.22.08-.24.22-.02.16-.08.33-.1.49-.02.12.02.18.14.18,1.1,0,1.39.49,1.39,1.19,0,.2-.02.47-.06.67-.1.69-.25,1.53-.57,3.41-.02.2-.08.47-.1.65-.12.63-.43,2.35-.63,3.57l-2.68-4.7-2.9-5.43c-.08-.14-.25-.27-.41-.25-.67.06-1.33.1-1.94.1-1.16,0-2.19-.1-2.98-.18-.55-.06-1-.1-1.33-.1-4,0-8.29,2.31-8.29,6.17,0,2.53,2.29,4.13,4.56,4.13,1.72,0,3.41-.8,3.72-2.1.1-.84-.43-1.39-.98-1.39-.27,0-.57.12-.82.35.14.18.2.43.2.65,0,.86-.67,1.82-2.04,1.82-1.47,0-2.59-1.37-2.59-3.08,0-3.19,3.15-5.66,6.17-5.66,2.8,0,3.59,1.06,3.43,2.06v-.02c-.18,1.37-.61,3.82-.86,5.19-.24,1.37-.71,3.86-.96,5.05-.22,1-.82,1.78-1.94,1.78-.16,0-.25.06-.27.22-.02.16-.08.35-.1.51-.02.12.06.16.12.16.76-.06,1.59-.1,2.33-.1s1.55.04,2.29.1ZM103.4,39.32c-.69-.04-1.57-.08-2.43-.08-.65,0-1.27.08-1.84.08-.14,0-.18-.1-.16-.22l.1-.43c.04-.16.12-.25.29-.25.65,0,.8-.35.8-.88,0-.2-.02-.41-.04-.65,0-.08-.02-.18-.02-.29l-.06-.82c-.04-.37-.25-.59-.63-.59h-2.78c-.33,0-.61.24-.76.49-.14.35-.37.82-.53,1.16-.14.29-.2.57-.2.78,0,.53.33.8,1.08.8.1,0,.12.1.12.16l-.12.49c-.04.14-.14.23-.27.25-.69-.06-1.41-.1-2.06-.1s-1.39.04-2.08.1c-.06,0-.14-.04-.1-.16l.12-.49c.04-.16.12-.25.29-.25.94,0,1.65-.9,2.14-1.84l3.82-7.88c.2-.53.14-.94-.47-.94-.06,0-.14-.06-.14-.16l.14-.47c.06-.16.12-.25.25-.27.45.04,1.1.06,1.68.06.65,0,1.31-.02,1.57-.06.1,0,.18.12.22.22l.25,2.53c.1,1.06.18,2.1.31,3.17l.49,4.11c.14,1.08.59,1.53,1.31,1.53.1,0,.12.1.12.16l-.12.49c-.04.14-.14.23-.27.25ZM99.88,33.52l-.25-3.27-.22-2-2.45,5.25c-.22.47-.12.65.41.65h1.92c.45,0,.61-.18.59-.63ZM105.5,30.52c.22,0,.51-.06.61-.29.53-1.16,1.63-2.41,2.7-2.41.8,0,1.04.41,1.04,1.12,0,.22-.02.45-.06.72v-.02c-.2,1.45-.9,5.47-1.25,7.01-.2.98-.57,1.78-1.45,1.78-.16,0-.25.06-.27.22-.02.16-.08.35-.1.51-.02.12.06.16.12.16.76-.06,1.59-.1,2.33-.1s1.55.04,2.29.1c.12-.02.22-.08.25-.22.02-.16.08-.33.1-.49.02-.12-.02-.18-.14-.18-.74,0-.96-.43-.96-1.08,0-.27.04-.49.08-.76.2-1.57.92-5.54,1.25-7.01.2-.92.53-1.7,1.33-1.76,1.14-.08,1.78,1.16,2.41,2.43.1.2.29.29.53.29.27,0,.53-.1.51-.27l-.88-3.19c-.06-.12-.2-.25-.37-.22-1.57.08-3.19.16-4.49.16-1.16,0-2.61-.08-3.78-.14-.2-.02-.39-.02-.55-.02h-.02c-.18-.02-.31.06-.39.25l-1.29,3.17c-.04.16.18.25.45.25ZM116.65,38.65c-.02.16-.08.35-.1.51-.02.14.06.16.12.16.76-.06,1.51-.1,2.29-.1s1.53.04,2.25.1c.12-.02.22-.08.25-.22.02-.16.08-.33.1-.49.02-.12-.02-.18-.14-.18-.74,0-.94-.43-.94-1.08,0-.25.02-.51.06-.78v.02c.2-1.47.92-5.58,1.25-7.05.23-.96.55-1.78,1.45-1.78.16,0,.25-.06.27-.22.02-.16.08-.33.1-.49.02-.12-.04-.18-.12-.18-.78.08-1.57.1-2.33.1s-1.53-.02-2.21-.1c-.12.02-.22.08-.25.22-.02.16-.08.35-.1.51-.02.14.08.16.14.16.74,0,.94.45.94,1.12,0,.22-.02.49-.06.71-.2,1.47-.92,5.58-1.25,7.05-.23.96-.57,1.78-1.45,1.78-.16,0-.25.06-.27.22ZM137.26,27.52l.12-.49c.04-.12-.04-.16-.1-.16-.74.08-1.43.1-2.08.1s-1.35-.02-2.06-.1c-.12.02-.23.1-.27.25l-.12.49c0,.06.02.16.12.16,1.04,0,1.25.69.88,1.57-1.1,2.63-2.51,5.39-3.68,7.99h-.31l-.14-1.39-.53-6.31c-.02-.31-.04-.59-.04-.82,0-.63.16-1.04.86-1.04.16,0,.25-.08.29-.25l.12-.49c.04-.12-.04-.16-.1-.16-.57.06-1.27.08-1.94.08-.88,0-1.78-.04-2.47-.08-.12.02-.22.1-.27.25l-.12.49c0,.06.02.16.12.16.72,0,1.16.45,1.31,1.53v-.02l.12.84c.16,1.16.29,2.17.37,3.04.14,1.65.2,2.86.27,3.86.04.8.08,1.47.14,2.08.02.14.08.22.16.22.37-.02.92-.02,1.31-.02.27,0,.65,0,.88.02.16-.02.29-.08.37-.25l4.37-9.48c.47-1.02,1.16-1.84,2.15-1.84.16,0,.25-.08.29-.25ZM148.19,35.03c-.35,0-.53.16-.63.35-.71,1.27-2.31,2.98-3.92,2.98h-.63c-1.7,0-1.86-.82-1.72-1.86.06-.51.31-2.04.37-2.33.06-.39.27-.57.67-.57h1.14c.65,0,.94.47.86.96l-.06.37c-.02.12.02.16.14.16h.76c.12,0,.23-.06.27-.2.04-.98.33-2.47.61-3.49,0-.1-.08-.14-.14-.14h-.76c-.14,0-.23.1-.27.25l-.08.33c-.1.41-.57.8-1.04.8h-1.21c-.47,0-.61-.22-.53-.65.08-.53.33-1.74.47-2.39.22-.96.55-1.78,1.45-1.78h.51c1.72,0,2.82,1.27,3.47,2.45.12.22.33.27.53.27s.35-.08.33-.25l-1.02-3.19c-.06-.16-.18-.25-.39-.22-1.35.06-2.64.08-3.9.08s-2.55-.02-3.88-.08c-.12.02-.25.08-.27.22l-.1.55c-.02.14.08.16.14.16.74,0,.94.45.94,1.12,0,.22-.02.49-.06.74-.2,1.45-.88,5.45-1.21,6.92-.22.94-.57,1.84-1.45,1.84-.16,0-.22.04-.27.18l-.12.55c-.04.14.08.16.14.16,1.51-.06,2.96-.1,4.39-.1,1.55,0,3.1.04,4.7.1.18,0,.33-.08.41-.25l1.57-3.84c.04-.08.02-.2-.22-.2ZM168.65,39.1c.02-.16.08-.33.1-.49.02-.12-.02-.18-.14-.18-.74,0-.94-.43-.94-1.08,0-.25.02-.51.06-.78v.02c.43-3.37,1.02-6.52,1.76-10.23.22-.98.69-1.78,1.76-1.78,2.47,0,3.45,1.98,3.45,3.68,0,2.27-1.55,4.47-4.25,4.6-.04,0-.12.08-.18.2-.02.02.18.37,1.39.37.18,0,.41-.02.65-.04,3.29-.33,5.05-2.74,4.98-5.13-.06-2.27-1.39-4.58-5.52-4.58-1.82,0-3.74-.06-5.21-.12-.92-.04-1.65-.06-2.1-.06-4,0-8.29,2.31-8.29,6.17,0,2.53,2.29,4.13,4.56,4.13,1.72,0,3.49-.78,3.72-2.1.14-.84-.35-1.39-.98-1.39-.27,0-.57.12-.82.35.14.18.2.43.2.65,0,.86-.67,1.82-2.04,1.82-1.47,0-2.59-1.37-2.59-3.08,0-3.19,3.15-5.66,6.17-5.66,2.29,0,2.92,1.08,2.78,2.06l-.39,2.57c-.14,1-.27,1.98-.43,2.9-.16.94-.37,1.9-.55,2.82l-.39,1.92c-.2,1.04-.53,1.78-1.45,1.78-.16,0-.25.06-.27.22-.02.16-.08.35-.1.51-.02.12.06.16.12.16.78-.06,1.61-.1,2.37-.1s1.57.04,2.33.1c.12-.02.23-.08.25-.22ZM187.99,35.07c-.27,0-.53.12-.63.33-.78,1.55-2.25,2.96-3.72,2.96h-.27c-1.7,0-1.74-.82-1.59-1.84l.14-1.02c.22-1.49.82-4.86,1.08-6.03.23-.96.55-1.78,1.45-1.78.16,0,.25-.06.27-.22.02-.16.08-.33.1-.49.02-.12-.04-.18-.12-.18-.8.08-1.61.1-2.37.1s-1.55-.02-2.25-.1c-.12.02-.23.08-.25.22-.02.16-.08.35-.1.51-.02.14.08.16.14.16.74,0,.94.45.94,1.12,0,.22-.02.49-.06.74v-.02c-.16,1.16-.69,4.53-1,6.03l-.22,1.02c-.2,1.04-.53,1.78-1.45,1.78-.16,0-.25.08-.27.25l-.12.55c0,.1.08.16.14.16,1.31-.06,2.8-.1,4.13-.1,1.49,0,2.98.04,4.43.1.18,0,.33-.08.41-.25l1.55-3.82c.06-.16-.16-.18-.37-.18ZM200.58,38.59l-.12.49c-.04.14-.14.23-.27.25-.69-.04-1.57-.08-2.43-.08-.65,0-1.27.08-1.84.08-.14,0-.18-.1-.16-.22l.1-.43c.04-.16.12-.25.29-.25.65,0,.8-.35.8-.88,0-.2-.02-.41-.04-.65,0-.08-.02-.18-.02-.29l-.06-.82c-.04-.37-.25-.59-.63-.59h-2.78c-.33,0-.61.24-.76.49-.14.35-.37.82-.53,1.16-.14.29-.2.57-.2.78,0,.53.33.8,1.08.8.1,0,.12.1.12.16l-.12.49c-.04.14-.14.23-.27.25-.69-.06-1.41-.1-2.06-.1s-1.39.04-2.08.1c-.06,0-.14-.04-.1-.16l.12-.49c.04-.16.12-.25.29-.25.94,0,1.65-.9,2.15-1.84l3.82-7.88c.2-.53.14-.94-.47-.94-.06,0-.14-.06-.14-.16l.14-.47c.06-.16.12-.25.25-.27.45.04,1.1.06,1.67.06.65,0,1.31-.02,1.57-.06.1,0,.18.12.22.22l.25,2.53c.1,1.06.18,2.1.31,3.17l.49,4.11c.14,1.08.59,1.53,1.31,1.53.1,0,.12.1.12.16ZM196.67,33.52l-.25-3.27-.23-2-2.45,5.25c-.23.47-.12.65.41.65h1.92c.45,0,.61-.18.59-.63ZM216.53,27.54c.02-.16.08-.33.1-.49.02-.12-.04-.18-.12-.18-.8.08-1.61.1-2.37.1s-1.55-.02-2.25-.1c-.12.02-.23.08-.25.22-.02.16-.08.35-.1.51-.02.14.08.16.14.16,1.12,0,1.43.47,1.43,1.21,0,.2-.02.43-.06.65v-.02c-.14,1.04-.76,4.58-1.06,6.21l-3.19-8.72c-.06-.16-.18-.22-.43-.22-.57.08-1.29.1-1.94.1-.98,0-1.92-.06-2.29-.1-.12.02-.23.08-.25.22-.02.16-.08.35-.1.51-.02.14.08.16.14.16,1.14,0,1.41.49,1.41,1.23,0,.2-.02.41-.04.61-.2,1.49-.9,5.6-1.23,7.05-.22,1.04-.8,1.78-1.94,1.78-.16,0-.25.06-.27.22-.02.16-.08.35-.1.51-.02.12.06.16.12.16.76-.06,1.59-.1,2.33-.1s1.55.04,2.29.1c.12-.02.22-.08.25-.22.02-.16.08-.33.1-.49.02-.12-.02-.18-.14-.18-1.14,0-1.43-.47-1.43-1.16,0,.06.04-.45.06-.67.2-1.49.9-5.84,1.41-8.05,1.47,3.29,3.76,10.11,3.86,10.5.08.16.18.2.37.2h.41c1.06-.02,1.25-.02,1.31-.22.35-2.66.98-6.8,1.61-9.48.2-1.04.78-1.78,1.94-1.78.16,0,.24-.06.27-.22ZM226.68,26.86c-1.35.06-2.64.08-3.9.08s-2.55-.02-3.88-.08c-.12.02-.25.08-.27.22l-.1.55c-.02.14.08.16.14.16.74,0,.94.45.94,1.12,0,.22-.02.49-.06.74-.2,1.45-.88,5.45-1.21,6.92-.22.94-.57,1.84-1.45,1.84-.16,0-.22.04-.27.18l-.12.55c-.04.14.08.16.14.16,1.51-.06,2.96-.1,4.39-.1,1.55,0,3.1.04,4.7.1.18,0,.33-.08.41-.25l1.57-3.84c.04-.08.02-.2-.22-.2-.35,0-.53.16-.63.35-.71,1.27-2.31,2.98-3.92,2.98h-.63c-1.7,0-1.86-.82-1.72-1.86.06-.51.31-2.04.37-2.33.06-.39.27-.57.67-.57h1.14c.65,0,.94.47.86.96l-.06.37c-.02.12.02.16.14.16h.76c.12,0,.23-.06.27-.2.04-.98.33-2.47.61-3.49,0-.1-.08-.14-.14-.14h-.76c-.14,0-.23.1-.27.25l-.08.33c-.1.41-.57.8-1.04.8h-1.21c-.47,0-.61-.22-.53-.65.08-.53.33-1.74.47-2.39.22-.96.55-1.78,1.45-1.78h.51c1.72,0,2.82,1.27,3.47,2.45.12.22.33.27.53.27s.35-.08.33-.25l-1.02-3.19c-.06-.16-.18-.25-.39-.22ZM240.18,30.54c.27,0,.53-.1.51-.27l-.88-3.19c-.06-.12-.2-.25-.37-.22-1.57.08-3.19.16-4.49.16-1.16,0-2.61-.08-3.78-.14-.2-.02-.39-.02-.55-.02h-.02c-.18-.02-.31.06-.39.25l-1.29,3.17c-.04.16.18.25.45.25.23,0,.51-.06.61-.29.53-1.16,1.63-2.41,2.7-2.41.8,0,1.04.41,1.04,1.12,0,.22-.02.45-.06.72v-.02c-.2,1.45-.9,5.47-1.25,7.01-.2.98-.57,1.78-1.45,1.78-.16,0-.25.06-.27.22-.02.16-.08.35-.1.51-.02.12.06.16.12.16.76-.06,1.59-.1,2.33-.1s1.55.04,2.29.1c.12-.02.23-.08.25-.22.02-.16.08-.33.1-.49.02-.12-.02-.18-.14-.18-.74,0-.96-.43-.96-1.08,0-.27.04-.49.08-.76.2-1.57.92-5.54,1.25-7.01.2-.92.53-1.7,1.33-1.76,1.14-.08,1.78,1.16,2.41,2.43.1.2.29.29.53.29ZM250.94,39.63c4.02,0,6.5-2.95,6.5-5.69,0-2.05-1.49-3.57-2.8-4.91l-.04-.04c-1.06-1.09-1.97-2.03-1.97-3.06,0-.78.7-1.41,1.55-1.41,1.25,0,1.95,1.44,2.19,2.05.08.25.32.42.62.45h.05c.24,0,.45-.09.57-.26.1-.13.13-.29.09-.45l-.76-2.69c-.14-.38-.4-.42-.5-.42-.1,0-.19.03-.29.09l-.4.27c-.69-.35-1.41-.38-1.63-.38-1.6,0-3.91,1.22-3.91,3.43,0,1.47,1.27,2.93,2.52,4.16,1.31,1.24,2.39,2.39,2.39,3.83,0,2.2-2.19,3.73-4.15,3.73-1.73,0-3.58-1.01-3.58-3.24,0-1.64,1.03-2.63,2.03-2.63.72,0,1.04.46,1.04.92,0,.23-.03.33-.1.41l-.22.22.22.22c.19.19.48.31.72.31.56,0,1.14-.45,1.16-1.34-.07-1.21-1.47-1.86-2.74-1.86-1.98,0-4.12,1.47-4.12,3.84,0,2.74,2.89,4.44,5.56,4.44ZM274.82,27.88l-1.11-4.03c-.08-.15-.26-.31-.46-.28-1.99.1-4.03.21-5.68.21-1.47,0-3.31-.1-4.78-.18-.26-.03-.49-.03-.7-.03h-.03c-.23-.03-.39.08-.49.31l-1.63,4c-.05.21.23.31.57.31.28,0,.65-.08.77-.36.67-1.47,2.07-3.05,3.41-3.05,1.01,0,1.32.52,1.32,1.42,0,.28-.03.57-.08.9v-.03c-.26,1.83-1.14,6.92-1.57,8.86-.26,1.24-.72,2.25-1.83,2.25-.21,0-.31.08-.34.28-.03.21-.1.44-.13.65-.03.15.08.21.15.21.96-.08,2.01-.13,2.94-.13s1.96.05,2.89.13c.15-.03.28-.1.31-.28.03-.21.1-.41.13-.62.03-.15-.03-.23-.18-.23-.93,0-1.21-.54-1.21-1.37,0-.34.05-.62.1-.96.26-1.99,1.16-7,1.57-8.86.26-1.16.67-2.14,1.68-2.22,1.45-.1,2.25,1.47,3.05,3.07.13.26.36.36.67.36.34,0,.67-.13.65-.34ZM287.52,33.95c-.34,0-.67.15-.8.41-.98,1.96-2.84,3.74-4.7,3.74h-.34c-2.14,0-2.19-1.03-2.01-2.32l.18-1.29c.28-1.88,1.03-6.15,1.37-7.62.28-1.21.7-2.25,1.83-2.25.21,0,.31-.08.34-.28.03-.21.1-.41.13-.62.03-.16-.05-.23-.15-.23-1.01.1-2.04.13-3,.13s-1.96-.03-2.84-.13c-.15.03-.28.1-.31.28-.03.21-.1.44-.13.65-.03.18.1.21.18.21.93,0,1.19.57,1.19,1.42,0,.28-.03.62-.08.93v-.03c-.21,1.47-.88,5.73-1.27,7.62l-.28,1.29c-.26,1.32-.67,2.25-1.83,2.25-.21,0-.31.1-.34.31l-.16.7c0,.13.1.21.18.21,1.65-.08,3.54-.13,5.22-.13,1.88,0,3.77.05,5.6.13.23,0,.41-.1.52-.31l1.96-4.83c.08-.21-.21-.23-.46-.23Z" style="clip-rule: evenodd; fill: #f49d1e;"/>
    </clipPath>
  </defs>
  <g>
    <g>
      <path d="M78.67,54.36h3.97v1.14h-5.13v-9.06h1.16v7.93ZM87.2,46.33l4.42,9.17h-1.25l-1.12-2.37h-4.09l-1.12,2.37h-1.25l4.42-9.17ZM88.73,52.05l-1.53-3.24-1.53,3.24h3.06ZM99.2,52.88l-6.46-6.55v9.17h1.16v-6.45l6.46,6.55v-9.17h-1.16v6.45ZM108.94,47.72c.91.86,1.37,1.94,1.37,3.24s-.46,2.38-1.37,3.24c-.92.86-2.07,1.29-3.47,1.29h-2.69v-9.06h2.69c1.4,0,2.55.43,3.47,1.29ZM109.13,50.96c0-1-.34-1.83-1.01-2.48-.67-.65-1.55-.97-2.64-.97h-1.53v6.89h1.53c1.09,0,1.97-.32,2.64-.97.67-.65,1.01-1.47,1.01-2.48ZM114.92,50.52l-.83-.36c-.48-.21-.82-.44-1.03-.68-.21-.24-.31-.52-.31-.86,0-.37.14-.65.42-.87s.62-.32,1.02-.32c.69,0,1.28.29,1.76.87l.82-.82c-.63-.77-1.48-1.16-2.54-1.16-.7,0-1.31.21-1.84.64s-.8.97-.8,1.63c0,1.14.66,2,1.98,2.57l.83.36c.51.22.89.46,1.12.71.24.25.36.58.36.98s-.15.71-.45.94c-.3.23-.72.34-1.26.34-.81,0-1.49-.35-2.06-1.06l-.88.77c.29.41.7.74,1.22,1.01.52.26,1.1.4,1.73.4.88,0,1.57-.23,2.09-.7s.78-1.07.78-1.82c0-.6-.18-1.1-.56-1.5-.37-.4-.9-.76-1.58-1.07ZM122.79,47.44c1.21,0,2.14.45,2.8,1.34l.83-.73c-.36-.5-.86-.92-1.51-1.24s-1.35-.49-2.12-.49c-1.3,0-2.4.44-3.29,1.33-.89.89-1.34,1.99-1.34,3.3s.45,2.41,1.34,3.3c.89.89,1.99,1.33,3.29,1.33.77,0,1.47-.16,2.12-.49s1.15-.74,1.51-1.24l-.83-.73c-.66.89-1.59,1.34-2.8,1.34-.99,0-1.81-.34-2.46-1.01-.66-.68-.98-1.51-.98-2.51s.33-1.83.98-2.51c.65-.68,1.48-1.01,2.46-1.01ZM131.11,46.33l4.42,9.17h-1.25l-1.12-2.37h-4.08l-1.12,2.37h-1.25l4.42-9.17ZM132.64,52.05l-1.53-3.24-1.53,3.24h3.06ZM142.36,49.2c0,.84-.29,1.52-.86,2.02-.57.5-1.33.75-2.29.75h-1.4v3.52h-1.16v-9.06h2.57c.95,0,1.71.25,2.29.75.57.5.86,1.17.86,2.02ZM141.17,49.2c0-.54-.17-.96-.51-1.26-.34-.29-.83-.44-1.48-.44h-1.37v3.4h1.37c.65,0,1.14-.15,1.48-.44.34-.29.51-.71.51-1.26ZM143.98,55.49h1.16v-9.06h-1.16v9.06ZM154.02,52.88l-6.46-6.55v9.17h1.16v-6.45l6.46,6.55v-9.17h-1.16v6.45ZM161.15,51.42h2.78v2.39c-.58.45-1.35.68-2.31.68s-1.81-.34-2.46-1.01c-.66-.68-.98-1.51-.98-2.51s.33-1.83.98-2.51c.66-.68,1.48-1.01,2.46-1.01,1.06,0,1.92.37,2.59,1.1l.83-.74c-.37-.43-.86-.79-1.47-1.06s-1.26-.41-1.95-.41c-1.3,0-2.4.44-3.29,1.33-.89.89-1.34,1.99-1.34,3.3s.45,2.41,1.34,3.3c.89.89,1.99,1.33,3.29,1.33.75,0,1.44-.12,2.08-.37.64-.25,1.1-.54,1.39-.88v-4.05h-3.45l-.5,1.12ZM172.94,46.33l4.42,9.17h-1.25l-1.12-2.37h-4.09l-1.12,2.37h-1.25l4.42-9.17ZM174.47,52.05l-1.53-3.24-1.53,3.24h3.06ZM184.94,52.88l-6.46-6.55v9.17h1.16v-6.45l6.46,6.55v-9.17h-1.16v6.45ZM194.69,47.72c.91.86,1.37,1.94,1.37,3.24s-.46,2.38-1.37,3.24c-.92.86-2.07,1.29-3.47,1.29h-2.69v-9.06h2.69c1.4,0,2.55.43,3.47,1.29ZM194.87,50.96c0-1-.34-1.83-1.01-2.48-.67-.65-1.55-.97-2.64-.97h-1.53v6.89h1.53c1.09,0,1.97-.32,2.64-.97.67-.65,1.01-1.47,1.01-2.48ZM204.5,51.46l3.14,4.03h-1.4l-3.03-3.96h-1v3.96h-1.16v-9.06h2.69c.89,0,1.59.23,2.12.7.53.46.79,1.08.79,1.86,0,.59-.17,1.11-.52,1.57s-.89.76-1.63.91ZM203.67,50.5c.59,0,1.03-.13,1.33-.39.3-.26.45-.63.45-1.1s-.15-.86-.45-1.12c-.3-.26-.75-.39-1.33-.39h-1.46v3h1.46ZM208.95,55.49h5.23v-1.12h-4.07v-2.95h3.31v-1.12h-3.31v-2.74h4.07v-1.12h-5.23v9.06ZM218.92,50.52l-.83-.36c-.48-.21-.82-.44-1.03-.68-.21-.24-.31-.52-.31-.86,0-.37.14-.65.42-.87s.62-.32,1.02-.32c.69,0,1.28.29,1.76.87l.82-.82c-.63-.77-1.48-1.16-2.54-1.16-.7,0-1.31.21-1.84.64s-.8.97-.8,1.63c0,1.14.66,2,1.98,2.57l.83.36c.51.22.89.46,1.12.71.24.25.36.58.36.98s-.15.71-.45.94c-.3.23-.72.34-1.26.34-.81,0-1.49-.35-2.06-1.06l-.88.77c.29.41.7.74,1.22,1.01.52.26,1.1.4,1.73.4.88,0,1.57-.23,2.09-.7.52-.46.78-1.07.78-1.82,0-.6-.19-1.1-.56-1.5-.37-.4-.9-.76-1.58-1.07ZM221.67,47.55h2.57v7.94h1.16v-7.94h2.58v-1.12h-6.31v1.12ZM236.28,47.66c.89.89,1.34,1.99,1.34,3.3s-.45,2.41-1.34,3.3-1.99,1.33-3.29,1.33-2.4-.44-3.29-1.33c-.89-.89-1.34-1.99-1.34-3.3s.45-2.41,1.34-3.3c.89-.89,1.99-1.33,3.29-1.33s2.4.44,3.29,1.33ZM236.44,50.96c0-1-.33-1.83-.98-2.51-.66-.68-1.48-1.01-2.46-1.01s-1.81.34-2.46,1.01c-.66.68-.98,1.51-.98,2.51s.33,1.83.98,2.51c.65.68,1.48,1.01,2.46,1.01s1.81-.34,2.46-1.01c.65-.68.98-1.51.98-2.51ZM242.87,51.46l3.14,4.03h-1.4l-3.03-3.96h-1v3.96h-1.16v-9.06h2.69c.88,0,1.59.23,2.12.7.53.46.79,1.08.79,1.86,0,.59-.17,1.11-.52,1.57s-.89.76-1.63.91ZM242.04,50.5c.59,0,1.03-.13,1.33-.39.3-.26.45-.63.45-1.1s-.15-.86-.45-1.12-.75-.39-1.33-.39h-1.46v3h1.46ZM250.44,46.33l4.42,9.17h-1.25l-1.12-2.37h-4.08l-1.12,2.37h-1.25l4.42-9.17ZM251.97,52.05l-1.53-3.24-1.53,3.24h3.06ZM254.1,47.55h2.57v7.94h1.16v-7.94h2.58v-1.12h-6.31v1.12ZM261.83,55.49h1.16v-9.06h-1.16v9.06ZM272.71,47.66c.89.89,1.34,1.99,1.34,3.3s-.45,2.41-1.34,3.3-1.99,1.33-3.29,1.33-2.4-.44-3.29-1.33c-.89-.89-1.34-1.99-1.34-3.3s.45-2.41,1.34-3.3c.89-.89,1.99-1.33,3.29-1.33s2.4.44,3.29,1.33ZM272.87,50.96c0-1-.33-1.83-.98-2.51-.66-.68-1.48-1.01-2.46-1.01s-1.81.34-2.46,1.01c-.66.68-.98,1.51-.98,2.51s.33,1.83.98,2.51c.65.68,1.48,1.01,2.46,1.01s1.81-.34,2.46-1.01c.65-.68.98-1.51.98-2.51ZM282.31,52.88l-6.46-6.55v9.17h1.16v-6.45l6.46,6.55v-9.17h-1.16v6.45ZM80.6,39.32c.12-.02.22-.08.25-.22.02-.16.08-.33.1-.49.02-.12-.02-.18-.14-.18-1.1,0-1.39-.49-1.39-1.19,0-.2.02-.47.06-.67.1-.8.39-2.45.8-4.78.22-1.27.51-2.66.74-3.82l.43-2.02,2.94,5.15,4.39,8.19h.59c.22-1.55,1.04-7.29,1.29-8.64.2-1.14.49-2.66.73-3.84.02-.14.08-.31.1-.45.2-1.04.8-1.8,1.94-1.8.16,0,.25-.06.27-.22.02-.16.08-.33.1-.49.02-.14-.06-.18-.12-.18-.76.08-1.57.1-2.33.1s-1.55-.02-2.29-.1c-.12.02-.22.08-.24.22-.02.16-.08.33-.1.49-.02.12.02.18.14.18,1.1,0,1.39.49,1.39,1.19,0,.2-.02.47-.06.67-.1.69-.25,1.53-.57,3.41-.02.2-.08.47-.1.65-.12.63-.43,2.35-.63,3.57l-2.68-4.7-2.9-5.43c-.08-.14-.25-.27-.41-.25-.67.06-1.33.1-1.94.1-1.16,0-2.19-.1-2.98-.18-.55-.06-1-.1-1.33-.1-4,0-8.29,2.31-8.29,6.17,0,2.53,2.29,4.13,4.56,4.13,1.72,0,3.41-.8,3.72-2.1.1-.84-.43-1.39-.98-1.39-.27,0-.57.12-.82.35.14.18.2.43.2.65,0,.86-.67,1.82-2.04,1.82-1.47,0-2.59-1.37-2.59-3.08,0-3.19,3.15-5.66,6.17-5.66,2.8,0,3.59,1.06,3.43,2.06v-.02c-.18,1.37-.61,3.82-.86,5.19-.24,1.37-.71,3.86-.96,5.05-.22,1-.82,1.78-1.94,1.78-.16,0-.25.06-.27.22-.02.16-.08.35-.1.51-.02.12.06.16.12.16.76-.06,1.59-.1,2.33-.1s1.55.04,2.29.1ZM103.4,39.32c-.69-.04-1.57-.08-2.43-.08-.65,0-1.27.08-1.84.08-.14,0-.18-.1-.16-.22l.1-.43c.04-.16.12-.25.29-.25.65,0,.8-.35.8-.88,0-.2-.02-.41-.04-.65,0-.08-.02-.18-.02-.29l-.06-.82c-.04-.37-.25-.59-.63-.59h-2.78c-.33,0-.61.24-.76.49-.14.35-.37.82-.53,1.16-.14.29-.2.57-.2.78,0,.53.33.8,1.08.8.1,0,.12.1.12.16l-.12.49c-.04.14-.14.23-.27.25-.69-.06-1.41-.1-2.06-.1s-1.39.04-2.08.1c-.06,0-.14-.04-.1-.16l.12-.49c.04-.16.12-.25.29-.25.94,0,1.65-.9,2.14-1.84l3.82-7.88c.2-.53.14-.94-.47-.94-.06,0-.14-.06-.14-.16l.14-.47c.06-.16.12-.25.25-.27.45.04,1.1.06,1.68.06.65,0,1.31-.02,1.57-.06.1,0,.18.12.22.22l.25,2.53c.1,1.06.18,2.1.31,3.17l.49,4.11c.14,1.08.59,1.53,1.31,1.53.1,0,.12.1.12.16l-.12.49c-.04.14-.14.23-.27.25ZM99.88,33.52l-.25-3.27-.22-2-2.45,5.25c-.22.47-.12.65.41.65h1.92c.45,0,.61-.18.59-.63ZM105.5,30.52c.22,0,.51-.06.61-.29.53-1.16,1.63-2.41,2.7-2.41.8,0,1.04.41,1.04,1.12,0,.22-.02.45-.06.72v-.02c-.2,1.45-.9,5.47-1.25,7.01-.2.98-.57,1.78-1.45,1.78-.16,0-.25.06-.27.22-.02.16-.08.35-.1.51-.02.12.06.16.12.16.76-.06,1.59-.1,2.33-.1s1.55.04,2.29.1c.12-.02.22-.08.25-.22.02-.16.08-.33.1-.49.02-.12-.02-.18-.14-.18-.74,0-.96-.43-.96-1.08,0-.27.04-.49.08-.76.2-1.57.92-5.54,1.25-7.01.2-.92.53-1.7,1.33-1.76,1.14-.08,1.78,1.16,2.41,2.43.1.2.29.29.53.29.27,0,.53-.1.51-.27l-.88-3.19c-.06-.12-.2-.25-.37-.22-1.57.08-3.19.16-4.49.16-1.16,0-2.61-.08-3.78-.14-.2-.02-.39-.02-.55-.02h-.02c-.18-.02-.31.06-.39.25l-1.29,3.17c-.04.16.18.25.45.25ZM116.65,38.65c-.02.16-.08.35-.1.51-.02.14.06.16.12.16.76-.06,1.51-.1,2.29-.1s1.53.04,2.25.1c.12-.02.22-.08.25-.22.02-.16.08-.33.1-.49.02-.12-.02-.18-.14-.18-.74,0-.94-.43-.94-1.08,0-.25.02-.51.06-.78v.02c.2-1.47.92-5.58,1.25-7.05.23-.96.55-1.78,1.45-1.78.16,0,.25-.06.27-.22.02-.16.08-.33.1-.49.02-.12-.04-.18-.12-.18-.78.08-1.57.1-2.33.1s-1.53-.02-2.21-.1c-.12.02-.22.08-.25.22-.02.16-.08.35-.1.51-.02.14.08.16.14.16.74,0,.94.45.94,1.12,0,.22-.02.49-.06.71-.2,1.47-.92,5.58-1.25,7.05-.23.96-.57,1.78-1.45,1.78-.16,0-.25.06-.27.22ZM137.26,27.52l.12-.49c.04-.12-.04-.16-.1-.16-.74.08-1.43.1-2.08.1s-1.35-.02-2.06-.1c-.12.02-.23.1-.27.25l-.12.49c0,.06.02.16.12.16,1.04,0,1.25.69.88,1.57-1.1,2.63-2.51,5.39-3.68,7.99h-.31l-.14-1.39-.53-6.31c-.02-.31-.04-.59-.04-.82,0-.63.16-1.04.86-1.04.16,0,.25-.08.29-.25l.12-.49c.04-.12-.04-.16-.1-.16-.57.06-1.27.08-1.94.08-.88,0-1.78-.04-2.47-.08-.12.02-.22.1-.27.25l-.12.49c0,.06.02.16.12.16.72,0,1.16.45,1.31,1.53v-.02l.12.84c.16,1.16.29,2.17.37,3.04.14,1.65.2,2.86.27,3.86.04.8.08,1.47.14,2.08.02.14.08.22.16.22.37-.02.92-.02,1.31-.02.27,0,.65,0,.88.02.16-.02.29-.08.37-.25l4.37-9.48c.47-1.02,1.16-1.84,2.15-1.84.16,0,.25-.08.29-.25ZM148.19,35.03c-.35,0-.53.16-.63.35-.71,1.27-2.31,2.98-3.92,2.98h-.63c-1.7,0-1.86-.82-1.72-1.86.06-.51.31-2.04.37-2.33.06-.39.27-.57.67-.57h1.14c.65,0,.94.47.86.96l-.06.37c-.02.12.02.16.14.16h.76c.12,0,.23-.06.27-.2.04-.98.33-2.47.61-3.49,0-.1-.08-.14-.14-.14h-.76c-.14,0-.23.1-.27.25l-.08.33c-.1.41-.57.8-1.04.8h-1.21c-.47,0-.61-.22-.53-.65.08-.53.33-1.74.47-2.39.22-.96.55-1.78,1.45-1.78h.51c1.72,0,2.82,1.27,3.47,2.45.12.22.33.27.53.27s.35-.08.33-.25l-1.02-3.19c-.06-.16-.18-.25-.39-.22-1.35.06-2.64.08-3.9.08s-2.55-.02-3.88-.08c-.12.02-.25.08-.27.22l-.1.55c-.02.14.08.16.14.16.74,0,.94.45.94,1.12,0,.22-.02.49-.06.74-.2,1.45-.88,5.45-1.21,6.92-.22.94-.57,1.84-1.45,1.84-.16,0-.22.04-.27.18l-.12.55c-.04.14.08.16.14.16,1.51-.06,2.96-.1,4.39-.1,1.55,0,3.1.04,4.7.1.18,0,.33-.08.41-.25l1.57-3.84c.04-.08.02-.2-.22-.2ZM168.65,39.1c.02-.16.08-.33.1-.49.02-.12-.02-.18-.14-.18-.74,0-.94-.43-.94-1.08,0-.25.02-.51.06-.78v.02c.43-3.37,1.02-6.52,1.76-10.23.22-.98.69-1.78,1.76-1.78,2.47,0,3.45,1.98,3.45,3.68,0,2.27-1.55,4.47-4.25,4.6-.04,0-.12.08-.18.2-.02.02.18.37,1.39.37.18,0,.41-.02.65-.04,3.29-.33,5.05-2.74,4.98-5.13-.06-2.27-1.39-4.58-5.52-4.58-1.82,0-3.74-.06-5.21-.12-.92-.04-1.65-.06-2.1-.06-4,0-8.29,2.31-8.29,6.17,0,2.53,2.29,4.13,4.56,4.13,1.72,0,3.49-.78,3.72-2.1.14-.84-.35-1.39-.98-1.39-.27,0-.57.12-.82.35.14.18.2.43.2.65,0,.86-.67,1.82-2.04,1.82-1.47,0-2.59-1.37-2.59-3.08,0-3.19,3.15-5.66,6.17-5.66,2.29,0,2.92,1.08,2.78,2.06l-.39,2.57c-.14,1-.27,1.98-.43,2.9-.16.94-.37,1.9-.55,2.82l-.39,1.92c-.2,1.04-.53,1.78-1.45,1.78-.16,0-.25.06-.27.22-.02.16-.08.35-.1.51-.02.12.06.16.12.16.78-.06,1.61-.1,2.37-.1s1.57.04,2.33.1c.12-.02.23-.08.25-.22ZM187.99,35.07c-.27,0-.53.12-.63.33-.78,1.55-2.25,2.96-3.72,2.96h-.27c-1.7,0-1.74-.82-1.59-1.84l.14-1.02c.22-1.49.82-4.86,1.08-6.03.23-.96.55-1.78,1.45-1.78.16,0,.25-.06.27-.22.02-.16.08-.33.1-.49.02-.12-.04-.18-.12-.18-.8.08-1.61.1-2.37.1s-1.55-.02-2.25-.1c-.12.02-.23.08-.25.22-.02.16-.08.35-.1.51-.02.14.08.16.14.16.74,0,.94.45.94,1.12,0,.22-.02.49-.06.74v-.02c-.16,1.16-.69,4.53-1,6.03l-.22,1.02c-.2,1.04-.53,1.78-1.45,1.78-.16,0-.25.08-.27.25l-.12.55c0,.1.08.16.14.16,1.31-.06,2.8-.1,4.13-.1,1.49,0,2.98.04,4.43.1.18,0,.33-.08.41-.25l1.55-3.82c.06-.16-.16-.18-.37-.18ZM200.58,38.59l-.12.49c-.04.14-.14.23-.27.25-.69-.04-1.57-.08-2.43-.08-.65,0-1.27.08-1.84.08-.14,0-.18-.1-.16-.22l.1-.43c.04-.16.12-.25.29-.25.65,0,.8-.35.8-.88,0-.2-.02-.41-.04-.65,0-.08-.02-.18-.02-.29l-.06-.82c-.04-.37-.25-.59-.63-.59h-2.78c-.33,0-.61.24-.76.49-.14.35-.37.82-.53,1.16-.14.29-.2.57-.2.78,0,.53.33.8,1.08.8.1,0,.12.1.12.16l-.12.49c-.04.14-.14.23-.27.25-.69-.06-1.41-.1-2.06-.1s-1.39.04-2.08.1c-.06,0-.14-.04-.1-.16l.12-.49c.04-.16.12-.25.29-.25.94,0,1.65-.9,2.15-1.84l3.82-7.88c.2-.53.14-.94-.47-.94-.06,0-.14-.06-.14-.16l.14-.47c.06-.16.12-.25.25-.27.45.04,1.1.06,1.67.06.65,0,1.31-.02,1.57-.06.1,0,.18.12.22.22l.25,2.53c.1,1.06.18,2.1.31,3.17l.49,4.11c.14,1.08.59,1.53,1.31,1.53.1,0,.12.1.12.16ZM196.67,33.52l-.25-3.27-.23-2-2.45,5.25c-.23.47-.12.65.41.65h1.92c.45,0,.61-.18.59-.63ZM216.53,27.54c.02-.16.08-.33.1-.49.02-.12-.04-.18-.12-.18-.8.08-1.61.1-2.37.1s-1.55-.02-2.25-.1c-.12.02-.23.08-.25.22-.02.16-.08.35-.1.51-.02.14.08.16.14.16,1.12,0,1.43.47,1.43,1.21,0,.2-.02.43-.06.65v-.02c-.14,1.04-.76,4.58-1.06,6.21l-3.19-8.72c-.06-.16-.18-.22-.43-.22-.57.08-1.29.1-1.94.1-.98,0-1.92-.06-2.29-.1-.12.02-.23.08-.25.22-.02.16-.08.35-.1.51-.02.14.08.16.14.16,1.14,0,1.41.49,1.41,1.23,0,.2-.02.41-.04.61-.2,1.49-.9,5.6-1.23,7.05-.22,1.04-.8,1.78-1.94,1.78-.16,0-.25.06-.27.22-.02.16-.08.35-.1.51-.02.12.06.16.12.16.76-.06,1.59-.1,2.33-.1s1.55.04,2.29.1c.12-.02.22-.08.25-.22.02-.16.08-.33.1-.49.02-.12-.02-.18-.14-.18-1.14,0-1.43-.47-1.43-1.16,0,.06.04-.45.06-.67.2-1.49.9-5.84,1.41-8.05,1.47,3.29,3.76,10.11,3.86,10.5.08.16.18.2.37.2h.41c1.06-.02,1.25-.02,1.31-.22.35-2.66.98-6.8,1.61-9.48.2-1.04.78-1.78,1.94-1.78.16,0,.24-.06.27-.22ZM226.68,26.86c-1.35.06-2.64.08-3.9.08s-2.55-.02-3.88-.08c-.12.02-.25.08-.27.22l-.1.55c-.02.14.08.16.14.16.74,0,.94.45.94,1.12,0,.22-.02.49-.06.74-.2,1.45-.88,5.45-1.21,6.92-.22.94-.57,1.84-1.45,1.84-.16,0-.22.04-.27.18l-.12.55c-.04.14.08.16.14.16,1.51-.06,2.96-.1,4.39-.1,1.55,0,3.1.04,4.7.1.18,0,.33-.08.41-.25l1.57-3.84c.04-.08.02-.2-.22-.2-.35,0-.53.16-.63.35-.71,1.27-2.31,2.98-3.92,2.98h-.63c-1.7,0-1.86-.82-1.72-1.86.06-.51.31-2.04.37-2.33.06-.39.27-.57.67-.57h1.14c.65,0,.94.47.86.96l-.06.37c-.02.12.02.16.14.16h.76c.12,0,.23-.06.27-.2.04-.98.33-2.47.61-3.49,0-.1-.08-.14-.14-.14h-.76c-.14,0-.23.1-.27.25l-.08.33c-.1.41-.57.8-1.04.8h-1.21c-.47,0-.61-.22-.53-.65.08-.53.33-1.74.47-2.39.22-.96.55-1.78,1.45-1.78h.51c1.72,0,2.82,1.27,3.47,2.45.12.22.33.27.53.27s.35-.08.33-.25l-1.02-3.19c-.06-.16-.18-.25-.39-.22ZM240.18,30.54c.27,0,.53-.1.51-.27l-.88-3.19c-.06-.12-.2-.25-.37-.22-1.57.08-3.19.16-4.49.16-1.16,0-2.61-.08-3.78-.14-.2-.02-.39-.02-.55-.02h-.02c-.18-.02-.31.06-.39.25l-1.29,3.17c-.04.16.18.25.45.25.23,0,.51-.06.61-.29.53-1.16,1.63-2.41,2.7-2.41.8,0,1.04.41,1.04,1.12,0,.22-.02.45-.06.72v-.02c-.2,1.45-.9,5.47-1.25,7.01-.2.98-.57,1.78-1.45,1.78-.16,0-.25.06-.27.22-.02.16-.08.35-.1.51-.02.12.06.16.12.16.76-.06,1.59-.1,2.33-.1s1.55.04,2.29.1c.12-.02.23-.08.25-.22.02-.16.08-.33.1-.49.02-.12-.02-.18-.14-.18-.74,0-.96-.43-.96-1.08,0-.27.04-.49.08-.76.2-1.57.92-5.54,1.25-7.01.2-.92.53-1.7,1.33-1.76,1.14-.08,1.78,1.16,2.41,2.43.1.2.29.29.53.29ZM250.94,39.63c4.02,0,6.5-2.95,6.5-5.69,0-2.05-1.49-3.57-2.8-4.91l-.04-.04c-1.06-1.09-1.97-2.03-1.97-3.06,0-.78.7-1.41,1.55-1.41,1.25,0,1.95,1.44,2.19,2.05.08.25.32.42.62.45h.05c.24,0,.45-.09.57-.26.1-.13.13-.29.09-.45l-.76-2.69c-.14-.38-.4-.42-.5-.42-.1,0-.19.03-.29.09l-.4.27c-.69-.35-1.41-.38-1.63-.38-1.6,0-3.91,1.22-3.91,3.43,0,1.47,1.27,2.93,2.52,4.16,1.31,1.24,2.39,2.39,2.39,3.83,0,2.2-2.19,3.73-4.15,3.73-1.73,0-3.58-1.01-3.58-3.24,0-1.64,1.03-2.63,2.03-2.63.72,0,1.04.46,1.04.92,0,.23-.03.33-.1.41l-.22.22.22.22c.19.19.48.31.72.31.56,0,1.14-.45,1.16-1.34-.07-1.21-1.47-1.86-2.74-1.86-1.98,0-4.12,1.47-4.12,3.84,0,2.74,2.89,4.44,5.56,4.44ZM274.82,27.88l-1.11-4.03c-.08-.15-.26-.31-.46-.28-1.99.1-4.03.21-5.68.21-1.47,0-3.31-.1-4.78-.18-.26-.03-.49-.03-.7-.03h-.03c-.23-.03-.39.08-.49.31l-1.63,4c-.05.21.23.31.57.31.28,0,.65-.08.77-.36.67-1.47,2.07-3.05,3.41-3.05,1.01,0,1.32.52,1.32,1.42,0,.28-.03.57-.08.9v-.03c-.26,1.83-1.14,6.92-1.57,8.86-.26,1.24-.72,2.25-1.83,2.25-.21,0-.31.08-.34.28-.03.21-.1.44-.13.65-.03.15.08.21.15.21.96-.08,2.01-.13,2.94-.13s1.96.05,2.89.13c.15-.03.28-.1.31-.28.03-.21.1-.41.13-.62.03-.15-.03-.23-.18-.23-.93,0-1.21-.54-1.21-1.37,0-.34.05-.62.1-.96.26-1.99,1.16-7,1.57-8.86.26-1.16.67-2.14,1.68-2.22,1.45-.1,2.25,1.47,3.05,3.07.13.26.36.36.67.36.34,0,.67-.13.65-.34ZM287.52,33.95c-.34,0-.67.15-.8.41-.98,1.96-2.84,3.74-4.7,3.74h-.34c-2.14,0-2.19-1.03-2.01-2.32l.18-1.29c.28-1.88,1.03-6.15,1.37-7.62.28-1.21.7-2.25,1.83-2.25.21,0,.31-.08.34-.28.03-.21.1-.41.13-.62.03-.16-.05-.23-.15-.23-1.01.1-2.04.13-3,.13s-1.96-.03-2.84-.13c-.15.03-.28.1-.31.28-.03.21-.1.44-.13.65-.03.18.1.21.18.21.93,0,1.19.57,1.19,1.42,0,.28-.03.62-.08.93v-.03c-.21,1.47-.88,5.73-1.27,7.62l-.28,1.29c-.26,1.32-.67,2.25-1.83,2.25-.21,0-.31.1-.34.31l-.16.7c0,.13.1.21.18.21,1.65-.08,3.54-.13,5.22-.13,1.88,0,3.77.05,5.6.13.23,0,.41-.1.52-.31l1.96-4.83c.08-.21-.21-.23-.46-.23Z" style="fill: #f49d1e; fill-rule: evenodd;"/>
      <g style="clip-path: url(#clippath);">
        <rect x="-.73" y="-30.72" width="290.91" height="136.59" style="fill: #f49d1e;"/>
      </g>
    </g>
    <path d="M59.6,55.27s0,0,0,0c0,0,0,0,0,0,0,0,0,0,0,0ZM59.43,55.27s0,0,0,0c0-.01,0,.05,0,0ZM57.46,52.6s0-.02-.01-.02c0,.01.01.02.01.02ZM56.07,49.51s.02-.03,0,0h0ZM54.4,47.35s0,0,0,0c0,0,0,0,0,0Z" style="fill: #f49d1e;"/>
  </g>
  <g>
    <g>
      <path d="M35.72,47.54c-.02-.05-.05-.1-.1-.13-.21-.13-.41-.27-.59-.43-.35-.31-.63-.68-.86-1.13-.04-.09-.15-.12-.23-.07-.32.2-.63.41-.95.61-6.24,3.91-12.72,7.56-19.67,10.05-5.46,2-15.05,3.9-10.97-5.32.5-1.11,1.1-2.19,1.75-3.23.05-.08.04-.18-.04-.24-.09-.08-.22-.06-.29.04-1.96,2.39-4.57,5.84-3.53,9.2,3.43,8.03,22.61-.89,28.05-3.77,2.58-1.35,5.21-2.84,7.85-4.46.08-.05.1-.16.04-.24-.2-.27-.36-.57-.47-.89Z" style="fill: #f49d1e;"/>
      <g>
        <path d="M70.95,39.07c-.46,2.71-1.28,5.36-2.44,7.85l-.93,1.82s0,.02-.01.02l-1.08,1.74c-6.89,10.58-20.34,15.5-32.42,11.77-3.66-1.08-6.93-2.87-9.73-5.16-.09-.07-.21-.09-.31-.04-.99.44-2.09.91-3.25,1.37-.21.08-.26.36-.09.5,7.91,7.01,19.23,10.06,30.42,6.41,6.16-2.07,11.3-5.85,15.08-11.11.48-.7,1-1.6,1.47-2.31,0,0,0-.01.01-.02.2-.36,1.02-2,1.24-2.4,0,0,0-.02.01-.03.34-.83.67-1.66.98-2.5,0,0,0-.02,0-.03.22-.8.54-1.78.74-2.57.37-1.72.61-3.53.68-5.26.03-.27-.36-.28-.38-.06Z" style="fill: #f49d1e;"/>
        <path d="M19.15,52.17c.17-.08.22-.3.11-.45-5.95-8.18-7.63-19.35-3.05-29.12,4.5-10.08,15.1-16.99,26.16-16.95.09,0,.18-.07.19-.17.02-.12-.07-.21-.19-.22C25.31,3.19,10.38,17.57,10.12,34.53c-.21,7.11,1.93,13.61,5.64,18.89.08.12.23.16.37.1,1.02-.43,2.04-.88,3.03-1.35Z" style="fill: #f49d1e;"/>
      </g>
      <path d="M73.56.22c-3.36-.77-6.73.67-9.56,1.97-.09.03-.16.14-.12.24.03.1.14.16.24.13,1.17-.37,2.36-.68,3.56-.92,10.16-1.95,7.91,5.08,3.9,10.82-4.21,6.06-9.53,11.27-15,16.2-1.54,1.36-3.11,2.7-4.7,4.01-.11.09-.06.28.09.29.35.03.87.09,1.24.22.65.23,1.22.68,1.62,1.31.03.05.07.1.1.15,0,.02.02.03.03.05.06.11.22.14.31.06,7.31-6.33,13.83-13.41,18.48-20.82,1.5-2.66,3.01-5.47,3.18-8.66.17-2.22-1.15-4.51-3.36-5.05Z" style="fill: #f49d1e;"/>
    </g>
    <path d="M59.03,50.8c.03-.45.09-.91.01-1.35-.02-.11-.05-.22-.08-.33-.02-.1-.03-.21-.04-.32-.03-.22-.07-.43-.13-.65-.12-.45-.2-.91-.36-1.34-.15-.42-.25-.83-.3-1.27-.03-.22-.04-.44-.11-.65,0,0,0,0,0,0-.06-.21-.14-.41-.18-.63-.04-.22-.06-.45-.1-.68-.04-.22-.1-.43-.16-.64-.14-.41-.32-.8-.53-1.18-.21-.37-.44-.75-.71-1.08-.28-.35-.64-.59-1.05-.77-.43-.18-.89-.28-1.34-.32-.23-.02-.47-.02-.7-.06-.2-.03-.39-.14-.57-.25-.28-.17-.48-.48-.65-.74-.18-.28-.34-.57-.5-.86.25-.22.57-.35.84-.55.19-.13.38-.24.58-.35.02,0,.03-.02.04-.02.1-.06.21-.11.31-.16.04-.02.08-.04.12-.06,0,0,.01,0,.02,0s.01,0,.01,0c.09,0,.21.05.31.08.12.04.24.07.36.06.09,0,.17-.07.08-.15-.15-.14-.31-.27-.44-.42,0,0,0,0,0,0,0,0,0,0,0,0,0,0,0-.01-.01-.02-.01-.02,0-.01-.02-.03-.02-.05-.04-.1-.07-.15-.06-.14-.13-.28-.2-.41-.02-.03-.03-.05-.05-.08-.19-.29-.44-.52-.77-.64-.65-.23-1.34-.13-2.01-.13-.23,0-.45-.01-.68-.05-.23-.04-.42-.15-.62-.26-.21-.11-.39-.23-.56-.4-.14-.14-.29-.3-.36-.48-.07-.17-.09-.36-.14-.54-.07-.23-.14-.45-.18-.68-.08-.47-.13-.94-.19-1.42-.05-.47-.11-.93-.2-1.4-.04-.22-.09-.44-.18-.65-.08-.2-.16-.41-.23-.62-.07-.2-.17-.36-.29-.53-.07-.09-.14-.19-.23-.26-.09-.07-.19-.13-.29-.19-.21-.14-.39-.31-.58-.47-.19-.17-.37-.33-.56-.5-.13-.12-.27-.24-.4-.36-.24-.22-.49-.44-.73-.65-.37-.32-.76-.59-1.19-.83-.42-.23-.84-.48-1.31-.59-.44-.11-.83-.31-1.23-.51-.21-.11-.38-.26-.58-.38-.2-.12-.41-.2-.62-.27-.47-.17-.95-.29-1.4-.49-.19-.08-.39-.15-.58-.23-.17-.07-.43-.15-.6-.03-.11.07-.03.19.07.31-.05-.02-.1-.03-.16-.04-.22-.04-.44-.06-.66-.12-.21-.05-.42-.11-.64-.16-.17-.04-.33-.07-.5-.11-.19-.05-.66-.16-.7.14-.04.28.38.41.58.47.22.07.47.15.67.28-.14-.02-.28-.04-.42-.05-.25-.03-.49-.08-.73-.17-.22-.08-.85-.25-.82.17.01.2.24.31.4.38.16.07.33.1.5.13.06.01.17.03.22.05.02,0,.01,0,.02.01.02.04,0,.07,0,.1-.03.09-.1.16-.12.25-.02.08-.03.17,0,.25.05.15.2.24.33.31.1.05.2.12.3.17.07.04.13.06.21.08.02,0,.05,0,.07.02-.03.08-.1.15-.07.23.04.16.23.26.36.33.19.09.37.18.55.29.02,0,.03.02.05.03.08.04.15.08.23.11.03,0,.06.02.09.02,0,.05-.02.11-.02.15-.02.1-.02.19.03.28.06.12.17.2.27.28.11.07.22.12.34.17.11.04.13.09.14.21,0,.12.02.23.1.32.09.11.22.18.36.24.09.04.21.08.28.16.04.05.01.12,0,.18-.02.11-.03.22.03.33.06.11.17.19.28.24.11.05.23.08.35.12.1.03.16.08.19.19.03.11,0,.22.07.33.09.12.24.18.38.21.2.04.44.15.58.3.08.09.1.21.14.33.04.13.07.27.14.39.04.07.09.14.14.21.03.04.06.09.09.13.07.13.06.27.08.41.02.14.11.24.19.34.09.1.14.21.16.35.04.25,0,.51.18.71.03.04.07.07.08.11.02.07.03.14.04.21.02.14.04.27.08.41.04.14.1.26.17.39.07.14.07.26.05.4-.04.27.07.49.2.72.09.16.18.32.26.49.03.11.06.21.1.32.12.35.21.72.24,1.08.02.19-.02.38-.01.57,0,.17.08.33.15.48.07.15.16.28.28.39.02.02.05.04.08.06t0,0c.08.06.18.11.24.19.08.1-.04.22-.1.29-.12.12-.25.23-.39.32-.28.2-.55.42-.82.63-.27.21-.55.42-.85.59-.32.18-.67.31-1.02.45-.37.15-.73.3-1.1.45,0,0-.02,0-.03.01-.16.06-.33.12-.49.19-.15.07-.27.18-.41.26-.17.08-.35.15-.52.22-.18.07-.36.14-.55.21-.35.13-.71.24-1.07.33-.18.05-.37.09-.56.14-.17.05-.34.12-.51.16-.16.04-.32.06-.47.15-.12.07-.24.15-.33.26-.09.09-.16.21-.17.34,0,.15.06.27.15.38.1.13.23.23.36.33.12.1.24.2.36.3.06.06.13.11.2.15.06.04.13.08.2.12.08.04.15.07.23.1.06.02.13.03.19.07.09.07.15.18.19.28.06.14.1.28.16.42.13.31.3.59.56.82.13.12.28.21.43.3.15.08.3.18.46.24.04.02.13.03.15.06.03.03.03.11.03.15,0,.07.01.13.02.19.01.09.03.18.06.28.1.33.28.58.54.8.12.1.24.2.36.31.11.11.18.21.21.37.03.15.03.3.08.44.05.14.14.24.25.33.23.18.6.35.89.23.23-.09.35-.38.44-.59.15-.32.29-.65.45-.97.16-.32.32-.65.55-.93.23-.29.51-.56.74-.85.08-.1.16-.19.25-.29.14-.16.28-.32.4-.5.09-.14.16-.3.25-.44.1-.15.21-.29.33-.43.11-.13.23-.26.35-.39.12-.12.25-.24.35-.37.11-.13.21-.28.33-.41.12-.13.25-.25.37-.37.22-.22.39-.49.69-.61.14-.06.3-.09.45-.09.12,0,.19.03.28.11.04.04.08.08.11.13.14.09.29.16.44.23.1.04.2.08.29.13.09.05.17.12.26.18.1.07.21.12.32.18.11.06.2.14.31.2.09.05.19.09.27.16.08.08.14.16.23.23.08.06.17.1.23.18.06.07.11.14.18.2.06.06.13.11.21.15.08.04.17.06.24.11.17.12.32.24.54.23.07,0,.14-.03.21-.03.06,0,.11.03.16.06.09.05.18.11.28.17.08.05.15.12.22.18.09.07.18.14.29.18.05.02.1.03.16.04,0,0,.06.02.06,0,.03.02.06.08.08.11.02.04.05.07.08.1.08.08.18.12.29.15.14.04.33,0,.44.12.08.07.14.15.23.2.09.05.2.08.3.11.14.03.2.06.28.19.14.23.17.52.31.76.04.07.09.12.14.17.05.04.1.07.13.13.06.11.04.26.06.39.02.18.1.35.27.44.1.05.21.07.32.06.04.22.1.44.15.67.02.11.06.21.15.29.05.05.11.08.18.1.04.11.03.28.03.39,0,.19-.01.39.03.57.05.21.2.34.41.39.11.03.2.03.27-.04.06.26.1.52.2.77,0,.02.01.03.02.05.06.15.12.33.24.44.11.1.25.14.39.15,0,.14-.06.29-.06.43,0,.25-.02.5.01.75.02.15.05.33.18.43.1.08.27.12.39.09.02,0,.04-.02.06-.03.03.12.04.24.05.36.02.25,0,.49.04.74.02.16.04.34.17.45.1.08.23.11.35.1.04.22,0,.45.03.67.02.24.03.56.29.66.08.03.19.05.26-.01.1-.08.13-.21.14-.34,0,0,0,0,0,.01.07.17.27.26.45.26.15,0,.21-.11.23-.25.06-.43.09-.87.15-1.31.06-.47.07-.94.09-1.41.03-.47.1-.93.19-1.39.04-.23.09-.47.12-.7.03-.22.03-.44.05-.65ZM36.52,25.15s0,0-.02,0c0,0,.02,0,.02,0ZM56.27,53.44s.01.01.01.02v-.02ZM58.01,56.29h0s0,0,0,0ZM58.17,56.31s0,0,0,0t0,0s0,0,0,0Z" style="fill: #f49d1e;"/>
  </g>
</svg>