<?xml version="1.0" encoding="UTF-8"?>
<svg id="Layer_1" data-name="Layer 1" xmlns="http://www.w3.org/2000/svg" viewBox="0 0 218.97 340.49">
  <defs>
    <style>
      .cls-1 {
        fill: #d099c3;
      }

      .cls-2 {
        fill: #6ca442;
      }

      .cls-3 {
        fill: #abd262;
      }

      .cls-4 {
        fill: #af70ad;
      }

      .cls-5 {
        fill: #acd263;
      }
    </style>
  </defs>
  <path class="cls-5" d="M132.84,138.6c-1.42,4.57-2.87,10.9-4.12,15.59-.54,1.73-1.31,3.45-1.96,5.1-1.61,4.36-2.7,9.03-3.88,13.58-2.71,11.71-7.04,23.51-15.03,32.69-3.19,3.66-6.72,6.94-10.04,10.32-3.29,3.42-6.67,6.86-10.15,10.12-6.95,6.35-13.81,13.35-19.82,20.56-9.32,10.77-18.54,21.81-25.94,34-2.5,4.05-4.33,8.39-6.29,12.72-1.94,4.35-3.84,8.72-5.45,13.17-1.65,4.48-2.33,9.22-3.91,13.79-1.01,2.85-2.26,5.49-3.21,8.26-.55,1.78-.82,3.82-2.22,5.25-.28.28-.74.28-1.02,0-.26-.27-.27-.68-.05-.96,1.06-1.57.89-4.24,1.79-6.61.74-2.33,1.69-4.53,2.48-6.73,1.57-4.36,2.64-9.08,4.29-13.66,1.67-4.52,3.54-8.94,5.47-13.31,1.93-4.39,3.81-8.88,6.35-12.97,2.53-4.13,5.42-7.98,8.31-11.78,8.51-11.56,17.42-22.92,27.67-33,6.73-6.82,13.21-13.78,20.09-20.46,5.12-4.97,10.7-9.45,14.27-15.63,3.39-6.17,6.24-12.72,8.4-19.43,1.45-4.53,2.34-9.22,3.48-13.86.62-2.35,1.3-4.72,2.33-6.94,1.01-2.19,2.07-4.16,2.64-6.49,1.26-4.62,2.49-9.21,3.93-13.84.14-.44.61-.69,1.05-.55.45.14.7.63.55,1.08h0Z"/>
  <path class="cls-5" d="M141.48,134.16c-2.63,7.04-6.1,13.67-7.74,20.98-.59,2.38-1.39,4.67-1.65,7.12-.24,2.02-.65,5.35-1,7.45-.34,2.49-.74,5.01-1.43,7.51-.51,1.86-1.26,3.71-2.18,5.41-.84,1.65-1.33,3.33-2.05,5.11-4.76,10.26-10.83,20.07-18.58,28.45-3.46,3.71-7.22,6.96-10.39,10.68-3.34,3.81-7.13,7.13-10.76,10.6-3.63,3.41-7.1,6.98-10.48,10.62-6.76,7.27-12.97,15.08-18.19,23.52-2.6,4.23-4.88,8.9-8.2,12.65-3.8,4.83-6.07,10.62-7.94,16.44-.93,2.84-2.84,7.83-3.86,10.59-2.62,6.75-3.9,14.5-5.4,21.57-.43,2.47-.97,5.27-2.58,7.34-.24.32-.69.39-1.02.15-.29-.22-.37-.61-.21-.93,1.17-2.18,1.33-4.46,1.63-6.91,1.05-7.51,3.05-14.84,5.73-21.91,1.81-4.69,3.46-9.34,5-14.11,1.96-5.95,5.14-11.67,9.38-16.41,2.16-2.99,3.93-6.3,5.98-9.43,5.52-8.39,11.14-16.8,18.15-24.03,6.8-7.29,14.87-13.37,21.06-21.21,3.16-4.04,7.03-7.31,10.46-10.83,6.07-6.14,11.16-13.28,14.8-21.12,1.67-3.38,3.25-6.6,4.5-10.18.97-2.24,2.32-4.35,2.96-6.75,1.37-4.69,1.78-9.71,2.22-14.61.23-2.55,1.12-5,1.86-7.43,1.37-4.76,3.43-9.61,5.46-14.09,1.01-2.29,2.03-4.57,2.89-6.87.16-.44.65-.66,1.08-.49.44.16.66.65.49,1.08h0v.04Z"/>
  <path class="cls-5" d="M104.48,206.5c6.66-13.76,1.79-18.09-9.47-25.91-8.9-6.22-18.7-11.21-29.22-13.99-1.89-.53-4.04-.99-5.97-1.39-3.37-.73-6.6-1.94-9.94-2.68-8.01-1.42-15.85-4.62-23.97-5.16-4.01-.21-8.26.43-12.35.18-.81-.03-4.85-.22-5.7-.25-2.14-.12-4.47-1.03-6.48-.93l.79-.38s.03-.02.03-.04c0-.02.03-.05.03-.08,0-.02.02-.04,0-.06,0-.01,0,0,0,0,.91,1.45,2.66,2.34,4.11,3.31,1.92,1.19,4.2,2.32,6.12,3.51,3.97,2.36,8.31,4.34,12.3,7.1,3.95,2.74,7.39,6.09,10.71,9.53l2.46,2.55c2.43,2.52,5.21,4.61,8.02,6.72,1.88,1.41,3.79,2.86,5.6,4.41,3.57,3.02,7.55,5.51,11.38,8.23,3.8,2.77,7.49,5.67,11.5,8.13,3.8,2.6,8.05,4.52,12.67,5.04,3.37.38,6.85.25,9.98-1.09,1.94-.77,3.77-1.99,4.09-4.08.05-2.02-1.98-3.56-3.43-4.93-6.06-5.58-13.36-9.49-20.1-14.15-7.75-5.37-15.71-10.35-23.88-15.02-6.1-3.49-12.58-6.15-19.26-8.29-3.33-1.09-6.78-2.06-10.13-3.13-3.31-1.13-6.58-2.55-9.97-3.26-.39-.08-.64-.47-.56-.86.08-.37.42-.61.78-.57,3.5.33,7.08,1.63,10.41,2.61,5.71,1.57,11.44,3.11,16.91,5.41,4.41,1.83,8.66,4,12.79,6.35,8.19,4.72,16.24,9.74,24.03,15.07,6.83,4.67,14.28,8.61,20.31,14.35,2.37,2.04,5.42,5.32,3.27,8.62-.98,1.74-2.77,2.83-4.58,3.52-3.42,1.41-7.28,1.57-10.89,1.13-3.62-.47-7.18-1.52-10.38-3.32-3.1-1.77-6.13-3.62-9.08-5.65-5.67-4.3-11.77-7.94-17.2-12.59-4.4-3.94-9.44-7.16-13.57-11.44-3.96-4.21-8.19-8.44-13.06-11.55-4.33-2.75-9.34-4.88-13.83-7.71l-1.54-.86c-2.25-1.41-10.21-5.17-7.74-8.39l.29-.36c2.64-.2,4.81.8,7.24,1.03,3,.17,6.69.5,9.67.38,4.06-.15,8.42-.46,12.52.23,6.86.99,13.43,3.06,20.21,4.35,4.12.93,7.86,2.43,11.94,3.2,12.13,2.96,23.99,7.85,33.98,15.41,4.35,3.46,9.42,6.63,11.89,11.88,2.52,5.43.13,11.56-2.2,16.52-.49,1-1.95.36-1.54-.67h0v.02Z"/>
  <path class="cls-5" d="M107.33,215.76c-2.49,1.6-4.85,3.92-3.98,6.94.88,2.83,3.26,5.12,5.81,6.59,1.84.95,3.9,1.83,5.78,2.69,5.91,2.69,12.21,3.83,18.37,5.82,6.1,2,12.33,3.51,18.71,4.06,2.13.19,4.29.37,6.47.64,6.49.91,12.72,3.02,19.07,4.58,4.41,1.27,8.03,3.92,11.82,5.61l-1.53,1.37c-.6-1.7-2.03-3.38-3.15-5.26-3.38-5.42-8.03-9.71-12.12-14.63-2.81-3.14-5.46-6.69-8.31-9.74-2.85-3.1-6.34-5.39-10.12-7.18-5.5-2.66-12.03-4.69-17.9-6.46-2.02-.59-3.98-1.38-6.07-1.76-2.04-.38-4.13-.58-6.25-.65-4.13-.2-8.35-.06-11.73,2.5-1.41.97-3.27,2.38-3.39,4.07l-.48-.89c2.57,1.47,5.71.96,8.68,1.47,1.61.26,3.15.7,4.64,1.18,1.11.36,3.31,1.1,4.41,1.48,1.24.44,3.11.98,4.4,1.33,4.49,1.33,8.71,3.52,12.98,5.28,5.7,2.44,11.59,4.5,17.12,7.38,5.53,2.9,10.74,6.29,15.79,9.86.7.5.06,1.66-.76,1.23-5.47-2.91-10.75-6.1-16.14-9-5.38-2.98-11.09-5.28-16.78-7.65-4.29-1.79-8.35-3.9-12.77-5.19-2.11-.54-4.62-1.36-6.68-2.06-2.06-.66-4.45-1.48-6.54-1.8-3.23-.49-6.97,0-9.91-2.11-.13-2.82,2.28-4.79,4.38-6.16,3.68-2.7,8.52-2.88,12.85-2.63,2.16.1,4.33.23,6.5.63,2.14.36,4.19,1.08,6.29,1.64,8.31,2.22,16.8,4.79,23.88,9.85,5.3,3.84,8.8,9.47,13.34,14.07,4.35,4.69,9.36,9.11,12.68,14.68.58.9,1.14,1.83,1.72,2.69,1.08,1.49,1.81,3.78,2.38,5.59l-2.34-1.11c-4.05-1.92-7.47-4.6-11.44-5.73-5.14-1.41-10.39-2.83-15.65-3.73-3.17-.52-6.33-.66-9.56-.97-4.38-.37-8.7-1.29-12.91-2.44-4.2-1.16-8.17-2.68-12.43-3.63-4.22-.98-8.6-2.17-12.45-4.19l-2.91-1.46c-.84-.44-2.12-1.03-2.94-1.55-3.74-2.37-7.95-6.74-6.39-11.56.85-2.29,2.73-3.85,4.67-5.11.39-.25.91-.14,1.16.25s.14.91-.25,1.16h-.02Z"/>
  <g>
    <path class="cls-2" d="M88.05,188.69c-.85-3.99-2.4-7.84-4.27-11.42-.1,0-.14.06-.14.14h0s.01.04.02.06c0,.03.02.07.03.11.07.26.15.51.21.76,0,.07,0,.13,0,.1,0-.02,0-.04.01-.06.91,3.38,1.93,6.74,3.02,10.07.65,2.06,1.45,4.18,1.11,6.37.78-1.97.42-4.11.01-6.13h0Z"/>
    <path class="cls-2" d="M96.13,190.37c-.9-2.4-2.57-4.43-3.46-6.83-.29-1.39-.12.73.13,1.23.56,2.03,1.43,3.75,2.08,5.43,1.15,3.52,1.37,6.83,1.8,10.36.34-3.41.55-6.9-.55-10.19Z"/>
    <path class="cls-2" d="M98.87,185.6c.84,1.92,1.08,4.4,1.35,6.27-.16,3.82-.69,7.64-1.18,11.44,2.14-5.7,3.62-12.36-.17-17.71Z"/>
    <path class="cls-2" d="M106.26,195.17c0-1.75-.43-3.62-1.27-5.12.03.09.05.18.08.27.39,1.59.54,3.48.3,4.98-1.16,3.11-2.41,6.18-3.49,9.32,1.78-2.95,3.69-6.05,4.39-9.46h-.01Z"/>
    <path class="cls-2" d="M75.32,172.56c-.15,5.94,1.57,11.92,4.6,17.04-1.68-5.58-3.37-11.52-4.6-17.04Z"/>
    <path class="cls-2" d="M66.33,169.54c-.91-1.08-.11.09.16.52,3.92,3.92,5.47,9.18,5.52,14.67,1.34-6.19-.46-11.52-5.68-15.19Z"/>
    <path class="cls-2" d="M61.38,171.57c-.32-1.9-2.2-3.8-3.4-4.19,1.28,1.11,2.27,2.44,2.55,4.11.48,2.37,1.56,4.73,1.32,7.18.78-2.3.12-4.83-.47-7.11h0Z"/>
    <path class="cls-2" d="M49.98,164.79c1.4,3.04,3.17,5.92,4.37,9.05-.36-3.39-2.28-6.53-4.37-9.05Z"/>
    <path class="cls-2" d="M35.67,161.57c1.25,1.99,2.73,3.78,4.15,5.68-.88-2.21-2.44-4.08-4.15-5.68Z"/>
    <path class="cls-2" d="M85.75,210.58c4.79-1.99,10.17-1.89,15.18-2.69-5.12-.48-10.9-.49-15.18,2.69Z"/>
    <path class="cls-2" d="M86.42,204.06c-2.23.75-4.28,2-6.1,3.44,2.06-.97,4.17-1.86,6.37-2.45,3.06-.28,6.58-.71,9.72-1.65-3.33.24-6.71.12-10,.66h.01Z"/>
    <path class="cls-2" d="M80.48,198.01c-2.07.52-4.66,1.89-5.75,3.31,4.61-3.37,10.37-2.04,15.69-3.11-3.3-.14-6.64-.63-9.94-.21h0Z"/>
    <path class="cls-2" d="M76.32,194.08c-1.56,0-2.98-.49-4.71-.26-1.31.24-2.5.94-3.82,1.17-1.61.31-3.3.21-4.97.27,3.15.8,5.84.78,8.96-.17,1.01-.07,2.98.3,4.32.26,2.91-.39,5.73-1.47,8.37-2.72-2.66.65-5.66,1.22-8.15,1.46h0Z"/>
    <path class="cls-2" d="M57.53,188.85c3.79.32,13.07.84,17.99-2.17-6.02,1.67-12.15.82-17.99,2.17Z"/>
    <path class="cls-2" d="M49.9,184.01c1.38-.43,3.27-.73,4.64-.79,4.36.35,8.81.25,13.03-1.01-5.78.64-12.68-1.22-17.67,1.8h0Z"/>
    <path class="cls-2" d="M51.51,177.63c-2.38.4-4.68-.03-7.06-.08,1.04.3,2.91.77,4.25,1.03,3.11.12,6.59-.28,9.18-2.13-1.97.94-4.39.93-6.36,1.18h-.01Z"/>
    <path class="cls-2" d="M42.05,171.9c-1.03,0-2.18.05-3.15.04-1.31-.28-2.62-.79-3.85-1.22,1.53.93,3.12,2.1,4.98,2.05,3,.2,6.38-.23,8.8-2.11-2.11,1.07-4.49,1.03-6.78,1.24Z"/>
    <path class="cls-2" d="M153.29,224.46c-2.64,0-5.17,1.27-7.29,2.76,2.25-.94,4.76-1.71,7.09-2.02,1.55.14,3.31.5,4.76.27-1.56-.17-3.02-.71-4.55-1.01h-.01Z"/>
    <path class="cls-2" d="M151.81,220.25c-2.19.34-4.34-.01-6.52-.15-2.5.59-4.84,2.28-6.63,4.1,1.96-1.32,4.6-2.51,6.57-3.13,1.96-.03,3.97.32,5.83-.47.56-.22,2.21-.32.75-.35Z"/>
    <path class="cls-2" d="M143.96,215.11c-2.6.15-5.23-.1-7.83.08-3.08.97-6.04,2.35-8.86,3.91,3.03-.89,6.36-1.9,9.13-2.85,2.12-.17,4.96-.44,7.26-.99.21-.04.8-.31.3-.15h0Z"/>
    <path class="cls-2" d="M120.61,216.71c4.65-.45,8.22-4.35,12.93-4.06-4.45-1.55-8.78,2.52-12.93,4.06Z"/>
    <path class="cls-2" d="M112.63,216.49c3.25-1.33,6.33-3.02,9.45-4.59,1.42-.49,3.09-.77,4.6-1.17-5.42-.52-9.97,2.82-14.06,5.76h0Z"/>
    <path class="cls-2" d="M141.51,230.18c-1.16-2.22-2.74-4.27-4.57-5.97,1.34,1.92,2.62,4.34,3.59,6.26.88,2.73,1.81,5.71,3.86,7.78-1.35-2.12-1.97-5.39-2.89-8.07h.01Z"/>
    <path class="cls-2" d="M135.22,235.52c-.63-2.56-.65-5.12-1.05-7.71-.7-2.96-2.56-5.55-4.89-7.47,1.42,1.88,2.72,4.02,3.36,6.15.87,2.88,1,5.95,2.23,8.73.25.51,1.13,1.69.35.3Z"/>
    <path class="cls-2" d="M127.66,226.37c-.92-3.58-3.73-6.12-6.79-8,1.86,1.95,3.88,3.88,4.93,6.26.8,2.81,3.22,5.64,4.29,8.59-.23-2.39-1.64-4.82-2.43-6.84h0Z"/>
    <path class="cls-2" d="M121.52,229.89c-.57-1.32-.51-2.82-.85-4.2-.88-3.46-2.95-6.56-5.71-8.83,2.04,2.61,3.67,5.85,4.89,8.94.49,1.36.71,2.85,1.51,4.07.08.14.41.36.44.34-.11-.09-.21-.19-.28-.31h0Z"/>
    <path class="cls-2" d="M112.81,227.81c-1.9-3.24-2.05-7.43-2.66-11.13-.46,3.74-.04,7.67,2.2,10.81.14.34.66.4.46.32Z"/>
    <path class="cls-2" d="M152.49,235.18c-1.52-2.97-3.76-5.5-6.19-7.78,1.68,2.61,3.54,5.02,4.86,7.69,1.51,2.06,3.58,4.07,5.44,5.61-1.4-1.78-2.78-3.79-4.11-5.51h0Z"/>
    <path class="cls-2" d="M156.47,230.68c3.15.15,6.36.33,9.48.17-3.1-.65-6.36-.83-9.48-.17Z"/>
    <path class="cls-2" d="M161.4,234.14c1.08,2.39,2.49,4.65,4.21,6.63-1.2-2.43-2.58-4.61-4.21-6.63Z"/>
  </g>
  <path class="cls-4" d="M149.93,127.9c.91-2.99.6-6.21.39-9.29-.54,2.72-1.11,5.87-2.23,8.2-2.01,2.51-4.4,4.23-7.97,4.48-1.29.4-3.57,2.06-4.18,2.51-1.92,1.42-4.08,2.49-5.97,3.95-.85.79-1.67,1.73-2.38,2.77,1.68-6.69-.58-14.58-3.3-20.26-.81-3.06-.93-5.7-.13-9.31.76-2.14,2.27-3.99,3.53-5.87-1.85,1.45-3.8,2.95-5.15,4.9-1.48,2.93-2.19,6.21-1.88,9.46-5.67,1.93-11.21,1.14-16.52-.42-3.01-.86-3.86-.79-5.87-2.14-3.62-1.98-7.22-3.99-10.75-6.14-.51-.36-1.05-.64-1.6-.89,1.04-.01,2.07-.11,3.08-.4,2.14-1.13,3.39-2.19,5.4-2.86,3.47-1.87,6.77-4.02,10.22-5.93,2.03-.93,3.85-2.17,5.92-2.48,1.16-.29,2.37-.03,3.57-.06,1.4-.21,2.84-.54,4.12-1.14-1.39.17-2.87.15-4.26-.07-1.22-.41-2.46-.8-3.76-.78-6.04.16-13.1,4.32-17.2,7.1-1,.65-2.13,1.08-3.05,1.86-.95.69-1.74,1.7-2.47,1.99-2.07.71-5.09.89-7.7,1.49-1.59-.14-3.43-.06-4.94.85.83-.15,1.69-.15,2.54-.07.26.05.52.07.8.08,2.08.71,4.39,1.59,5.89,2.32,2.99,2.34,6.66,5.77,10.42,7.77,2.87,2.14,6.25,2.94,9.75,3.31,5.58.93,11.77.15,16.45-3.19.06.59.15,1.18.28,1.77,2.38,6.76,6.16,14.48,4.97,22.47-.27.89-.4,1.79-.33,2.66.37-1.39,1.02-2.55,1.67-3.22,1.44-1.84,3.83-3.76,6.1-4.53,2.61-.94,5.72-3,7.71-4.14,3.41-.17,7.31-3.25,8.83-6.74h0Z"/>
  <path class="cls-4" d="M177.22,160.37c.36-2.52,1.1-4.99,1.48-7.52.38-2.32.18-4.67.39-7,.58-9.56.82-15.27-4.32-22.72-1.79-1.78-3.31-3.02-5.4-4.19-2.64-1.29-5.8-1.75-7.91-3.98,1.33,2.61,4.2,4.1,6.41,5.66,1.28.95,2.97,3.17,3.83,4.11,4.02,6.82,2.6,15.68,3.84,24.97.28,1.92.3,1.98.33,4.14.04.99.03,1.98.03,2.97-.32-.93-.69-1.85-1.16-2.7-1.55-2.78-4.56-4.14-7.06-5.91-2.49-1.47-4.86-3.15-7.54-4.29-2.45-1.03-2.84-1.02-4.95-2.27-1.76-.93-2.34-1.59-3.38-3.11-1.7-2.14-3.01-4.79-4.03-7.42.35,4.2,1.42,8.77,4.28,11.97,3.52,3.24,8.66,5.2,12.88,7.63,3.93,2.06,7.68,2.81,9.93,6.94.55.59.88,1.58,1.18,2.44.02.17.03.34.05.52.08,1.27.84,2.4.83,3.67.42-.22.04-2.81.27-3.9h.02Z"/>
  <path class="cls-4" d="M105.1,109.12c-3.6.97-6.63.45-10.32,2.38-2.99.83,1.47.28,2.7.13,2.58-.17,5.18.58,7.77.15,6.76-1.79,12.88-6.36,20.22-7.44-7.33-.95-14.76,2.19-20.37,4.79h0Z"/>
  <path class="cls-4" d="M133.08,130.21c0-1.06.57-1.49,1.16-2.21,5.2-5.63,4.36-13.9,5.28-21-2.75,5.81-3.29,11.96-5.38,17.68-.54,1.35-1.65,2.77-2.06,4.26-.08,1.32.35,2.63.52,3.93.04.22.05.38.1.54.16-1.06.3-2.13.39-3.2h-.01Z"/>
  <path class="cls-4" d="M170.17,141.18c-.92-2.93-1.35-6.2-3.55-8.52-3.04-3.84-7.08-6.94-8.87-11.6-.42-1.29-1.32-2.9-.94-4.24-.24.16-.25.5-.31.76-.12,2,.25,3.99.84,5.89.61,2.9,2.61,5.22,4.31,7.56,1.15,1.76,3.03,3.51,4.02,4.9,1.11,1.85,1.82,3.89,2.9,5.76.78,1.86,2,4.04,2.06,5.89.59-2.11-.12-4.32-.46-6.42v.02Z"/>
  <path class="cls-1" d="M154.63,55.96c.14.55-.14,1.4-.21,1.96-.12.65-.24,1.29-.4,1.94-.33,1.31-.71,2.7-1.47,3.83-.49.73-1.02,1.35-1.55,1.99-.32.44-1.13.8-1.47.95-.49.24-.68.58-.95,1.06-.32.59-.64,1.29-1.07,1.8-2.16,2.67-6,2.7-7.81,5.54-1.03,1.56-1.27,3.35-1.72,5.23-.3,1.32-.7,2.56-.89,3.74-.2,1.17-.17,2.47-.42,3.9-.24,1.35-.8,2.67-1.3,3.93-.67,1.46-1.15,3.37-1.95,4.72-.74,1.11-1.82,1.81-2.22,2.95l-.16.37c-.05.11-.08.22-.08.22,0,.01,0-.03,0-.06,0-.08-.03-.2-.04-.26.01-.05-.1-.12-.11-.13.66.18,1.6.04,2.41.17,1.25.07,2.47,1.37,2.01,2.77-.35,1-.98,1.38-1.59,1.93-.21.17-.35.39-.3.26,0-.06.01-.16-.03-.22-.01-.02,0-.02,0-.03-.06-.05.03.03.05.07l-.25-.15,1.33.59.09.04c.52.35.98.92,1.44,1.27,0,0-.1-.01-.12,0,.73-.22,1.17-1.29,1.85-1.87.85-.82,2.34-.5,3.04.33.31.29.47.55.84.57.1,0,.19-.02.31-.12.47-.44.67-1.1.9-1.76.64-2.01,1.51-4.02,2.92-5.69.78-.75,1.2-1.64,1.93-2.46.6-.66,1.17-1.36,1.66-2.1.11-.25.52-.48.62-.07.03.27-.23.51-.34.72-.42.67-.9,1.31-1.41,1.92-.62.77-1.1,1.8-1.8,2.53-1.69,2.07-2.08,4.63-3.06,7.06-.78,1.56-2.37,1.63-3.51.39-.31-.27-.49-.41-.84-.37-.29.06-.44.36-.65.65-.45.69-1.07,1.66-2.15,1.93-1.11.21-1.89-.84-2.67-1.38l.28.17-1.42-.5h-.02c-.66-.32-1.2-1.22-.98-2,.22-1.02,1.33-1.58,1.72-2.33-.01.04-.05.09.02.17.09.09.06.03-.16.02-1.14-.08-2.16.28-3.37-.38-.66-.29-1.23-1.41-1.05-2.05.26-1.48,1.37-3.09,2.34-3.96.88-.86,1.04-1.86,1.53-3.04.59-1.38,1.35-3.04,1.83-4.44.49-1.49.45-2.92.8-4.67.68-2.45,1.44-5.46,2.21-7.68.9-2.7,3.55-4.67,6.04-5.62,1.4-.66,2.63-1.35,3.35-2.61.31-.54.69-1.33,1.18-1.8.53-.67,1.61-.83,2.08-1.25.53-.56,1.13-1.17,1.59-1.75,1.13-1.52,1.66-3.36,2.19-5.16l.26-.94c.09-.31.16-.63.39-.91.09-.12.3-.07.33.08h0Z"/>
  <path class="cls-1" d="M169.28,67c.27.42.14,1.03.17,1.49l-.03,1.47c-.03,1.41-.1,2.98-.21,4.39-.07,1.54-.69,3.11-1.47,4.43-1.04,1.77-2.34,3.25-3.52,4.76-1.06,1.37-2.31,2.95-2.52,4.63l-1.49-.83c1.22-1.2,2.11-3.55,3.31-4.94,1.24-1.68,2.5-3.3,3.78-4.96.67-.91,1.6-1.67,1.84-2.75.61-2.13,1.01-4.39,1.29-6.6.18-1.28.47-2.92.03-4-1.36-2.81-4.79.03-6.29,1.47-1.45,1.37-2.54,3.08-3.78,4.76-.87,1.23-2,2.46-3.03,3.56l-.51.57-.24.29c-.09.09-.13.21-.3.24-.15.03-.3-.07-.32-.23-.02-.18.09-.26.16-.37.14-.19.56-.74.72-.93,3.19-3.48,4.79-8.13,8.79-10.94,2.03-1.63,5.14-2.03,6.6.71.86,1.77.63,3.4.51,5.13-.14,2.36-.51,4.78-1.21,7.05-.37,1.46-1.51,2.54-2.4,3.61l-3.93,4.7c-.64.78-1.24,1.57-1.77,2.38s-1.05,1.88-2.09,2.69c-.39.33-.99.27-1.31-.14-.16-.2-.22-.46-.18-.69.37-2.22,1.69-3.84,2.95-5.51,1.98-2.66,4.41-4.94,4.97-8.27.22-1.39.48-2.92.68-4.3l.2-1.44c.06-.28.07-1.92.61-1.44h-.01Z"/>
  <path class="cls-1" d="M169.13,66.96c.11.21.01.24-.01.33-.07.15-.27.57-.34.73-.54,1.29-1.48,2.29-2.19,3.46-.15.29-.34.62-.4.83-.18.75.35,1.67.34,2.52.08,1.13-.09,2.25-.47,3.31-.41,1.29-.65,2.6-1.17,3.85-.03.07-.07.14-.1.21,0,.03-.03.05-.12.03-.14-.02-.25-.1-.34-.18-.1-.08-.07-.07-.06-.14.19-1.63.25-3.34.01-4.97-.29-1.43-.39-2.63-.4-4.1.05-.94.66-1.73,1.17-2.37.93-1.32,1.86-2.64,3.26-3.51l.22-.16c.09-.04.1-.14.33-.07.11.04.2.12.26.22h0Z"/>
  <path class="cls-1" d="M165.33,82.02c.31.03.39.23.56.37l.48.44,1,.89c2.86,2.4,2.66,4.47,2.19,7.78-.6,7.86-2.37,22.95-12.49,23.51-.51.04-4.79-1-3.72-1.68.08-.04.2-.08.25-.02,1.03.51,2.36.72,3.47.75,2-.28,3.88-1.34,4.98-3.1,1.83-2.87,2.59-6.18,3.6-9.45.96-3.35,1.99-6.65,2.14-10.15.15-1.84.55-3.52.03-4.77-.45-1.01-1.4-2.2-2.1-3.15l-.4-.55c-.12-.2-.31-.34-.27-.65.02-.13.14-.22.27-.2h0v-.02Z"/>
  <path class="cls-1" d="M158.29,104.99c-1.61,2.45-4.27,4.51-4.57,7.81-.11,1.26.5,2.42.39,3.79-.17,1.19-.13,2.49-.71,3.61-.49.91-1.71,1.24-2.48.45-.63-.62-.84-1.26-1.15-1.98-.13-.35-.27-.72-.32-1.08-.18-1.1.06-1.74-.3-2.59-.61-1.4-1.98-2.37-2.83-3.64-.83-1.26-.91-2.82-.72-4.25.19-1.95.63-3.88,1.12-5.76.96-3.69,2.21-7.2,2.48-10.95.11-1.28,0-2.52.13-3.83.02-2.81,2.2-5.02,3.51-7.24l-.06.11.76-1.62-.09.28c.5-2.39,1.9-4.32,2.32-6.63.02-.17.06-.49.07-.65.1-1.57.87-3.01.55-4.59-.5-1.5-.19-3.43.29-4.68.51-1.71.78-3.61,1.06-5.44.21-2.27.25-4.99-1.59-6.48-.89-.39-1.91,0-2.88.39-1.57.74-3.13,1.87-3.88,3.48-.5,1.07-.85,2.62-.5,3.74.08.12.05.1.16.1.12-.01.3-.11.47-.22l-.09.09c.42-.54.89-1.05,1.43-1.47.39-.21.83-.34,1.27-.38h-.06c.88-.22,1.61.09,2.41.04.25,0,.42-.13.69-.12.16,0,.27.19.18.33-.38.5-1.13.41-1.66.39-.94-.1-1.7-.04-2.49.38-.26.19-.87.95-1.23,1.39-1.55,1.17-2.21-.37-2.12-1.71-.07-3.16,2.14-5.8,4.89-7.11.91-.43,1.89-.82,3.07-.75,1.21.07,2.1,1.1,2.62,2.1,1.45,2.85,1.05,5.9.7,8.86-.08,1.65-.95,3.82-.84,5.36.19.98.53,1.9.47,2.96-.03,1.01-.33,1.96-.43,2.93-.09.99-.19,2.07-.5,3-.56,1.84-1.53,3.5-1.94,5.27,0,.11-.82,1.71-.87,1.85-.68,1.15-1.55,2.29-2.26,3.3-1.09,1.42-1.18,3.04-1.23,4.78-.04,1.96-.34,4-.83,5.89-1.05,4.37-2.87,8.36-3.35,12.8-.21,1.33-.1,2.75.93,3.72,1.16,1.25,2.59,2.63,2.81,4.43.12,1.03-.06,1.62.23,2.4.17.52.42,1.19.75,1.55.04.04.05.03-.04.01s-.19.04-.16.02c.1-.06.14-.21.2-.35.27-.76.35-1.8.49-2.62.12-1.18-.39-2.5-.17-3.79.28-2.04,1.57-3.78,2.85-5.26.23-.19,3.07-3.56,3.04-2.42h0Z"/>
  <path class="cls-1" d="M139.03,73.84c-.95.16-2.38-.03-3.35-.06-2.19-.13-4.36-.1-6.43.66-3.02,1.07-5.68,3.23-7.69,5.67-1.05,1.3-1.59,2.56-1.69,4.2-.16,2.42-1.06,6.18-4.26,5.65-.71-.14-1.21-.38-1.61-.44-.84-.14-1.92.05-2.88.35-.87.3-2.12.81-2.99,1.2-.73.33-1.68.94-2.64.85-1.11-.18-1.99-1.32-1.26-2.39.52-.78,1.37-1.24,2.03-1.83.07-.06.13-.15.1-.09-.02.04-.09.13-.05.4.02.12.06.15.06.16-.4-.36-1.16-.61-1.72-.8-.82-.23-1.88.05-2.86-.19-1.18-.28-1.87-.98-1.18-2.21,1.81-2.3,5.3-1.51,7.74-.95.4.1.76.23.93.24.09.01.05-.02-.06.04-.11.07-.11.11-.09.05.27-1.11-1.04-2.17-1.44-3.28-.33-.71-.37-1.62-.49-2.36-.74-3.39-.26-6.99,1.15-10.19,2.01-4.23,5.81-8.29,10.87-8.12,2.91-.12,5.59.65,8.33-.3,2.08-.59,3.88-1.75,5.94-2.56,1.08-.39,1.72-.46,2.32-1.18,1.05-1.18,2.05-2.58,2.47-4.09.23-1.04-.3-2.33-.83-3.29-2.27-3.82-4.8-4.26-8.93-2.92-1.72.51-2.97,1.93-4.76,2.51-.77.27-1.55.4-2.22.54-.32.05-.71.23-1.38.17-1.36-.12-1.97-1.79-1.52-2.87.42-1.24,1.3-2.13,2.29-2.92,1.79-1.41,3.81-2.39,5.87-3.31,2.96-1.2,6.21-.4,8.98.74,1.38.54,2.94,1.2,3.91,2.4.95,1.1,1.97,2.23,2.61,3.67.64,1.41.89,2.93,1.03,4.39.14,1.46.21,2.91.5,4.29.44,2.09,1.3,4.14,1.96,6.19.67,2,.34,4.4,1.43,6.21.07.1.06.24-.05.3-1.16.06-1.42-3.33-1.6-4.22-.15-1.48-.69-2.74-1.2-4.1-1.14-2.67-1.77-5.68-1.98-8.56-.17-1.42-.44-2.82-1.04-4.05-.58-1.23-1.55-2.28-2.52-3.35-.85-1.01-2.16-1.5-3.5-2.01-1.35-.53-2.68-.92-4.06-1.07-2.9-.46-5.33,1.08-7.66,2.51-1.3.89-2.8,1.88-3.35,3.41-.07.24-.05.41-.01.48.01.04.06.08.09.11.63-.09,2.11-.51,2.77-.73,1.3-.49,2.29-1.52,3.62-2.21,2.22-.97,4.45-1.67,7.03-1.32,3.79.64,7.62,5.66,6.91,9.53-.54,2.12-1.78,3.86-3.19,5.45-.76.91-2.29,1.39-3.14,1.68-1.99.83-3.94,1.97-6.08,2.57-5.8,1.87-11.16-2.18-15.7,3.58-2.95,3.31-4.29,7.99-3.4,12.37.07.49.14,1.48.33,1.91.48,1.08,1.21,1.69,1.51,3.08.13.89.05,1.89-.86,2.49-.82.48-1.67.04-2.29-.11-1.79-.44-3.92-1.03-5.58-.04-.09.06-.12.11-.14.13s0,.02-.01.03l-.35-.69c.76.47,1.78.1,2.84.29,1.52.27,4.83,1.68,2.85,3.49-.51.49-1.31.93-1.73,1.47-.02.03.01.01.01-.13,0-.16-.1-.27-.11-.26,0,0,.05.04.13.07,0,0,.07.03.02.01-.02-.01-.07-.02-.08-.02-.02,0-.03,0,0,0,.54-.11,1.02-.4,1.65-.69,2.18-.93,4.49-2.04,6.94-1.64.94.17,1.38.56,2.1.46,1.47-.41,1.66-2.71,1.9-4.16.11-1.75,1-3.62,2.13-4.89,3.01-3.49,7.21-6.18,11.9-6.35.6-.05,7.91.26,6.69.97h0l.02-.02Z"/>
  <path class="cls-1" d="M134.23,57.28c-.72-.11-1.57-.8-2.21-1.12-1.4-.8-2.75-1.65-4.28-2.14-2.22-.57-4.74-1.75-6.91-1.98-1.46-.17-3.13-.33-4.49.07-1.71.57-3.28,1.74-4.09,3.35-.74,1.53-1.54,3.13-2.73,4.4-1.31,1.63-3.54,1.7-5.33,1.46-.63-.04-1.25-.21-1.7.09-.15.1-.34.33-.52.61-.25.39-.72.56-1.14.44-1.51-.39-2.13-2.01-2.99-2.92-.94-.95-2.88-.92-4.3-.82-1.2.05-2.38.18-3.48-.62-1.36-1.06-1.06-3.11-.07-4.27.61-.72,1.41-1.11,2.14-1.33,1.82-.66,3.88.05,5.61,0,.44-.08.64-.2.98-.51.52-.47,1.04-.85,1.53-1.21.4-.3.94-.68,1.26-1,.12-.14.15-.16.23-.4.47-1.64,1.1-3.23,2.6-4.35,1.19-.83,2.35-1.13,3.14-1.8.86-.67,1.59-1.68,2.58-2.54,2.38-2.13,5.55-3.2,8.69-3.47,1.38-.18,2.83.23,4.17.43.46.05.84-.1,1.37-.03,1.01.23,1.6.52,2.7.72.31.11.71.21.86.55.05.16-.09.32-.26.29-.17,0-.26-.08-.38-.14-.4-.18-.8-.21-1.25-.28-1.04-.17-1.6-.61-2.58-.35-1.54.08-2.99-.54-4.53-.24-2.88.38-5.77,1.47-7.87,3.51-.82.77-1.5,1.8-2.49,2.72-1.06.96-2.3,1.39-3.07,2.04-.95.75-1.45,2.26-1.69,3.52-.11.72-.83,1.54-1.37,1.98-1.04.81-2.05,1.87-2.98,2.49-1.57.94-3.51.32-5.07.3-1.33.05-2.57.32-2.66,1.47.02.04-.04-.06-.05-.04.39.25,1.35.14,1.84.14,2.1-.05,4.29-.05,6.04,1.7.73.84.99,1.51,1.61,2.18.14.15.26.22.26.22l-1.14.44c2.19-3.52,5.75.17,8.01-2.25,1.44-1.39,2.05-3.47,3.19-5.09,1.65-2.17,4.43-3.6,7.13-3.38,2.57.03,5.06.78,7.37,1.84,2.35.76,4.62,2,6.58,3.52l1,.71c.33.24.69.44.93.82.08.12-.02.31-.18.29h0v-.02Z"/>
  <path class="cls-1" d="M127.52,39.04c-.47-.43-.66-1.32-.93-1.88-1.3-3.06-2.21-6.48-4.42-9.01-1.78-2-4.1-3.29-6.55-4.35-1.19-.54-2.3-1.42-3.57-1.67-1.3-.34-2.16.29-3.39.83-1.01.45-2.16.92-3.36.95-.91.06-2.55-.5-1.86-1.75.57-1.01,1.66-1.43,1.82-2.3,0-.12-.02-.06,0-.05-1.48-.85-3.91-.42-4.77-2.47-.94-4.27,5.39-4.26,8-3.27,2.31.81,4.12,2.09,6.32,2.96,2.18.92,4.52,1.8,6.32,3.5,2.4,2.42,5.16,4.92,7.11,7.75,1.41,1.91,2.18,4.15,2.94,6.37.41,1.14.86,1.94,1.66,2.91.32.55,2.16,3.33,1.19,3.36l-.2-.15c-.09-.07-.09-.16-.12-.28-.59-1.53-1.59-2.57-2.56-3.91-.88-1.52-1.36-3.19-2.11-4.76-2.02-4.07-5.71-7.01-9.12-9.93-1.71-1.36-3.87-1.95-5.95-2.72-2.14-.7-4.24-2-6.29-2.72-1.52-.49-3.36-.68-4.78-.03-.09.07-.1.09-.11.11-.02.03,0,.09-.03,0-.04-.08-.08-.07.04,0,.4.27,1.57.46,2.2.71,2.03.51,3.18,2.15,1.96,4.09-.44.72-1.45,1.38-1.8,1.88l-.37-1.43c.21.15.76.18,1.33.05,1.34-.28,2.41-.96,3.82-1.4,2.32-.75,4.48.77,6.44,1.75,6.42,2.66,8.76,6.09,10.41,12.71l.56,2,.29.99c.1.33.22.65.18,1.03-.01.15-.2.22-.31.12h0Z"/>
  <path class="cls-1" d="M121.01,37.55c-.2-.1-.14-.12-.17-.16-.2-.57-.31-1.19-.05-1.75.29-.87.03-2.01.71-2.78.34-.42.86-.69,1.31-1.01.45-.3.98-.55,1.54-.5.08.09.09.34.1.47,0,.11,0,.08-.03.11-.29.2-.5.47-.62.81-.16.36-.08.83-.15,1.2-.14.83-.96,1.36-1.16,2.19-.08.59-.49,1.07-.94,1.45-.05.11-.42.03-.55-.04h0Z"/>
  <path class="cls-1" d="M129.42,29.85c-.08-.21.01-.2.05-.27.21-.28.47-.55.77-.75.57-.43,1.3-.59,1.99-.59,1.63-.06,3.8-.1,4.92,1.47.06.11.2.27.24.38.09.2.35.79.45,1,.44.93,1.16,1.91,1.01,3.01-.06.1-.37.07-.48.05-.13-.02-.09-.05-.13-.15-.49-1.22-1.77-1.81-2.77-2.58-.94-.61-1.88-1.48-3.17-1.4-.42.05-.82.09-1.25.1-.23.02-.78.02-1,.05l-.17.03c-.07,0-.08.07-.26-.08-.09-.07-.16-.17-.2-.27h0Z"/>
  <path class="cls-1" d="M135.6,38.01c-.06-.22.03-.21.07-.28.29-.34.65-.74.94-1.05.65-.7,1.06-1.16.95-2.15-.07-.93-.33-2.12-.15-3.05.15-.95.34-2.1.26-3.11-.01-.25-.04-.95-.04-1.2,0-.07,0-.28-.01-.35.05-.11.34-.15.46-.16.13,0,.09.02.12.08.07.17.2.5.27.67.38,1.31,1.11,2.8,1.35,4.01.18,1.82-.13,3.48-.89,5.18-.53,1.11-1.57,1.58-2.67,1.75l-.21.04c-.08,0-.1.08-.27-.08-.09-.08-.15-.18-.17-.29h0Z"/>
  <path class="cls-1" d="M133.55,15.84c-.51-1.62-1.83-2.46-2.73-3.94-.44-.71-.82-1.33-1.35-1.7-1.57-1.07-3.8-1.16-5.62-1.9-.73-.3-1.56-.75-1.94-1.6-.31-.75-.09-1.6.49-2.17.82-.87,2.19-.53,3.02-.76l-.17,1.58c-.86-.81-1.93-1.4-2.07-2.87-.09-1.24,1.11-2.27,2.21-2.42,1.31-.28,2.75.54,3.57,1.31.79.71,1.29,1.4,1.96,2.11,1.08,1.14,2.17,2.28,3.18,3.53,3.07,3.8,4.97,8.48,5,13.37l.04.46.02.23c.02.08.02.16-.07.25-.17.19-.51.08-.5-.17-.03-.14-.09-.56-.12-.71-.42-4.53-2.47-9.01-5.85-12.08-1.11-1.05-2.32-2.08-3.44-3.15-.98-.87-1.84-2.27-2.99-2.73-.18-.05-.24-.07-.39-.05-.14,0-.25.07-.29.08-.02,0-.01,0,0,0v-.03s0-.07,0-.08c-.03-.1-.02.03.11.2.33.48.77.82,1.23,1.34.8,1.02-.31,1.86-1.25,1.91-.56.07-1.38-.06-1.77,0-.17.04-.13.02-.22.14-.01.03,0,0-.02,0,0,.02.05.09.13.17.47.41,1.21.66,1.88.82,2.75.61,5.43,1.22,6.49,4.23.54,1.25,1.71,2.51,1.97,3.96.04.23.05.54-.18.74-.11.09-.26.03-.33-.09h0v.02Z"/>
  <path class="cls-1" d="M152.13,49.68c-.17-1.48-.34-3.72-.56-5.22-.48-3.59.44-7.25,2.05-10.55.44-.8.8-1.47.99-2.27.44-1.68.38-3.44.74-5.2.05-.36.18-.86.2-1.22.17-2.13-.25-4.17-.58-6.36-.18-1.35-.55-2.96.02-4.38.5-1.36,1.97-2.26,2.77-3.2.52-.58.82-1.17.85-1.81l.46.83c-.44-.32-1.39-.2-1.98-.18-1.26-.1-2.53,0-3.75-.69-.93-.69-1.12-1.78-1.41-2.69-.37-1.13-.82-2.5-1.5-3.4-.11-.14-.22-.19-.2-.18l1.03-.53c-.43,1.04-.75,1.87-.54,2.83.21.83.97,1.55,1.15,2.52.09.65.14,1.03-.18,1.7-.15.27-.47.51-.76.58-.44.13-.94,0-1.15,0-1.07-.13-1.95-.47-2.6-.44l.69-1.66c.94.95,2.04,1.87,3.05,2.99,1.48,1.42,1.28,3.67,1.64,5.44.68,2.44.96,5.15.72,7.63-.5,4.31-.14,8.95-2.33,12.84-.67,1.38-1.77,2.97-3.22,3.69-.7.4-1.52-.06-1.79-.74-.23-.53-.31-1.05-.41-1.57-.27-2.37-.85-4.61-1.91-6.78-1.15-2.7-2.76-4.99-4.39-7.52-3.29-5.91-8.96-9.98-15.53-11.6-1.17-.27-2.33-.69-3.35-.34-.01-.07-.04.35.05.4.6.6,2.01.79,2.47,1.79.2.37.06.83-.31,1.02-.68.24-1.36.21-1.93.48-.04.02-.08.05-.07.04-.01,0,.02-.02.02-.05s.02-.05.02-.09c0-.1-.02,0,.1.11.3.39.64.41,1.22.42,1.78-.07,3.67.08,5.45.58,5.42,1.48,9.04,6.23,11.67,10.89,1.77,3.1,3.72,6.35,3.86,10,0,1.39-.39,2.7-.82,3.99-.16.42-.24.86-.51,1.23-.07.09-.2.11-.29.04-.05-.04-.08-.1-.08-.17.08-.89.51-1.69.68-2.56.49-1.69.43-3.41-.13-5.05-.71-2.54-2.16-4.78-3.5-7.03-2.59-4.36-6.14-8.88-11.21-10.14-1.65-.42-3.34-.52-5.1-.42-.47,0-1.06,0-1.64-.3-1.03-.53-1.73-2.06-.39-2.78.64-.37,1.48-.46,2.08-.62l-.49,1.08c-.46-.52-1.7-.62-2.38-1.46-.54-.72-.65-1.55-.16-2.38,1.28-1.54,3.62-.74,5.16-.47,7.11,1.51,13.42,5.73,17.13,12.06,1.61,2.41,3.43,5.03,4.62,7.78.88,1.88,1.66,3.88,1.9,5.98.11.79.21,1.69.4,2.37-.05-.11-.16-.23-.27-.31l-1.37-.09c1.12-.6,1.62-1.51,2.23-2.64.39-.75.76-1.43.96-2.17.86-3.09.89-6.52,1.28-9.69.27-2.44.04-4.68-.55-7.01-.24-.96-.21-2.3-.38-3.14-.13-.56-.3-.95-.71-1.4-.86-.99-1.92-1.91-2.94-2.98-.37-.39-.36-1.01.03-1.38.62-.55,1.65-.14,2.28-.04.54.13,1.33.31,1.73.34-.15,0-.37.17-.42.29-.06.13-.03.09-.03.04,0-.04.02-.17.01-.21-.06-.69-.5-1.09-.83-1.84-.25-.51-.38-1.14-.38-1.72-.02-1.18.39-2.18.75-3.06.45-1.03,1.78-.33,2.17.23,1.26,1.55,1.65,3.76,2.35,5.49.23.4.23.34.67.47.6.11,1.54.21,2.25.22.94-.04,1.94-.13,2.87.41.85.53.34,1.72.05,2.44-.59,1.28-1.94,2.3-2.79,3.16-.49.52-.72,1.06-.74,1.81.06,2.56.83,5.16.77,7.85,0,.92-.13,1.89-.35,2.79-.4,1.69-.4,3.51-.91,5.24-.24.88-.73,1.77-1.18,2.53-.85,1.43-1.37,3.09-1.89,4.77-.52,1.61-.58,3.32-.47,5.06.06,1.52.49,3.82.05,5.32-.05.17-.32.15-.34-.03h.06Z"/>
  <path class="cls-1" d="M153.39,36.5c1.08.32,1.82,1.13,2.78,1.65,1.07.61,2.13,1.38,3.29,1.3,1.69-.45,2.76-1.92,3.85-3.25,2.7-3.3,4.22-7.27,5.93-11.13,1.96-3.8,4.24-7.48,5.91-11.4,1.26-2.31,2.53-7,5.77-6.82.85.13,1.46.86,1.69,1.64.46,1.5,0,2.93-.42,4.26-1.22,4.16-3.49,7.99-5.47,11.83-.76,1.38-1.51,2.85-2.23,4.25-.77,1.44-1.84,2.77-2.69,4.09-2.82,4.47-5.32,9.22-7.13,14.2-1.14,2.97-1.57,6.37-3.37,9.12-.65.91-1.74,1.27-2.59,1.91-.12.05-.27,0-.31-.13-.05-.2.09-.37.22-.49.7-.6,1.63-.89,2.13-1.69,1.61-2.76,1.87-6.01,2.9-9.05,2.11-6.67,5.42-12.92,8.9-18.94,1.52-3.41,3.23-6.8,4.91-10.13.98-1.84,1.79-3.76,2.43-5.73.3-.96.77-2.05.45-2.94h0c.04.05.12.1.21.1.13,0,.04,0-.07.05-1,.53-1.48,1.64-2.01,2.58-.87,1.58-2.09,4.05-2.93,5.7-1.73,3.33-3.9,6.41-5.34,9.84-1.76,4.61-4.19,9.1-8.06,12.29-2.52,1.95-4.23.98-6.45-.68-.29-.28-3.28-2.27-2.28-2.37h0l-.02-.06Z"/>
  <path class="cls-1" d="M165.72,42.67c-.06-.23.06-.24.11-.33,1.32-1.78,3.41-2.59,5.07-3.94,1.26-1.05,2.49-2.23,4.27-2.34,3.26-.25,4.78,2.92,3.46,5.66-.09.11-.38-.05-.47-.12-.1-.08-.06-.08-.05-.15.15-.86.02-1.99-.46-2.7-.62-.61-1.27-.58-2.11-.3-1.88.63-3.77,1.78-5.53,2.73-.93.62-1.91,1.11-2.97,1.48-.14.05-.65.24-.79.29-.1.02-.14.12-.34,0-.1-.06-.17-.16-.2-.27h.01Z"/>
  <path class="cls-1" d="M161.53,55.76c.03-.23.07-.17.12-.22.08-.05.29-.2.37-.26.45-.34.93-.58,1.47-.7,1.05-.32,1.79-1.33,2.87-1.6,1.14-.2,2.39-.47,3.57-.52.12-.03.16.34.18.45,0,.11.01.11-.04.13-.11.06-.32.18-.43.25-1.26.56-1.86,2.02-3.23,2.38-.75.28-1.61.3-2.35.6-.57.24-1.23.32-1.85.16-.16-.03-.32-.09-.48-.14-.16,0-.23-.34-.2-.52h0Z"/>
  <path class="cls-1" d="M167.94,61.78c-.26-.92-.01-1.84-.01-2.77.16-1.89.35-3.81,1.28-5.54.91-1.68,2.22-2.97,3.32-4.47,1.09-1.43,2.13-2.9,3.12-4.4,2.11-3.04,3.22-6.61,5.55-9.53.57-.71,1.07-1.25,1.51-2.12.67-1.29,1.84-2.33,2.88-3.29,1.53-1.63,2.92-3.71,4.82-5.03.67-.53,1.61-1.11,2.32-1.59,1.18-.85,3.07-2.27,4.9-1.68,1.71.49,1.96,2.44,1.45,3.76-.73,2.68-3.41,3.85-5.55,4.97-1.54.85-2.71,2.01-3.83,3.38-2.3,2.74-4.16,5.92-6.48,8.81-1.12,1.39-2.41,2.7-3.17,4.32-.54,1.15-.92,2.52-1,3.8,0,.34.01.75-.1,1.11-.14.54-.74.44-.55-.16.03-1.74.19-3.46.91-5.08.72-1.75,1.96-3.15,3.06-4.64,2.12-2.91,3.84-6.13,6.02-9.17,1.07-1.54,2.43-3.1,4.04-4.13,1.34-.98,3.1-1.59,3.89-2.96.26-.43.59-1.29.51-1.69-.01-.04,0,.04.05.08,0,.03.05.03.03.04-.17-.06-.4-.03-.71.08-.58.22-1.27.71-2.09,1.26-.68.44-1.61.99-2.23,1.46-2.26,1.51-3.64,3.93-5.82,5.58-1.31.99-1.79,2.43-2.93,3.6-2.64,2.82-3.81,6.65-5.97,9.8-1.01,1.55-2.11,3.05-3.28,4.48-1.11,1.4-2.5,2.65-3.46,4.12-1.15,1.83-1.49,4.16-1.82,6.29-.08.45-.06.91-.32,1.34-.07.13-.29.12-.34-.03h0Z"/>
  <path class="cls-1" d="M172.86,57.28c.53-.86,1.37-1.39,2.01-2.16,2.02-2.15,3.77-4.5,5.59-6.83,1.8-2.45,3.84-4.81,6.47-6.39l.63-.41c.61-.44,1.58-.76,2.23-.96,1.3-.41,2.5-1.37,3.75-2.06,2.24-1.17,4.45-2.24,6.74-3.29,1.8-.82,3.66-1.61,5.47-2.35,1.36-.58,2.92-1.28,4.47-1.51,2.45-.35,6.82-.98,7.25,2.57.1,2.08-2.02,3.09-3.62,3.46-1.13.26-2.13.32-3.08.43-3.61.53-7.48,1.85-10.81,3.61-3.44,1.8-6.58,4.22-9.8,6.49-1.61,1.15-3.13,2.34-4.63,3.65-.7.61-1.54,1.17-1.96,1.99-.45.77-.44,2.1-1.03,2.76-.14.09-.33,0-.35-.17-.03-.15,0-.25.05-.36.29-.84.33-1.68.71-2.53.44-.99,1.3-1.61,2.04-2.32,1.42-1.35,2.96-2.67,4.51-3.89,6.25-4.99,12.77-10.17,20.95-11.63,1.46-.23,2.7-.28,3.9-.88.34-.16.58-.4.59-.45-.05-.21-.09-.28-.49-.42-.61-.19-1.56-.16-2.48-.08-.83.07-1.92.15-2.71.39-2.7.88-5.53,2.04-8.19,3.1-2.67,1.16-5.44,2.18-7.91,3.72-.83.51-1.77,1.09-2.81,1.44-.75.26-1.23.37-1.84.79-1.8,1.18-3.54,2.39-4.92,4.06-2.56,2.96-5.19,6.11-8.13,8.7-.46.36-2.69,2.52-2.62,1.53h.02Z"/>
  <path class="cls-1" d="M169.11,88.98c.49-.1.9.08,1.35.15l1.32.25c1.8.35,3.59.66,5.33,1.3.88.32,1.78.75,2.56,1.36,1.58,1.16,2.35,2.96,3.39,4.5,2.15,3.06,3.06,6.88,3.35,10.58.23,2.04-.04,4.22.71,6.13-.05-.1-.23-.2-.34-.21.67-.3,1.47-1.16,2.09-1.65,1.29-1.07.98-2.47,1.06-4.11.11-4.16.61-7.92-.54-11.64-.84-2.89-1.45-6.04-3.18-8.5-.4-.62-1.17-1.43-1.65-2.02-1.13-1.37-2.53-2.41-3.98-3.37-.72-.5-1.44-.96-2.18-1.09-1.67-.24-3.51-.16-5.32-.25-1.7-.09-3.5-.24-5.06-1.01-.11-.05-.21-.11-.28-.23-.07-.14.02-.33.18-.34,3.5,1.27,6.94.48,10.63.75,1.06.15,1.91.67,2.69,1.15,1.6.95,3.12,2.02,4.39,3.37,2.09,1.92,3.69,4.36,4.63,6.99.49,1.24.92,2.59,1.35,3.85.81,2.22,1.1,4.72,1.03,7.02-.03,1.86-.22,3.65-.29,5.41.02,1.87-.22,4.56-2.04,5.77-1.2.83-2.17,2.16-3.84,2-1.99-.35-1.73-3.72-1.84-5.23,0-2.66-.13-5.23-.93-7.79-.6-2.54-2.31-4.7-3.53-6.96-1.25-2.36-3.54-3.28-6.06-4.12-1.22-.41-2.61-.8-3.86-1.18-.43-.15-.89-.21-1.26-.54-.08-.07-.08-.19-.01-.26.03-.03.07-.05.11-.06h0l.02-.02Z"/>
  <path class="cls-1" d="M190.82,95.48c.55-.14,1.28.22,1.84.33,2.4.58,3.68,2.02,3.49,4.54.11,2.62-1.3,6.12,1.17,7.82,1.42,1.05,3.06,1.57,4.76,2.19,2.35.86,4.6,1.86,6.83,2.78l-1.62,1.62c-.13-.3-.62-.93-.89-1.26-.41-.57-1.09-1.03-1.52-1.81-.55-.93-.17-2.2.91-2.53,1.65-.42,2.98.54,4.52.59.09,0,.05,0-.04.1l-.15,1.22c-.16-.32-.31-.61-.45-.84-.74-1.16-2.19-.65-3.38-.81-1.93-.21-4.07-.46-5.47-1.99-1.11-1.54-2.15-3.3-2.3-5.24,0-.3,0-.59.06-.89.02-.1.02-.2.14-.27.13-.08.29-.04.38.08.1.11.06.19.06.27-.14,1.7.87,3.19,1.8,4.54,1.27,2.12,4.2,2.14,6.43,1.97,1.29-.23,2.95.02,3.81,1.14.52.67,1.31,1.5.58,2.24-1.44,1.38-3.79.2-5.18.23.21-.06.45-.33.49-.55.04-.1.03-.27.03-.31-.06-.26-.04-.13.04-.05.17.23.58.6.88.92.59.77,1.06,1.32,1.51,2.28.48.99-.65,2.09-1.62,1.62-3.44-1.64-6.65-3.07-10.04-4.74-4.86-2.45-3.9-5.95-3.33-10.43.33-1.96-.48-2.87-2.21-3.61-.27-.13-.55-.24-.83-.36-.27-.14-.59-.16-.81-.48-.08-.11-.03-.28.11-.32h0Z"/>
  <path class="cls-1" d="M200.48,105.91c.04-.34.27-.44.43-.64,1.7-1.88,3.45-4.11,3.9-6.62.31-2.31.36-4.85-.26-7.13-.31-1.26-.81-2.73-1.63-3.63-1.25-1.38-3.05-2.41-4.49-3.73-2.86-2.69-5.55-5.61-9.08-7.4-1.33-.66-2.81-1.26-4.06-2.15-1.12-.9-2.41-1.56-3.23-2.78-.05-.13-.2-.25-.1-.44.05-.11.17-.16.28-.14.09.01.23.05.23.12.49.74,1.31,1.17,2.05,1.65.86.51,1.65,1.05,2.57,1.43,4.81,1.64,9.41,4.23,13.03,7.83,1.49,1.41,3.22,2.47,4.56,4.18.75.99,1.13,2.07,1.4,3.11.77,3.09.93,6.22.48,9.38-.42,2.2-1.81,3.96-3.38,5.41-.57.52-1.17,1.01-1.78,1.47-.21.14-.37.35-.71.35-.13,0-.24-.12-.22-.26h.01Z"/>
  <path class="cls-3" d="M186.5,74.29c-.08-.22,0-.2.02-.26.41-.69.9-1.37,1.51-1.87.91-.87.91-2.19,1.6-3.21.02-.02.16-.26.16-.21.01.05.06,0,.1-.05.46-.82.27-1.92.13-2.83l-.02-.07v-.04s-.01-.03.06-.08c.11-.08.33-.23.44-.2.29.36.51.78.7,1.21.29.71.64,1.39.76,2.2.11,1.9-1.45,3.3-2.67,4.52-.6.71-1.45,1.1-2.36,1.25-.16.08-.38-.17-.44-.36h0Z"/>
  <path class="cls-1" d="M185.52,67.56c.33-.64.98-.94,1.52-1.36,2.87-1.95,6.44-2.85,9.89-2.39,2.75.36,5.08,1.64,7.72,2.27,3.27.93,6.62,2.07,9.36,4.19.52.41,1.12.71,1.68,1.05l1.26,1.06-.29-.2s.08.02.11.03h0s-.03,0-.05,0c-.05,0-.13.01-.19.06-.06.01-.1.08-.1.07-.01.02.04-.08.06-.21.41-2.71-.91-4.26-3.61-4.87-1.77-.46-3.52-1.68-4.97-2.63-2.9-1.81-6.28-2.9-9.72-2.95-.86-.04-3.17-.17-4-.2-2.21.1-4.41.11-6.67.18-1.69.03-3.65.16-5.09-.89-.09-.08-.2-.16-.22-.31-.02-.16.11-.29.27-.28,2.35,1.37,5.1.42,7.71.41,1.29,0,2.66-.31,4-.34.85,0,3.17-.01,4.05-.02,3.74-.18,7.52.6,10.82,2.4,1.61.88,2.84,1.76,4.56,2.22,3.4.72,5.73,3.34,5.3,7.01-.05,1.1-.69,2.61-2.03,2.64-.53.03-1.12-.14-1.52-.49l-1.02-.95.16.1c-1.2-.64-2.15-1.63-3.28-2.37-2.39-1.57-5.22-2.51-8-3.25-2.2-.56-4.36-1.67-6.54-2.02-3.41-.59-7.08.08-10.05,1.9-.29.16-.52.4-.91.43-.14.02-.26-.13-.2-.26h0v-.03Z"/>
  <path class="cls-3" d="M192.59,60.66c-.23.03-.21-.06-.27-.12-.31-.39-.57-.86-.76-1.3-.3-.55-.28-1.25-.67-1.52-.92-.18-2.08-.17-3.02-.72-.43-.25-.79-.63-.96-1.1-.16-.49-.08-.94-.27-1.46-.27-.82-1.02-1.46-1.82-1.77-.05-.02-.04,0-.07-.11-.03-.12-.04-.27-.01-.39.03-.13.06-.08.13-.1,1.8,0,3.51,1.34,4.29,2.92.02.07.02,0,.01-.02,0-.08-.15-.25-.01-.15,1.1.66,2.95,1,3.55,2.38.52,1.02.43,1.87.32,2.88v.18c-.02.07.06.09-.12.24-.09.08-.19.14-.3.15h-.02Z"/>
  <path class="cls-1" d="M131.33,66.19c-.09.23-.21.19-.32.24-.19.06-.78.25-.98.31-1.25.42-2.55.72-3.81,1.04-3.7.94-4.78,4.39-7.28,6.82-.99,1-2.11,1.88-3.2,2.73-.15.11-.66.5-.82.61l-.14.1-.07.05s-.05.03-.13-.01c-.13-.06-.34-.29-.27-.41.09-.11.3-.34.39-.45.28-.31,1.06-1.19,1.35-1.52,1.28-1.34,1.89-2.83,2.64-4.51.79-1.73,2.46-3.36,4.25-4.11,2.42-1.06,4.97-1.81,7.62-1.43l.35.04c.12.03.22-.04.36.17.07.1.07.23.03.34h.03Z"/>
  <path class="cls-1" d="M113.69,48.66c.06.22-.02.2-.05.26-.5.66-1.12,1.26-1.88,1.58-1.12.58-1.76,1.69-2.84,2.3-.95.46-1.97.98-2.83,1.63-.14.09-.39.24-.54.32-.11,0-.29-.22-.36-.33-.06-.1-.04-.08-.01-.13.08-.12.24-.35.32-.47.72-.9,1.17-1.93,1.83-2.84.88-1.11,2.43-1.37,3.56-2.03.7-.49,1.55-.66,2.39-.69.16-.06.35.22.39.4h.02Z"/>
  <path class="cls-1" d="M150.87,76.83c.12.22,0,.29-.03.41-.65,1.7-1.59,3.29-2.72,4.7-1.71,2.27-2.82,4.82-4.2,7.24-.94,1.56-1.7,3.29-2.14,5.1-.12.43-.45,1.66-.58,2.08l-.11.35-.05.17-.03.09s-.02.06-.11.07c-.15.03-.45-.05-.46-.19.01-.15.05-.47.06-.62.32-2.63.34-5.53,1.21-8.05,1.02-2.82,3.28-4.95,4.97-7.29.94-1.39,2.07-2.63,3.27-3.8l.25-.26c.1-.08.12-.21.37-.19.12,0,.23.08.28.18h.02Z"/>
  <path class="cls-1" d="M149,72.46c.07.22-.01.21-.04.28-.52.79-1.12,1.56-1.88,2.12-1.12.97-1.55,2.44-2.52,3.51-.72.71-1.33,1.38-1.75,2.32l-.38.7c-.06.1-.26.41-.33.51l-.06.08-.03.04c-.08.08-.53-.16-.52-.25.05-.18.11-.5.15-.69.1-.47.32-1.84.41-2.34.2-2.42,2.18-3.77,3.84-5.21.71-.75,1.65-1.2,2.65-1.42.08,0,.1-.09.27.06.09.08.16.17.19.28h0Z"/>
  <path class="cls-1" d="M158.96,81.8c.15.19.06.26.05.37l-.06.31c-.08.36-.24,1.41-.3,1.8-.52,2.47-.45,4.91-.86,7.47-.26,1.74-1.14,3.31-2.12,4.76-.79,1.23-1.88,3.08-2.82,4.18-.1.12-.55-.2-.49-.31s.18-.37.23-.49c1.03-2.04,1.62-4.26,2.14-6.46.63-2.35,1.54-4.51,1.78-7.02.12-1.52.67-3.06,1.62-4.28l.2-.26c.08-.08.08-.2.32-.2.12,0,.23.06.3.15h0v-.02Z"/>
  <path class="cls-1" d="M164.44,93.01c.18.13.11.14.13.2.08.67.05,1.37-.31,1.95-.45.91-.33,2.12-1.04,2.94-.61.64-1.27,1.1-1.96,1.89-.09.08-.26.24-.35.31-.04.03-.01.04-.12,0-.12-.06-.34-.19-.39-.29.03-.12.1-.34.14-.47l.16-.49c.37-.96.11-2.11.79-2.95.34-.57.91-1.05,1.14-1.68.17-.49.47-.94.91-1.26.06-.05.28-.22.34-.27.07-.12.42,0,.54.11h.02Z"/>
  <path class="cls-1" d="M177.57,86.07c.13-.19.16-.11.22-.13.38-.02.78-.05,1.15,0,.43.05.84.21,1.22.43,1.09.54,2.43,1.05,2.97,2.3.49,1.06.13,2.27.18,3.37v1.16c0,.06.03.05-.08.1-.13.05-.38.12-.48.07-.07-.14-.18-.4-.25-.54l-.23-.58c-.29-.94-1.01-1.68-1.43-2.52-.29-.65-.6-1.36-1.46-1.76-.34-.14-.69-.3-1.02-.56-.3-.22-.58-.51-.84-.78-.14-.08-.05-.41.06-.56h-.01Z"/>
  <path class="cls-1" d="M197.76,92.23c-.24,0-.22-.1-.29-.16-.82-1-1.64-2.01-2.31-3.11-1.15-1.7-3.02-2.76-4.36-4.3-.9-1.04-1.66-2.17-2.87-2.88-.43-.27-1.19-.74-1.58-1.07l-.11-.09-.05-.05s-.03-.03,0-.12c.04-.13.21-.39.33-.37l.06.03c.47.22,1.34.51,1.84.69,1.37.52,2.81,1.22,4,2.05,1.82,1.3,2.93,3.3,4.21,5.08.8,1.03,1.32,2.26,1.5,3.56l.04.28c0,.1.09.16-.08.33-.09.08-.2.13-.31.13h-.02Z"/>
  <path class="cls-1" d="M133.51,49.81c-.09.2-.1.14-.13.17-.37.19-.82.39-1.21.19-.37-.14-.82.09-1.2.08-.69.11-1.06-.7-1.65-.92l-.29-.15c-.06-.04-.19-.11-.25-.14-.04-.02-.02,0-.03-.11,0-.13,0-.38.06-.48.08-.03.22-.08.3-.11l.32-.09c.66-.11,1.31-.78,1.99-.41.42.14.77.54,1.19.6.35.03.65.24.84.56.03.06.14.21.17.26.08.04-.03.43-.09.54h-.02Z"/>
  <path class="cls-1" d="M118.39,41.67c.02.23-.05.19-.08.24-.54.55-1.19,1.03-1.93,1.24-.74.25-1.29.87-1.91,1.3-.59.51-1.27.73-2.21.97-.75.2-1.4.45-1.95.97l-.02.02s-.09,0-.14-.03c-.13-.05-.43-.18-.35-.29.26-.85,1.04-1.43,1.58-2.08.28-.34.46-.68.79-.97.94-.94,2.41-1.03,3.55-1.52.72-.38,1.56-.43,2.36-.3.16-.03.3.28.31.47h0v-.02Z"/>
  <path class="cls-3" d="M132.05,104.66c-.24.14-.33.02-.48,0-.66-.16-1.27-.09-1.88.2-.41.22-1.07.38-1.53.04l-.31-.43c.02.11-.06-.02-.18-.09-.12-.09-.27-.19-.43-.29l-1.05-.63.82.06c-.8.35-2.45.46-2.75-.58-.08-.4-.29-.65-.62-.83l.37.15c-.71-.08-1.47-.5-1.9-1.09l.11.14c-.49-.43-.95-.9-1.36-1.41l.39.34c-.67-.41-1.6-.32-2.14-.9-.3-.33-.63-.62-.97-.9l.55.24c-.74-.15-1.48-.38-2.16-.71-.8-.53-1.37-1.32-1.84-2.15-.44-.67-1.05-1.29-1.47-2.27-.35-.82-.12-1.6-.63-2.23-.45-.49-1.28-1-1.5-1.74l-.05-.18c0-.06-.05-.12.05-.2.12-.09.25-.1.38-.07.13.02.11.07.12.11.33.72,1.03.86,1.64,1.41.75.57.78,1.7,1.15,2.36.15.24.41.54.7.8.2.18,1.01.89,1.18,1.06.42.47.89.84,1.46,1.09l-.22-.1c.68.24,1.48.17,2.11.53.52.38.98.84,1.38,1.34l-.64-.4c.74.2,1.45.51,2.09.91.52.43.77,1.1,1.26,1.59l.1.12v.02c.13.21.24.34.53.42.12.03.27.07.37.15.66.46,1.16,1.26,1.3,2.05l-.56-.66c.55.28,1.15-.35,1.69.02.88.55,1.84.94,2.27,2.08l-.31-.43c-.06-.04-.13-.05-.18-.05-.03,0-.03.02.01.01.08,0,.22-.03.39-.06.66-.15,1.5-.07,2.12.23.16.06.3.16.45.23.13.11.31.12.35.39.02.13-.05.24-.16.3h-.02Z"/>
  <path class="cls-3" d="M123.67,61.37c-.18-.14-.11-.15-.13-.2,0-.09-.06-.32-.07-.41-.13-.55-.15-1.07-.04-1.63.13-.74-.14-1.53,0-2.45.02-.47.36-1.23.73-1.51.69-.59,1.52-.76,2.23-1.23.16-.08.58-.34.73-.43l.11-.07.05-.04s.02-.04.12.02c.09.06.43.27.34.37-.35.68-.94,1.26-1.29,1.93-.52,1.26-1.07,2.17-1.27,3.6,0,.78-.37,1.6-.97,2.15-.09.16-.4.03-.55-.09h.01Z"/>
  <path class="cls-3" d="M162.49,114.34c.19-.21.35-.11.51-.13,1.17.03,2.39.15,3.48-.34.77-.37,2.3-.95,3.12-1.26.11-.04.23-.05.34-.04.51.04.97-.09,1.36-.39l-.42.64c.07-.6.19-1.2.35-1.8l-.05.19c.03-.43.2-.94.52-1.33.31-.4.71-.67,1.09-.85l-.2.11c.85-.63,1.84-1.12,2.87-1.4.32-.12.45-.18.6-.55.62-1.51,2.15-2.24,3.15-3.39.24-.35.54-1.19.94-1.65.51-.61.94-1.28,1.25-2.01.43-.81.32-1.76.71-2.6.04-.06.04-.15.18-.14.15,0,.26.09.34.2.09.11.03.12.02.18-.19.63-.03,1.26-.15,1.93-.19,1.01-.57,1.97-1.07,2.86-.53.73-.5,1.75-1.07,2.59-.64.98-1.63,2.05-2.02,2.95l.11-.27c-.16.89-.97,1.9-1.91,2.19-.97.27-1.92.52-2.77,1.08-.26.12-.42.09-.51.37l-.05.19c-.2.46-.35.94-.46,1.43-.04.27-.2.51-.42.64-.74.44-1.66.64-2.49.57l.34-.04c-1.09.41-2.55,1.11-3.7,1.28-1.29.23-2.41-.24-3.57-.62-.15-.07-.31-.02-.44-.27-.06-.11-.04-.25.04-.33h-.02Z"/>
</svg>