<?xml version="1.0" encoding="UTF-8"?>
<svg id="Layer_1" data-name="Layer 1" xmlns="http://www.w3.org/2000/svg" viewBox="0 0 157.99 184.17">
  <defs>
    <style>
      .cls-1 {
        fill: #f3702a;
      }

      .cls-2 {
        fill: #f29d24;
      }

      .cls-3 {
        fill: #af70ad;
      }

      .cls-4 {
        fill: #acd263;
      }
    </style>
  </defs>
  <path class="cls-1" d="M24.84,26.37c.18-1.14-.49-2.71.52-3.66.44-.38.53-.42.56-.57.03-.14-.04-.21-.15-.38-.29-.41-.9-.98-1.04-1.64-.24-.76.19-1.64.65-2.21.34-.46.21-.99.18-1.61-.01-.39-.09-.73-.12-1.14-.05-.52.02-1.19.4-1.66.43-.51.84-.68.93-.81.05-.06.03-.04.04-.09.05-.81-.54-1.5-.47-2.49.12-1.82,1.69-2.35,3.15-2.54,1.04-.26,1.2-1.12,2.01-2.04.63-.69,1.37-1.4,2.4-1.45.5-.04,1.02.06,1.1.04.06,0,.11-.03.48-.33.39-.32.77-.59,1.11-.94.25-.33.67-.86,1.17-1,.69-.23,1.4-.11,2.03-.01.78.17,1.5.02,2.24.15.61.04.55.03.85-.35.36-.61,1.23-1,1.95-1.02.97-.09,1.85.19,2.76.13.66-.09,1.44-.22,2.11-.31.55-.11,1-.42,1.72-.44.52-.04,1.08.17,1.43.41.2.15.48.28.64.5.12.17.15.26.16.26,0,0-.02-.04-.1-.09.57-.02,1.35-.63,2.08-.47,1.28.24,1.7,1.41,2.98,1.66.28.1.75.31.92.5,0,0-.06-.03-.04-.02.03,0-.05,0-.04,0,1.59-.71,2.64.41,3.12,1.79.26.6.35,1.35.75,1.8.35.39,1.02.69,1.72,1.17.69.42,1.23,1.29,1.62,2,.57.97,1.05,2.02,1.34,3.12.04.16.29.45.52.93.33.78.39,1.53.5,2.32l-1.03.35c-.34-.6-.62-1.33-.94-1.91-.11-.18-.4-.45-.66-.97-.06-.11-.12-.3-.14-.37-.03-.13-.21-.61-.25-.75-.48-1.19-.76-2.68-1.81-3.51-.51-.39-1.27-.66-1.95-1.37-.84-.88-.83-2.16-1.5-3.04-.1-.13-.17-.19-.29-.22-.03,0-.06-.01,0,0-.29.08-.91.33-1.29.2-.3-.06-.51-.22-.75-.4l-.11-.05-.23-.09c-.66-.15-1.7-.83-2.1-1.35-.35-.31-.46-.47-.83-.4-.64.16-1.27.55-2.02.31-.09-.03-.14-.05-.26-.12-.22-.11-.39-.44-.42-.51,0,0,.02.02.04.05.06.05.03.02,0,0-.06-.04-.25-.16-.32-.21-.65-.5-1.36.13-2.16.36-.78.17-1.49.36-2.29.47-1.17.16-2.31-.41-3.41-.12-.35.15-.49.56-.91.82-.8.56-1.72.1-2.56.22-.66.03-2.48-.24-2.61.21-.33.66-1.09,1.29-1.67,1.73-.41.34-.89.67-1.47.68-1.13-.04-1.33-.33-2.11.38-.96.73-1.66,2.47-3.16,2.75-2.65.56-1.49,1.25-1.22,3.24.07.58-.19,1.36-.65,1.74-.45.38-.76.51-.81.59-.09.11-.08.27-.07.48.05.73.17,1.53.21,2.31.07.66-.33,1.5-.71,1.99l-.1.17s-.02.06-.04.08c-.05.48.38.79.65,1.36.5.71.36,1.91-.36,2.44-.42.39-.57.21-.61.85-.04.76.07,1.5-.05,2.33l-1.24-.22h.04Z"/>
  <path class="cls-1" d="M47.31,33.62c.89-.05,1.71-.33,2.53-.67.56-.23,1.12-.49,1.66-.76.29-.14.62-.27.87-.5.16-.14.44-.54.17-.74-.18-.13-.34-.19-.57-.22-.29-.03-.56,0-.84.07-.3.08-.65.23-.88.44-.13.12-.34.37-.26.57.2.53,1.1.42,1.5.31h0c-.47-.05-.94-.1-1.41-.14h0c.06-.24.11-.49.17-.74.32-.29.27-.19.11-.11.5-.26.15-.07-.02,0-.32.16-.65.31-.97.46-.36.16-.73.32-1.11.46-.04.01-.08.03-.12.04-.19.07.42-.14.18-.06-.08.03-.16.05-.24.07-.04.01-.07.02-.11.03-.02,0-.04,0-.05.01-.13.03-.03,0,.28-.05-.03,0-.06.01-.09.02-.11.02-.31.02.23,0-.36.02-.7.06-1.04.21-.23.1-.57.28-.71.52-.1.17-.16.38,0,.55.18.17.48.24.71.23h.01Z"/>
  <path class="cls-1" d="M59.73,29.48c.24-.18.41-.47.57-.72.19-.31.39-.61.63-.88l-.17.19c.11-.13.23-.24.36-.35.09-.08.4-.28.02-.02.08-.05.16-.11.24-.15.04-.02.08-.05.12-.07.17-.09-.36.17-.12.06.1-.04.2-.08.29-.12.12-.05-.42.14-.16.06.06-.02.12-.03.18-.05s.12-.03.19-.04c-.28.05-.35.07-.21.04.03,0,.07-.01.1-.02.35-.05.7-.15,1-.34.17-.1.47-.33.5-.56.08-.58-.76-.62-1.14-.57-1.13.17-2.22.58-3.1,1.32-.47.39-.84.89-1.17,1.4-.11.17-.2.34-.33.49l.17-.19s-.06.06-.09.08c-.15.11-.32.37-.26.57.06.21.32.33.51.36.67.12,1.34-.11,1.87-.5h0Z"/>
  <path class="cls-4" d="M120.5,183.75c-2.53-4.34-4.85-9.3-7.2-13.75-.7-1.25-1.54-2.65-2.12-3.93-.55-1.25-1.17-2.81-1.82-3.96-1.07-1.93-2.27-3.9-3.33-5.81-1.87-3.51-3.29-7.13-5.32-10.61-2.39-4.46-5.11-8.68-7.7-13.03-2.59-4.33-4.76-8.87-7-13.38-1.12-2.23-2.52-4.27-3.89-6.42-2.79-4.29-5.01-8.91-6.81-13.6-.93-2.3-1.88-4.75-2.63-7.13-.82-2.29-2-4.53-3.05-6.83-1.82-3.97-4.4-9.74-6.45-13.56-.86-1.65-1.71-3.29-2.72-4.83-1.06-1.56-2.32-3.12-3.16-4.83-1.17-2.27-2.31-4.56-3.26-6.94-.48-1.11-.77-2.31-1.32-3.37-1.04-2.07-2.63-4.04-3.84-6.35-.19-.36-.05-.8.31-.98.31-.16.68-.08.89.17,1.98,2.26,4.54,4.83,5.54,7.96l.59,1.75c1.37,4.12,3.16,8.06,5.87,11.48,2.4,3.77,4.38,7.75,6.28,11.79,1.6,3.45,2.93,6.94,4.46,10.41.75,1.64,1.48,3.6,2.07,5.34,1.07,2.87,2.56,5.75,3.77,8.57,1.52,3.28,3.14,6.93,4.99,10,1.29,2.13,2.67,4.28,3.95,6.48,2.35,3.74,5.28,9.22,7.35,13.17,2.38,4.39,4.87,8.78,7.57,13,1.41,2.13,2.74,4.34,3.71,6.78,1.33,2.87,3.26,6.67,5.03,9.68,1.07,1.87,2.02,4.01,3.07,5.9,1.45,2.59,2.41,5.45,3.68,8.12,1.23,2.66,2.5,5.31,3.94,7.86.23.4.09.92-.32,1.15-.4.23-.92.09-1.15-.32h0l.02.02Z"/>
  <path class="cls-4" d="M127.93,183.53c-.32-1.2-.53-2.38-.84-3.47-.29-1.06-.83-2.13-1.18-3.39-.36-1.3-.38-2.58-.4-3.78,0-1.17-.11-2.53.02-3.69.16-1.6.87-3.09,1.48-4.56.05-.13.18-.37.24-.49.85-1.39,2.05-2.19,3.36-3.07,2.76-1.45,5.88-1.54,8.66-2.71,3.78-1.56,6.36-4.92,9.43-7.63,1.98-1.69,4.02-3.44,5.59-5.49.62-.81,1.54-1.75,1.18-2.75l.64.62c.14.07.32.06.41.03.07-.02.08-.04.05-.02-.06.03-.2.17-.34.32-.48.67-1.74,1.47-2.43,1.99-1.22.92-2.11,2.05-3.56,2.83-2.84,1.36-5.46,2.33-8.35,3.31-2.54.99-5.09,2.93-7.76,4.02-1.63.83-3.25,1.72-4.44,3.1-1.28,1.41-2.25,3.13-3.5,4.65-1.22,1.5-2.34,2.6-2.69,4.52-.24,1.3-.63,3.06-1.07,4.44l-1.17-.91c-1.09-.9-1.12-1.93-1.72-3-.67-1.44-1.64-3.13-2.24-4.58-.98-2.51-2.1-4.86-3.51-7.12-4.26-7.64-8.38-15.31-11.85-23.34-1.15-2.85-2.52-6.49-3.8-9.25l-1.8-3.6c-.59-1.19-1.03-2.46-1.65-3.64-1.79-3.53-4.26-6.88-5.85-10.52-2.14-4.14-3.76-8.6-5.82-12.81-1.39-3.02-3.21-5.78-4.63-8.89-1.61-3.63-3.47-7.28-5.47-10.67-1.46-2.66-2.66-5.41-3.97-8.13-.74-1.48-1.65-2.98-2.21-4.56-.7-1.92-2.18-4.42-1-6.47.21-.34.65-.44.99-.23.29.18.41.53.3.84-.18.49-.13,1,.04,1.53.27.94,1.14,2.55,1.61,3.47.28.58.56,1.19.87,1.72,2.07,3.34,3.58,7.25,5.31,10.8,1.86,3.54,3.67,7.21,5.29,10.86,1.36,2.99,3.25,5.84,4.67,8.89.85,1.81,1.74,3.66,2.55,5.48,1.49,3.66,3.26,7.3,5.09,10.8,1.28,2.35,2.74,4.63,3.9,7.08,1.06,2.48,2.06,4.89,3.32,7.32.95,2.14,2.22,5.24,3.15,7.42,1.54,3.67,3.48,7.19,5.27,10.75,2.87,5.63,6.2,12.37,9.2,17.85.87,1.86,1.47,3.7,2.46,5.43l.96,1.76.49.88.25.44c.33.59.59,1.39.97,1.77l-1.6.59c.31-1.35.34-3.01.87-4.45.55-1.5,1.7-2.84,2.63-3.97,1.24-1.51,2.25-3.23,3.62-4.72,1.43-1.58,3.35-2.61,5.23-3.49,2.83-1.07,5.05-2.76,8-3.91,1.94-.71,3.78-1.13,5.42-2.04,1.97-.84,3.24-1.37,4.63-2.95.63-.65,1.6-1.45,2.34-2,.82-.57,1.22-1.58,2.34-1.91.47-.16,1.1.02,1.56.25.5.9.69,2.09.35,3.04-.46,1.43-1.36,2.28-2.22,3.37-1.55,1.89-3.54,3.47-5.39,5.01-3.18,2.73-6.04,6.18-10.01,8-2.67,1.3-5.78,1.47-8.41,2.6-.97.57-2.18,1.32-2.77,2.27-.94,1.79-1.77,3.63-1.63,5.71.02,1.58-.11,3.67.26,5.13.26,1.05.77,2.15,1.1,3.39.33,1.21.53,2.39.82,3.5.12.45-.15.91-.6,1.03-.45.12-.91-.15-1.03-.59h-.01Z"/>
  <path class="cls-3" d="M52.55,29.51c-.36.98.21,2.08.41,3.21.05.27.11.72.13,1.01.16,1.2.72,2.44.85,3.71.16,1.14.33,2.34.84,3.34.74,1.53,1.38,2.3,2.54,3.61,2.14,3.93,5.83,6.21,9.28,9.03,1.98,1.69,3.69,3.46,5.72,5.08,1.84,1.6,3.68,3.36,5.86,4.46,2.05,1.07,4.51,1.59,6.94,2.61,2.06.87,4.46,2.25,6.56,1.35.08-.21.06-.44,0-.76-.33-1.76-1.02-3.38-1.96-4.93-1.64-2.66-3.58-5.2-5.13-7.94l-.49-.83c-.7-1.42-1.73-2.34-2.8-3.7-.69-.86-1.63-2.15-2.38-2.93-.86-.97-2.89-3.32-3.7-4.25-1.25-1.34-2.7-2.39-4.23-3.45-2.06-1.42-4.15-2.76-6.44-3.75-1.11-.52-2.3-1.31-3.33-1.79-1.1-.34-2.73-1.14-3.57-1.98l-.71-.61c-.49-.42-1.18-.64-1.79-.94-.22-.12-.58-.26-.81-.26-.39,0-.89.37-1.42.51-.25.08-.49.26-.48.17l.11.05h0v-.02ZM51.13,28.85c.25-.56.56-.74.95-1.05.69-.45,1.2-.96,2-1.09.87-.17,1.61.12,2.38.41,1.55.36,2.82,1.86,4.04,2.71,1.6.73,3.37,1.93,4.92,2.76,2.34,1.07,4.59,2.43,6.7,3.86,2.16,1.38,4.32,3.12,5.9,5.19.42.52,2.65,3.22,3.02,3.69.43.56,1.25,1.76,1.67,2.34.86,1.15,2.14,2.45,2.91,3.87,2.67,4.37,6.77,8.08,7.7,13.34.47,1.84.31,3.72-2.01,3.97-2.36.4-4.81-.53-6.94-1.2-2.44-.77-4.98-1.37-7.28-2.72-2.31-1.33-4.08-3.21-6.03-4.95-1.88-1.61-3.98-3.2-5.93-4.69-3.41-2.55-7.06-5.44-9.38-9.2-.42-.58-.89-.86-1.54-1.62-.51-.63-.83-1.25-1.11-1.8-.88-1.49-1.07-3.36-1.14-5.04-.05-1.25-.58-2.42-.68-3.73,0-.21-.04-.65-.07-.88-.21-1.31-.86-2.78-.17-4.23l.11.05h-.02Z"/>
  <path class="cls-3" d="M62.55,24.81c-.43,1.81,2.37,2.69,3.67,3.45,1.91,1.13,3.83,1.75,6.02,2.49,2.76.96,5.72,2.29,8.08,3.84,1.73.93,3.61,1.83,5.39,2.7,2.09.99,4.28,1.46,6.58,1.99,1.42.34,2.89.68,4.38,1.29,4.05,1.76,7.44,4.7,11.89,5.23,1.46.27,2.83.23,4.33.34.95.11,1.71.47,2.28.6.57.14,1.32.22,2.12.41,2.37.56,4.06,2.52,5.74,4.13.48.44.99.72,1.43.76l-.57.17c-.07.02-.17.23-.16.26-.09-.38-.39-.8-.6-1.26l-1.05-2.12c-1.83-3.7-4.3-6.98-7.5-9.48-.6-.35-2.35-1.38-2.98-1.75-1.3-.75-2.67-1.4-4.09-1.88-2.21-.66-4.62-1.12-6.72-2.19l-2.11-.93c-1.36-.55-3.08-.92-4.41-1.67l-2.07-1.05c-2.07-1.14-4.19-1.79-6.39-2.5-2.16-.92-4.14-1.71-6.48-2.16l-2.26-.48c-2.98-.41-6.06-1.11-9.01-1.53-1.86-.14-3.74.57-5.46,1.27-.11.06-.18.13-.17.04l.11.03h.01ZM61.06,24.35c.24-.73.64-.93,1.11-1.3,1.1-.7,2.1-1.18,3.38-1.6,3.24-1.04,6.48.54,9.63,1.1,3.84.8,7.74,1.59,11.34,3.22,2.24.68,4.57,1.41,6.61,2.51l2.08,1.06c1.4.76,2.77,1.02,4.26,1.69,1.03.49,2.13,1.05,3.16,1.55,1.01.5,2.02.82,3.13,1.11,2.27.56,4.6,1.46,6.71,2.54.64.34,2.51,1.29,3.14,1.62,2.41,1.55,4.34,3.88,5.87,6.19,1.33,1.99,2.2,4.24,3.2,6.34.48.95,1.37,2.34.23,3.23l-.25.19-.32-.02c-1.9-.16-2.84-1.53-4.17-2.53-.75-.55-1.69-1.23-2.54-1.59-1-.37-1.86-.32-3.07-.62-.86-.24-1.46-.5-1.98-.56-.64-.09-1.47-.06-2.16-.15-2.31-.25-4.58-.83-6.7-1.79-3.35-1.58-6.17-3.85-9.84-4.46-2.14-.46-4.41-.87-6.52-1.58-1.43-.46-2.86-1.2-4.17-1.92-2.52-1.26-5.28-2.86-7.78-3.96-1.36-.56-2.69-1.17-4.02-1.8-1.93-.87-4.16-1.73-6.05-2.92-1.86-1.06-4.68-2.25-4.55-4.86.02-.25.09-.49.14-.73l.11.03h.02Z"/>
  <path class="cls-3" d="M69.22,20.7c.15.24.37.33.67.34,1.64.06,3.23-.72,4.97-.5,2.23.63,4.34.7,6.66,1.3,2.22.67,3.98,1.83,6.14,2.43,2.02.61,4.16,1.1,6.33,1.74,2.76.79,5.14,1.66,7.83,1.5,1.95.01,3.86.69,5.68.66,2.03-.15,4.25-.14,6.13.75,1.94.71,4.09,1.54,6.11,1.88l-.87.3c-.1.08-.21.37-.18.56.02.1.04.16.06.22.11.21.15.18.11.16-.15-.12-.81-.37-1.03-.46-2.78-.89-5.22-2.78-8.08-3.62-3.41-1.16-6.79-2.22-10.4-2.56-2.82-.31-5.27-2.09-7.86-3.02-1.66-.72-3.46-1.15-5.13-1.75-1.56-.36-3.73-.5-5.3-.87-1.03-.19-1.68.16-2.86-.15l-1.73-.48,1.4-1.19c2.13-1.6,4.82-.41,7.11-.22,1.23.08,2.61.18,3.82.16,3.42-.06,6.77-.97,10.01-1.99,1.47-.37,3.6-.87,5.01-1.4,1.66-.58,3.44-1.11,5.26-1.34.56-.09.91-.12,1.23-.42.11-.12.22-.26.24-.3.02-.02,0-.02-.02.11-.02.12.06.37.16.45.1.09.1.08.09.08.05.03.1.02.05.02-.35.03-1,.27-1.36.36-1.64.3-3.31.55-4.99.77-2.53.31-5.38.03-7.91.23-1.71.09-3.28.29-4.92.85-.79.25-1.84.59-2.66.72-1.89.31-3.69.18-5.38.25-.88.01-1.78.08-2.77-.03-2.31-.33-4.35-.38-6.57-.82-1.46-.31-2.89-.26-4.23.39-.67.42-.72,1.74-.57,2.45.41.92-.04,1.67-.25,2.51-.02.04,0,.09-.07-.03l.11-.05h-.04ZM67.81,21.38c-.35-.79.04-1.52-.02-2.27,0-.03-.04-.06.02.11-.06-.09-.15-.3-.19-.4-.39-1.18-.39-2.07-.05-3.28.95-2.66,4.71-2.97,7.09-2.44,1.21.25,2.58.55,3.77.68,1.88.24,3.23.65,5.11.52,2.26-.06,4.23.16,6.25-.48l1.24-.39c3.35-1.17,7.16-1.08,10.67-1.09,2.35-.01,4.7-.49,7.04-.82l.12-.02s.07-.01.1-.02l.27-.07.66-.18c1.04-.36,2.67.02,2.59,1.47-.14.99-.86,1.6-1.64,1.99-.58.25-1.12.31-1.57.36-1.67.15-3.28.56-4.93,1.11-2.04.74-4.26,1.09-6.3,1.81-2.98,1.02-6.06,1.92-9.23,2.04-1.32.05-2.73-.03-4.04-.15-1.78-.1-4.15-1.18-5.69-.42l-.33-1.67c.38.14,1.24.03,1.8.08,1.21.11,2.34.53,3.43.63,1.49.08,3.29.6,4.76,1.1,1.14.27,2.29.63,3.38.98,2.6.71,4.88,2.19,7.57,2.49,2.73.3,5.59.96,8.17,1.96,2.64.92,5.3,1.92,7.7,3.43,1,.65,2.45,1.1,3.62,1.56.51.24,1.02.37,1.38,1.07.2.38.1,1.09-.26,1.4l-.31.38-.56-.08c-2.74-.36-5.48-1.33-8.08-2.11-1.19-.25-2.56-.11-3.82-.08-1.47.05-3.04-.37-4.32-.6-1.07-.23-2.14-.14-3.21-.25-2.41-.23-4.55-1.07-6.63-1.57-2.63-.61-5.53-1.1-8.13-2.25-1.48-.66-2.93-1.66-4.38-2.16-1.7-.59-3.82-.69-5.62-1.24-1.17-.47-2.43-.07-3.69.11-1.09.18-2.66.32-3.53-.66-.14-.17-.25-.36-.36-.54l.11-.05h.04Z"/>
  <path class="cls-3" d="M43.32,30.53c-.83-.21-1.47-.26-1.8.61-.67,1.91-.1,4.45-.29,6.55-.14,3.46-1.26,6.71-1.27,10.17-.08,3.36-.2,7.07-1.22,10.36-.63,2.13-.47,4.43-.42,6.59.05,1.93.79,4.63,1.18,6.55.43,2.16,1.01,4.33,1.81,6.4.3.69.48,1.49.93,1.98.1.09.17.11.23.12.02,0-.08,0-.13.04.98-1.58,1.5-3.55,2.1-5.44.71-2.21,1.61-4.36,2.76-6.38.96-1.88,1.21-4.08.92-6.25-.37-2.73-.75-5.87-.13-8.76.16-1.63.02-3.48.29-5.11.26-2.25-.07-4.3-.51-6.54-.32-1.86-.76-3.62-1.42-5.36-.27-.77.05-1.74.11-2.37,0-.06,0-.04.02.03,0,.03.11.18.15.19,0-.02-.22-.13-.49-.23-.45-.15-1.37-.65-1.58-1.34-.13-.33-.25-.76-.36-1-.09-.23-.67-.75-.85-.91l-.04.11h.01ZM43.81,29.04c1.11.28,2.08,1.02,2.53,2.03.08.17.15.27.23.4,0,.02.03.06,0,0-.04-.06-.05-.08-.07-.1.39.12.92.24,1.52.62.54.32.88,1.16.83,1.71,0,.64-.21,1.21-.26,1.67,0,.05,0,0-.02-.01,0-.03,0,.06.02.08.69,2.38.95,4.92,1.42,7.32.2,1.17.31,2.37.34,3.55.02,1.79-.33,3.39-.22,5.17,0,2.3-.66,4.44-.46,6.78.17,3.53.75,7.15-.74,10.58-.84,1.78-1.82,4.42-2.5,6.28-.57,1.6-1.18,3.37-2.09,4.89l-.49.79c-.58,1.02-2,1.01-2.79.23-.76-.72-1-1.69-1.45-2.54-1.03-2.03-2.07-4.37-2.44-6.62-.84-3.38-1.07-7-.84-10.47,0-2.32.63-4.65.81-6.92.34-3.32.45-6.87.9-10.25l.41-3.44c.31-2.26.82-4.39.82-6.64.02-1.74.17-4.72,2.38-5.36.82-.22,1.56-.08,2.19.13l-.04.11h0Z"/>
  <path class="cls-3" d="M39.44,32.6c.27,3.49-3.15,5.7-3.92,8.79-1.29,4.21-3.28,8.18-4.72,12.33-.88,2.38-1.47,4.86-2.65,7.11-1.96,4.51-4.04,9.31-6.68,13.66-1.83,3.02-3.67,6.01-6.21,8.51-.3.28-.79.88-1.45,1-.26.04-.55,0-.78-.12-.47-.27-.58-.57-.69-.79-.71-1.77.09-3.45.24-5.16.14-1.16.68-4.38.89-5.58.74-5,.89-10.22,2.93-14.92.74-1.8,1.41-3.55,2.27-5.28.88-1.65,1.78-3.17,2.33-4.96.21-.55.41-1.25.63-1.81.95-2.51,3.03-4.26,4.53-6.31,1.25-1.7,2.69-3.5,3.8-5.29l.42-.8c.42-.94,1.24-1.89,2.06-2.47,2.05-2.02,5.52-1.23,6.68,1.33.09.2.18.38.21.77h.12s0-.01,0-.01ZM37.88,32.75c0,.08-.07-.03-.14-.09-.24-.26-.57-.52-.87-.71-.47-.32-.81-.26-1.27-.34-.8-.04-1.06.23-1.65.72-.66.51-1.21,1.02-1.61,1.77-.99,1.66-2.36,3.05-3.48,4.61l-1.14,1.5c-1.08,1.49-2.53,2.91-3.46,4.39-1,1.56-1.25,3.41-2.02,5.09-.75,1.77-1.86,3.3-2.64,5.02-1.69,3.31-3.17,6.69-3.35,10.43-.12,3.79-.58,7.62-1.56,11.28-.09.47-.44,2.24-.53,2.73-.18,1.07-.64,2.24-.24,3.19.02.06.08.05-.11-.08-.12-.09-.36-.06-.44-.04l.44-.52c1.06-1.27,2.7-3.88,3.63-5.3,2.08-3.12,4.17-6.17,5.87-9.53,1.15-2.1,1.6-4.58,2.63-7.01.43-1.03,1.05-2.34,1.37-3.41.8-2.41,1.83-4.7,2.73-7.07.86-2.37,1.65-4.74,2.73-7.01.24-.52.95-2.07,1.17-2.59.98-2.48,3.81-4.39,3.8-7.02h.12s.02,0,.02,0Z"/>
  <path class="cls-3" d="M15.59,64.04c-1.01,1.89-2.2,3.65-3.31,5.45-.43.74-.76,1.54-1.33,2.27-.85,1.09-1.98,1.6-2.88,2.58-.6.61-1.24,1.25-2.07,1.83-2.15,1.55-5.1.91-5.73-1.86-.46-1.65-.19-3.74-.21-5.38.09-2.36.28-4.6.34-6.9,0-2.77,1.06-5.59,1.81-8.23.48-1.66.97-3.53,2.08-4.92.86-1.08,1.53-1.99,2.36-2.98,2.67-2.72,5.88-5.15,9.03-7.2,1.93-1.34,4.01-3.05,5.85-4.59l.98-.81c.93-.83,2.19-1.57,3.11-2.27,1.87-1.71,5.4-3.68,6.77-.2.17.55.18.97.2,1.37l-1.38.43c-.4-.66-.48-1.14-1.12-1.44-.1-.05-.12,0-.28.05-1.09.37-1.87.84-2.98,1.53-.97.59-1.79,1-2.59,1.64-.85.69-2.49,2.1-3.34,2.83-1.28,1.09-2.59,2.2-4.04,3.16-2.19,1.44-4.32,2.33-6.16,4.14-1.06.95-2.02,1.94-2.8,3.11-.55.9-1.32,1.79-1.92,2.52-2.53,3.13-2.91,7.47-3.15,11.36-.15,4.02-1.56,8.19-.25,12.09.19.47.29.83.73.94,1.31.25,2.26-.88,3.22-1.76l.9-.96c1.25-1.12,2.21-2.14,3.17-3.52,1.27-1.61,2.56-3.31,3.54-5.08l1.48.81h-.03Z"/>
  <path class="cls-3" d="M14.4,40.27c.03-.75.17-1.23.3-1.77.14-.51.15-1.09.44-1.52.74-.76.9-1.84,1.68-2.63.33-.35.77-.52,1.01-.96.48-.81.84-2.05,1.73-2.58.94-.45,1.65-1.2,2.33-1.95.32-.3.66-.57,1.05-.75.67-.44.81-1.9,1.72-2.33,1.03-.6,2.24.16,2.77.93.61.78.92,1.61,1.77,2.04.29.2.13.3.42.61l.29,1.42c-.62.55-1.74.31-2.26-.22-.45-.43-.63-.99-.96-1.46-.37-.54-.68-1.07-1.13-1.39-.1-.05-.2-.08-.1-.07.1,0,.16-.1.06-.05-.57.41-.68,1-1.16,1.77-.08.1-.23.3-.31.39-.53.7-1.39,1.03-2.06,1.52-.39.27-.63.68-.83,1.1-.49.83-1.17,1.25-1.69,2.1-.28.4-.53.92-.75,1.36-.41.75-1.25,1.34-1.42,2.29-.16.42-.57.72-.78,1.11-.21.37-.41.81-.42,1.04l-1.68.02h0l-.02-.02Z"/>
  <g>
    <path class="cls-2" d="M50.57,20.88c0-.6-.11-1.2-.28-1.77-.04-.15-.21-.21-.34-.24-.2-.04-.46-.02-.66.04s-.43.14-.59.3c-.1.1-.22.23-.17.38.18.58.27,1.17.28,1.77,0,.14.25.22.34.24.2.04.46.02.66-.04s.43-.14.59-.3l.11-.13c.06-.08.08-.16.06-.25h0Z"/>
    <path class="cls-2" d="M54.38,18.48c.03-.55-.02-1.09-.19-1.62-.05-.15-.21-.21-.34-.24-.2-.04-.46-.02-.66.04s-.43.14-.59.3c-.1.09-.22.23-.17.38.13.4.2.82.2,1.24v-.13.25c-.02.07,0,.13.03.18.03.07.08.11.15.14.16.08.41.09.58.06.23-.03.47-.1.67-.23l.16-.12c.08-.07.14-.15.17-.26h-.01Z"/>
    <path class="cls-2" d="M56.91,21.36c.16-.78.19-1.58.46-2.33.05-.14-.07-.26-.18-.32-.16-.08-.41-.09-.58-.06-.37.05-.86.21-1,.6-.27.75-.3,1.56-.46,2.33-.08.39.52.41.76.38.23-.03.47-.1.67-.23.13-.09.3-.2.33-.37h0Z"/>
    <path class="cls-2" d="M60.44,16.01c-.2-.44-.3-.91-.31-1.39v.13c0-.13,0-.26.02-.38.02-.15-.04-.25-.18-.32-.16-.08-.41-.09-.58-.06-.23.03-.47.1-.67.23-.12.08-.32.21-.33.37-.07.65,0,1.3.28,1.9.07.15.19.21.34.24.2.04.46.02.66-.04s.43-.14.59-.3c.09-.09.24-.24.17-.38h.01Z"/>
    <path class="cls-2" d="M55.77,13.22c0-.6-.11-1.2-.28-1.77-.04-.15-.21-.21-.34-.24-.2-.04-.46-.02-.66.04s-.43.14-.59.3c-.1.1-.22.23-.17.38.18.58.27,1.17.28,1.77,0,.14.25.22.34.24.2.04.46.02.66-.04s.43-.14.59-.3l.11-.13c.06-.08.08-.16.06-.25h0Z"/>
    <path class="cls-2" d="M51.67,13.04c0-.29-.06-.57-.06-.86v.13c0-.23.03-.47.13-.68l-.06.13s0-.03.02-.04c.07-.12.1-.25,0-.36s-.33-.15-.48-.16c-.23,0-.48.04-.69.14l-.2.1c-.11.06-.2.14-.27.24-.08.15-.15.31-.18.48s-.03.35-.03.53c0,.28.04.55.06.83,0,.14.25.22.34.24.2.04.46.02.66-.04s.43-.14.59-.3l.11-.13c.06-.08.08-.16.06-.25h0Z"/>
    <path class="cls-2" d="M49.09,14.71c-.16-.19-.31-.4-.44-.62l.06.11c-.13-.22-.23-.45-.31-.69-.05-.15-.2-.21-.34-.24-.2-.04-.46-.02-.66.04s-.43.14-.59.3c-.09.09-.23.23-.17.38.18.51.46,1,.81,1.41.1.12.33.15.48.16.22,0,.49-.05.69-.14.17-.08.38-.18.47-.34.07-.12.1-.25,0-.36h0Z"/>
    <path class="cls-2" d="M45.52,16.97l-.47-1.4c-.05-.15-.2-.21-.34-.24-.2-.04-.46-.02-.66.04s-.43.14-.59.3c-.1.09-.22.23-.17.38l.47,1.4c.05.15.2.21.34.24.2.04.46.02.66-.04s.43-.14.59-.3c.1-.09.22-.23.17-.38h0Z"/>
    <path class="cls-2" d="M46.66,23.12l-.28-.84c-.05-.15-.2-.21-.34-.24-.1-.02-.21-.03-.31-.02-.12,0-.24.02-.35.05l-.23.08c-.13.05-.25.13-.36.22-.1.09-.22.23-.17.38l.28.84c.05.15.2.21.34.24.1.02.21.03.31.02.12,0,.24-.02.35-.05l.23-.08c.13-.05.25-.13.36-.22.1-.09.22-.23.17-.38h0Z"/>
    <path class="cls-2" d="M44.15,26.2c-.07-.02-.14-.06-.2-.1l.12.08c-.08-.06-.15-.13-.2-.21l.06.11s-.05-.1-.07-.15c-.02-.07-.06-.12-.12-.15-.06-.05-.14-.08-.22-.09-.1-.02-.21-.03-.31-.02-.12,0-.24.02-.35.05l-.23.08c-.13.05-.25.13-.36.22l-.11.13c-.06.08-.08.16-.06.25.03.1.08.18.13.27.03.05.06.09.1.13.07.07.16.13.25.18.05.03.11.06.16.08.08.04.17.06.26.06.11.02.21.02.32,0,.12-.01.24-.04.35-.09.11-.03.22-.08.31-.14l.16-.12c.08-.07.14-.15.17-.26v-.13c-.03-.09-.09-.15-.18-.19h.02Z"/>
    <path class="cls-2" d="M39.49,25.28c-.23-.1-.45-.22-.66-.36l.12.08c-.2-.14-.39-.3-.56-.47-.12-.12-.32-.15-.48-.16-.12,0-.23,0-.34.04-.12.02-.24.05-.35.1l-.2.1c-.11.06-.2.14-.27.24-.07.12-.11.25,0,.36.38.39.84.7,1.33.92.18.08.39.08.58.06.12-.01.24-.04.35-.09.11-.03.22-.08.31-.14l.16-.12c.08-.07.14-.15.17-.26v-.13c-.03-.09-.09-.15-.18-.19h0l.02.02Z"/>
    <path class="cls-2" d="M42.64,20.43c-.13-.53-.42-1.03-.81-1.41-.12-.12-.32-.15-.48-.16-.22,0-.49.05-.69.14-.17.08-.38.18-.47.34-.07.11-.11.26,0,.36.18.17.34.37.46.59l-.06-.11c.13.22.22.46.29.72.04.14.22.22.34.24.2.04.46.02.66-.04s.43-.14.59-.3c.1-.1.21-.23.17-.38h0Z"/>
    <path class="cls-2" d="M37.27,20.24c-.13-.18-.26-.37-.37-.57l.06.11c-.19-.32-.35-.66-.47-1.02-.05-.15-.2-.21-.34-.24-.2-.04-.46-.02-.66.04s-.43.14-.59.3c-.09.09-.23.24-.17.38.22.6.53,1.17.91,1.69.09.12.35.15.48.16.22,0,.49-.05.69-.14.17-.08.38-.18.47-.34l.06-.13c.02-.09,0-.17-.06-.23h-.01Z"/>
    <path class="cls-2" d="M33.82,22.95c-.13-.18-.26-.37-.37-.57l.06.11c-.19-.32-.35-.66-.47-1.02-.05-.15-.2-.21-.34-.24-.2-.04-.46-.02-.66.04s-.43.14-.59.3c-.09.09-.23.24-.17.38.22.6.53,1.17.91,1.69.09.12.35.15.48.16.22,0,.49-.05.69-.14.17-.08.38-.18.47-.34l.06-.13c.02-.09,0-.17-.06-.23h-.01Z"/>
    <path class="cls-2" d="M35.39,26.97c-.26-.14-.53-.27-.78-.44l.12.08c-.17-.12-.33-.26-.43-.43l.06.11c-.04-.08-.08-.16-.09-.24-.03-.14-.22-.22-.34-.24-.2-.04-.46-.02-.66.04s-.43.14-.59.3c-.1.1-.21.22-.17.38.04.18.14.35.26.49.13.15.29.26.45.38.25.17.52.3.78.44.08.04.17.06.26.06.11.02.21.02.32,0,.22-.03.48-.1.67-.23l.16-.12c.08-.07.14-.15.17-.26v-.13c-.03-.09-.09-.15-.18-.19h0Z"/>
    <path class="cls-2" d="M31.19,25.21l-.56-1.68c-.05-.15-.2-.21-.34-.24-.2-.04-.46-.02-.66.04s-.43.14-.59.3c-.1.09-.22.23-.17.38l.56,1.68c.05.15.2.21.34.24.2.04.46.02.66-.04s.43-.14.59-.3c.1-.09.22-.23.17-.38h0Z"/>
    <path class="cls-2" d="M59.02,9.95c-.03-.59,0-1.23-.28-1.77-.02-.07-.06-.12-.12-.15-.06-.05-.14-.08-.22-.09-.2-.04-.46-.02-.66.04s-.43.14-.59.3c-.08.08-.24.25-.17.38.29.54.26,1.18.28,1.77,0,.14.25.22.34.24.2.04.46.02.66-.04s.43-.14.59-.3l.11-.13c.06-.08.08-.16.06-.25h0Z"/>
    <path class="cls-2" d="M63.32,12.55l-.66-1.96c-.05-.15-.2-.21-.34-.24-.2-.04-.46-.02-.66.04s-.43.14-.59.3c-.1.09-.22.23-.17.38l.66,1.96c.05.15.2.21.34.24.2.04.46.02.66-.04s.43-.14.59-.3c.1-.09.22-.23.17-.38h0Z"/>
    <path class="cls-2" d="M65.04,17.18l.56-1.12c.05-.06.07-.12.06-.19.01-.07-.01-.12-.06-.17-.06-.06-.12-.09-.2-.11-.09-.03-.18-.05-.28-.05-.23,0-.48.04-.69.14l-.2.1c-.11.06-.2.14-.27.24l-.56,1.12c-.05.06-.07.12-.06.19,0,.07,0,.12.06.17.06.06.12.09.2.11.09.03.18.05.28.05.23,0,.48-.04.69-.14l.2-.1c.11-.06.2-.14.27-.24h0Z"/>
    <path class="cls-2" d="M61.85,21.26c.2-.77.36-1.54.46-2.33.05-.39-.5-.42-.76-.38-.23.03-.47.1-.67.23-.13.08-.31.21-.33.37-.1.79-.26,1.56-.46,2.33-.04.14.06.26.18.32.16.08.41.09.58.06.23-.03.47-.1.67-.23.14-.09.29-.2.33-.37h0Z"/>
    <path class="cls-2" d="M44.67,11.66l-.47-1.4c-.05-.15-.2-.21-.34-.24-.2-.04-.46-.02-.66.04s-.43.14-.59.3c-.1.09-.22.23-.17.38l.47,1.4c.05.15.2.21.34.24.2.04.46.02.66-.04s.43-.14.59-.3c.1-.09.22-.23.17-.38h0Z"/>
    <path class="cls-2" d="M41.23,14.37l-.38-1.12c-.05-.15-.2-.21-.34-.24-.1-.02-.21-.03-.31-.02-.12,0-.24.02-.35.05-.21.06-.43.14-.59.3-.1.09-.22.23-.17.38l.38,1.12c.05.15.2.21.34.24.1.02.21.03.31.02.12,0,.24-.02.35-.05.21-.06.43-.14.59-.3.1-.09.22-.23.17-.38h0Z"/>
    <path class="cls-2" d="M36.66,14.66c-.2-.43-.47-.82-.71-1.23l.06.11c-.04-.06-.07-.12-.1-.19-.02-.07-.06-.12-.12-.15-.06-.05-.14-.08-.22-.09-.2-.04-.46-.02-.66.04s-.43.14-.59.3l-.11.13c-.06.08-.08.16-.06.25.19.35.4.67.6,1.01l-.06-.11c.08.13.15.26.21.4.02.07.06.12.12.15.06.05.14.08.22.09.2.04.46.02.66-.04s.43-.14.59-.3l.11-.13c.06-.08.08-.16.06-.25h0Z"/>
    <path class="cls-2" d="M33.4,17.13c.03-.55-.02-1.09-.19-1.62-.05-.15-.21-.21-.34-.24-.2-.04-.46-.02-.66.04s-.43.14-.59.3c-.1.09-.22.23-.17.38.13.4.2.82.2,1.24v-.13.25c-.02.07-.01.13.03.18.03.07.08.11.15.14.16.08.41.09.58.06.23-.03.47-.1.67-.23l.16-.12c.08-.07.14-.15.17-.26h0Z"/>
    <path class="cls-2" d="M30.15,19.34l-.56-1.68c-.05-.15-.2-.21-.34-.24-.2-.04-.46-.02-.66.04s-.43.14-.59.3c-.1.09-.22.23-.17.38l.56,1.68c.05.15.2.21.34.24.2.04.46.02.66-.04s.43-.14.59-.3c.1-.09.22-.23.17-.38h0Z"/>
    <path class="cls-2" d="M48.86,10.38c.02-.55.04-1.1,0-1.65l-.06-.11c-.06-.06-.12-.09-.2-.11-.16-.05-.34-.06-.5-.04l-.18.03c-.23.04-.47.1-.67.23-.11.07-.31.22-.33.37-.05.38.51.42.76.38l.18-.03-.76-.25c.02.24.03.48.03.72v-.13c0,.27,0,.54-.02.81-.02.07,0,.13.03.18.03.07.08.11.15.14.16.08.41.09.58.06.23-.03.47-.1.67-.23l.16-.12c.08-.07.14-.15.17-.26h0Z"/>
    <path class="cls-2" d="M53.52,7.45v-.52.13c0-.49.02-.98,0-1.47,0-.14-.25-.22-.34-.24-.2-.04-.46-.02-.66.04s-.43.14-.59.3l-.11.13c-.06.08-.08.16-.06.25v.36-.13c0,.54-.02,1.08,0,1.63,0,.14.25.22.34.24.2.04.46.02.66-.04s.43-.14.59-.3l.11-.13c.06-.08.08-.16.06-.25h0Z"/>
    <path class="cls-2" d="M56.87,6.45c.05-.32.13-.63.15-.96.03-.35.02-.72-.16-1.03-.02-.07-.06-.12-.12-.15-.06-.05-.14-.08-.22-.09-.2-.04-.46-.02-.66.04s-.43.14-.59.3c-.08.08-.25.25-.17.38.12.22.16.46.16.71v-.13c0,.39-.1.77-.16,1.15s.51.42.76.38c.23-.03.47-.1.67-.23.13-.08.31-.21.33-.37h0Z"/>
    <path class="cls-2" d="M49.79,5.72c.03-.43,0-.88.17-1.29l-.06.13v-.02c.06-.06.08-.12.07-.19,0-.07,0-.12-.06-.17-.1-.12-.33-.15-.48-.16-.23,0-.48.04-.69.14l-.2.1c-.11.06-.2.14-.27.24-.07.14-.13.28-.17.43-.02.11-.04.22-.05.33-.02.22-.02.45-.03.68-.02.07,0,.13.03.18.03.07.08.11.15.14.16.08.41.09.58.06.23-.03.47-.1.67-.23l.16-.12c.08-.07.14-.15.17-.26h.01Z"/>
    <path class="cls-2" d="M45.87,5.97l-.47-1.4c-.05-.15-.2-.21-.34-.24-.2-.04-.46-.02-.66.04s-.43.14-.59.3c-.1.09-.22.23-.17.38l.47,1.4c.05.15.2.21.34.24.2.04.46.02.66-.04s.43-.14.59-.3c.1-.09.22-.23.17-.38h0Z"/>
    <path class="cls-2" d="M41.9,7.18c-.18-.2-.36-.4-.5-.64l.06.11c-.12-.21-.2-.43-.25-.67-.03-.14-.22-.22-.34-.24-.2-.04-.46-.02-.66.04s-.43.14-.59.3c-.1.1-.21.22-.17.38.12.55.43,1,.81,1.41.11.12.33.15.48.16.22,0,.49-.05.69-.14.17-.08.38-.18.47-.34.07-.12.1-.25,0-.36h0Z"/>
    <path class="cls-2" d="M39.85,10.35c-.19-.27-.38-.53-.55-.81l.06.11c-.14-.24-.25-.49-.3-.77-.02-.14-.23-.22-.34-.24-.2-.04-.46-.02-.66.04s-.43.14-.59.3c-.11.1-.2.22-.17.38.06.34.22.64.39.94.16.26.34.51.51.76.08.12.35.15.48.16.22,0,.49-.05.69-.14.17-.08.38-.18.47-.34l.06-.13c.02-.09,0-.17-.06-.23h0v-.03Z"/>
    <path class="cls-2" d="M35.47,10.27c-.16-.19-.31-.39-.43-.6l.06.11c-.18-.31-.3-.64-.41-.98-.05-.15-.21-.21-.34-.24-.2-.04-.46-.02-.66.04s-.43.14-.59.3c-.1.09-.22.23-.17.38.09.29.2.57.34.84.16.3.35.59.57.85.1.12.34.15.48.16.22,0,.49-.05.69-.14.17-.08.38-.18.47-.34.07-.12.1-.24,0-.36h0v-.02Z"/>
    <path class="cls-2" d="M32.59,12.79c-.17-.25-.35-.5-.5-.76l.06.11c-.14-.24-.25-.49-.33-.75l-1.77.47.08.21c.05.15.2.21.34.24.2.04.46.02.66-.04s.43-.14.59-.3c.09-.09.23-.24.17-.38l-.08-.21c-.05-.15-.2-.21-.34-.24-.2-.04-.46-.02-.66.04s-.43.14-.59.3c-.1.1-.22.23-.17.38.17.6.54,1.11.89,1.62.08.12.35.15.48.16.22,0,.49-.05.69-.14.17-.08.38-.18.47-.34l.06-.13c.02-.09,0-.17-.06-.23h0Z"/>
    <path class="cls-2" d="M49.18,26.94c-.03-.59,0-1.23-.28-1.77-.02-.07-.06-.12-.12-.15-.06-.05-.14-.08-.22-.09-.2-.04-.46-.02-.66.04s-.43.14-.59.3c-.08.08-.24.25-.17.38.29.54.26,1.18.28,1.77,0,.14.25.22.34.24.2.04.46.02.66-.04s.43-.14.59-.3l.11-.13c.06-.08.08-.16.06-.25h0Z"/>
    <path class="cls-2" d="M53.65,24.63c.04-.45.09-.9.09-1.35l-.06-.11c-.06-.06-.12-.09-.2-.11-.17-.05-.33-.05-.5-.04h-.18c-.12.03-.24.06-.35.1-.11.03-.22.08-.31.14-.09.05-.16.11-.22.18-.06.05-.1.12-.12.19v.13c.03.09.09.15.18.19.18.08.39.08.58.06h.18c-.25-.1-.51-.18-.76-.27v.07-.13c0,.39-.06.77-.09,1.16-.02.07,0,.13.03.18.03.07.08.11.15.14.08.04.17.06.26.06.11.02.21.02.32,0,.23-.03.47-.1.67-.23l.16-.12c.08-.07.14-.15.17-.26h0v.02Z"/>
  </g>
</svg>